<svg width="869" height="983" viewBox="0 0 869 983" fill="none" xmlns="http://www.w3.org/2000/svg">
<g clip-path="url(#clip0_1261_27655)">
<rect width="868.19" height="982.5" fill="#EBEAED"/>
<path d="M172.939 0.25V16.25H156.939V0.25H172.939ZM171.939 15.25V1.25H157.939V15.25H171.939Z" fill="black"/>
<path d="M171.939 1.25H157.939V15.25H171.939V1.25Z" fill="#FAF9FC"/>
<path d="M867.939 821.25V851.25H861.939V850.75H867.439V821.75H838.939V821.25H867.939Z" fill="black"/>
<path d="M867.94 495.25V778.25H838.94V777.75H867.44V495.75H652.44C652.44 495.75 652.38 495.58 652.25 495.25H867.94Z" fill="black"/>
<path d="M867.439 821.75V850.75H861.939V850.25H866.939V822.25H838.939V821.75H867.439Z" fill="black"/>
<path d="M867.439 495.75V777.75H838.939V777.25H866.939V496.25H283.939V777.25H328.939V777.75H283.439V495.75H619.439H624.439H652.439H867.439Z" fill="black"/>
<path d="M866.939 822.25V850.25H861.939H833.939H764.939H736.939H654.939H626.939H548.939H520.939H445.939H417.939H352.939H324.939H308.939V822.25H328.939H347.939H486.939H505.939H653.939H672.939H819.939H838.939H866.939Z" fill="#FAF9FC"/>
<path d="M866.939 496.25V777.25H838.939H819.939H672.939H653.939H505.939H486.939H347.939H328.939H283.939V496.25H866.939Z" fill="#F488B4"/>
<path d="M861.939 851.25V976.25H833.939V851.25H834.439V975.75H861.439V851.25H861.939Z" fill="black"/>
<path d="M861.939 850.75H861.439V851.25H861.939V850.75Z" fill="black"/>
<path d="M861.939 850.25V850.75H861.439H834.439H833.939V850.25H861.939Z" fill="black"/>
<path d="M861.439 851.25V975.75H834.439V851.25H834.939V975.25H860.939V851.25H861.439Z" fill="black"/>
<path d="M861.439 850.75V851.25H860.939H834.939H834.439V850.75H861.439Z" fill="black"/>
<path d="M860.939 851.25H834.939V975.25H860.939V851.25Z" fill="#FAF9FC"/>
<path d="M838.939 821.75V822.25H819.939V821.75H820.439H838.439H838.939Z" fill="black"/>
<path d="M838.939 821.25H838.439V821.75H838.939V821.25Z" fill="black"/>
<path d="M838.939 778.25H838.439V821.25H838.939V778.25Z" fill="#F488B4"/>
<path d="M838.939 777.75H838.439V778.25H838.939V777.75Z" fill="black"/>
<path d="M838.939 777.25V777.75H838.439H820.439H819.939V777.25H838.939Z" fill="black"/>
<path d="M838.439 821.25V821.75H820.439V821.25H820.939H837.939H838.439Z" fill="black"/>
<path d="M838.439 778.25H837.939V821.25H838.439V778.25Z" fill="black"/>
<path d="M838.439 777.75V778.25H837.939H820.939H820.439V777.75H838.439Z" fill="black"/>
<path d="M837.939 778.25H820.939V821.25H837.939V778.25Z" fill="#FAF9FC"/>
<path d="M834.439 850.75H833.939V851.25H834.439V850.75Z" fill="black"/>
<path d="M833.939 850.75H764.939V851.25H833.939V850.75Z" fill="black"/>
<path d="M833.939 850.25H764.939V850.75H833.939V850.25Z" fill="black"/>
<path d="M820.939 778.25H820.439V821.25H820.939V778.25Z" fill="black"/>
<path d="M820.439 821.25H819.939V821.75H820.439V821.25Z" fill="black"/>
<path d="M820.439 778.25H819.939V821.25H820.439V778.25Z" fill="black"/>
<path d="M820.439 777.75H819.939V778.25H820.439V777.75Z" fill="black"/>
<path d="M819.939 821.75H672.939V822.25H819.939V821.75Z" fill="black"/>
<path d="M819.939 821.25H672.939V821.75H819.939V821.25Z" fill="black"/>
<path d="M819.939 777.75H672.939V778.25H819.939V777.75Z" fill="black"/>
<path d="M819.939 777.25H672.939V777.75H819.939V777.25Z" fill="black"/>
<path d="M764.939 851.25V976.25H736.939V851.25H737.439V975.75H764.439V851.25H764.939Z" fill="black"/>
<path d="M764.939 850.75H764.439V851.25H764.939V850.75Z" fill="black"/>
<path d="M764.939 850.25V850.75H764.439H737.439H736.939V850.25H764.939Z" fill="black"/>
<path d="M764.439 851.25V975.75H737.439V851.25H737.939V975.25H763.939V851.25H764.439Z" fill="black"/>
<path d="M764.439 850.75V851.25H763.939H737.939H737.439V850.75H764.439Z" fill="black"/>
<path d="M763.939 851.25H737.939V975.25H763.939V851.25Z" fill="#FAF9FC"/>
<path d="M737.439 850.75H736.939V851.25H737.439V850.75Z" fill="black"/>
<path d="M736.939 850.75H654.939V851.25H736.939V850.75Z" fill="black"/>
<path d="M736.939 850.25H654.939V850.75H736.939V850.25Z" fill="black"/>
<path d="M672.939 821.75V822.25H653.939V821.75H654.439H672.439H672.939Z" fill="black"/>
<path d="M672.939 821.25H672.439V821.75H672.939V821.25Z" fill="black"/>
<path d="M672.939 778.25H672.439V821.25H672.939V778.25Z" fill="black"/>
<path d="M672.939 777.75H672.439V778.25H672.939V777.75Z" fill="black"/>
<path d="M672.939 777.25V777.75H672.439H654.439H653.939V777.25H672.939Z" fill="black"/>
<path d="M672.439 821.25V821.75H654.439V821.25H654.939H671.939H672.439Z" fill="black"/>
<path d="M672.439 778.25H671.939V821.25H672.439V778.25Z" fill="black"/>
<path d="M672.439 777.75V778.25H671.939H654.939H654.439V777.75H672.439Z" fill="black"/>
<path d="M671.939 778.25H654.939V821.25H671.939V778.25Z" fill="#FAF9FC"/>
<path d="M654.939 851.25V976.25H626.939V851.25H627.439V975.75H654.439V851.25H654.939Z" fill="black"/>
<path d="M654.939 850.75H654.439V851.25H654.939V850.75Z" fill="black"/>
<path d="M654.939 850.25V850.75H654.439H627.439H626.939V850.25H654.939Z" fill="black"/>
<path d="M654.939 778.25H654.439V821.25H654.939V778.25Z" fill="black"/>
<path d="M654.439 851.25V975.75H627.439V851.25H627.939V975.25H653.939V851.25H654.439Z" fill="black"/>
<path d="M654.439 850.75V851.25H653.939H627.939H627.439V850.75H654.439Z" fill="black"/>
<path d="M654.439 821.25H653.939V821.75H654.439V821.25Z" fill="black"/>
<path d="M654.439 778.25H653.939V821.25H654.439V778.25Z" fill="black"/>
<path d="M654.439 777.75H653.939V778.25H654.439V777.75Z" fill="black"/>
<path d="M653.939 851.25H627.939V975.25H653.939V851.25Z" fill="#FAF9FC"/>
<path d="M653.939 821.75H505.939V822.25H653.939V821.75Z" fill="black"/>
<path d="M653.939 821.25H505.939V821.75H653.939V821.25Z" fill="black"/>
<path d="M653.939 777.75H505.939V778.25H653.939V777.75Z" fill="black"/>
<path d="M653.939 777.25H505.939V777.75H653.939V777.25Z" fill="black"/>
<path d="M652.439 495.75H624.439C624.439 495.75 624.499 495.58 624.629 495.25H649.349C649.409 495.43 649.449 495.52 649.449 495.52L652.439 495.75V495.75Z" fill="black"/>
<path d="M652.44 495.75L649.45 495.52C649.45 495.52 649.41 495.43 649.35 495.25H652.25C652.38 495.58 652.44 495.75 652.44 495.75Z" fill="black"/>
<path d="M652.25 495.25H649.349C648.459 492.94 642.149 476.49 638.229 465.94C638.799 465.05 639.37 464.23 639.93 463.48C639.72 463.45 639.499 463.42 639.289 463.4C639.659 463.17 639.93 462.77 639.96 462.21C639.96 462.16 639.96 462.12 639.96 462.07C640 462.15 640.04 462.23 640.07 462.32C643.7 472.21 650.99 491.87 652.24 495.25H652.25Z" fill="black"/>
<path d="M649.19 189.71C649.24 209.75 649.06 229.78 648.69 249.82C648.03 285.18 646.77 320.53 645.21 355.86C644.07 381.82 642.77 407.77 641.44 433.72C641.4 433.06 640.7 421.89 639.8 406.83V406.78C639.88 405.25 639.95 403.72 640.03 402.19C641.78 366.86 643.38 331.52 644.51 296.17C645.62 261.27 646.27 226.36 646.19 191.44C647.06 190.56 647.76 189.52 648.23 188.36H648.24C648.77 188.54 649.19 188.99 649.19 189.71V189.71Z" fill="black"/>
<path d="M648.939 184.75C648.939 186.03 648.689 187.24 648.239 188.36H648.229C647.879 188.24 647.479 188.24 647.129 188.36C647.649 187.26 647.939 186.03 647.939 184.74C647.939 180.05 644.129 176.24 639.439 176.24C634.749 176.24 630.939 180.05 630.939 184.74V180.48C631.249 179.87 631.619 179.3 632.039 178.78C632.069 178.8 632.109 178.81 632.139 178.82C633.119 179.19 633.699 178.17 633.439 177.38C635.069 176.04 637.169 175.24 639.439 175.24C644.679 175.24 648.939 179.5 648.939 184.74V184.75Z" fill="black"/>
<path d="M647.129 188.37C647.479 188.24 647.879 188.24 648.229 188.37C647.759 189.53 647.059 190.57 646.189 191.45V189.92C646.559 189.45 646.869 188.93 647.129 188.38V188.37Z" fill="black"/>
<path d="M647.939 184.75C647.939 186.04 647.649 187.27 647.129 188.37C646.609 188.55 646.189 189.01 646.189 189.73V189.91C644.639 191.94 642.189 193.25 639.439 193.25C637.209 193.25 635.169 192.39 633.649 190.97C633.609 190.23 633.109 189.81 632.529 189.7C631.529 188.31 630.939 186.59 630.939 184.75C630.939 180.06 634.749 176.25 639.439 176.25C644.129 176.25 647.939 180.06 647.939 184.75V184.75Z" fill="#FFEA28"/>
<path d="M647.129 188.37C646.869 188.92 646.559 189.44 646.189 189.91V189.73C646.189 189.01 646.609 188.55 647.129 188.37V188.37Z" fill="black"/>
<path d="M646.19 189.91V191.44C644.46 193.17 642.07 194.25 639.44 194.25C637.26 194.25 635.25 193.52 633.64 192.28C633.65 191.89 633.65 191.5 633.66 191.11C633.66 191.06 633.66 191.01 633.65 190.97C635.17 192.39 637.21 193.25 639.44 193.25C642.19 193.25 644.64 191.94 646.19 189.91V189.91Z" fill="black"/>
<path d="M638.67 429.06C638.67 429.06 638.67 429.06 638.67 429.05C639.06 421.65 639.43 414.24 639.8 406.83C640.7 421.89 641.4 433.06 641.44 433.72C641.44 433.73 641.43 433.74 641.44 433.75C640.95 443.19 640.46 452.63 639.97 462.07C639.41 461.03 638.08 460.99 637.34 461.96C637.22 462.12 637.1 462.28 636.97 462.45C636.97 462.38 636.97 462.31 636.97 462.23C637.54 451.18 638.12 440.12 638.68 429.06H638.67Z" fill="black"/>
<path d="M639.969 462.07C639.969 462.07 639.969 462.16 639.969 462.21C639.939 462.77 639.669 463.17 639.299 463.4C638.599 463.3 637.909 463.21 637.219 463.12C637.079 462.94 636.999 462.72 636.979 462.45C637.109 462.28 637.229 462.12 637.349 461.96C638.089 460.99 639.419 461.03 639.979 462.07H639.969Z" fill="black"/>
<path d="M639.289 463.4C639.499 463.42 639.719 463.45 639.929 463.48C639.369 464.23 638.799 465.05 638.229 465.94C637.859 464.94 637.509 463.99 637.189 463.12H637.209C637.649 463.74 638.629 463.83 639.289 463.4V463.4Z" fill="black"/>
<path d="M639.8 406.78V406.83C639.43 414.24 639.06 421.65 638.67 429.05C637.96 419.29 635.98 391.78 635.22 379.31C633.31 348.16 631.89 316.99 631.1 285.79C630.33 255.29 630.16 224.76 630.62 194.25H630.94V190.26C631.06 190.08 631.23 189.94 631.42 189.85C632.02 190.78 632.77 191.6 633.64 192.28C633.37 209.74 633.29 227.21 633.42 244.68C633.66 275.88 634.54 307.07 635.99 338.24C636.84 356.45 638.53 385.5 639.8 406.78Z" fill="black"/>
<path d="M637.21 463.12C637.9 463.21 638.59 463.3 639.29 463.4C638.63 463.83 637.65 463.74 637.21 463.12Z" fill="black"/>
<path d="M637.19 463.12C637.51 463.99 637.86 464.94 638.23 465.94C632.08 475.5 625.77 492.16 624.63 495.25H619.67C621.17 491.85 630.2 471.73 636.97 462.45C636.99 462.72 637.07 462.94 637.21 463.12H637.19V463.12Z" fill="black"/>
<path d="M633.65 190.97C633.65 190.97 633.66 191.06 633.66 191.11C633.65 191.5 633.65 191.89 633.64 192.28C632.77 191.6 632.02 190.78 631.42 189.85C631.76 189.67 632.16 189.62 632.53 189.7C632.86 190.16 633.24 190.58 633.65 190.97V190.97Z" fill="black"/>
<path d="M633.649 190.97C633.239 190.58 632.859 190.16 632.529 189.7C633.109 189.81 633.609 190.23 633.649 190.97Z" fill="black"/>
<path d="M633.439 177.39C633.699 178.18 633.119 179.2 632.139 178.83C632.109 178.83 632.069 178.81 632.039 178.79C632.459 178.28 632.929 177.81 633.439 177.39Z" fill="black"/>
<path d="M633.44 177.39C632.93 177.81 632.46 178.28 632.04 178.79C631.05 178.44 630.08 178.07 629.09 177.7C621.12 174.72 613.15 171.74 605.19 168.75C592.09 163.85 579 158.93 565.9 154.02C549 147.68 532.11 141.34 515.21 135C495.82 127.72 476.44 120.45 457.05 113.17C436.51 105.46 415.96 97.75 395.42 90.03C374.95 82.35 354.49 74.67 334.03 66.99C315.13 59.9 296.23 52.8 277.34 45.71C261.24 39.67 245.15 33.63 229.06 27.6C217.1 23.11 205.13 18.62 193.17 14.14C187.34 11.95 181.51 9.77001 175.67 7.60001C174.99 7.35001 174.31 7.09001 173.63 6.84001C172.28 6.34001 172.87 4.16001 174.23 4.67001C175.24 5.05001 176.26 5.43001 177.28 5.81001C185.25 8.78001 193.21 11.77 201.18 14.75C214.28 19.66 227.37 24.57 240.46 29.48C257.36 35.82 274.26 42.16 291.16 48.51C310.55 55.78 329.93 63.06 349.31 70.33C369.86 78.04 390.41 85.76 410.95 93.47C431.41 101.15 451.87 108.83 472.34 116.51C491.24 123.61 510.13 130.7 529.03 137.79C545.12 143.83 561.22 149.87 577.31 155.91C589.27 160.39 601.23 164.88 613.2 169.36C619.71 171.8 626.22 174.24 632.74 176.67C633.12 176.81 633.34 177.09 633.44 177.39V177.39Z" fill="black"/>
<path d="M632.529 189.7C632.159 189.62 631.759 189.67 631.419 189.85C631.249 189.58 631.089 189.3 630.939 189.01V184.75C630.939 186.59 631.529 188.31 632.529 189.7Z" fill="black"/>
<path d="M630.939 180.48C630.299 181.77 629.939 183.22 629.939 184.75V181.2C522.199 170.84 421.299 162.22 329.359 155.54L329.379 155.22C329.849 155.22 330.299 154.98 330.609 154.62C422.369 161.3 523.039 169.9 630.489 180.25L630.939 180.3V180.48V180.48Z" fill="black"/>
<path d="M630.939 190.26V194.25H630.619C630.629 193.2 630.639 192.16 630.659 191.11C630.669 190.76 630.769 190.48 630.939 190.26V190.26Z" fill="black"/>
<path d="M630.939 189.01V190.26C630.769 190.48 630.669 190.76 630.659 191.11C630.639 192.16 630.629 193.2 630.619 194.25H630.439L223.939 193.6V193.25H123.939V193.45L42.4395 193.32V193.25H4.43945H0.939453V176.02C1.22945 176.24 1.57945 176.35 1.93945 176.3V192.25L629.939 193.25V184.75C629.939 186.28 630.299 187.73 630.939 189.01V189.01Z" fill="black"/>
<path d="M630.939 184.75V189.01C630.299 187.73 629.939 186.28 629.939 184.75C629.939 183.22 630.299 181.77 630.939 180.49V184.75Z" fill="black"/>
<path d="M629.939 184.75V193.25L1.93945 192.25V176.3C2.22945 176.28 2.51945 176.13 2.78945 175.85C2.82945 175.81 2.86945 175.76 2.90945 175.72C10.8895 173.79 19.0295 171.94 27.1095 170.23C80.1495 158.95 134.549 152.32 188.799 150.52C235.199 148.98 269.749 151.36 292.609 152.94H292.719C304.769 153.77 316.979 154.63 329.359 155.54C421.299 162.22 522.199 170.84 629.939 181.2V184.75Z" fill="#FFEA28"/>
<path d="M627.439 850.75H626.939V851.25H627.439V850.75Z" fill="black"/>
<path d="M626.939 850.75H548.939V851.25H626.939V850.75Z" fill="black"/>
<path d="M626.939 850.25H548.939V850.75H626.939V850.25Z" fill="black"/>
<path d="M619.669 495.25H624.629C624.499 495.58 624.439 495.75 624.439 495.75H619.439C619.439 495.75 619.519 495.58 619.669 495.25Z" fill="black"/>
<path d="M282.939 495.25H619.669C619.519 495.58 619.439 495.75 619.439 495.75H283.439V777.75H328.939V778.25H282.939V495.25V495.25Z" fill="black"/>
<path d="M548.939 851.25V976.25H520.939V851.25H521.439V975.75H548.439V851.25H548.939Z" fill="black"/>
<path d="M548.939 850.75H548.439V851.25H548.939V850.75Z" fill="black"/>
<path d="M548.939 850.25V850.75H548.439H521.439H520.939V850.25H548.939Z" fill="black"/>
<path d="M548.439 851.25V975.75H521.439V851.25H521.939V975.25H547.939V851.25H548.439Z" fill="black"/>
<path d="M548.439 850.75V851.25H547.939H521.939H521.439V850.75H548.439Z" fill="black"/>
<path d="M547.939 851.25H521.939V975.25H547.939V851.25Z" fill="#FAF9FC"/>
<path d="M521.439 850.75H520.939V851.25H521.439V850.75Z" fill="black"/>
<path d="M520.939 850.75H445.939V851.25H520.939V850.75Z" fill="black"/>
<path d="M520.939 850.25H445.939V850.75H520.939V850.25Z" fill="black"/>
<path d="M505.939 821.75V822.25H486.939V821.75H487.439H505.439H505.939Z" fill="black"/>
<path d="M505.939 821.25H505.439V821.75H505.939V821.25Z" fill="black"/>
<path d="M505.939 778.25H505.439V821.25H505.939V778.25Z" fill="black"/>
<path d="M505.939 777.75H505.439V778.25H505.939V777.75Z" fill="black"/>
<path d="M505.939 777.25V777.75H505.439H487.439H486.939V777.25H505.939Z" fill="black"/>
<path d="M505.439 821.25V821.75H487.439V821.25H487.939H504.939H505.439Z" fill="black"/>
<path d="M505.439 778.25H504.939V821.25H505.439V778.25Z" fill="black"/>
<path d="M505.439 777.75V778.25H504.939H487.939H487.439V777.75H505.439Z" fill="black"/>
<path d="M504.939 778.25H487.939V821.25H504.939V778.25Z" fill="#FAF9FC"/>
<path d="M487.939 778.25H487.439V821.25H487.939V778.25Z" fill="black"/>
<path d="M487.439 821.25H486.939V821.75H487.439V821.25Z" fill="black"/>
<path d="M487.439 778.25H486.939V821.25H487.439V778.25Z" fill="black"/>
<path d="M487.439 777.75H486.939V778.25H487.439V777.75Z" fill="black"/>
<path d="M486.939 821.75H347.939V822.25H486.939V821.75Z" fill="#7A445A"/>
<path d="M486.939 821.25H347.939V821.75H486.939V821.25Z" fill="black"/>
<path d="M486.939 777.75H347.939V778.25H486.939V777.75Z" fill="black"/>
<path d="M486.939 777.25H347.939V777.75H486.939V777.25Z" fill="black"/>
<path d="M445.939 851.25V976.25H417.939V851.25H418.439V975.75H445.439V851.25H445.939Z" fill="black"/>
<path d="M445.939 850.75H445.439V851.25H445.939V850.75Z" fill="black"/>
<path d="M445.939 850.25V850.75H445.439H418.439H417.939V850.25H445.939Z" fill="black"/>
<path d="M445.439 851.25V975.75H418.439V851.25H418.939V975.25H444.939V851.25H445.439Z" fill="black"/>
<path d="M445.439 850.75V851.25H444.939H418.939H418.439V850.75H445.439Z" fill="black"/>
<path d="M444.939 851.25H418.939V975.25H444.939V851.25Z" fill="#FAF9FC"/>
<path d="M418.439 850.75H417.939V851.25H418.439V850.75Z" fill="black"/>
<path d="M417.939 850.75H352.939V851.25H417.939V850.75Z" fill="black"/>
<path d="M417.939 850.25H352.939V850.75H417.939V850.25Z" fill="black"/>
<path d="M352.939 851.25V976.25H324.939V851.25H325.439V975.75H352.439V851.25H352.939Z" fill="black"/>
<path d="M352.939 850.75H352.439V851.25H352.939V850.75Z" fill="black"/>
<path d="M352.939 850.25V850.75H352.439H325.439H324.939V850.25H352.939Z" fill="black"/>
<path d="M352.439 851.25V975.75H325.439V851.25H325.939V975.25H351.939V851.25H352.439Z" fill="black"/>
<path d="M352.439 850.75V851.25H351.939H325.939H325.439V850.75H352.439Z" fill="black"/>
<path d="M351.939 851.25H325.939V975.25H351.939V851.25Z" fill="#FAF9FC"/>
<path d="M347.939 821.75V822.25H328.939V821.75H329.439H347.439H347.939Z" fill="black"/>
<path d="M347.939 821.25H347.439V821.75H347.939V821.25Z" fill="black"/>
<path d="M347.939 778.25H347.439V821.25H347.939V778.25Z" fill="black"/>
<path d="M347.939 777.75H347.439V778.25H347.939V777.75Z" fill="black"/>
<path d="M347.939 777.25V777.75H347.439H329.439H328.939V777.25H347.939Z" fill="black"/>
<path d="M347.439 821.25V821.75H329.439V821.25H329.939H346.939H347.439Z" fill="black"/>
<path d="M347.439 778.25H346.939V821.25H347.439V778.25Z" fill="black"/>
<path d="M347.439 777.75V778.25H346.939H329.939H329.439V777.75H347.439Z" fill="black"/>
<path d="M346.939 778.25H329.939V821.25H346.939V778.25Z" fill="#FAF9FC"/>
<path d="M330.499 152.69C331.159 153.3 331.049 154.09 330.609 154.62C329.729 154.56 328.839 154.49 327.959 154.43C316.709 144.05 305.469 133.67 294.219 123.3C274.139 104.77 254.059 86.2499 233.979 67.7199C213.779 49.0899 193.579 30.4499 173.379 11.8099C172.119 10.6399 173.649 8.83986 175.009 9.37986C175.179 9.43986 175.339 9.54986 175.499 9.68986C186.889 20.1899 198.269 30.6999 209.659 41.1999C229.739 59.7299 249.819 78.2499 269.899 96.7799C290.099 115.41 310.299 134.05 330.499 152.69V152.69Z" fill="black"/>
<path d="M327.96 154.43C328.84 154.49 329.73 154.56 330.61 154.62C330.3 154.98 329.85 155.22 329.38 155.22C329.04 155.22 328.69 155.1 328.38 154.81C328.24 154.68 328.1 154.55 327.96 154.43V154.43Z" fill="black"/>
<path d="M329.939 778.25H329.439V821.25H329.939V778.25Z" fill="black"/>
<path d="M329.439 821.25H328.939V821.75H329.439V821.25Z" fill="black"/>
<path d="M329.439 778.25H328.939V821.25H329.439V778.25Z" fill="black"/>
<path d="M329.439 777.75H328.939V778.25H329.439V777.75Z" fill="black"/>
<path d="M329.379 155.22L329.359 155.54C316.979 154.63 304.769 153.77 292.719 152.94H292.609C269.749 151.36 235.199 148.98 188.799 150.52C134.549 152.32 80.1492 158.95 27.1092 170.23C19.0292 171.94 10.8892 173.79 2.90918 175.72C3.32918 175.28 3.73918 174.83 4.15918 174.39C11.6792 172.58 19.3092 170.87 26.8992 169.25C66.1892 160.9 106.229 155.09 146.389 151.9C146.949 152.32 147.879 152.27 148.449 151.74C159.139 150.92 169.839 150.28 180.529 149.83C181.169 150.33 182.169 150.3 182.649 149.74C184.689 149.66 186.729 149.59 188.769 149.52C235.219 147.98 269.789 150.36 292.679 151.94H292.789C304.359 152.74 316.079 153.57 327.959 154.43C328.099 154.55 328.239 154.68 328.379 154.81C328.689 155.1 329.039 155.22 329.379 155.22V155.22Z" fill="black"/>
<path d="M328.939 821.75V822.25H308.939V850.25H324.939V850.75H308.439V821.75H328.939Z" fill="black"/>
<path d="M328.939 821.25V821.75H308.439V850.75H324.939V851.25H307.939V821.25H328.939Z" fill="black"/>
<path d="M325.439 850.75H324.939V851.25H325.439V850.75Z" fill="black"/>
<path d="M251.939 959.25V982.25H83.9395V959.25H115.939V960.25H84.9395V981.25H250.939V960.25H219.939V959.25H251.939Z" fill="black"/>
<path d="M250.939 960.25V981.25H84.9395V960.25H115.939H219.939H250.939Z" fill="#010000"/>
<path d="M223.939 193.6V211.25H197.939V210.75H140.439V211.25H123.939V193.45L223.939 193.6ZM222.939 210.25V194.25H124.939V210.25H222.939Z" fill="#010000"/>
<path d="M223.939 193.25V193.6L123.939 193.45V193.25H223.939Z" fill="black"/>
<path d="M222.939 194.25H124.939V210.25H222.939V194.25Z" fill="#FFEA28"/>
<path d="M219.939 959.25V960.25H115.939V959.25H116.939H218.939H219.939Z" fill="black"/>
<path d="M219.939 935.25V959.25H218.939V936.25H191.939V935.25H192.939H219.939Z" fill="black"/>
<path d="M218.939 936.25V959.25H116.939V936.25H146.939H191.939H218.939Z" fill="#FFEA28"/>
<path d="M197.939 211.25V222.25H191.939H146.939H140.439V211.25H197.939Z" fill="#010000"/>
<path d="M197.939 210.75H140.439V211.25H197.939V210.75Z" fill="#010000"/>
<path d="M192.939 223.25H191.939V935.25H192.939V223.25Z" fill="black"/>
<path d="M191.939 935.25H146.939V936.25H191.939V935.25Z" fill="#FFEA28"/>
<path d="M191.939 223.25H146.939V935.25H191.939V223.25Z" fill="#FFEA28"/>
<path d="M191.939 222.25H146.939V223.25H191.939V222.25Z" fill="#FFEA28"/>
<path d="M182.94 148.75C182.98 149.18 182.87 149.51 182.65 149.74C181.94 149.77 181.23 149.8 180.53 149.83C180.22 149.59 179.99 149.23 179.94 148.75C179.88 148.13 179.82 147.52 179.76 146.9C180.66 148.2 182.61 147.38 182.61 146.15H182.68C182.77 147.01 182.85 147.88 182.94 148.75V148.75Z" fill="black"/>
<path d="M182.68 146.14H182.61C182.61 145.91 182.53 145.64 182.34 145.37C181.28 143.81 180.21 142.26 179.14 140.7C178.45 133.59 177.74 126.48 177.04 119.37C176.83 117.3 176.63 115.23 176.42 113.16C177.25 111.96 178.07 110.76 178.87 109.55C178.94 109.44 179 109.34 179.03 109.23C180.25 121.53 181.47 133.84 182.68 146.14Z" fill="black"/>
<path d="M180.529 149.83C181.229 149.8 181.939 149.77 182.649 149.74C182.169 150.3 181.169 150.33 180.529 149.83Z" fill="black"/>
<path d="M182.34 145.37C182.53 145.64 182.61 145.91 182.61 146.15C182.61 147.38 180.66 148.2 179.76 146.9C179.56 144.83 179.35 142.77 179.14 140.7C180.21 142.26 181.28 143.81 182.34 145.37Z" fill="black"/>
<path d="M179.14 140.7C179.35 142.77 179.56 144.83 179.76 146.9C175.25 140.28 170.73 133.68 166.21 127.07C166.86 126.25 167.5 125.42 168.14 124.58C168.19 124.65 168.24 124.73 168.29 124.8C171.92 130.1 175.54 135.4 179.15 140.7H179.14Z" fill="black"/>
<path d="M178.92 108.11C179.13 108.43 179.19 108.82 179.03 109.23C178.99 108.86 178.96 108.48 178.92 108.11Z" fill="black"/>
<path d="M178.92 108.11C178.96 108.48 178.99 108.86 179.03 109.23C179 109.34 178.94 109.44 178.87 109.55C178.07 110.76 177.25 111.96 176.42 113.16C176.27 111.61 176.11 110.06 175.96 108.51C176.07 108.35 176.17 108.19 176.28 108.03C176.36 107.91 176.45 107.81 176.54 107.72C176.69 107.67 176.82 107.58 176.92 107.48C177.64 107.15 178.54 107.48 178.92 108.11V108.11Z" fill="black"/>
<path d="M178.079 99.6699C178.359 102.48 178.639 105.3 178.919 108.11C178.539 107.49 177.639 107.15 176.919 107.48C177.759 106.71 177.429 104.87 175.929 104.82C175.819 104.82 175.699 104.82 175.589 104.82C175.449 103.39 175.299 101.96 175.159 100.53C176.059 101.38 177.769 100.88 177.769 99.7099L178.079 99.6799V99.6699Z" fill="black"/>
<path d="M177.86 97.47C177.93 98.2 178.01 98.94 178.08 99.67L177.77 99.7C177.77 99.53 177.74 99.34 177.66 99.15C176.49 96.19 175.32 93.23 174.14 90.28C173.43 83.2 172.72 76.11 172.02 69.03C171.98 68.59 171.93 68.14 171.89 67.7C172.69 65.83 173.48 63.96 174.28 62.09C174.3 62.05 174.31 62 174.32 61.96C175.5 73.8 176.68 85.63 177.86 97.47V97.47Z" fill="black"/>
<path d="M177.66 99.1498C177.74 99.3398 177.77 99.5298 177.77 99.6998C177.77 100.87 176.06 101.37 175.16 100.52C174.82 97.1098 174.48 93.6898 174.14 90.2798C175.32 93.2298 176.49 96.1898 177.66 99.1498Z" fill="black"/>
<path d="M175.93 104.82C177.43 104.87 177.76 106.71 176.92 107.48C176.79 107.54 176.66 107.62 176.54 107.72C176.36 107.79 176.16 107.83 175.93 107.82H175.89C175.79 106.82 175.69 105.81 175.59 104.81C175.7 104.81 175.82 104.81 175.93 104.81V104.82Z" fill="black"/>
<path d="M176.54 107.72C176.66 107.62 176.79 107.54 176.92 107.48C176.82 107.58 176.69 107.67 176.54 107.72Z" fill="black"/>
<path d="M175.959 108.51C176.109 110.06 176.269 111.61 176.419 113.16C173.759 117.04 170.989 120.85 168.129 124.58C167.539 123.71 166.949 122.85 166.359 121.98C169.689 117.59 172.889 113.1 175.959 108.51V108.51Z" fill="black"/>
<path d="M176.54 107.72C176.45 107.81 176.36 107.91 176.28 108.03C176.17 108.19 176.07 108.35 175.96 108.51C175.94 108.28 175.91 108.05 175.89 107.82H175.93C176.16 107.83 176.36 107.79 176.54 107.72V107.72Z" fill="black"/>
<path d="M175.589 104.81C175.689 105.81 175.789 106.82 175.889 107.82C169.259 107.58 162.629 107.69 156.009 108.16C155.639 107.79 155.259 107.44 154.869 107.11C155.059 106.98 155.219 106.78 155.339 106.5C155.529 106.05 155.719 105.61 155.909 105.16C162.459 104.7 169.029 104.58 175.589 104.81V104.81Z" fill="black"/>
<path d="M174.14 90.2801C174.48 93.6901 174.82 97.1101 175.16 100.52C175 100.37 174.87 100.18 174.77 99.9401C172.1 93.2101 169.42 86.4801 166.75 79.7401C167.31 78.4401 167.86 77.1501 168.41 75.8501C170.33 80.6601 172.24 85.4701 174.14 90.2801Z" fill="black"/>
<path d="M174.189 60.6401C174.409 61.0101 174.489 61.4701 174.319 61.9601C174.269 61.5201 174.229 61.0801 174.189 60.6401Z" fill="black"/>
<path d="M174.189 60.6399C174.229 61.0799 174.269 61.5199 174.319 61.9599C174.309 61.9999 174.299 62.0499 174.279 62.0899C173.479 63.9599 172.689 65.8299 171.889 67.6999C171.679 65.6499 171.479 63.5899 171.279 61.5399C171.409 61.2199 171.549 60.8899 171.689 60.5699C172.219 59.3399 173.629 59.7099 174.189 60.6399V60.6399Z" fill="black"/>
<path d="M172.84 47.1298C173.29 51.6298 173.74 56.1398 174.19 60.6398C173.63 59.7098 172.22 59.3398 171.69 60.5698C171.55 60.8898 171.41 61.2198 171.28 61.5398C169.82 46.9398 168.37 32.3398 166.94 17.7498C166.93 17.6898 166.93 17.6298 166.93 17.5798C166.93 15.8298 169.76 15.9098 169.94 17.7498C170.9 27.5398 171.87 37.3398 172.84 47.1298V47.1298Z" fill="black"/>
<path d="M171.28 61.54C171.48 63.59 171.68 65.65 171.89 67.7C170.73 70.42 169.57 73.13 168.41 75.85C167.9 74.54 167.38 73.23 166.85 71.92C168.33 68.46 169.8 65 171.28 61.54V61.54Z" fill="black"/>
<path d="M166.849 71.9199C167.379 73.2299 167.899 74.5399 168.409 75.8499C167.859 77.1499 167.309 78.4399 166.749 79.7399L165.189 75.8099C165.749 74.5099 166.299 73.2199 166.849 71.9199Z" fill="black"/>
<path d="M168.129 124.58C167.489 125.42 166.849 126.25 166.199 127.07C166.129 126.96 166.049 126.84 165.969 126.73C165.459 125.98 164.949 125.22 164.439 124.47L166.359 121.98C166.949 122.85 167.539 123.71 168.129 124.58V124.58Z" fill="black"/>
<path d="M160.809 56.6902C162.829 61.7702 164.839 66.8402 166.849 71.9202C166.299 73.2202 165.749 74.5102 165.189 75.8102C163.189 70.7702 161.189 65.7302 159.189 60.6802C159.379 59.0302 159.569 57.3902 159.759 55.7402C160.199 55.8602 160.599 56.1702 160.809 56.6902V56.6902Z" fill="black"/>
<path d="M165.189 75.8101L166.749 79.7401C163.139 88.2101 159.53 96.6901 155.91 105.16C155.27 105.2 154.619 105.25 153.979 105.3C154.149 103.84 154.31 102.38 154.49 100.92C158.06 92.5501 161.629 84.1801 165.189 75.8101V75.8101Z" fill="black"/>
<path d="M165.969 126.73C166.049 126.84 166.129 126.96 166.199 127.07C161.179 133.47 155.879 139.63 150.309 145.55C150.039 145.84 149.739 145.97 149.449 145.99C149.599 144.51 149.759 143.04 149.919 141.56C154.999 136.07 159.839 130.36 164.439 124.47C164.949 125.22 165.459 125.98 165.969 126.73Z" fill="black"/>
<path d="M166.359 121.98L164.439 124.47C162.699 121.93 160.969 119.39 159.229 116.86C157.489 114.35 155.669 111.92 153.449 109.85C153.509 109.34 153.569 108.83 153.629 108.33C154.419 108.27 155.219 108.21 156.009 108.16C158.069 110.15 159.809 112.46 161.449 114.82C163.109 117.19 164.739 119.58 166.359 121.98V121.98Z" fill="black"/>
<path d="M163.95 17.5701C163.95 17.6301 163.95 17.6901 163.94 17.7501C162.8 28.5401 161.62 39.3301 160.4 50.1101C160.19 51.9901 159.98 53.8601 159.76 55.7401C158.87 55.5001 157.81 56.0101 157.81 56.9401L156.64 56.8101C158.13 43.8001 159.57 30.7801 160.94 17.7501C160.95 17.6301 160.98 17.5201 161.01 17.4201C161.49 15.9101 163.95 15.9501 163.95 17.5701V17.5701Z" fill="black"/>
<path d="M159.76 55.7402C159.57 57.3902 159.38 59.0302 159.19 60.6802C158.77 59.6102 158.34 58.5502 157.92 57.4802C157.84 57.2902 157.81 57.1002 157.81 56.9402C157.81 56.0102 158.87 55.5002 159.76 55.7402V55.7402Z" fill="black"/>
<path d="M157.919 57.4801C158.339 58.5501 158.769 59.6101 159.189 60.6801C157.789 72.8801 156.339 85.0701 154.909 97.2601L154.489 100.92C153.909 102.28 153.329 103.63 152.749 104.99C152.689 105.14 152.649 105.28 152.639 105.42H152.579C151.739 105.49 151.269 106.1 151.159 106.76L150.819 106.72C152.179 94.8901 153.589 83.0601 154.969 71.2401C155.529 66.4301 156.089 61.6201 156.639 56.8101L157.809 56.9401C157.809 57.1001 157.839 57.2901 157.919 57.4801V57.4801Z" fill="black"/>
<path d="M156.38 14.69C157.73 13.31 159.85 15.43 158.5 16.81C147.06 28.52 135.55 40.17 124.02 51.79C103.76 72.21 83.4196 92.55 63.2396 113.04C43.3196 133.27 23.5496 153.65 4.15957 174.39C3.20957 174.61 2.25957 174.84 1.31957 175.07L0.939569 175.16V176.02C0.269569 175.53 -0.0704315 174.52 0.669569 173.73C11.8396 161.77 23.1396 149.92 34.5196 138.15C54.5196 117.48 74.7796 97.06 95.0596 76.67C115.55 56.06 136.07 35.48 156.38 14.69V14.69Z" fill="black"/>
<path d="M155.91 105.16C155.72 105.61 155.53 106.05 155.34 106.5C155.22 106.78 155.06 106.98 154.87 107.11C154.77 107.01 154.66 106.93 154.56 106.84C154.33 106.65 154.09 106.54 153.84 106.5C153.88 106.1 153.93 105.7 153.98 105.3C154.62 105.25 155.27 105.2 155.91 105.16Z" fill="black"/>
<path d="M154.87 107.11C155.26 107.44 155.64 107.79 156.01 108.16C155.22 108.21 154.42 108.27 153.63 108.33C153.67 107.95 153.72 107.57 153.76 107.19C154.14 107.34 154.54 107.33 154.87 107.11Z" fill="black"/>
<path d="M154.56 106.84C154.66 106.93 154.77 107.01 154.87 107.11C154.54 107.33 154.14 107.34 153.76 107.19C153.79 106.96 153.81 106.73 153.84 106.5C154.09 106.54 154.33 106.65 154.56 106.84Z" fill="black"/>
<path d="M154.49 100.92C154.31 102.38 154.15 103.84 153.98 105.3C153.53 105.34 153.09 105.38 152.64 105.42C152.65 105.28 152.69 105.14 152.75 104.99C153.33 103.63 153.91 102.28 154.49 100.92V100.92Z" fill="black"/>
<path d="M153.979 105.3C153.929 105.7 153.879 106.1 153.839 106.5C153.539 106.44 153.229 106.49 152.959 106.6C152.709 106.28 152.569 105.87 152.639 105.42C153.089 105.38 153.529 105.34 153.979 105.3V105.3Z" fill="black"/>
<path d="M153.84 106.5C153.81 106.73 153.79 106.96 153.76 107.19C153.45 107.09 153.16 106.88 152.96 106.6C153.23 106.49 153.54 106.44 153.84 106.5V106.5Z" fill="black"/>
<path d="M153.76 107.19C153.72 107.57 153.67 107.95 153.63 108.33L152.58 108.42C152.36 108.44 152.17 108.42 152 108.36C151.75 107.66 152.25 106.9 152.96 106.6C153.16 106.88 153.45 107.09 153.76 107.19Z" fill="black"/>
<path d="M153.63 108.33C153.57 108.83 153.51 109.34 153.45 109.85C153.12 109.54 152.78 109.25 152.44 108.96C152.21 108.78 152.07 108.57 152 108.36C152.17 108.42 152.36 108.44 152.58 108.42L153.63 108.33V108.33Z" fill="black"/>
<path d="M152.439 108.96C152.779 109.25 153.119 109.54 153.449 109.85C152.239 120.41 151.059 130.99 149.919 141.56C149.349 142.19 148.759 142.81 148.179 143.43C147.959 143.66 147.839 143.92 147.779 144.17L146.659 144.05C147.569 135.49 148.509 126.94 149.479 118.39C149.919 114.5 150.359 110.61 150.819 106.72L151.159 106.76C151.059 107.43 151.339 108.15 151.999 108.36C152.069 108.57 152.209 108.78 152.439 108.96V108.96Z" fill="black"/>
<path d="M152.639 105.42C152.569 105.87 152.709 106.28 152.959 106.6C152.249 106.9 151.749 107.66 151.999 108.36C151.339 108.15 151.059 107.43 151.159 106.76C151.269 106.1 151.739 105.49 152.579 105.42H152.639V105.42Z" fill="black"/>
<path d="M149.92 141.56C149.76 143.04 149.6 144.51 149.45 145.99C148.51 146.11 147.6 145.14 147.78 144.17C147.84 143.92 147.96 143.66 148.18 143.43C148.76 142.81 149.35 142.19 149.92 141.56V141.56Z" fill="black"/>
<path d="M149.449 145.99C149.279 147.58 149.109 149.16 148.939 150.75C148.899 151.17 148.709 151.5 148.449 151.74C147.769 151.8 147.079 151.85 146.389 151.9C146.079 151.67 145.879 151.29 145.939 150.75C146.179 148.52 146.409 146.28 146.659 144.05L147.779 144.17C147.599 145.14 148.509 146.11 149.449 145.99Z" fill="black"/>
<path d="M146.39 151.9C147.08 151.85 147.77 151.8 148.45 151.74C147.88 152.27 146.95 152.32 146.39 151.9Z" fill="black"/>
<path d="M146.939 935.25V936.25H116.939V959.25H115.939V935.25H145.939H146.939Z" fill="black"/>
<path d="M146.939 223.25H145.939V935.25H146.939V223.25Z" fill="black"/>
<path d="M42.4395 193.32V226.75H38.4395H7.43945H4.43945V193.26L42.4395 193.32Z" fill="#FFEA28"/>
<path d="M42.4395 193.25V193.32L4.43945 193.26V193.25H42.4395Z" fill="#FFEA28"/>
<path d="M38.4395 226.75H7.43945V245.75H38.4395V226.75Z" fill="black"/>
<path d="M4.15945 174.39C3.73945 174.83 3.32945 175.28 2.90945 175.72C2.57945 175.79 2.25945 175.87 1.93945 175.95V176.3C1.57945 176.35 1.22945 176.24 0.939453 176.02V175.16L1.31945 175.07C2.25945 174.84 3.20945 174.61 4.15945 174.39V174.39Z" fill="black"/>
<path d="M2.90945 175.72C2.90945 175.72 2.82945 175.81 2.78945 175.85C2.51945 176.13 2.22945 176.28 1.93945 176.3V175.95C2.25945 175.87 2.57945 175.79 2.90945 175.72Z" fill="black"/>
<path d="M4.43945 193.26V226.75H7.43945H38.4395H42.4395V193.32V193.25H4.43945V193.26Z" stroke="black" stroke-miterlimit="10"/>
<path d="M510.821 693.76C503.261 695.98 497.051 695.8 493.101 691.71C480.391 678.52 501.731 665.19 528.951 655.24C529.571 655.46 530.401 655.55 530.921 654.86C531.011 654.74 531.081 654.6 531.111 654.46C554.921 646.01 582.601 640.15 595.861 639.18C611.081 638.07 644.471 640.12 672.471 646.09C672.501 646.18 672.541 646.26 672.611 646.34C673.191 647.15 674.231 646.85 674.801 646.59C703.471 653 725.661 663.64 715.231 679.36C712.201 683.92 707.501 685.69 701.651 685.54C675.311 684.86 625.741 645.24 601.121 646.82C581.081 648.1 537.521 685.92 510.821 693.77V693.76Z" fill="#4138E2"/>
<path d="M671.011 742.23C671.011 742.23 671.011 742.22 671.011 742.21C670.811 741.07 670.641 737.64 676.141 738.28L675.761 740.16C675.421 742.9 678.151 742.78 678.151 742.78C680.251 743.19 680.451 739.63 680.451 739.63L680.471 739.43C684.461 741.43 685.421 745.93 681.691 745.85L681.621 747.82C681.621 747.82 691.951 749.2 691.751 759.12C691.751 759.12 691.591 762.32 682.451 761.98C673.651 761.64 664.301 757.4 664.311 753.75C664.321 750.1 668.351 744.78 671.091 742.58C671.091 742.58 671.051 742.45 671.011 742.24V742.23Z" fill="#B3AFF3"/>
<path d="M688.491 613.8C688.491 613.8 688.451 613.8 688.491 613.8V613.8ZM680.791 603.87H680.801C681.191 604.75 681.801 605.45 682.851 606.08C684.031 606.79 684.721 605.71 684.691 605.71L684.711 605.69C683.901 604.66 683.871 602.94 683.861 602.46C683.861 601.76 683.821 599.64 685.151 599.33C689.141 597.98 691.721 602.4 691.451 608.14C691.231 612.65 688.961 613.62 688.531 613.77C688.571 613.77 688.621 613.76 688.681 613.75C689.701 613.63 691.601 617.05 684.501 617.83C683.811 617.9 683.031 617.96 682.161 617.97C681.741 617.98 681.341 617.98 680.971 617.97C672.561 617.8 674.991 613.45 674.991 613.45C668.921 607.64 673.071 604.29 673.071 604.29C674.171 603.51 675.381 603.26 676.841 602.96C676.921 602.94 676.991 602.93 677.071 602.91C677.771 602.76 680.041 602.37 680.791 603.85V603.87Z" fill="#FAF9FC"/>
<path d="M685.16 599.34C683.83 599.65 683.86 601.77 683.87 602.47C683.87 602.95 683.9 604.66 684.72 605.7L684.7 605.72C684.7 605.72 684.04 606.79 682.86 606.09C681.81 605.46 681.2 604.76 680.81 603.87C680.51 603.18 680.35 602.38 680.21 601.42C680.02 600.02 680.6 599.2 680.88 598.9C680.96 598.81 681.01 598.77 681.01 598.77C683.23 596.78 685.17 599.34 685.17 599.34H685.16Z" fill="#FAF9FC"/>
<path d="M684.89 623.22C684.89 623.22 685.64 632.79 683.38 636.88C681.1 640.99 675.21 646.38 675.21 646.38C675.21 646.38 675.05 646.48 674.8 646.6C674.03 646.43 673.25 646.26 672.48 646.09C671.82 644.34 675.84 641.5 675.84 641.5C678.53 638.98 678.92 638.55 680.66 635.42C682.5 632.13 681.85 629.35 681.79 627.2C681.7 623.96 681.1 621.07 680.97 617.99C681.34 618 681.74 618 682.16 617.99C683.03 617.97 683.81 617.92 684.5 617.85L684.89 623.22V623.22Z" fill="#010000"/>
<path d="M681.131 716.57C681.131 716.57 682.621 721.51 681.811 727.22C681.001 732.92 680.951 734.6 680.951 734.6L680.451 739.43C679.941 739.18 679.391 738.96 678.791 738.8C677.781 738.53 676.901 738.36 676.131 738.28L677.741 730.28C677.741 730.28 679.951 723.22 676.671 716.59C673.391 709.96 662.561 691.13 662.561 691.13C662.561 691.13 660.741 688.87 662.811 687.71C664.881 686.56 665.951 687.95 666.951 689.45C670.381 694.56 681.131 716.57 681.131 716.57V716.57Z" fill="#010000"/>
<path d="M680.74 599.02C680.74 599.02 680.83 598.93 680.87 598.9C680.6 599.2 680.01 600.02 680.2 601.42C680.33 602.38 680.49 603.18 680.8 603.87H680.79C680.04 602.4 677.77 602.79 677.07 602.93C676.99 602.95 676.92 602.96 676.84 602.98L676.8 602.79C676.04 599.72 676.29 599.07 676.29 599.07C676.36 598.79 676.6 598.61 676.8 598.43C677.2 598.08 677.61 597.96 678.4 597.93C679.67 597.88 680.74 599.01 680.74 599.01V599.02Z" fill="#FAF9FC"/>
<path d="M680.461 739.43L680.441 739.63C680.441 739.63 680.241 743.19 678.141 742.78C678.141 742.78 675.411 742.9 675.751 740.16L676.131 738.28C676.901 738.37 677.791 738.54 678.791 738.8C679.391 738.96 679.951 739.17 680.451 739.43H680.461Z" fill="#010000"/>
<path d="M676.801 602.79L676.841 602.98C675.381 603.28 674.171 603.52 673.071 604.31C672.911 601.64 672.481 600.51 673.571 599.41C674.671 598.31 676.291 599.08 676.291 599.08C676.291 599.08 676.041 599.73 676.801 602.8V602.79Z" fill="#FAF9FC"/>
<path d="M536.491 693.21C538.261 694.33 536.621 696.38 536.621 696.38C536.621 696.38 523.561 720.26 520.541 726.32C517.521 732.38 519.271 738.97 519.271 738.97L520.471 746.42C519.801 746.49 519.021 746.62 518.131 746.84C517.601 746.97 517.111 747.15 516.671 747.38L516.361 742.9C516.361 742.9 516.361 741.34 515.801 736.04C515.241 730.74 516.661 726.19 516.661 726.19C516.661 726.19 529.731 699.36 532.841 694.71C533.751 693.35 534.721 692.09 536.491 693.2V693.21Z" fill="#010000"/>
<path d="M527.57 649.49C527.57 649.49 531.67 652.56 531.12 654.46C530.4 654.72 529.68 654.98 528.96 655.24C528.47 655.07 528.1 654.82 528.1 654.82C528.1 654.82 521.85 648.78 519.49 644.23C517.15 639.71 518.26 629.31 518.26 629.31L518.83 623.59C519.41 623.65 520.03 623.7 520.7 623.74C521.42 623.78 522.08 623.79 522.68 623.78C522.44 627.12 521.71 630.24 521.51 633.75C521.38 636.09 520.59 639.1 522.49 642.74C524.3 646.19 524.71 646.68 527.56 649.51L527.57 649.49Z" fill="#010000"/>
<path d="M531.121 654.45C531.091 654.59 531.021 654.73 530.931 654.85C530.411 655.54 529.591 655.45 528.961 655.23C529.681 654.97 530.401 654.71 531.121 654.45V654.45Z" fill="#4138E2"/>
<path d="M530.61 603.751C531.77 604.981 531.27 606.191 531.02 609.091C529.83 608.201 528.53 607.91 526.95 607.54L527 607.341C527.92 604.021 527.67 603.3 527.67 603.3C527.67 603.3 529.45 602.521 530.61 603.751V603.751Z" fill="#FAF9FC"/>
<path d="M517.991 603.33C519.441 603.7 519.331 606 519.311 606.77C519.291 607.29 519.211 609.15 518.291 610.25L518.311 610.27C518.311 610.27 518.991 611.46 520.291 610.73C521.451 610.08 522.141 609.33 522.591 608.37H522.611C523.461 606.8 525.921 607.29 526.681 607.47C526.771 607.49 526.851 607.51 526.931 607.53C528.511 607.9 529.821 608.2 531.001 609.08C531.001 609.08 535.421 612.86 528.621 619C528.621 619 531.021 623.56 522.661 623.74C522.061 623.75 521.401 623.74 520.681 623.7C520.011 623.67 519.381 623.62 518.811 623.55C510.301 622.62 512.571 618.73 513.701 618.9C513.821 618.92 513.891 618.93 513.921 618.94C513.941 618.94 513.941 618.94 513.921 618.94C513.671 618.85 510.951 617.88 510.851 612.7C510.721 606.44 513.661 601.7 517.981 603.29V603.3L517.991 603.33Z" fill="#FAF9FC"/>
<path d="M515.45 755.12V753.31V753.3C512.2 753.28 513.15 749.13 516.67 747.38V747.57C516.67 747.57 516.76 750.87 518.61 750.54C518.61 750.54 520.98 750.72 520.76 748.18L520.47 746.42C525.25 745.98 525.04 749.12 524.84 750.18C524.84 750.18 524.84 750.19 524.84 750.2C524.8 750.4 524.77 750.53 524.77 750.53C527.1 752.64 530.47 757.66 530.39 761.04C530.31 764.42 522.06 768.12 514.39 768.21C506.42 768.3 506.37 765.34 506.37 765.34C506.44 756.15 515.47 755.13 515.47 755.13L515.45 755.12Z" fill="#B3AFF3"/>
<path d="M527.67 603.3C527.67 603.3 527.92 604.02 527 607.34L526.95 607.54C526.86 607.52 526.78 607.5 526.7 607.48C525.94 607.3 523.48 606.81 522.63 608.39H522.61C522.96 607.64 523.16 606.77 523.34 605.73C523.6 604.2 522.97 603.29 522.68 602.96C522.73 603.01 522.77 603.06 522.82 603.11C522.82 603.11 524.01 601.91 525.4 602C526.27 602.05 526.7 602.19 527.13 602.58C527.35 602.78 527.61 602.99 527.67 603.29V603.3Z" fill="#FAF9FC"/>
<path d="M522.681 602.96C522.961 603.29 523.591 604.2 523.341 605.73C523.161 606.77 522.961 607.63 522.611 608.37C522.161 609.33 521.471 610.07 520.311 610.73C519.001 611.47 518.281 610.27 518.331 610.27L518.311 610.25C519.231 609.15 519.311 607.28 519.331 606.77C519.361 606 519.461 603.7 518.011 603.33C518.011 603.33 520.211 600.59 522.561 602.83L522.601 602.87C522.601 602.87 522.661 602.93 522.691 602.96H522.681Z" fill="#FAF9FC"/>
<path d="M520.76 748.18C520.98 750.73 518.61 750.54 518.61 750.54C516.77 750.87 516.69 747.57 516.69 747.57V747.38C517.12 747.15 517.61 746.97 518.14 746.84C519.03 746.62 519.8 746.48 520.48 746.42L520.77 748.18H520.76Z" fill="#010000"/>
<path d="M510.641 693.76H510.821L701.651 685.67" stroke="black" stroke-width="2" stroke-miterlimit="10"/>
<path d="M602.091 638.81C601.191 615.88 616.201 627.03 615.591 612.15C614.931 596.08 592.221 593.85 590.261 611.09" stroke="black" stroke-width="2" stroke-miterlimit="10"/>
<path d="M531.121 654.45C554.931 646 582.611 640.14 595.871 639.17C611.091 638.06 644.481 640.11 672.481 646.08C673.261 646.25 674.031 646.42 674.801 646.59C703.471 653 725.661 663.64 715.231 679.36C712.201 683.92 707.501 685.69 701.651 685.54C675.311 684.86 625.741 645.24 601.121 646.82C581.081 648.1 537.521 685.92 510.821 693.77C503.261 695.99 497.051 695.81 493.101 691.72C480.391 678.53 501.731 665.2 528.951 655.25C529.671 654.99 530.391 654.73 531.111 654.47L531.121 654.45Z" stroke="black" stroke-width="2" stroke-miterlimit="10"/>
<path d="M589.691 706.92C589.621 706.67 599.961 734.01 611.901 707.6" stroke="black" stroke-width="2" stroke-miterlimit="10"/>
<path d="M591.631 705.191C590.141 705.121 588.041 708.401 587.971 709.891" stroke="black" stroke-width="2" stroke-miterlimit="10"/>
<path d="M609.49 705.94C611.65 706.04 612.97 708.78 612.83 710.11" stroke="black" stroke-width="2" stroke-miterlimit="10"/>
<path d="M524.831 750.17C525.041 749.11 525.251 745.97 520.461 746.41C519.791 746.48 519.011 746.61 518.121 746.83C517.591 746.96 517.101 747.14 516.661 747.37C513.141 749.12 512.191 753.27 515.441 753.29V755.11C515.441 755.11 506.411 756.14 506.341 765.32C506.341 765.32 506.391 768.29 514.361 768.19C522.031 768.1 530.281 764.4 530.361 761.02C530.441 757.63 527.071 752.61 524.741 750.51C524.741 750.51 524.781 750.39 524.811 750.18" stroke="black" stroke-width="2" stroke-miterlimit="10"/>
<path d="M524.19 758.24C524.19 758.24 521.06 754.22 515.45 755.12C515.42 755.12 515.39 755.12 515.36 755.13" stroke="black" stroke-width="2" stroke-miterlimit="10"/>
<path d="M516.741 753.19C516.741 753.19 515.991 753.31 515.441 753.3H515.381" stroke="black" stroke-width="2" stroke-miterlimit="10"/>
<path d="M523.101 751.92C523.101 751.92 524.411 751.45 524.821 750.19C524.821 750.19 524.821 750.18 524.821 750.17L524.831 750.15" stroke="black" stroke-width="2" stroke-miterlimit="10"/>
<path d="M516.67 747.38V747.57C516.67 747.57 516.76 750.87 518.61 750.54C518.61 750.54 520.98 750.72 520.76 748.18L520.47 746.42L519.27 738.97C519.27 738.97 517.52 732.38 520.54 726.32C523.56 720.26 536.62 696.38 536.62 696.38C536.62 696.38 538.26 694.32 536.49 693.21C534.72 692.09 533.75 693.35 532.84 694.72C529.73 699.37 516.66 726.2 516.66 726.2C516.66 726.2 515.25 730.75 515.8 736.05C516.36 741.36 516.36 742.91 516.36 742.91L516.67 747.39V747.38Z" stroke="black" stroke-width="2" stroke-miterlimit="10"/>
<path d="M671.001 742.21C670.801 741.07 670.631 737.64 676.131 738.28C676.901 738.37 677.791 738.54 678.791 738.8C679.391 738.96 679.951 739.17 680.451 739.43C684.441 741.43 685.401 745.93 681.671 745.85L681.601 747.82C681.601 747.82 691.931 749.2 691.731 759.12C691.731 759.12 691.571 762.32 682.431 761.98C673.631 761.64 664.281 757.4 664.291 753.75C664.301 750.1 668.331 744.78 671.071 742.58C671.071 742.58 671.031 742.45 670.991 742.24" stroke="black" stroke-width="2" stroke-miterlimit="10"/>
<path d="M671.49 750.92C671.49 750.92 675.2 746.69 681.62 747.83C681.66 747.83 681.69 747.84 681.72 747.85" stroke="black" stroke-width="2" stroke-miterlimit="10"/>
<path d="M680.19 745.7C680.19 745.7 681.05 745.85 681.68 745.86C681.7 745.86 681.72 745.86 681.75 745.86" stroke="black" stroke-width="2" stroke-miterlimit="10"/>
<path d="M672.93 744.13C672.93 744.13 671.46 743.6 671 742.23C671 742.23 671 742.22 671 742.21C671 742.2 671 742.18 670.99 742.17" stroke="black" stroke-width="2" stroke-miterlimit="10"/>
<path d="M680.461 739.43L680.441 739.63C680.441 739.63 680.241 743.19 678.141 742.78C678.141 742.78 675.411 742.9 675.751 740.16L676.131 738.28L677.741 730.28C677.741 730.28 679.951 723.22 676.671 716.59C673.391 709.96 662.561 691.13 662.561 691.13C662.561 691.13 660.741 688.87 662.811 687.71C664.881 686.56 665.951 687.95 666.951 689.45C670.381 694.56 681.131 716.57 681.131 716.57C681.131 716.57 682.621 721.51 681.811 727.22C681.001 732.92 680.951 734.6 680.951 734.6L680.451 739.43H680.461Z" stroke="black" stroke-width="2" stroke-miterlimit="10"/>
<path d="M522.71 623.321C522.71 623.471 522.69 623.611 522.68 623.761C522.44 627.101 521.71 630.221 521.51 633.731C521.38 636.071 520.59 639.081 522.49 642.721C524.3 646.171 524.71 646.661 527.56 649.491C527.56 649.491 531.66 652.561 531.11 654.461C531.08 654.601 531.01 654.741 530.92 654.861C530.4 655.551 529.58 655.461 528.95 655.241C528.46 655.071 528.09 654.821 528.09 654.821C528.09 654.821 521.84 648.781 519.48 644.231C517.14 639.711 518.25 629.311 518.25 629.311L518.82 623.591L518.87 623.061" stroke="black" stroke-width="2" stroke-miterlimit="10"/>
<path d="M680.95 617.62C680.95 617.74 680.95 617.86 680.97 617.98C681.11 621.07 681.7 623.95 681.79 627.19C681.85 629.34 682.5 632.12 680.66 635.41C678.92 638.53 678.52 638.97 675.84 641.49C675.84 641.49 671.83 644.33 672.48 646.08C672.51 646.17 672.55 646.25 672.62 646.33C673.2 647.14 674.24 646.84 674.81 646.58C675.06 646.47 675.22 646.36 675.22 646.36C675.22 646.36 681.11 640.98 683.39 636.86C685.66 632.77 684.9 623.2 684.9 623.2L684.51 617.83L684.49 617.46" stroke="black" stroke-width="2" stroke-miterlimit="10"/>
<path d="M680.871 598.89C680.871 598.89 680.781 598.97 680.741 599.01C680.741 599.01 679.671 597.88 678.401 597.93C677.601 597.96 677.191 598.08 676.801 598.43C676.601 598.61 676.351 598.79 676.291 599.07C676.291 599.07 674.671 598.31 673.571 599.4C672.481 600.5 672.911 601.62 673.071 604.3C673.071 604.3 668.921 607.65 674.991 613.46" stroke="black" stroke-width="2" stroke-miterlimit="10"/>
<path d="M688.53 613.78C688.96 613.63 691.24 612.66 691.45 608.15C691.73 602.41 689.15 597.99 685.15 599.33C685.15 599.33 683.21 596.77 680.99 598.76" stroke="black" stroke-width="2" stroke-miterlimit="10"/>
<path d="M688.49 613.8C688.49 613.8 688.45 613.8 688.49 613.8V613.8Z" stroke="black" stroke-width="2" stroke-miterlimit="10"/>
<path d="M688.49 613.8C688.49 613.8 688.5 613.8 688.51 613.8C688.51 613.8 688.52 613.8 688.53 613.8" stroke="black" stroke-width="2" stroke-miterlimit="10"/>
<path d="M674.991 613.47C674.991 613.47 672.561 617.82 680.971 617.99C681.341 618 681.741 618 682.161 617.99C683.031 617.97 683.811 617.92 684.501 617.85C691.601 617.07 689.701 613.65 688.681 613.77C688.621 613.77 688.571 613.79 688.531 613.79" stroke="black" stroke-width="2" stroke-miterlimit="10"/>
<path d="M688.391 602.89C688.391 602.89 689.4 606.27 686.66 606.49C685.74 606.56 685.131 606.21 684.711 605.69C683.901 604.66 683.87 602.94 683.86 602.46C683.86 601.76 683.821 599.64 685.151 599.33C685.171 599.33 685.191 599.33 685.211 599.32" stroke="black" stroke-width="2" stroke-miterlimit="10"/>
<path d="M681.001 598.771C681.001 598.771 680.951 598.811 680.871 598.901C680.601 599.201 680.011 600.02 680.201 601.42C680.331 602.38 680.491 603.18 680.801 603.87C681.191 604.75 681.801 605.461 682.851 606.091C684.031 606.801 684.721 605.72 684.691 605.72" stroke="black" stroke-width="2" stroke-miterlimit="10"/>
<path d="M676.29 599.08C676.29 599.08 676.04 599.73 676.8 602.8" stroke="black" stroke-width="2" stroke-miterlimit="10"/>
<path d="M685.61 614.55C685.75 614.55 686.63 614.71 688.43 613.82" stroke="black" stroke-width="2" stroke-miterlimit="10"/>
<path d="M678.481 614.68C678.481 614.68 676.431 614.63 674.851 613.29" stroke="black" stroke-width="2" stroke-miterlimit="10"/>
<path d="M522.681 602.96C522.681 602.96 522.771 603.06 522.821 603.11C522.821 603.11 524.011 601.91 525.401 602C526.271 602.05 526.701 602.19 527.131 602.58C527.351 602.78 527.611 602.99 527.671 603.29C527.671 603.29 529.451 602.51 530.611 603.74C531.771 604.97 531.271 606.18 531.021 609.08C531.021 609.08 535.441 612.86 528.641 619" stroke="black" stroke-width="2" stroke-linecap="round" stroke-linejoin="round"/>
<path d="M513.94 618.97C513.69 618.88 510.97 617.91 510.87 612.73C510.74 606.47 513.68 601.73 518 603.32C518 603.32 520.19 600.59 522.54 602.83L522.58 602.87C522.58 602.87 522.64 602.93 522.67 602.96" stroke="black" stroke-width="2" stroke-linecap="round" stroke-linejoin="round"/>
<path d="M513.94 618.97C513.94 618.97 513.96 618.97 513.94 618.97V618.97Z" stroke="black" stroke-width="2" stroke-linecap="round" stroke-linejoin="round"/>
<path d="M528.64 619.02C528.64 619.02 531.04 623.58 522.68 623.76C522.08 623.77 521.42 623.76 520.7 623.72C520.03 623.69 519.4 623.64 518.83 623.57C510.32 622.64 512.59 618.75 513.72 618.92C513.84 618.94 513.91 618.95 513.94 618.96" stroke="black" stroke-width="2" stroke-linecap="round" stroke-linejoin="round"/>
<path d="M514.371 607.091C514.371 607.091 513.161 610.741 516.141 611.071C517.141 611.181 517.821 610.811 518.291 610.251C519.211 609.151 519.291 607.281 519.311 606.771C519.341 606.001 519.441 603.701 517.991 603.331C517.971 603.321 517.951 603.321 517.931 603.311" stroke="black" stroke-width="2" stroke-miterlimit="10"/>
<path d="M522.601 608.38C522.151 609.34 521.461 610.08 520.301 610.74C518.991 611.48 518.271 610.28 518.321 610.28" stroke="black" stroke-width="2" stroke-miterlimit="10"/>
<path d="M522.671 602.96C522.951 603.29 523.581 604.2 523.331 605.73C523.151 606.77 522.951 607.63 522.601 608.37" stroke="black" stroke-width="2" stroke-linecap="round" stroke-linejoin="round"/>
<path d="M522.541 602.83L522.581 602.87C522.581 602.87 522.641 602.92 522.671 602.96" stroke="black" stroke-width="2" stroke-miterlimit="10"/>
<path d="M527.671 603.3C527.671 603.3 527.921 604.02 527.001 607.34" stroke="black" stroke-width="2" stroke-miterlimit="10"/>
<path d="M517.04 619.87C516.88 619.87 515.92 620.01 513.98 618.99" stroke="black" stroke-width="2" stroke-miterlimit="10"/>
<path d="M524.811 620.23C524.811 620.23 527.041 620.23 528.801 618.82" stroke="black" stroke-width="2" stroke-miterlimit="10"/>
<path d="M636.34 644.91C644.7 645.26 650.8 661.86 649.95 681.99C649.75 686.8 649.16 691.38 648.28 695.56L648.14 695.53C647.97 694.7 645.15 694.1 641.39 693.96C641.51 691.43 643.17 681.09 643.17 681.09C643.17 681.09 630.3 680.27 630.83 679.96C639.56 674.95 640.27 673.24 641.78 669.9C642.49 668.32 642.55 666.22 642.63 664.36C642.83 659.65 640.02 653.96 635.71 652.32C633.88 651.62 630.72 653.35 630.72 653.35C628.19 654.48 625.18 667.35 624.95 672.91C624.74 677.93 625.67 694.07 625.8 696.22C623.4 697.25 621.69 698.68 621.31 700.6H621.26C621.17 700.24 621.09 699.86 621.02 699.48C619.9 693.96 619.39 687.55 619.67 680.73C620.51 660.6 627.98 644.57 636.34 644.92V644.91Z" fill="#FAF9FC"/>
<path d="M641.391 693.95C645.151 694.09 647.971 694.69 648.141 695.52L648.281 695.55C645.481 708.84 639.641 718.05 633.281 717.79C627.951 717.56 623.531 710.73 621.261 700.59H621.311C621.691 698.66 623.401 697.23 625.801 696.2C630.081 694.35 636.521 693.77 641.401 693.95H641.391Z" fill="#F8B8D2"/>
<path d="M635.711 652.311C640.021 653.951 642.831 659.64 642.631 664.35C642.551 666.2 642.491 668.311 641.781 669.891C640.271 673.231 639.561 674.941 630.831 679.951C630.301 680.261 643.171 681.081 643.171 681.081C643.171 681.081 641.511 691.421 641.391 693.951C636.521 693.771 630.071 694.351 625.791 696.201C625.661 694.051 624.731 677.911 624.941 672.891C625.171 667.331 628.191 654.461 630.711 653.331C630.711 653.331 633.871 651.61 635.701 652.3L635.711 652.311Z" fill="#010000"/>
<path d="M575.501 648.86C583.691 649.2 589.691 664.83 588.891 683.76C588.641 689.69 587.751 695.24 586.401 700.06H586.351C583.721 698.75 581.051 698.08 578.461 697.83C579.801 694.4 580.821 689.87 581.311 684.77L568.551 682.91L581.621 676.95C581.441 665.7 578.501 657.03 574.531 656.86C570.101 656.68 566.051 667.17 565.501 680.3C565.191 687.73 566.061 694.42 567.681 698.85C563.601 699.95 560.901 701.46 560.901 701.46H560.881C559.561 696 558.931 689.48 559.221 682.51C560.011 663.58 567.291 648.51 575.491 648.85L575.501 648.86Z" fill="#FAF9FC"/>
<path d="M586.361 700.05H586.411C583.451 710.62 578.251 717.65 572.631 717.42C567.671 717.21 563.511 711.4 561.181 702.63C561.081 702.25 560.981 701.86 560.891 701.47H560.911C560.911 701.47 563.621 699.96 567.691 698.86C570.701 698.04 574.471 697.45 578.461 697.84C581.051 698.09 583.721 698.76 586.351 700.06L586.361 700.05Z" fill="#F8B8D2"/>
<path d="M581.641 676.95L568.571 682.91L581.331 684.77C580.841 689.88 579.811 694.41 578.481 697.83C574.491 697.44 570.721 698.04 567.711 698.85C566.091 694.41 565.221 687.73 565.531 680.3C566.081 667.17 570.131 656.68 574.561 656.86C578.531 657.03 581.471 665.7 581.651 676.95H581.641Z" fill="#010000"/>
<path d="M586.361 700.05C583.731 698.75 581.061 698.09 578.471 697.83" stroke="black" stroke-width="2" stroke-miterlimit="10"/>
<path d="M567.701 698.85C563.621 699.95 560.921 701.46 560.921 701.46" stroke="black" stroke-width="2" stroke-miterlimit="10"/>
<path d="M578.47 697.83C579.81 694.4 580.83 689.87 581.32 684.77L568.56 682.91L581.63 676.95C581.45 665.7 578.51 657.03 574.54 656.86C570.11 656.68 566.06 667.17 565.51 680.3C565.2 687.73 566.07 694.42 567.69 698.85C570.7 698.03 574.47 697.44 578.46 697.83H578.47Z" stroke="black" stroke-width="2" stroke-miterlimit="10"/>
<path d="M648.141 695.52C647.971 694.69 645.151 694.09 641.391 693.95C636.521 693.77 630.071 694.35 625.791 696.2C623.391 697.23 621.681 698.66 621.301 700.58" stroke="black" stroke-width="2" stroke-miterlimit="10"/>
<path d="M625.811 696.441L625.791 696.201C625.661 694.051 624.731 677.911 624.941 672.891C625.171 667.331 628.191 654.461 630.711 653.331C630.711 653.331 633.871 651.61 635.701 652.3C640.011 653.94 642.821 659.631 642.621 664.341C642.541 666.191 642.481 668.301 641.771 669.881C640.261 673.221 639.551 674.931 630.821 679.941C630.291 680.251 643.161 681.071 643.161 681.071C643.161 681.071 641.501 691.411 641.381 693.941V693.98" stroke="black" stroke-width="2" stroke-miterlimit="10"/>
<path d="M560.891 701.47C559.571 696 558.941 689.49 559.231 682.52C560.021 663.59 567.301 648.52 575.501 648.86C583.691 649.2 589.691 664.83 588.891 683.76C588.641 689.69 587.751 695.24 586.401 700.06C583.441 710.62 578.241 717.65 572.621 717.42C567.661 717.21 563.501 711.4 561.171 702.63C561.071 702.25 560.971 701.86 560.881 701.47H560.891Z" stroke="black" stroke-width="2" stroke-miterlimit="10"/>
<path d="M621.26 700.6C621.17 700.23 621.09 699.85 621.02 699.47C619.9 693.95 619.39 687.54 619.67 680.72C620.51 660.59 627.98 644.56 636.34 644.91C644.7 645.26 650.8 661.86 649.95 681.99C649.75 686.8 649.16 691.38 648.28 695.56C645.48 708.85 639.64 718.06 633.28 717.8C627.95 717.57 623.53 710.74 621.26 700.6V700.6Z" stroke="black" stroke-width="2" stroke-miterlimit="10"/>
<path d="M498.38 680.66C498.77 678.02 500.41 675.56 502.74 674.54C503.94 674.11 505.44 674.14 506.52 673.61C507.62 673.1 508.46 672.2 509.19 671.11C512.01 666.81 516.95 664.18 522.2 665.02L522.46 665.51C521.35 668.04 519.67 669.81 517.58 671.32C516.09 672.26 514.37 672.84 512.68 673.37C510.94 673.73 508.81 673.78 507.52 675.1C506.64 675.9 506.2 677.31 505.48 678.28C504.77 679.26 503.71 679.78 502.64 680.27C501.41 680.79 500.2 681.11 498.74 681.08L498.37 680.66H498.38Z" fill="white"/>
<path d="M635.98 668.16C637.38 668.16 638.51 667.03 638.51 665.64C638.51 664.24 637.38 663.11 635.99 663.11C634.6 663.11 633.46 664.24 633.45 665.63C633.45 667.03 634.58 668.16 635.97 668.16H635.98Z" fill="white"/>
<path d="M576.22 670.66C577.62 670.66 578.75 669.53 578.76 668.14C578.76 666.74 577.63 665.61 576.24 665.61C574.84 665.61 573.71 666.74 573.7 668.13C573.7 669.53 574.83 670.66 576.22 670.66Z" fill="white"/>
<path d="M700.34 570.85L661.52 552.72C660.34 552.17 659.54 551.16 659.39 550.02C659.23 548.88 659.76 547.88 660.79 547.33L717.17 517.84C718.12 517.35 719.32 517.35 720.41 517.86C721.5 518.37 722.27 519.29 722.5 520.33L736.09 582.48C736.34 583.62 735.91 584.66 734.93 585.28C733.95 585.89 732.67 585.93 731.49 585.38L700.35 570.84L700.34 570.85ZM700.33 570.59L731.59 585.18C731.74 585.25 731.89 585.31 732.05 585.36C734.21 586.06 736.2 584.19 735.74 582.07L722.24 520.36C722.03 519.4 721.31 518.55 720.31 518.09C719.31 517.63 718.2 517.62 717.33 518.07L661.35 547.35C659.43 548.36 659.27 551.08 661.19 552.29C661.33 552.38 661.47 552.46 661.62 552.53L700.33 570.6V570.59Z" fill="black"/>
<path d="M700.321 570.58L661.611 552.51C661.461 552.44 661.321 552.36 661.181 552.27C659.261 551.06 659.421 548.34 661.341 547.33L717.321 518.05C718.191 517.59 719.301 517.6 720.301 518.07C721.301 518.54 722.011 519.38 722.231 520.34L735.731 582.05C736.191 584.17 734.201 586.04 732.041 585.34C731.891 585.3 731.741 585.23 731.581 585.16L700.321 570.57V570.58ZM704.141 561.38C704.881 559.8 703.961 557.8 702.091 556.93C700.221 556.06 698.101 556.64 697.371 558.21C696.641 559.78 697.551 561.79 699.421 562.66C701.291 563.53 703.411 562.95 704.141 561.38ZM705.871 554.39L714.381 536.16C714.841 535.17 714.271 533.91 713.091 533.37C711.911 532.83 710.581 533.18 710.121 534.17L701.611 552.4C701.151 553.39 701.731 554.65 702.901 555.2C704.071 555.75 705.411 555.38 705.871 554.39Z" fill="#FFEA28"/>
<path d="M699.58 573.01C699.58 573.35 699.49 573.7 699.34 574.03L684.46 605.89C683.87 607.16 682.34 607.71 681.07 607.12L677.92 605.65C676.65 605.06 676.09 603.52 676.69 602.25L691.56 570.4C692.16 569.11 693.7 568.55 694.99 569.15L698.09 570.6C699.04 571.04 699.6 572.01 699.57 573.01H699.58Z" fill="#FAF9FC"/>
<path d="M702.101 556.93C703.971 557.8 704.891 559.8 704.151 561.38C703.411 562.96 701.291 563.54 699.431 562.66C697.571 561.78 696.641 559.79 697.381 558.21C698.121 556.63 700.241 556.05 702.101 556.93ZM703.901 561.26C704.581 559.8 703.731 557.95 702.001 557.14C700.271 556.33 698.311 556.87 697.631 558.33C696.951 559.79 697.801 561.64 699.531 562.45C701.261 563.26 703.221 562.72 703.901 561.26Z" fill="black"/>
<path d="M703.919 561.312C704.604 559.846 703.755 558.002 702.024 557.193C700.292 556.385 698.333 556.918 697.649 558.384C696.964 559.85 697.813 561.694 699.544 562.503C701.276 563.311 703.234 562.778 703.919 561.312Z" fill="#010000"/>
<path d="M714.38 536.16L705.87 554.39C705.41 555.38 704.07 555.75 702.9 555.2C701.73 554.65 701.15 553.39 701.61 552.4L710.12 534.17C710.58 533.18 711.92 532.82 713.09 533.37C714.26 533.92 714.84 535.17 714.38 536.16ZM705.62 554.27L714.13 536.04C714.54 535.17 714.03 534.06 713 533.58C711.97 533.1 710.79 533.42 710.38 534.29L701.87 552.52C701.46 553.4 701.97 554.51 703.01 554.99C704.05 555.47 705.22 555.15 705.63 554.27H705.62Z" fill="black"/>
<path d="M714.13 536.05L705.62 554.28C705.21 555.16 704.03 555.48 703 555C701.97 554.52 701.45 553.41 701.86 552.53L710.37 534.3C710.78 533.43 711.95 533.11 712.99 533.59C714.03 534.07 714.53 535.18 714.12 536.05H714.13Z" fill="#010000"/>
<path d="M684.83 610.22C684.83 610.22 684.07 606.29 678.61 606.7C678.61 606.7 681.65 606 681.16 604.02C681.12 603.87 681.07 603.72 681 603.59C680.25 602.11 677.98 602.5 677.28 602.65C677.2 602.67 677.13 602.68 677.05 602.7C675.59 603 674.38 603.24 673.28 604.03" stroke="black" stroke-width="2" stroke-miterlimit="10"/>
<path d="M476.49 524.05C476.65 522.96 477.37 521.97 478.43 521.42C479.49 520.87 480.71 520.83 481.7 521.32L540.7 550.54C541.78 551.08 542.38 552.11 542.3 553.3C542.23 554.49 541.49 555.57 540.34 556.17L509.91 572.17C509.84 572.05 509.69 572.01 509.56 572.07L540.22 555.95C540.37 555.87 540.5 555.79 540.64 555.7C542.5 554.39 542.14 551.55 540.13 550.56L481.55 521.54C480.64 521.09 479.52 521.12 478.54 521.64C477.56 522.16 476.9 523.06 476.76 524.06L467.48 588.77C467.16 590.99 469.3 592.89 471.43 592.1C471.58 592.05 471.73 591.98 471.87 591.9L502.43 575.83C502.31 575.89 502.25 576.05 502.31 576.17L471.99 592.12C470.84 592.73 469.54 592.72 468.51 592.11C467.49 591.49 466.97 590.42 467.15 589.22L476.49 524.05V524.05Z" fill="black"/>
<path d="M540.13 550.55C542.14 551.54 542.5 554.38 540.64 555.69C540.51 555.78 540.37 555.87 540.22 555.94L509.56 572.06L502.43 575.81L471.87 591.88C471.72 591.96 471.57 592.03 471.43 592.08C469.3 592.87 467.16 590.97 467.48 588.75L476.76 524.04C476.91 523.04 477.57 522.13 478.54 521.62C479.51 521.11 480.64 521.07 481.55 521.52L540.13 550.54V550.55ZM504.42 562.91C503.56 561.28 501.38 560.74 499.56 561.7C497.74 562.66 496.95 564.76 497.81 566.39C498.67 568.02 500.85 568.56 502.67 567.6C504.49 566.64 505.28 564.54 504.42 562.91ZM499.73 556.97L489.85 538.19C489.31 537.17 487.94 536.83 486.79 537.43C485.64 538.03 485.15 539.35 485.69 540.38L495.57 559.16C496.11 560.18 497.48 560.52 498.62 559.92C499.76 559.32 500.27 557.99 499.73 556.97Z" fill="#FFEA28"/>
<path d="M509.56 572.36L509.91 572.17L529.46 609.34C529.52 609.46 529.48 609.61 529.35 609.67L522.21 613.42C522.08 613.49 521.92 613.44 521.86 613.32L502.32 576.17L502.68 575.97L509.56 572.35V572.36Z" fill="#FAF9FC"/>
<path d="M509.91 572.17L509.56 572.36L502.68 575.98L502.32 576.17C502.26 576.04 502.32 575.89 502.44 575.83L509.57 572.08C509.69 572.02 509.85 572.06 509.92 572.18L509.91 572.17Z" fill="black"/>
<path d="M499.56 561.71C501.38 560.75 503.56 561.3 504.42 562.92C505.28 564.54 504.49 566.65 502.67 567.61C500.85 568.57 498.67 568.02 497.81 566.4C496.95 564.78 497.74 562.67 499.56 561.71ZM504.17 563.05C503.38 561.54 501.36 561.04 499.67 561.93C497.98 562.82 497.25 564.77 498.05 566.27C498.85 567.77 500.86 568.28 502.55 567.39C504.24 566.5 504.97 564.55 504.17 563.05Z" fill="black"/>
<path d="M502.533 567.452C504.224 566.562 504.951 564.617 504.157 563.106C503.362 561.596 501.347 561.092 499.656 561.982C497.965 562.871 497.238 564.817 498.032 566.327C498.826 567.838 500.841 568.341 502.533 567.452Z" fill="#010000"/>
<path d="M489.851 538.19L499.731 556.97C500.271 557.99 499.771 559.32 498.621 559.92C497.471 560.52 496.111 560.18 495.571 559.16L485.691 540.38C485.151 539.36 485.651 538.04 486.791 537.43C487.931 536.82 489.311 537.17 489.851 538.19ZM499.481 557.1L489.601 538.32C489.131 537.42 487.921 537.12 486.901 537.65C485.881 538.18 485.451 539.35 485.931 540.25L495.811 559.03C496.281 559.93 497.491 560.23 498.501 559.7C499.511 559.17 499.951 558 499.481 557.1Z" fill="black"/>
<path d="M489.61 538.321L499.49 557.1C499.96 558 499.53 559.171 498.51 559.701C497.49 560.231 496.29 559.931 495.82 559.031L485.94 540.251C485.47 539.351 485.9 538.181 486.91 537.651C487.92 537.121 489.13 537.421 489.61 538.321Z" fill="#010000"/>
<path d="M518.69 616.08C518.69 616.08 519.63 611.82 525.57 612.43C525.57 612.43 522.28 611.57 522.88 609.43C522.93 609.26 522.99 609.1 523.07 608.97C523.92 607.38 526.38 607.88 527.14 608.06C527.23 608.08 527.31 608.1 527.39 608.12C528.97 608.49 530.28 608.79 531.46 609.67" stroke="black" stroke-width="2" stroke-miterlimit="10"/>
</g>
<defs>
<clipPath id="clip0_1261_27655">
<rect width="868.19" height="982.5" fill="white"/>
</clipPath>
</defs>
</svg>
