<?xml version="1.0" encoding="UTF-8"?><svg id="Calque_1" xmlns="http://www.w3.org/2000/svg" viewBox="0 0 371.42 277.98"><defs><style>.cls-1{fill:#f8b8d2;}.cls-2{fill:#010000;}.cls-3{fill:#fff;}.cls-4{fill:#faf9fc;}.cls-5{fill:#b3aff3;}.cls-6{fill:#4138e2;}.cls-7{stroke-linecap:round;stroke-linejoin:round;}.cls-7,.cls-8{fill:none;stroke:#000;stroke-width:2px;}.cls-8{stroke-miterlimit:10;}</style></defs><g><g><path class="cls-6" d="M35.77,156.56c-12.22,3.62-22.26,3.35-28.65-3.26-20.59-21.29,13.86-42.93,57.84-59.12,1.01,.35,2.34,.5,3.18-.62,.15-.2,.26-.42,.31-.65,38.47-13.75,83.2-23.32,104.63-24.93,24.61-1.85,78.6,1.35,123.89,10.92,.05,.14,.12,.28,.22,.41,.94,1.31,2.62,.82,3.54,.4,46.37,10.27,82.29,27.41,65.48,52.87-4.88,7.39-12.48,10.26-21.93,10.04-42.58-1.01-122.86-64.93-162.67-62.3-32.4,2.14-102.69,63.46-145.84,76.24Z"/><path class="cls-5" d="M294.91,234.43s0-.02,0-.03c-.33-1.85-.61-7.39,8.28-6.38l-.61,3.05c-.54,4.44,3.87,4.23,3.87,4.23,3.4,.66,3.71-5.1,3.71-5.1l.03-.33c6.46,3.22,8.03,10.5,2,10.38v.02l-.1,3.17h0s16.71,2.2,16.42,18.24c0,0-.24,5.18-15.02,4.65-14.23-.52-29.36-7.35-29.36-13.26,.01-5.91,6.5-14.52,10.92-18.09,0,0-.06-.21-.13-.55Z"/><path class="cls-4" d="M322.75,26.62c-.07,.01-.06,.01,0,0h0Zm-12.49-16.03h.02c.63,1.42,1.62,2.56,3.32,3.57,1.91,1.14,3.03-.6,2.97-.6l.04-.03c-1.32-1.67-1.37-4.45-1.38-5.22-.01-1.14-.07-4.56,2.08-5.06h0c6.45-2.2,10.64,4.94,10.21,14.23-.34,7.3-4.01,8.88-4.71,9.12,.06,0,.14-.02,.24-.03,1.65-.2,4.73,5.33-6.74,6.61-1.12,.12-2.38,.21-3.79,.24-.68,.02-1.32,.02-1.92,0-13.6-.25-9.68-7.29-9.68-7.29-9.84-9.37-3.14-14.81-3.14-14.81,1.78-1.27,3.73-1.67,6.09-2.16,.13-.03,.25-.05,.38-.08,1.13-.24,4.8-.88,6.01,1.51Z"/><path class="cls-4" d="M317.31,3.24h0c-2.15,.51-2.09,3.93-2.08,5.07,0,.77,.06,3.55,1.38,5.22l-.04,.03c.06,0-1.06,1.74-2.97,.6-1.7-1.01-2.69-2.15-3.32-3.58-.49-1.12-.75-2.41-.97-3.96-.32-2.26,.63-3.6,1.07-4.08,.13-.14,.21-.21,.21-.21,3.58-3.22,6.72,.91,6.72,.91Z"/><path class="cls-2" d="M316.96,41.87s1.25,15.48-2.4,22.1c-3.67,6.66-13.17,15.39-13.17,15.39,0,0-.26,.17-.66,.35-1.25-.27-2.5-.54-3.76-.81-1.07-2.83,5.41-7.43,5.41-7.43,4.34-4.08,4.97-4.79,7.78-9.85,2.96-5.33,1.91-9.83,1.8-13.3-.16-5.24-1.13-9.91-1.36-14.9,.6,.02,1.24,.02,1.92,0,1.41-.03,2.67-.12,3.79-.24l.65,8.69Z"/><path class="cls-2" d="M311.19,192.89s2.42,7.99,1.14,17.23c-1.29,9.23-1.36,11.94-1.36,11.94l-.79,7.81c-.82-.41-1.72-.76-2.69-1.01-1.63-.43-3.06-.7-4.31-.84l2.57-12.95s3.55-11.42-1.77-22.14c-5.33-10.72-22.9-41.13-22.9-41.13,0,0-2.95-3.65,.39-5.53,3.34-1.87,5.07,.38,6.7,2.8,5.57,8.26,23.02,43.82,23.02,43.82Z"/><path class="cls-4" d="M310.17,2.74c.07-.07,.14-.15,.21-.2-.44,.48-1.39,1.82-1.07,4.08,.22,1.55,.48,2.84,.97,3.96h-.02c-1.21-2.38-4.88-1.74-6.01-1.5-.13,.03-.25,.05-.38,.08l-.06-.3c-1.24-4.96-.84-6.01-.84-6.01,.11-.45,.5-.75,.83-1.04,.64-.57,1.3-.76,2.59-.81,2.05-.08,3.78,1.74,3.78,1.74Z"/><path class="cls-2" d="M310.18,229.87l-.03,.33s-.31,5.76-3.71,5.1c0,0-4.41,.21-3.87-4.23l.61-3.05c1.25,.14,2.68,.41,4.31,.84,.97,.25,1.87,.6,2.69,1.01Z"/><path class="cls-4" d="M303.81,8.86l.06,.3c-2.36,.49-4.31,.89-6.09,2.16-.26-4.32-.96-6.14,.8-7.92,1.77-1.78,4.39-.55,4.39-.55,0,0-.4,1.05,.84,6.01Z"/><path class="cls-2" d="M77.26,155.58c2.86,1.8,.22,5.13,.22,5.13,0,0-21.03,38.67-25.9,48.48-4.86,9.82-2.01,20.47-2.01,20.47l1.97,12.04c-1.09,.11-2.34,.33-3.78,.69-.85,.21-1.64,.51-2.36,.88l-.52-7.24s-.01-2.52-.93-11.1c-.92-8.57,1.35-15.93,1.35-15.93,0,0,21.04-43.44,26.06-50.97,1.47-2.21,3.03-4.25,5.9-2.45Z"/><path class="cls-2" d="M62.69,84.89s6.64,4.95,5.76,8.02c-1.17,.42-2.33,.85-3.49,1.27-.79-.28-1.39-.68-1.39-.68,0,0-10.13-9.75-13.96-17.1-3.8-7.31-2.04-24.13-2.04-24.13l.91-9.26c.93,.1,1.94,.18,3.03,.23,1.16,.06,2.23,.07,3.2,.05-.38,5.4-1.54,10.45-1.86,16.13-.21,3.78-1.47,8.65,1.62,14.54,2.93,5.58,3.6,6.37,8.22,10.93Z"/><path class="cls-6" d="M68.45,92.91c-.05,.23-.16,.45-.31,.65-.84,1.12-2.17,.97-3.18,.62,1.16-.42,2.32-.85,3.49-1.27Z"/><path class="cls-4" d="M67.46,10.9c1.88,1.98,1.07,3.94,.68,8.64-1.92-1.43-4.03-1.9-6.59-2.5l.08-.33c1.48-5.37,1.07-6.53,1.07-6.53,0,0,2.88-1.27,4.76,.72Z"/><path class="cls-4" d="M47.06,10.26c2.34,.59,2.18,4.32,2.14,5.56-.03,.84-.15,3.85-1.63,5.64l.04,.04c-.07,0,1.1,1.93,3.21,.73,1.88-1.06,2.99-2.27,3.71-3.82l.03,.02c1.37-2.57,5.35-1.78,6.58-1.49,.14,.03,.27,.07,.41,.1,2.56,.6,4.67,1.07,6.59,2.5,0,0,7.16,6.1-3.81,16.06,0,0,3.89,7.37-9.62,7.69-.97,.02-2.04,0-3.2-.05-1.09-.05-2.1-.13-3.03-.23-13.76-1.48-10.11-7.77-8.27-7.5,.19,.03,.31,.05,.35,.06s.03,.01,0,0c-.41-.14-4.8-1.71-4.98-10.08-.23-10.13,4.51-17.8,11.49-15.25v.02Z"/><path class="cls-5" d="M43.46,255.8l-.02-2.93v-.02c-5.25-.02-3.73-6.74,1.96-9.58l.02,.31s.14,5.34,3.12,4.8c0,0,3.84,.29,3.47-3.83l-.47-2.85c7.73-.73,7.4,4.35,7.07,6.07,0,0,0,.02-.01,.03-.06,.33-.12,.53-.12,.53,3.77,3.4,9.24,11.51,9.12,16.99-.12,5.47-13.44,11.48-25.84,11.65-12.89,.18-12.98-4.62-12.98-4.62,.08-14.86,14.68-16.54,14.68-16.54h0Z"/><path class="cls-4" d="M62.7,10.18s.41,1.16-1.07,6.53l-.08,.33c-.14-.03-.27-.07-.41-.1-1.23-.29-5.21-1.08-6.58,1.49l-.03-.02c.56-1.2,.89-2.6,1.17-4.28,.41-2.47-.61-3.95-1.07-4.48,.08,.08,.15,.16,.23,.24,0,0,1.92-1.94,4.16-1.8,1.41,.08,2.11,.3,2.8,.94,.36,.32,.77,.66,.88,1.15Z"/><path class="cls-4" d="M54.63,9.65c.46,.53,1.48,2.01,1.07,4.48-.28,1.68-.61,3.08-1.17,4.28-.72,1.55-1.83,2.76-3.71,3.82-2.11,1.2-3.28-.73-3.21-.73l-.04-.04c1.48-1.79,1.6-4.8,1.63-5.64,.04-1.24,.2-4.97-2.14-5.56v-.02s3.54-4.42,7.35-.81l.06,.06c.05,.04,.1,.1,.15,.15,0,0,0,.01,.01,.01Z"/><path class="cls-2" d="M52.01,244.55c.37,4.12-3.47,3.83-3.47,3.83-2.98,.54-3.12-4.8-3.12-4.8l-.02-.31c.72-.37,1.51-.67,2.36-.88,1.44-.36,2.69-.58,3.78-.69l.47,2.85Z"/></g><g><polyline class="cls-8" points="35.48 156.57 35.77 156.56 344.27 142.84"/><path class="cls-8" d="M183.15,67.37c-1.53-37.09,22.78-19.11,21.73-43.17-1.12-25.99-37.85-29.53-40.96-1.63"/><path class="cls-8" d="M68.45,92.91c38.47-13.75,83.2-23.32,104.63-24.93,24.61-1.85,78.6,1.35,123.89,10.92,1.26,.27,2.51,.54,3.76,.81,46.37,10.27,82.29,27.41,65.48,52.87-4.88,7.39-12.48,10.26-21.93,10.04-42.58-1.01-122.86-64.93-162.67-62.3-32.4,2.14-102.69,63.46-145.84,76.24-12.22,3.62-22.26,3.35-28.65-3.26-20.59-21.29,13.86-42.93,57.84-59.12,1.16-.42,2.32-.85,3.49-1.27Z"/><path class="cls-8" d="M163.33,177.58c-.11-.4,16.69,43.79,35.91,1.02"/><path class="cls-8" d="M166.45,174.78c-2.41-.11-5.8,5.21-5.9,7.62"/><path class="cls-8" d="M195.34,175.93c3.5,.15,5.64,4.59,5.41,6.73"/><path class="cls-8" d="M58.61,247.77c.33-1.72,.66-6.8-7.07-6.07-1.09,.11-2.34,.33-3.78,.69-.85,.21-1.64,.51-2.36,.88-5.69,2.84-7.21,9.56-1.96,9.58v.02l.02,2.93h0s-14.6,1.69-14.68,16.55c0,0,.09,4.8,12.98,4.62,12.4-.17,25.72-6.18,25.84-11.65,.12-5.48-5.35-13.59-9.12-16.99,0,0,.06-.2,.12-.53"/><path class="cls-8" d="M57.6,260.82s-5.07-6.49-14.14-5.02c-.05,0-.1,.01-.15,.02"/><path class="cls-8" d="M45.54,252.68s-1.22,.19-2.1,.19h-.09"/><path class="cls-8" d="M55.82,250.6s2.11-.76,2.78-2.8c.01,0,.01-.02,.01-.03,.01-.01,.02-.03,.02-.04"/><path class="cls-8" d="M45.4,243.27l.02,.31s.14,5.34,3.12,4.8c0,0,3.84,.29,3.47-3.83l-.47-2.85-1.97-12.04s-2.85-10.65,2.01-20.47c4.87-9.81,25.9-48.48,25.9-48.48,0,0,2.64-3.33-.22-5.13-2.87-1.8-4.43,.24-5.9,2.45-5.02,7.53-26.06,50.97-26.06,50.97,0,0-2.27,7.36-1.35,15.93,.92,8.58,.93,11.1,.93,11.1l.52,7.24Z"/><path class="cls-8" d="M294.9,234.4c-.33-1.85-.61-7.39,8.28-6.38,1.25,.14,2.68,.41,4.31,.84,.97,.25,1.87,.6,2.69,1.01,6.46,3.22,8.03,10.5,2,10.38v.02l-.1,3.17h0s16.71,2.2,16.42,18.24c0,0-.24,5.18-15.02,4.65-14.23-.52-29.36-7.35-29.36-13.26,.01-5.91,6.5-14.52,10.92-18.09,0,0-.06-.21-.13-.55"/><path class="cls-8" d="M295.72,248.48s5.99-6.86,16.36-5.04c.06,.01,.11,.02,.17,.03"/><path class="cls-8" d="M309.77,240.01s1.39,.24,2.41,.26c.04,0,.07,0,.11,0"/><path class="cls-8" d="M298.03,237.5s-2.38-.86-3.12-3.07c0-.01,0-.02,0-.03,0-.02-.01-.05-.02-.07"/><path class="cls-8" d="M310.18,229.87l-.03,.33s-.31,5.76-3.71,5.1c0,0-4.41,.21-3.87-4.23l.61-3.05,2.57-12.95s3.55-11.42-1.77-22.14c-5.33-10.72-22.9-41.13-22.9-41.13,0,0-2.95-3.65,.39-5.53,3.34-1.87,5.07,.38,6.7,2.8,5.57,8.26,23.02,43.82,23.02,43.82,0,0,2.42,7.99,1.14,17.23-1.29,9.23-1.36,11.94-1.36,11.94l-.79,7.81Z"/><path class="cls-8" d="M54.76,42.58c0,.24-.03,.47-.05,.71-.38,5.4-1.54,10.45-1.86,16.13-.21,3.78-1.47,8.65,1.62,14.54,2.93,5.58,3.6,6.37,8.22,10.93,0,0,6.64,4.95,5.76,8.02-.05,.23-.16,.45-.31,.65-.84,1.12-2.17,.97-3.18,.62-.79-.28-1.39-.68-1.39-.68,0,0-10.13-9.75-13.96-17.1-3.8-7.31-2.04-24.13-2.04-24.13l.91-9.26,.08-.85"/><path class="cls-8" d="M310.57,32.83c.01,.2,.01,.39,.03,.59,.23,4.99,1.2,9.66,1.36,14.9,.11,3.47,1.16,7.97-1.8,13.3-2.81,5.06-3.44,5.77-7.78,9.85,0,0-6.48,4.6-5.41,7.43,.05,.14,.12,.28,.22,.41,.94,1.31,2.62,.82,3.54,.4,.4-.18,.66-.35,.66-.35,0,0,9.5-8.73,13.17-15.39,3.65-6.62,2.4-22.1,2.4-22.1l-.65-8.69-.04-.6"/><path class="cls-8" d="M310.38,2.54c-.07,.05-.14,.13-.21,.2,0,0-1.73-1.82-3.78-1.74-1.29,.05-1.95,.24-2.59,.81-.33,.29-.72,.59-.83,1.04,0,0-2.62-1.23-4.39,.55-1.76,1.78-1.06,3.6-.8,7.92,0,0-6.7,5.44,3.14,14.81"/><path class="cls-8" d="M322.81,26.6c.7-.24,4.37-1.82,4.71-9.12,.43-9.29-3.76-16.43-10.21-14.24,0,0-3.14-4.13-6.72-.91"/><path class="cls-8" d="M322.75,26.62c-.07,.01-.06,.01,0,0h0Z"/><path class="cls-8" d="M322.75,26.62s.02,0,.03,0,.02,0,.03-.01"/><path class="cls-8" d="M300.92,26.13s-3.92,7.04,9.68,7.29c.6,.02,1.24,.02,1.92,0,1.41-.03,2.67-.12,3.79-.24,11.47-1.28,8.39-6.81,6.74-6.61-.1,.01-.18,.03-.24,.03"/><path class="cls-8" d="M322.55,8.98s1.64,5.46-2.79,5.83c-1.48,.12-2.48-.44-3.15-1.28-1.32-1.67-1.37-4.45-1.38-5.22-.01-1.14-.07-4.56,2.08-5.06,.03-.01,.06-.01,.09-.02"/><path class="cls-8" d="M316.48,21.3s-1.24-6.36-10.07-5.67c0,0,4.91-1.15,4.11-4.35-.06-.25-.15-.48-.26-.69-1.21-2.39-4.88-1.75-6.01-1.51-.13,.03-.25,.05-.38,.08-2.36,.49-4.31,.89-6.09,2.16"/><path class="cls-8" d="M310.59,2.33s-.08,.07-.21,.21c-.44,.48-1.39,1.82-1.07,4.08,.22,1.55,.48,2.84,.97,3.96,.63,1.43,1.62,2.57,3.32,3.58,1.91,1.14,3.03-.6,2.97-.6"/><path class="cls-8" d="M302.97,2.85s-.4,1.05,.84,6.01"/><path class="cls-8" d="M318.1,27.84c.23,0,1.65,.25,4.56-1.19"/><path class="cls-8" d="M306.57,28.08s-3.31-.08-5.87-2.24"/><path class="cls-7" d="M54.63,9.65c.08,.08,.15,.16,.23,.24,0,0,1.92-1.94,4.16-1.8,1.41,.08,2.11,.3,2.8,.94,.36,.32,.77,.66,.88,1.15,0,0,2.88-1.27,4.76,.72,1.88,1.98,1.07,3.94,.68,8.64,0,0,7.16,6.1-3.81,16.06"/><path class="cls-7" d="M40.56,35.57c-.41-.14-4.8-1.71-4.98-10.08-.23-10.13,4.51-17.8,11.49-15.25,0,0,3.53-4.42,7.34-.81l.06,.06c.05,.04,.1,.1,.15,.15"/><path class="cls-7" d="M40.56,35.57s.03,.01,0,0h0Z"/><path class="cls-7" d="M64.33,35.6s3.89,7.37-9.62,7.69c-.97,.02-2.04,0-3.2-.05-1.09-.05-2.1-.13-3.03-.23-13.76-1.48-10.11-7.77-8.27-7.5,.19,.03,.31,.05,.35,.06"/><path class="cls-8" d="M41.22,16.36s-1.94,5.91,2.88,6.43c1.62,.17,2.72-.42,3.47-1.33,1.48-1.79,1.6-4.8,1.63-5.64,.04-1.24,.2-4.97-2.14-5.56-.03-.02-.06-.02-.09-.03"/><path class="cls-8" d="M47.51,29.94s1.51-6.9,11.11-5.92c0,0-5.32-1.38-4.36-4.84,.08-.28,.18-.53,.3-.75,1.37-2.57,5.35-1.78,6.58-1.49,.14,.03,.27,.07,.41,.1,2.56,.6,4.67,1.07,6.59,2.5"/><path class="cls-8" d="M54.53,18.41c-.72,1.55-1.83,2.76-3.71,3.82-2.11,1.2-3.28-.73-3.21-.73"/><path class="cls-7" d="M54.62,9.64s0,.01,.01,.01c.46,.53,1.48,2.01,1.07,4.48-.28,1.68-.61,3.08-1.17,4.28"/><path class="cls-8" d="M54.41,9.43l.06,.06s.09,.08,.15,.15"/><path class="cls-8" d="M62.7,10.18s.41,1.16-1.07,6.53"/><path class="cls-8" d="M45.58,37.02c-.26,0-1.81,.23-4.95-1.41"/><path class="cls-8" d="M58.13,37.57s3.61,0,6.45-2.29"/></g></g><g><g><path class="cls-4" d="M238.53,77.12c13.52,.54,23.43,27.37,22.13,59.93-.31,7.78-1.24,15.19-2.65,21.95l-.22-.05c-.28-1.34-4.84-2.3-10.92-2.51,.19-4.1,2.84-20.83,2.84-20.83,0,0-20.81-1.29-19.95-1.79,14.09-8.14,15.24-10.9,17.67-16.31,1.14-2.56,1.23-5.96,1.35-8.96,.31-7.62-4.25-16.82-11.23-19.46-2.96-1.12-8.07,1.68-8.07,1.68-4.08,1.84-8.91,22.66-9.27,31.66-.33,8.12,1.24,34.22,1.45,37.7-3.87,1.68-6.63,4-7.24,7.1l-.08,.02c-.14-.6-.27-1.21-.4-1.83-1.83-8.92-2.68-19.29-2.24-30.32,1.29-32.56,13.31-58.52,26.83-57.98Z"/><path class="cls-1" d="M246.87,156.44c6.08,.21,10.64,1.17,10.92,2.51l.22,.05c-4.48,21.51-13.89,36.43-24.18,36.03-8.62-.35-15.78-11.38-19.49-27.78l.08-.02c.61-3.1,3.37-5.42,7.24-7.1,6.91-3.01,17.33-3.97,25.21-3.69Z"/><path class="cls-2" d="M237.55,89.09c6.98,2.64,11.54,11.84,11.23,19.46-.12,3-.21,6.4-1.35,8.96-2.43,5.41-3.58,8.17-17.67,16.31-.86,.5,19.95,1.79,19.95,1.79,0,0-2.65,16.73-2.84,20.83-7.88-.28-18.3,.68-25.21,3.69-.21-3.48-1.78-29.58-1.45-37.7,.36-9,5.19-29.82,9.27-31.66,0,0,5.11-2.8,8.07-1.68Z"/><path class="cls-4" d="M140.19,83.71c13.24,.53,22.99,25.79,21.77,56.41-.38,9.6-1.8,18.58-3.97,26.38l-.08-.02c-4.25-2.09-8.58-3.16-12.76-3.56,2.15-5.55,3.79-12.88,4.57-21.14l-20.63-2.97,21.11-9.68c-.33-18.19-5.11-32.21-11.53-32.47-7.17-.28-13.68,16.71-14.52,37.95-.48,12.02,.95,22.83,3.59,30-6.59,1.8-10.96,4.24-10.96,4.24h-.04c-2.16-8.83-3.19-19.37-2.74-30.64,1.22-30.62,12.94-55.03,26.19-54.5Z"/><path class="cls-1" d="M157.91,166.48l.08,.02c-4.75,17.09-13.13,28.48-22.22,28.12-8.02-.32-14.76-9.71-18.56-23.88-.17-.62-.33-1.25-.47-1.88h.04s4.37-2.45,10.96-4.25c4.87-1.33,10.96-2.31,17.41-1.69,4.18,.4,8.51,1.47,12.76,3.56Z"/><path class="cls-2" d="M150.2,129.13l-21.11,9.68,20.63,2.97c-.78,8.26-2.42,15.59-4.57,21.14-6.45-.62-12.54,.36-17.41,1.69-2.64-7.17-4.07-17.98-3.59-30,.84-21.24,7.35-38.23,14.52-37.95,6.42,.26,11.2,14.28,11.53,32.47Z"/></g><g><path class="cls-8" d="M157.91,166.48c-4.25-2.09-8.58-3.16-12.76-3.56"/><path class="cls-8" d="M127.74,164.61c-6.59,1.8-10.96,4.24-10.96,4.24"/><path class="cls-8" d="M145.15,162.92c2.15-5.55,3.79-12.88,4.57-21.14l-20.63-2.97,21.11-9.68c-.33-18.19-5.11-32.21-11.53-32.47-7.17-.28-13.68,16.71-14.52,37.95-.48,12.02,.95,22.83,3.59,30,4.87-1.33,10.96-2.31,17.41-1.69Z"/><path class="cls-8" d="M257.79,158.95c-.28-1.34-4.84-2.3-10.92-2.51-7.88-.28-18.3,.68-25.21,3.69-3.87,1.68-6.63,4-7.24,7.1"/><path class="cls-8" d="M221.69,160.52l-.03-.39c-.21-3.48-1.78-29.58-1.45-37.7,.36-9,5.19-29.82,9.27-31.66,0,0,5.11-2.8,8.07-1.68,6.98,2.64,11.54,11.84,11.23,19.46-.12,3-.21,6.4-1.35,8.96-2.43,5.41-3.58,8.17-17.67,16.31-.86,.5,19.95,1.79,19.95,1.79,0,0-2.65,16.73-2.84,20.83v.07"/><path class="cls-8" d="M116.74,168.86c-2.16-8.84-3.19-19.38-2.74-30.65,1.22-30.62,12.94-55.03,26.19-54.5,13.24,.53,22.99,25.79,21.77,56.41-.38,9.6-1.8,18.58-3.97,26.38-4.75,17.09-13.13,28.48-22.22,28.12-8.02-.32-14.76-9.71-18.56-23.88-.17-.62-.33-1.25-.47-1.88Z"/><path class="cls-8" d="M214.34,167.25c-.14-.6-.27-1.21-.4-1.83-1.83-8.92-2.68-19.29-2.24-30.32,1.29-32.56,13.31-58.52,26.83-57.98,13.52,.54,23.43,27.37,22.13,59.93-.31,7.78-1.24,15.19-2.65,21.95-4.48,21.51-13.89,36.43-24.18,36.03-8.62-.35-15.78-11.38-19.49-27.78Z"/></g></g><path class="cls-3" d="M15.61,135.41c.62-4.27,3.27-8.26,7.03-9.91,1.94-.7,4.36-.65,6.11-1.51,1.78-.83,3.13-2.28,4.31-4.05,4.55-6.97,12.53-11.24,21.02-9.89l.43,.79c-1.79,4.09-4.49,6.97-7.87,9.41-2.41,1.53-5.18,2.47-7.92,3.33-2.82,.59-6.26,.68-8.34,2.81-1.42,1.3-2.13,3.58-3.28,5.15-1.15,1.59-2.85,2.43-4.59,3.23-1.99,.85-3.95,1.36-6.3,1.32l-.6-.67h0Z"/><circle class="cls-3" cx="238.04" cy="110.64" r="4.09"/><circle class="cls-3" cx="141.43" cy="114.89" r="4.09"/></svg>