<?xml version="1.0" encoding="UTF-8" standalone="no"?>
<!DOCTYPE svg PUBLIC "-//W3C//DTD SVG 1.1//EN" "http://www.w3.org/Graphics/SVG/1.1/DTD/svg11.dtd">
<svg width="100%" height="100%" viewBox="0 0 960 560" version="1.1" xmlns="http://www.w3.org/2000/svg" xmlns:xlink="http://www.w3.org/1999/xlink" xml:space="preserve" xmlns:serif="http://www.serif.com/" style="fill-rule:evenodd;clip-rule:evenodd;stroke-miterlimit:10;">
    <g id="fond-jaune" serif:id="fond jaune" transform="matrix(0.969539,0,0,0.932305,29.2429,37.909)">
        <rect x="-30.162" y="-40.662" width="990.162" height="600.662" style="fill:rgb(255,234,40);"/>
    </g>
    <g id="Group-53.svg" serif:id="Group 53.svg" transform="matrix(1,0,0,1,480,280)">
        <g transform="matrix(1,0,0,1,-239,-177.5)">
            <clipPath id="_clip1">
                <rect x="0" y="0" width="478" height="355"/>
            </clipPath>
            <g clip-path="url(#_clip1)">
                <g opacity="0.33">
                    <g opacity="0.5">
                        <path d="M131.213,18.414C98.031,16.261 66.921,79.27 61.737,159.159C60.496,178.248 60.866,196.592 62.576,213.471L63.127,213.405C64.155,210.203 75.547,209.029 90.46,210.077C91.049,200.011 88.868,158.453 88.868,158.453C88.868,158.453 140.06,160.647 138.086,159.204C105.74,135.696 103.639,128.657 99.089,114.814C96.96,108.267 97.613,99.936 98.091,92.575C99.29,73.878 112.797,52.57 130.534,47.913C138.056,45.937 149.826,54.091 149.826,54.091C159.325,59.634 165.783,111.745 164.352,133.828C163.073,153.753 152.533,217.12 151.126,225.569C160.153,230.668 166.303,237.046 166.998,244.777L167.188,244.846C167.684,243.416 168.159,241.959 168.636,240.477C175.399,219.153 180.14,194.034 181.897,166.971C187.106,87.085 164.395,20.568 131.213,18.414Z" style="fill:rgb(250,249,252);fill-rule:nonzero;"/>
                        <path d="M90.462,210.077C75.548,209.029 64.157,210.203 63.128,213.405L62.578,213.471C68.003,267.178 87.17,306.049 112.421,307.715C133.579,309.074 153.911,283.964 167.19,244.846L166.999,244.777C166.304,237.045 160.155,230.668 151.128,225.569C135.013,216.44 109.792,211.417 90.462,210.077Z" style="fill:rgb(248,184,210);fill-rule:nonzero;"/>
                        <path d="M130.536,47.912C112.799,52.57 99.291,73.877 98.092,92.575C97.615,99.936 96.962,108.266 99.091,114.814C103.64,128.656 105.742,135.696 138.088,159.204C140.062,160.646 88.87,158.453 88.87,158.453C88.87,158.453 91.05,200.01 90.462,210.077C109.793,211.417 135.013,216.439 151.128,225.569C152.535,217.12 163.075,153.752 164.353,133.827C165.785,111.745 159.327,59.634 149.828,54.09C149.828,54.09 138.058,45.936 130.536,47.912Z" style="fill:rgb(1,0,0);fill-rule:nonzero;"/>
                        <path d="M369.868,59.777C337.373,57.671 307.057,116.885 302.175,192.013C300.638,215.567 301.803,237.873 305.103,257.488L305.304,257.46C316.228,253.445 327.085,251.943 337.404,252.039C333.574,237.926 331.449,219.595 331.664,199.213L382.846,197.256L333.739,168.182C339.217,123.822 354.5,90.794 370.257,91.808C387.853,92.966 399.4,136.151 395.999,188.263C394.085,217.755 387.814,243.8 379.52,260.641C395.164,266.732 405.218,273.816 405.218,273.816L405.316,273.826C412.862,252.806 418.086,227.318 419.881,199.666C424.763,124.538 402.387,61.885 369.868,59.777Z" style="fill:rgb(250,249,252);fill-rule:nonzero;"/>
                        <path d="M305.304,257.459L305.103,257.488C312.323,300.464 329.879,330.447 352.188,331.902C371.871,333.18 390.755,311.969 403.681,278.323C404.256,276.852 404.809,275.353 405.313,273.85L405.215,273.84C405.215,273.84 395.164,266.731 379.52,260.64C367.959,256.14 353.327,252.181 337.404,252.039C327.085,251.942 316.227,253.444 305.304,257.459Z" style="fill:rgb(248,184,210);fill-rule:nonzero;"/>
                        <path d="M333.739,168.182L382.847,197.256L331.664,199.213C331.449,219.596 333.575,237.927 337.404,252.039C353.327,252.181 367.96,256.14 379.521,260.641C387.814,243.8 394.085,217.755 395.999,188.263C399.401,136.151 387.853,92.966 370.257,91.809C354.5,90.795 339.217,123.822 333.739,168.182Z" style="fill:rgb(1,0,0);fill-rule:nonzero;"/>
                        <path d="M305.303,257.46C316.227,253.445 327.085,251.943 337.403,252.04" style="fill:none;fill-rule:nonzero;stroke:black;stroke-width:2px;"/>
                        <path d="M379.52,260.642C395.164,266.732 405.217,273.817 405.217,273.817" style="fill:none;fill-rule:nonzero;stroke:black;stroke-width:2px;"/>
                        <path d="M337.404,252.039C333.575,237.927 331.449,219.596 331.664,199.213L382.847,197.256L333.739,168.182C339.217,123.822 354.5,90.795 370.257,91.809C387.853,92.966 399.401,136.151 395.999,188.263C394.085,217.755 387.814,243.8 379.521,260.641C367.96,256.14 353.327,252.181 337.404,252.039Z" style="fill:none;fill-rule:nonzero;stroke:black;stroke-width:2px;"/>
                        <path d="M63.128,213.405C64.156,210.203 75.548,209.029 90.461,210.077C109.792,211.417 135.012,216.44 151.127,225.569C160.154,230.668 166.304,237.046 166.999,244.777" style="fill:none;fill-rule:nonzero;stroke:black;stroke-width:2px;"/>
                        <path d="M150.955,226.514L151.128,225.569C152.535,217.12 163.075,153.752 164.353,133.827C165.785,111.745 159.327,59.634 149.828,54.09C149.828,54.09 138.058,45.936 130.536,47.912C112.799,52.57 99.291,73.877 98.092,92.575C97.615,99.936 96.962,108.266 99.091,114.814C103.64,128.656 105.742,135.696 138.088,159.204C140.062,160.646 88.87,158.453 88.87,158.453C88.87,158.453 91.05,200.01 90.462,210.077L90.444,210.248" style="fill:none;fill-rule:nonzero;stroke:black;stroke-width:2px;"/>
                        <path d="M405.313,273.851C412.862,252.806 418.086,227.318 419.881,199.666C424.763,124.538 402.387,61.885 369.868,59.777C337.373,57.671 307.057,116.885 302.175,192.013C300.638,215.567 301.803,237.873 305.103,257.488C312.324,300.465 329.879,330.447 352.188,331.902C371.871,333.181 390.755,311.969 403.682,278.323C404.256,276.852 404.809,275.354 405.313,273.851Z" style="fill:none;fill-rule:nonzero;stroke:black;stroke-width:2px;"/>
                        <path d="M167.188,244.846C167.684,243.416 168.159,241.959 168.636,240.477C175.399,219.153 180.14,194.034 181.897,166.971C187.106,87.085 164.395,20.568 131.213,18.414C98.031,16.261 66.921,79.27 61.737,159.159C60.496,178.248 60.866,196.592 62.576,213.471C68.002,267.178 87.168,306.049 112.42,307.715C133.578,309.074 153.909,283.964 167.188,244.846Z" style="fill:none;fill-rule:nonzero;stroke:black;stroke-width:2px;"/>
                    </g>
                    <path d="M143.859,21.842C110.622,20.848 81.73,84.904 79.337,164.926C78.763,184.046 79.773,202.366 82.071,219.175L82.619,219.09C83.535,215.854 94.879,214.283 109.82,214.811C110.057,204.73 106.427,163.274 106.427,163.274C106.427,163.274 157.664,163.679 155.642,162.307C122.495,139.942 120.149,132.98 115.119,119.305C112.763,112.835 113.125,104.487 113.345,97.114C113.891,78.386 126.646,56.62 144.21,51.347C151.659,49.109 163.706,56.847 163.706,56.847C173.393,62.056 181.665,113.91 181.005,136.029C180.423,155.986 172.101,219.683 170.99,228.176C180.189,232.957 186.558,239.116 187.522,246.818L187.715,246.881C188.161,245.434 188.584,243.961 189.009,242.464C195.024,220.917 198.885,195.647 199.696,168.54C202.114,88.52 177.096,22.837 143.859,21.842Z" style="fill:rgb(250,249,252);fill-rule:nonzero;"/>
                    <path d="M109.819,214.81C94.878,214.283 83.535,215.854 82.619,219.09L82.071,219.175C89.367,272.66 109.879,310.839 135.174,311.623C156.365,312.243 175.809,286.437 187.714,246.88L187.521,246.817C186.557,239.115 180.189,232.956 170.989,228.176C154.565,219.614 129.185,215.475 109.819,214.81Z" style="fill:rgb(248,184,210);fill-rule:nonzero;"/>
                    <path d="M144.21,51.347C126.646,56.62 113.89,78.386 113.345,97.114C113.125,104.487 112.763,112.835 115.119,119.305C120.149,132.98 122.495,139.942 155.641,162.307C157.664,163.68 106.427,163.274 106.427,163.274C106.427,163.274 110.056,204.73 109.82,214.811C129.185,215.476 154.566,219.615 170.99,228.176C172.101,219.683 180.423,155.986 181.005,136.029C181.665,113.91 173.392,62.056 163.706,56.847C163.706,56.847 151.658,49.109 144.21,51.347Z" style="fill:rgb(1,0,0);fill-rule:nonzero;"/>
                    <path d="M383.81,54.851C351.261,53.88 323.03,114.116 320.773,189.369C320.059,212.962 322.002,235.214 325.985,254.702L326.184,254.667C336.961,250.273 347.76,248.393 358.075,248.129C353.756,234.159 350.992,215.913 350.495,195.536L401.578,191.793L351.486,164.451C355.412,119.927 369.533,86.386 385.317,86.849C402.942,87.392 415.989,130.147 414.409,182.347C413.525,211.888 408.167,238.136 400.466,255.256C416.313,260.797 426.608,267.526 426.608,267.526L426.706,267.533C433.515,246.262 437.846,220.607 438.674,192.91C440.931,117.657 416.383,55.823 383.81,54.851Z" style="fill:rgb(250,249,252);fill-rule:nonzero;"/>
                    <path d="M326.185,254.667L325.986,254.703C334.702,297.401 353.293,326.753 375.639,327.429C395.355,328.019 413.487,306.161 425.231,272.085C425.754,270.595 426.255,269.078 426.706,267.558L426.608,267.551C426.608,267.551 416.314,260.797 400.468,255.256C388.757,251.162 373.995,247.716 358.077,248.13C347.761,248.394 336.962,250.274 326.185,254.667Z" style="fill:rgb(248,184,210);fill-rule:nonzero;"/>
                    <path d="M351.487,164.451L401.579,191.794L350.496,195.536C350.992,215.913 353.757,234.159 358.076,248.13C373.995,247.716 388.756,251.162 400.467,255.256C408.168,238.136 413.526,211.888 414.409,182.347C415.99,130.148 402.943,87.393 385.317,86.85C369.534,86.386 355.413,119.927 351.487,164.451Z" style="fill:rgb(1,0,0);fill-rule:nonzero;"/>
                    <path d="M326.185,254.668C336.962,250.274 347.761,248.394 358.077,248.13" style="fill:none;fill-rule:nonzero;stroke:black;stroke-width:2px;"/>
                    <path d="M400.467,255.256C416.314,260.797 426.609,267.526 426.609,267.526" style="fill:none;fill-rule:nonzero;stroke:black;stroke-width:2px;"/>
                    <path d="M358.076,248.13C353.757,234.159 350.992,215.913 350.496,195.536L401.579,191.794L351.487,164.451C355.413,119.927 369.534,86.386 385.317,86.85C402.943,87.393 415.99,130.148 414.409,182.347C413.526,211.888 408.168,238.136 400.467,255.256C388.756,251.162 373.995,247.716 358.076,248.13Z" style="fill:none;fill-rule:nonzero;stroke:black;stroke-width:2px;"/>
                    <path d="M82.62,219.091C83.536,215.855 94.879,214.284 109.82,214.811C129.186,215.476 154.566,219.615 170.99,228.177C180.19,232.957 186.558,239.116 187.522,246.818" style="fill:none;fill-rule:nonzero;stroke:black;stroke-width:2px;"/>
                    <path d="M170.849,229.127L170.99,228.176C172.101,219.683 180.423,155.986 181.005,136.029C181.665,113.91 173.392,62.056 163.706,56.847C163.706,56.847 151.658,49.109 144.21,51.347C126.646,56.62 113.89,78.386 113.345,97.114C113.125,104.487 112.763,112.835 115.119,119.305C120.149,132.98 122.495,139.942 155.641,162.307C157.664,163.68 106.427,163.274 106.427,163.274C106.427,163.274 110.056,204.73 109.82,214.811L109.808,214.982" style="fill:none;fill-rule:nonzero;stroke:black;stroke-width:2px;"/>
                    <path d="M426.705,267.557C433.515,246.262 437.846,220.607 438.674,192.91C440.931,117.657 416.383,55.823 383.81,54.851C351.261,53.88 323.03,114.116 320.773,189.369C320.059,212.962 322.002,235.214 325.985,254.702C334.7,297.401 353.292,326.752 375.638,327.428C395.354,328.018 413.486,306.161 425.23,272.084C425.753,270.594 426.253,269.077 426.705,267.557Z" style="fill:none;fill-rule:nonzero;stroke:black;stroke-width:2px;"/>
                    <path d="M187.715,246.881C188.161,245.434 188.584,243.961 189.009,242.464C195.024,220.917 198.885,195.647 199.696,168.54C202.114,88.52 177.096,22.837 143.859,21.842C110.622,20.848 81.73,84.904 79.337,164.926C78.763,184.046 79.773,202.366 82.071,219.175C89.368,272.66 109.88,310.839 135.174,311.623C156.366,312.243 175.809,286.438 187.715,246.881Z" style="fill:none;fill-rule:nonzero;stroke:black;stroke-width:2px;"/>
                </g>
                <g opacity="0.67">
                    <g opacity="0.5">
                        <path d="M143.892,21.398C110.655,20.404 81.763,84.46 79.37,164.481C78.797,183.602 79.807,201.922 82.105,218.731L82.653,218.646C83.569,215.41 94.912,213.839 109.853,214.367C110.09,204.286 106.461,162.829 106.461,162.829C106.461,162.829 157.697,163.235 155.675,161.862C122.528,139.497 120.182,132.536 115.152,118.86C112.796,112.391 113.158,104.043 113.378,96.67C113.924,77.942 126.679,56.176 144.243,50.902C151.692,48.665 163.739,56.403 163.739,56.403C173.426,61.612 181.698,113.466 181.039,135.585C180.456,155.542 172.134,219.239 171.023,227.732C180.222,232.512 186.591,238.671 187.555,246.373L187.748,246.436C188.194,244.99 188.617,243.517 189.042,242.02C195.057,220.472 198.918,195.203 199.73,168.095C202.147,88.076 177.129,22.392 143.892,21.398Z" style="fill:rgb(250,249,252);fill-rule:nonzero;"/>
                        <path d="M109.853,214.366C94.912,213.839 83.569,215.41 82.653,218.646L82.105,218.731C89.401,272.215 109.913,310.395 135.207,311.178C156.399,311.798 175.842,285.993 187.748,246.436L187.555,246.373C186.591,238.671 180.222,232.512 171.023,227.731C154.599,219.17 129.219,215.031 109.853,214.366Z" style="fill:rgb(248,184,210);fill-rule:nonzero;"/>
                        <path d="M144.243,50.902C126.679,56.176 113.924,77.942 113.378,96.67C113.158,104.043 112.796,112.391 115.152,118.861C120.182,132.536 122.528,139.497 155.675,161.862C157.697,163.235 106.46,162.829 106.46,162.829C106.46,162.829 110.09,204.286 109.853,214.367C129.219,215.031 154.599,219.17 171.023,227.732C172.134,219.239 180.456,155.542 181.038,135.585C181.698,113.466 173.426,61.612 163.739,56.403C163.739,56.403 151.691,48.665 144.243,50.902Z" style="fill:rgb(1,0,0);fill-rule:nonzero;"/>
                        <path d="M383.843,54.408C351.294,53.437 323.063,113.673 320.806,188.926C320.093,212.519 322.035,234.771 326.018,254.259L326.217,254.224C336.994,249.83 347.793,247.95 358.109,247.686C353.789,233.716 351.025,215.47 350.528,195.093L401.612,191.35L351.519,164.008C355.446,119.484 369.567,85.943 385.35,86.406C402.975,86.949 416.023,129.705 414.442,181.904C413.559,211.445 408.2,237.693 400.5,254.813C416.346,260.354 426.641,267.083 426.641,267.083L426.739,267.09C433.548,245.819 437.879,220.164 438.708,192.467C440.964,117.214 416.416,55.38 383.843,54.408Z" style="fill:rgb(250,249,252);fill-rule:nonzero;"/>
                        <path d="M326.219,254.223L326.019,254.258C334.735,296.957 353.326,326.308 375.672,326.984C395.388,327.575 413.52,305.717 425.265,271.641C425.788,270.15 426.288,268.634 426.739,267.114L426.641,267.107C426.641,267.107 416.348,260.353 400.501,254.812C388.79,250.718 374.028,247.272 358.11,247.686C347.794,247.949 336.996,249.829 326.219,254.223Z" style="fill:rgb(248,184,210);fill-rule:nonzero;"/>
                        <path d="M351.521,164.007L401.613,191.349L350.53,195.092C351.026,215.469 353.79,233.715 358.11,247.685C374.028,247.271 388.79,250.717 400.501,254.812C408.202,237.692 413.56,211.444 414.443,181.903C416.024,129.703 402.976,86.948 385.351,86.405C369.568,85.942 355.447,119.483 351.521,164.007Z" style="fill:rgb(1,0,0);fill-rule:nonzero;"/>
                        <path d="M326.219,254.222C336.996,249.828 347.794,247.948 358.11,247.685" style="fill:none;fill-rule:nonzero;stroke:black;stroke-width:2px;"/>
                        <path d="M400.501,254.812C416.348,260.353 426.642,267.082 426.642,267.082" style="fill:none;fill-rule:nonzero;stroke:black;stroke-width:2px;"/>
                        <path d="M358.11,247.685C353.79,233.715 351.026,215.469 350.53,195.092L401.613,191.349L351.521,164.007C355.447,119.483 369.568,85.942 385.351,86.405C402.976,86.948 416.024,129.703 414.443,181.903C413.56,211.444 408.202,237.692 400.501,254.812C388.79,250.717 374.028,247.271 358.11,247.685Z" style="fill:none;fill-rule:nonzero;stroke:black;stroke-width:2px;"/>
                        <path d="M82.653,218.647C83.569,215.411 94.912,213.84 109.853,214.367C129.219,215.032 154.599,219.171 171.023,227.732C180.223,232.513 186.591,238.672 187.556,246.374" style="fill:none;fill-rule:nonzero;stroke:black;stroke-width:2px;"/>
                        <path d="M170.882,228.682L171.023,227.732C172.134,219.239 180.456,155.542 181.038,135.585C181.698,113.466 173.426,61.612 163.739,56.403C163.739,56.403 151.691,48.665 144.243,50.902C126.679,56.176 113.924,77.942 113.378,96.67C113.158,104.043 112.796,112.391 115.152,118.861C120.182,132.536 122.528,139.497 155.675,161.862C157.697,163.235 106.46,162.829 106.46,162.829C106.46,162.829 110.09,204.286 109.853,214.367L109.841,214.538" style="fill:none;fill-rule:nonzero;stroke:black;stroke-width:2px;"/>
                        <path d="M426.738,267.114C433.548,245.819 437.879,220.164 438.708,192.467C440.964,117.214 416.416,55.38 383.843,54.408C351.294,53.437 323.063,113.673 320.806,188.926C320.093,212.519 322.035,234.771 326.018,254.259C334.734,296.958 353.325,326.309 375.671,326.985C395.387,327.575 413.519,305.718 425.263,271.641C425.786,270.151 426.287,268.634 426.738,267.114Z" style="fill:none;fill-rule:nonzero;stroke:black;stroke-width:2px;"/>
                        <path d="M187.748,246.436C188.194,244.99 188.617,243.517 189.042,242.02C195.057,220.472 198.918,195.203 199.73,168.095C202.147,88.076 177.129,22.392 143.892,21.398C110.655,20.404 81.763,84.46 79.37,164.481C78.797,183.602 79.807,201.922 82.105,218.731C89.401,272.216 109.913,310.395 135.207,311.179C156.399,311.799 175.842,285.994 187.748,246.436Z" style="fill:none;fill-rule:nonzero;stroke:black;stroke-width:2px;"/>
                    </g>
                    <path d="M156.647,24.385C123.396,24.552 96.757,89.577 97.158,169.633C97.252,188.762 98.901,207.036 101.784,223.754L102.329,223.65C103.132,220.384 114.413,218.418 129.364,218.424C129.248,208.341 124.175,167.037 124.175,167.037C124.175,167.037 175.394,165.654 173.325,164.353C139.418,143.158 136.83,136.283 131.326,122.791C128.746,116.408 128.816,108.052 128.779,100.676C128.671,81.94 140.659,59.743 158.028,53.859C165.394,51.363 177.704,58.676 177.704,58.676C187.567,63.544 197.644,115.077 197.756,137.206C197.871,157.171 191.777,221.12 190.963,229.646C200.323,234.103 206.903,240.036 208.135,247.7L208.33,247.756C208.725,246.295 209.097,244.808 209.469,243.297C214.729,221.553 217.705,196.164 217.57,169.045C217.194,88.989 189.899,24.219 156.647,24.385Z" style="fill:rgb(250,249,252);fill-rule:nonzero;"/>
                    <path d="M129.364,218.424C114.414,218.419 103.132,220.385 102.329,223.651L101.785,223.754C110.943,276.952 132.775,314.392 158.081,314.293C179.282,314.173 197.813,287.705 208.33,247.756L208.136,247.7C206.903,240.036 200.324,234.103 190.963,229.647C174.25,221.663 148.741,218.413 129.364,218.424Z" style="fill:rgb(248,184,210);fill-rule:nonzero;"/>
                    <path d="M158.029,53.859C140.66,59.743 128.672,81.94 128.78,100.676C128.818,108.053 128.747,116.408 131.328,122.792C136.832,136.283 139.419,143.158 173.326,164.353C175.396,165.654 124.176,167.037 124.176,167.037C124.176,167.037 129.25,208.341 129.365,218.424C148.742,218.413 174.251,221.664 190.964,229.647C191.778,221.12 197.872,157.172 197.758,137.206C197.645,115.078 187.568,63.544 177.705,58.676C177.705,58.676 165.395,51.363 158.029,53.859Z" style="fill:rgb(1,0,0);fill-rule:nonzero;"/>
                    <path d="M397.605,49C365.043,49.166 338.931,110.35 339.302,185.636C339.412,209.24 342.13,231.41 346.79,250.748L346.988,250.705C357.606,245.938 368.332,243.682 378.632,243.059C373.828,229.248 370.428,211.11 369.221,190.762L420.143,185.239L369.127,159.661C371.497,115.028 384.438,81.014 400.228,80.927C417.862,80.854 432.393,123.128 432.635,175.35C432.783,204.904 428.345,231.323 421.246,248.701C437.277,253.686 447.8,260.052 447.8,260.052L447.898,260.055C453.96,238.56 457.394,212.77 457.255,185.06C456.884,109.774 430.193,48.835 397.605,49Z" style="fill:rgb(250,249,252);fill-rule:nonzero;"/>
                    <path d="M346.988,250.705L346.79,250.747C356.991,293.116 376.595,321.8 398.951,321.696C418.676,321.598 436.034,299.121 446.582,264.655C447.052,263.148 447.499,261.614 447.897,260.08L447.799,260.076C447.799,260.076 437.276,253.686 421.246,248.701C409.399,245.018 394.526,242.089 378.632,243.058C368.332,243.682 357.605,245.938 346.988,250.705Z" style="fill:rgb(248,184,210);fill-rule:nonzero;"/>
                    <path d="M369.127,159.661L420.143,185.239L369.221,190.762C370.429,211.11 373.828,229.248 378.633,243.059C394.527,242.09 409.4,245.018 421.247,248.701C428.345,231.323 432.784,204.904 432.636,175.35C432.394,123.128 417.862,80.854 400.229,80.927C384.439,81.014 371.497,115.028 369.127,159.661Z" style="fill:rgb(1,0,0);fill-rule:nonzero;"/>
                    <path d="M346.989,250.705C357.606,245.938 368.332,243.682 378.632,243.058" style="fill:none;fill-rule:nonzero;stroke:black;stroke-width:2px;"/>
                    <path d="M421.246,248.702C437.277,253.686 447.8,260.052 447.8,260.052" style="fill:none;fill-rule:nonzero;stroke:black;stroke-width:2px;"/>
                    <path d="M378.633,243.059C373.828,229.248 370.429,211.11 369.221,190.762L420.143,185.239L369.127,159.661C371.497,115.028 384.439,81.014 400.229,80.927C417.862,80.854 432.394,123.128 432.636,175.35C432.784,204.904 428.345,231.323 421.247,248.701C409.4,245.018 394.527,242.09 378.633,243.059Z" style="fill:none;fill-rule:nonzero;stroke:black;stroke-width:2px;"/>
                    <path d="M102.33,223.651C103.133,220.385 114.414,218.419 129.365,218.425C148.742,218.413 174.251,221.664 190.964,229.647C200.324,234.104 206.904,240.037 208.136,247.701" style="fill:none;fill-rule:nonzero;stroke:black;stroke-width:2px;"/>
                    <path d="M190.857,230.602L190.964,229.647C191.778,221.12 197.872,157.172 197.758,137.206C197.645,115.078 187.568,63.544 177.705,58.676C177.705,58.676 165.395,51.363 158.029,53.859C140.66,59.743 128.672,81.94 128.78,100.676C128.818,108.053 128.747,116.408 131.328,122.792C136.832,136.283 139.419,143.158 173.326,164.353C175.396,165.654 124.176,167.037 124.176,167.037C124.176,167.037 129.25,208.341 129.365,218.424L129.359,218.596" style="fill:none;fill-rule:nonzero;stroke:black;stroke-width:2px;"/>
                    <path d="M447.897,260.08C453.96,238.56 457.394,212.77 457.255,185.06C456.884,109.774 430.193,48.835 397.605,49C365.043,49.166 338.931,110.35 339.302,185.636C339.412,209.24 342.13,231.41 346.79,250.748C356.991,293.116 376.595,321.801 398.951,321.696C418.676,321.598 436.034,299.121 446.582,264.656C447.053,263.148 447.5,261.615 447.897,260.08Z" style="fill:none;fill-rule:nonzero;stroke:black;stroke-width:2px;"/>
                    <path d="M208.33,247.756C208.725,246.295 209.097,244.808 209.469,243.297C214.729,221.553 217.705,196.164 217.57,169.045C217.194,88.989 189.899,24.219 156.647,24.385C123.396,24.552 96.757,89.577 97.158,169.633C97.252,188.762 98.901,207.036 101.784,223.754C110.943,276.952 132.775,314.392 158.081,314.293C179.282,314.172 197.812,287.705 208.33,247.756Z" style="fill:none;fill-rule:nonzero;stroke:black;stroke-width:2px;"/>
                </g>
                <g opacity="0.5">
                    <path d="M156.957,24.388C123.706,24.554 97.067,89.58 97.468,169.636C97.562,188.765 99.211,207.038 102.094,223.757L102.639,223.653C103.441,220.387 114.723,218.421 129.673,218.427C129.558,208.344 124.484,167.039 124.484,167.039C124.484,167.039 175.704,165.657 173.635,164.355C139.728,143.161 137.14,136.285 131.636,122.794C129.055,116.411 129.126,108.055 129.088,100.679C128.98,81.943 140.968,59.745 158.338,53.862C165.703,51.366 178.013,58.679 178.013,58.679C187.876,63.546 197.953,115.08 198.066,137.208C198.18,157.174 192.086,221.122 191.272,229.649C200.633,234.106 207.213,240.039 208.445,247.702L208.64,247.758C209.035,246.297 209.406,244.811 209.779,243.299C215.038,221.555 218.015,196.167 217.88,169.047C217.504,88.992 190.208,24.221 156.957,24.388Z" style="fill:rgb(250,249,252);fill-rule:nonzero;"/>
                    <path d="M129.673,218.427C114.723,218.421 103.441,220.387 102.639,223.653L102.094,223.757C111.253,276.955 133.084,314.395 158.391,314.295C179.591,314.175 198.122,287.707 208.64,247.759L208.445,247.703C207.213,240.039 200.633,234.106 191.273,229.649C174.56,221.666 149.051,218.415 129.673,218.427Z" style="fill:rgb(248,184,210);fill-rule:nonzero;"/>
                    <path d="M158.339,53.862C140.97,59.745 128.982,81.943 129.09,100.679C129.127,108.055 129.057,116.411 131.637,122.794C137.141,136.286 139.729,143.161 173.636,164.355C175.705,165.657 124.486,167.039 124.486,167.039C124.486,167.039 129.559,208.344 129.675,218.427C149.052,218.415 174.561,221.666 191.274,229.649C192.088,221.123 198.182,157.174 198.067,137.209C197.955,115.08 187.878,63.547 178.015,58.679C178.015,58.679 165.705,51.366 158.339,53.862Z" style="fill:rgb(1,0,0);fill-rule:nonzero;"/>
                    <path d="M397.915,49.003C365.352,49.168 339.24,110.353 339.611,185.639C339.722,209.242 342.439,231.413 347.1,250.75L347.298,250.708C357.915,245.941 368.641,243.685 378.942,243.061C374.137,229.25 370.738,211.112 369.53,190.764L420.452,185.241L369.436,159.664C371.806,115.03 384.748,81.017 400.538,80.929C418.171,80.857 432.703,123.13 432.945,175.353C433.093,204.907 428.654,231.326 421.556,248.704C437.586,253.689 448.11,260.054 448.11,260.054L448.208,260.058C454.27,238.563 457.703,212.772 457.564,185.062C457.194,109.777 430.502,48.838 397.915,49.003Z" style="fill:rgb(250,249,252);fill-rule:nonzero;"/>
                    <path d="M347.298,250.707L347.1,250.75C357.3,293.118 376.905,321.803 399.261,321.698C418.985,321.601 436.344,299.123 446.891,264.658C447.362,263.15 447.809,261.617 448.207,260.082L448.109,260.079C448.109,260.079 437.586,253.688 421.555,248.704C409.709,245.02 394.836,242.092 378.941,243.061C368.641,243.685 357.915,245.94 347.298,250.707Z" style="fill:rgb(248,184,210);fill-rule:nonzero;"/>
                    <path d="M369.437,159.664L420.453,185.241L369.531,190.764C370.738,211.112 374.138,229.25 378.942,243.061C394.837,242.092 409.71,245.021 421.556,248.704C428.655,231.326 433.094,204.907 432.945,175.353C432.704,123.13 418.172,80.857 400.538,80.929C384.749,81.017 371.807,115.03 369.437,159.664Z" style="fill:rgb(1,0,0);fill-rule:nonzero;"/>
                    <path d="M347.298,250.707C357.915,245.94 368.642,243.684 378.942,243.061" style="fill:none;fill-rule:nonzero;stroke:black;stroke-width:2px;"/>
                    <path d="M421.556,248.704C437.586,253.689 448.11,260.055 448.11,260.055" style="fill:none;fill-rule:nonzero;stroke:black;stroke-width:2px;"/>
                    <path d="M378.942,243.061C374.138,229.25 370.738,211.112 369.531,190.764L420.453,185.241L369.437,159.664C371.807,115.03 384.749,81.017 400.538,80.929C418.172,80.857 432.704,123.13 432.945,175.353C433.094,204.907 428.655,231.326 421.556,248.704C409.71,245.021 394.837,242.092 378.942,243.061Z" style="fill:none;fill-rule:nonzero;stroke:black;stroke-width:2px;"/>
                    <path d="M102.64,223.654C103.442,220.387 114.724,218.421 129.674,218.427C149.051,218.416 174.56,221.666 191.273,229.65C200.634,234.106 207.214,240.039 208.446,247.703" style="fill:none;fill-rule:nonzero;stroke:black;stroke-width:2px;"/>
                    <path d="M191.167,230.604L191.274,229.649C192.088,221.123 198.182,157.174 198.067,137.209C197.955,115.08 187.878,63.547 178.015,58.679C178.015,58.679 165.705,51.366 158.339,53.862C140.97,59.745 128.982,81.943 129.09,100.679C129.127,108.055 129.057,116.411 131.637,122.794C137.141,136.286 139.729,143.161 173.636,164.355C175.705,165.657 124.486,167.039 124.486,167.039C124.486,167.039 129.559,208.344 129.675,218.427L129.669,218.599" style="fill:none;fill-rule:nonzero;stroke:black;stroke-width:2px;"/>
                    <path d="M448.207,260.082C454.27,238.563 457.703,212.772 457.564,185.062C457.194,109.777 430.502,48.838 397.915,49.003C365.352,49.168 339.24,110.353 339.611,185.639C339.722,209.242 342.439,231.413 347.1,250.75C357.3,293.118 376.905,321.803 399.261,321.699C418.985,321.601 436.344,299.124 446.892,264.658C447.362,263.15 447.809,261.617 448.207,260.082Z" style="fill:none;fill-rule:nonzero;stroke:black;stroke-width:2px;"/>
                    <path d="M208.64,247.758C209.035,246.297 209.406,244.811 209.779,243.299C215.038,221.555 218.015,196.167 217.88,169.047C217.504,88.992 190.208,24.221 156.957,24.388C123.706,24.554 97.067,89.58 97.468,169.636C97.562,188.765 99.211,207.038 102.094,223.757C111.252,276.954 133.084,314.395 158.391,314.295C179.591,314.175 198.122,287.707 208.64,247.758Z" style="fill:none;fill-rule:nonzero;stroke:black;stroke-width:2px;"/>
                </g>
                <path d="M169.811,26.927C136.586,28.254 112.233,94.17 115.427,174.163C116.189,193.277 118.475,211.481 121.94,228.089L122.48,227.967C123.168,224.674 134.375,222.316 149.316,221.8C148.849,211.727 142.337,170.625 142.337,170.625C142.337,170.625 193.477,167.456 191.364,166.227C156.738,146.229 153.912,139.448 147.94,126.157C145.138,119.868 144.917,111.515 144.622,104.144C143.86,85.423 155.067,62.821 172.22,56.335C179.494,53.583 192.052,60.462 192.052,60.462C202.078,64.983 213.948,116.133 214.833,138.244C215.644,158.194 211.785,222.316 211.269,230.866C220.78,234.993 227.562,240.693 229.061,248.309L229.258,248.358C229.602,246.884 229.922,245.385 230.241,243.862C234.738,221.947 236.827,196.47 235.746,169.372C232.576,89.379 203.037,25.6 169.811,26.927Z" style="fill:rgb(250,249,252);fill-rule:nonzero;"/>
                <path d="M149.316,221.8C134.375,222.316 123.169,224.674 122.48,227.966L121.94,228.089C132.949,280.935 156.074,317.59 181.362,316.608C202.545,315.748 220.141,288.649 229.258,248.358L229.062,248.309C227.563,240.693 220.78,234.993 211.269,230.865C194.288,223.47 168.681,221.112 149.316,221.8Z" style="fill:rgb(248,184,210);fill-rule:nonzero;"/>
                <path d="M172.22,56.335C155.067,62.821 143.861,85.423 144.623,104.144C144.918,111.514 145.139,119.867 147.94,126.157C153.912,139.448 156.738,146.229 191.364,166.227C193.478,167.456 142.337,170.625 142.337,170.625C142.337,170.625 148.85,211.727 149.317,221.8C168.682,221.112 194.289,223.471 211.27,230.865C211.786,222.316 215.644,158.193 214.833,138.244C213.949,116.133 202.079,64.983 192.052,60.462C192.052,60.462 179.495,53.583 172.22,56.335Z" style="fill:rgb(1,0,0);fill-rule:nonzero;"/>
                <path d="M411.481,43.117C378.944,44.419 354.983,106.478 357.981,181.705C358.915,205.29 362.405,227.352 367.738,246.515L367.934,246.466C378.378,241.331 389.019,238.702 399.292,237.72C394.008,224.084 389.978,206.076 388.061,185.783L438.759,178.486L386.881,154.705C387.692,110.016 399.439,75.571 415.216,74.933C432.836,74.245 448.835,115.986 450.899,168.168C452.078,197.699 448.564,224.256 442.077,241.872C458.271,246.294 469.011,252.289 469.011,252.289L469.109,252.289C474.417,230.595 476.948,204.7 475.842,177.012C472.844,101.785 444.042,41.815 411.481,43.117Z" style="fill:rgb(250,249,252);fill-rule:nonzero;"/>
                <path d="M367.935,246.466L367.738,246.515C379.411,288.501 400.005,316.484 422.343,315.6C442.052,314.814 458.616,291.744 467.954,256.932C468.372,255.408 468.765,253.861 469.109,252.313L469.011,252.313C469.011,252.313 458.272,246.294 442.077,241.871C430.109,238.604 415.143,236.196 399.292,237.719C389.02,238.702 378.379,241.331 367.935,246.466Z" style="fill:rgb(248,184,210);fill-rule:nonzero;"/>
                <path d="M386.882,154.705L438.759,178.487L388.061,185.783C389.978,206.076 394.008,224.085 399.292,237.72C415.143,236.197 430.109,238.604 442.077,241.872C448.565,224.257 452.079,197.699 450.899,168.168C448.835,115.986 432.837,74.245 415.216,74.933C399.439,75.572 387.693,110.016 386.882,154.705Z" style="fill:rgb(1,0,0);fill-rule:nonzero;"/>
                <path d="M367.934,246.466C378.379,241.331 389.02,238.702 399.292,237.72" style="fill:none;fill-rule:nonzero;stroke:black;stroke-width:2px;"/>
                <path d="M442.076,241.872C458.271,246.294 469.01,252.288 469.01,252.288" style="fill:none;fill-rule:nonzero;stroke:black;stroke-width:2px;"/>
                <path d="M399.292,237.72C394.008,224.085 389.978,206.076 388.061,185.783L438.759,178.487L386.882,154.705C387.693,110.016 399.439,75.572 415.216,74.933C432.837,74.245 448.835,115.986 450.899,168.168C452.079,197.699 448.565,224.257 442.077,241.872C430.109,238.604 415.143,236.197 399.292,237.72Z" style="fill:none;fill-rule:nonzero;stroke:black;stroke-width:2px;"/>
                <path d="M122.48,227.966C123.168,224.674 134.375,222.316 149.316,221.8C168.681,221.112 194.288,223.47 211.269,230.865C220.78,234.993 227.562,240.693 229.062,248.309" style="fill:none;fill-rule:nonzero;stroke:black;stroke-width:2px;"/>
                <path d="M211.196,231.824L211.27,230.865C211.786,222.316 215.644,158.193 214.833,138.244C213.949,116.133 202.079,64.983 192.052,60.462C192.052,60.462 179.495,53.583 172.22,56.335C155.067,62.821 143.861,85.423 144.623,104.144C144.918,111.514 145.139,119.867 147.94,126.157C153.912,139.448 156.738,146.229 191.364,166.227C193.478,167.456 142.337,170.625 142.337,170.625C142.337,170.625 148.85,211.727 149.317,221.8L149.317,221.972" style="fill:none;fill-rule:nonzero;stroke:black;stroke-width:2px;"/>
                <path d="M469.109,252.313C474.417,230.595 476.948,204.7 475.842,177.012C472.844,101.785 444.042,41.815 411.481,43.117C378.944,44.419 354.983,106.478 357.981,181.705C358.915,205.29 362.405,227.352 367.738,246.515C379.411,288.502 400.004,316.485 422.343,315.6C442.052,314.814 458.615,291.745 467.954,256.932C468.372,255.409 468.765,253.861 469.109,252.313Z" style="fill:none;fill-rule:nonzero;stroke:black;stroke-width:2px;"/>
                <path d="M229.258,248.358C229.602,246.884 229.922,245.385 230.241,243.862C234.738,221.947 236.827,196.47 235.746,169.372C232.576,89.379 203.037,25.6 169.811,26.927C136.586,28.254 112.233,94.17 115.427,174.163C116.189,193.277 118.475,211.481 121.94,228.089C132.949,280.935 156.074,317.59 181.362,316.608C202.545,315.748 220.141,288.649 229.258,248.358Z" style="fill:none;fill-rule:nonzero;stroke:black;stroke-width:2px;"/>
            </g>
        </g>
    </g>
</svg>
