<?xml version="1.0" encoding="UTF-8" standalone="no"?>
<!DOCTYPE svg PUBLIC "-//W3C//DTD SVG 1.1//EN" "http://www.w3.org/Graphics/SVG/1.1/DTD/svg11.dtd">
<svg width="100%" height="100%" viewBox="0 0 960 560" version="1.1" xmlns="http://www.w3.org/2000/svg" xmlns:xlink="http://www.w3.org/1999/xlink" xml:space="preserve" xmlns:serif="http://www.serif.com/" style="fill-rule:evenodd;clip-rule:evenodd;stroke-miterlimit:10;">
    <g id="fond-jaune" serif:id="fond jaune" transform="matrix(0.969539,0,0,0.932305,29.2429,37.909)">
        <rect x="-30.162" y="-40.662" width="990.162" height="600.662" style="fill:rgb(255,234,40);"/>
    </g>
    <g id="fond-rose" serif:id="fond rose" transform="matrix(0.969539,0,0,0.932305,29.2429,37.909)">
        <rect x="-30.162" y="-40.662" width="990.162" height="600.662" style="fill:rgb(244,136,180);"/>
    </g>
    <g id="logoconcept_Plan-de-travail-1-1.svg" serif:id="logoconcept_Plan de travail 1 1.svg" transform="matrix(1,0,0,1,480,280)">
        <g transform="matrix(1,0,0,1,-278,-218)">
            <clipPath id="_clip1">
                <rect x="0" y="0" width="556" height="436"/>
            </clipPath>
            <g clip-path="url(#_clip1)">
                <g>
                    <path d="M544.18,272.248C534.929,267.078 531.358,264.493 530.081,263.2C529.912,261.384 530.235,256.999 532.205,246.582C534.329,235.457 528.065,224.439 517.414,220.577C506.778,216.715 494.896,221.131 489.371,231.01C484.199,240.258 481.613,243.827 480.32,245.105C478.566,245.258 474.364,244.966 464.621,243.15C465.714,240.473 466.33,237.534 466.33,234.457L466.422,143.287C470.301,146.164 475.072,147.826 480.136,147.826C480.751,147.826 481.367,147.795 481.983,147.749C493.265,146.856 502.238,137.901 503.161,126.607C503.608,121.067 504.993,104.187 507.779,100.895C510.565,97.602 527.033,93.586 532.436,92.262C543.441,89.57 550.859,79.291 549.951,68.012C549.059,56.733 540.101,47.762 528.803,46.839C523.263,46.393 506.378,45.008 503.084,42.223C499.806,39.422 495.773,22.973 494.45,17.572C491.756,6.57 481.506,-0.846 470.193,0.061C458.911,0.954 449.938,9.909 449.014,21.204C448.568,26.743 447.183,43.623 444.397,46.916C441.611,50.209 425.142,54.225 419.74,55.548C410.12,57.902 403.225,66.073 402.27,75.644L285.804,75.536L285.788,75.536C280.232,75.536 275.137,77.506 271.151,80.768C267.18,69.074 256.529,60.334 243.092,58.133C228.594,55.748 214.695,61.595 207.554,73.028C199.104,74.151 193.27,78.06 191.239,79.614C177.171,90.416 173.877,110.419 183.743,125.16C185.174,127.284 189.438,132.854 197.087,136.624C197.318,137.593 197.595,138.532 197.903,139.455L164.673,127.376C167.998,124.16 170.322,120.021 171.307,115.42C177.956,107.696 179.018,96.909 174.016,87.877C172.815,85.707 171.291,83.753 169.491,81.968C171.06,78.768 172.046,75.429 172.23,71.982C172.738,62.826 168.151,54.425 160.41,49.947C155.777,42.223 147.219,37.76 138,38.484C134.614,38.745 131.351,39.776 128.226,41.361C126.379,39.561 124.363,38.037 122.131,36.853C113.035,32.067 102.338,33.329 94.765,40.053C86.715,41.915 80.174,47.839 77.558,55.948C76.311,59.826 76.126,63.934 76.726,68.104C74.325,69.351 72.232,70.812 70.554,72.443C63.167,79.629 61.058,90.154 65.06,99.433C64.382,108.342 68.8,117.067 76.649,121.806C79.497,123.529 82.744,124.637 86.223,125.222C86.839,128.592 87.962,131.746 89.655,134.516C93.58,140.948 100.198,145.056 107.355,145.933L94.365,181.616C91.01,179.678 87.146,178.554 83.037,178.524C78.142,178.477 75.249,178.324 73.54,178.139C72.848,176.554 71.832,173.846 70.324,169.199C66.83,158.428 56.04,151.78 44.851,153.504C33.661,155.227 25.365,164.798 25.273,176.123C25.227,181.016 25.073,183.909 24.888,185.617C23.303,186.294 20.594,187.325 15.946,188.833C5.172,192.326 -1.477,203.097 0.231,214.299C1.955,225.486 11.528,233.78 22.856,233.872C27.751,233.918 30.645,234.072 32.353,234.257C33.045,235.841 34.061,238.55 35.57,243.197C38.694,252.829 47.652,259.169 57.518,259.169C58.688,259.169 59.857,259.076 61.042,258.892C63.305,258.538 65.445,257.861 67.43,256.922C66.153,264.97 69.231,273.033 75.341,278.187C75.68,279.372 76.111,280.526 76.634,281.649C79.22,287.204 83.914,291.482 89.671,293.575L93.965,295.129C86.223,301.038 80.482,310.716 77.08,323.441C60.273,321.457 46.667,324.903 38.079,333.72C29.921,342.106 27.628,354.016 32.122,364.818C36.847,376.174 48.206,384.406 64.567,388.776C62.582,405.579 66.029,419.181 74.849,427.768C80.39,433.168 87.47,435.984 94.765,435.984C98.505,435.984 102.292,435.246 105.955,433.722C117.314,428.999 125.548,417.643 129.919,401.286C146.727,403.271 160.333,399.824 168.921,391.007C177.079,382.621 179.372,370.711 174.878,359.909C170.152,348.554 158.794,340.321 142.432,335.951C143.479,327.057 143.002,319.071 141.016,312.24L227.655,343.737C230.21,344.661 232.872,345.122 235.551,345.122C238.89,345.122 242.23,344.399 245.309,342.953C250.865,340.368 255.144,335.674 257.237,329.92L263.286,313.301C266.995,323.318 275.23,332.982 287.435,341.614C276.353,359.386 273.183,376.005 278.77,389.192C283.526,400.393 294.038,407.395 306.213,407.441L306.336,407.441C320.619,407.441 334.671,398.085 346.754,381.052C364.531,392.131 381.153,395.3 394.344,389.715C405.549,384.96 412.552,374.45 412.598,362.279C412.644,347.953 403.286,333.859 386.186,321.749C397.268,303.977 400.439,287.358 394.852,274.171C391.389,265.985 384.832,260.061 376.813,257.445L437.779,257.507C437.748,257.599 437.702,257.676 437.671,257.753C433.808,268.386 438.225,280.265 448.106,285.789C457.356,290.959 460.927,293.544 462.205,294.836C462.374,296.652 462.051,301.038 460.081,311.455C457.957,322.58 464.221,333.597 474.872,337.459C477.458,338.398 480.136,338.86 482.752,338.86C490.91,338.86 498.729,334.505 502.915,327.042C508.087,317.794 510.672,314.224 511.965,312.947C513.781,312.778 518.168,313.101 528.588,315.071C539.716,317.179 550.736,310.932 554.599,300.284C558.463,289.651 554.045,277.772 544.164,272.248L544.18,272.248ZM261.531,147.21C261.916,147.164 262.301,147.118 262.67,147.057L262.67,162.982L249.757,158.289C254.544,155.658 258.607,151.904 261.547,147.21L261.531,147.21ZM326.883,282.342C309.106,271.263 292.483,268.093 279.293,273.679C278.647,273.956 278.016,274.248 277.4,274.556L284.803,254.214C288.297,256.26 292.283,257.384 296.408,257.384L357.466,257.445C346.631,260.692 336.164,269.232 326.883,282.342Z" style="fill:rgb(255,234,40);fill-rule:nonzero;"/>
                    <path d="M282.651,199.276L144.677,149.098L101.074,268.93L239.047,319.108L282.651,199.276Z" style="fill:white;fill-rule:nonzero;stroke:black;stroke-width:2px;"/>
                    <path d="M275.339,187.916L137.366,137.738L93.762,257.571L231.736,307.748L275.339,187.916Z" style="fill:white;fill-rule:nonzero;stroke:black;stroke-width:2px;"/>
                    <path d="M193.686,188.972C198.457,190.71 202.52,192.942 205.86,195.68C209.2,198.419 211.802,201.543 213.618,205.067C215.434,208.59 216.45,212.376 216.65,216.453C216.85,220.531 216.142,224.763 214.541,229.148C212.94,233.533 210.755,237.226 207.954,240.211C205.152,243.197 201.905,245.459 198.18,246.997C194.455,248.536 190.377,249.244 185.944,249.151C181.511,249.059 176.848,248.121 171.968,246.351L153.206,239.534C149.759,238.273 147.973,234.472 149.235,231.01L165.658,185.863C166.905,182.417 170.722,180.632 174.185,181.893L193.686,188.987L193.686,188.972ZM178.602,231.995C180.357,232.625 182.034,232.872 183.651,232.718C185.251,232.564 186.79,232.056 188.253,231.225C189.699,230.394 191.008,229.209 192.147,227.702C193.286,226.194 194.24,224.362 195.025,222.224C195.81,220.085 196.21,218.054 196.272,216.115C196.333,214.176 196.041,212.391 195.44,210.745C194.825,209.098 193.886,207.667 192.624,206.467C191.362,205.267 189.792,204.313 187.929,203.636C184.482,202.374 180.665,204.159 179.403,207.606L173.754,223.147C172.492,226.594 174.277,230.41 177.725,231.671L178.633,231.995L178.602,231.995Z" style="fill-rule:nonzero;"/>
                    <path d="M61.104,233.118C53.809,210.591 50.299,208.021 26.612,207.821C49.145,200.528 51.715,197.019 51.915,173.338C59.211,195.865 62.72,198.435 86.408,198.635C63.874,205.929 61.304,209.437 61.104,233.118Z" style="fill-rule:nonzero;"/>
                    <path d="M343.275,343.214C315.54,407.272 277.523,382.006 325.883,331.659C261.808,303.931 287.081,265.924 337.442,314.271C365.177,250.213 403.194,275.479 354.834,325.827C418.908,353.555 393.636,391.561 343.275,343.214Z" style="fill-rule:nonzero;"/>
                    <path d="M530.481,66.889C491.679,76.398 486.923,81.968 483.691,121.775C474.179,82.984 468.608,78.229 428.79,74.998C467.592,65.489 472.348,59.918 475.58,20.111C485.092,58.903 490.664,63.658 530.481,66.889Z" style="fill-rule:nonzero;"/>
                    <path d="M113.928,369.527C113.296,427.368 76.142,420.259 96.92,366.265C39.064,365.634 46.175,328.489 100.183,349.262C100.814,291.421 137.969,298.53 117.191,352.524C175.047,353.155 167.936,390.3 113.928,369.527Z" style="fill-rule:nonzero;"/>
                    <path d="M536.437,289.42C506.347,283.696 501.253,286.066 486.308,312.809C492.033,282.727 489.663,277.634 462.913,262.692C493.003,268.417 498.097,266.047 513.042,239.304C507.317,269.386 509.687,274.479 536.437,289.42Z" style="fill-rule:nonzero;"/>
                    <rect x="300.025" y="103.88" width="146.819" height="127.515" style="fill:white;fill-rule:nonzero;stroke:black;stroke-width:2px;"/>
                    <rect x="289.267" y="95.709" width="146.818" height="127.515" style="fill:white;fill-rule:nonzero;stroke:black;stroke-width:2px;"/>
                    <path d="M359.744,124.622C364.823,124.622 369.41,125.345 373.489,126.776C377.567,128.207 381.076,130.269 383.985,132.962C386.894,135.655 389.142,138.871 390.712,142.641C392.281,146.411 393.066,150.627 393.066,155.289C393.066,159.951 392.251,164.168 390.65,167.937C389.034,171.707 386.741,174.939 383.77,177.647C380.799,180.355 377.198,182.432 372.996,183.848C368.794,185.264 364.1,185.987 358.897,185.987L338.935,185.987C335.256,185.971 332.286,182.986 332.286,179.309L332.332,131.269C332.332,127.592 335.318,124.622 338.996,124.622L359.744,124.622ZM360.221,170.23C362.083,170.23 363.746,169.876 365.208,169.184C366.67,168.491 367.932,167.491 369.025,166.214C370.102,164.937 370.918,163.383 371.472,161.582C372.026,159.782 372.303,157.736 372.303,155.458C372.303,153.181 371.996,151.119 371.395,149.288C370.795,147.457 369.918,145.857 368.779,144.518C367.64,143.179 366.27,142.148 364.669,141.456C363.068,140.748 361.268,140.394 359.282,140.394C355.604,140.394 352.633,143.364 352.618,147.041L352.618,163.583C352.602,167.26 355.573,170.23 359.251,170.246L360.221,170.246L360.221,170.23Z" style="fill-rule:nonzero;"/>
                    <path d="M236.074,104.696C276.584,154.212 186.529,139.394 240.768,105.465C186.529,139.394 199.58,60.088 240.091,109.604C199.58,60.088 289.636,74.906 235.396,108.835C289.636,74.906 276.584,154.212 236.074,104.696Z" style="fill-rule:nonzero;"/>
                    <path d="M114.404,86.185C184.02,115.528 140.385,115.297 119.93,86.215C140.385,115.297 115.466,151.104 123.085,81.676C115.466,151.104 102.199,109.543 124.763,86.939C102.199,109.543 60.442,96.925 130.057,88.539C60.442,96.925 95.873,71.474 125.578,91.755C95.888,71.459 94.996,27.851 125.686,97.279C94.996,27.851 130.15,53.671 121.238,94.017C130.15,53.687 171.368,39.361 116.02,95.832C171.368,39.361 157.67,80.768 117.76,90.585C157.67,80.768 184.035,115.528 114.42,86.185L114.404,86.185Z" style="fill-rule:nonzero;"/>
                </g>
            </g>
        </g>
    </g>
</svg>
