<svg width="639" height="501" viewBox="0 0 639 501" fill="none" xmlns="http://www.w3.org/2000/svg">
<g clip-path="url(#clip0_692_20732)">
<path d="M625.415 312.835C614.784 306.895 610.68 303.924 609.212 302.439C609.017 300.352 609.388 295.313 611.653 283.343C614.094 270.559 606.894 257.9 594.653 253.462C582.43 249.024 568.774 254.098 562.424 265.45C556.481 276.076 553.509 280.178 552.023 281.646C550.006 281.822 545.177 281.486 533.98 279.4C535.236 276.324 535.943 272.946 535.943 269.41L536.05 164.648C540.507 167.955 545.991 169.864 551.811 169.864C552.518 169.864 553.226 169.829 553.933 169.776C566.899 168.75 577.212 158.46 578.273 145.482C578.786 139.117 580.378 119.72 583.58 115.936C586.782 112.153 605.709 107.538 611.918 106.017C624.566 102.923 633.092 91.1118 632.048 78.1514C631.022 65.191 620.727 54.8828 607.743 53.8219C601.375 53.3092 581.97 51.7178 578.185 48.5175C574.417 45.2995 569.783 26.3982 568.261 20.1921C565.166 7.54992 553.385 -0.972472 540.383 0.0707256C527.417 1.09624 517.105 11.3868 516.043 24.3648C515.53 30.7301 513.938 50.1265 510.737 53.9103C507.535 57.6941 488.607 62.3089 482.399 63.8295C471.343 66.5348 463.418 75.9236 462.322 86.9213L328.468 86.7976H328.451C322.065 86.7976 316.21 89.0608 311.628 92.8092C307.065 79.3714 294.824 69.3284 279.381 66.8C262.718 64.0594 246.745 70.7783 238.537 83.9155C228.826 85.2062 222.122 89.6973 219.787 91.4831C203.619 103.895 199.833 126.881 211.172 143.82C212.817 146.26 217.717 152.66 226.509 156.992C226.774 158.106 227.092 159.185 227.446 160.246L189.255 146.366C193.076 142.67 195.747 137.914 196.879 132.628C204.521 123.751 205.742 111.357 199.993 100.978C198.613 98.4849 196.862 96.2394 194.792 94.1883C196.596 90.5106 197.728 86.6738 197.941 82.7132C198.524 72.1928 193.253 62.5388 184.356 57.3935C179.031 48.5175 169.196 43.3899 158.6 44.221C154.709 44.5215 150.959 45.7062 147.368 47.5274C145.245 45.4587 142.928 43.7082 140.363 42.3467C129.909 36.8479 117.615 38.2977 108.912 46.0245C99.6602 48.1639 92.1424 54.9712 89.1352 64.2893C87.7024 68.7449 87.4901 73.4658 88.18 78.2575C85.4205 79.6897 83.0148 81.3694 81.0867 83.2436C72.5959 91.5008 70.1725 103.595 74.7717 114.257C73.9934 124.494 79.0701 134.519 88.0916 139.965C91.3641 141.946 95.0964 143.219 99.0942 143.891C99.8017 147.763 101.093 151.387 103.039 154.57C107.55 161.961 115.156 166.682 123.381 167.69L108.452 208.693C104.595 206.465 100.156 205.174 95.4325 205.139C89.8074 205.086 86.4819 204.909 84.5184 204.697C83.7224 202.875 82.5549 199.763 80.8214 194.424C76.8059 182.047 64.4059 174.408 51.546 176.389C38.686 178.369 29.1516 189.367 29.0455 202.38C28.9924 208.003 28.8155 211.327 28.6032 213.29C26.7813 214.068 23.668 215.252 18.3259 216.985C5.94353 220.999 -1.69815 233.376 0.265339 246.248C2.24652 259.102 13.2491 268.632 26.2683 268.738C31.8934 268.791 35.2189 268.968 37.1824 269.18C37.9784 271.001 39.1459 274.113 40.8794 279.453C44.4703 290.522 54.7654 297.806 66.1041 297.806C67.4484 297.806 68.7928 297.7 70.1549 297.488C72.7551 297.081 75.2139 296.303 77.4958 295.225C76.0276 304.472 79.5654 313.737 86.588 319.66C86.9772 321.022 87.4725 322.348 88.0739 323.639C91.0456 330.022 96.4408 334.937 103.057 337.342L107.992 339.128C99.0942 345.917 92.4962 357.039 88.5869 371.661C69.2704 369.38 53.6333 373.341 43.7628 383.472C34.3876 393.109 31.7519 406.794 36.9171 419.206C42.3476 432.255 55.4022 441.715 74.2057 446.736C71.9238 466.044 75.8861 481.674 86.022 491.54C92.39 497.747 100.527 500.982 108.912 500.982C113.21 500.982 117.562 500.134 121.772 498.383C134.826 492.955 144.29 479.906 149.313 461.111C168.63 463.392 184.267 459.431 194.138 449.3C203.513 439.664 206.148 425.978 200.983 413.566C195.553 400.517 182.498 391.058 163.695 386.036C164.898 375.816 164.349 366.64 162.067 358.789L261.639 394.983C264.575 396.044 267.636 396.574 270.714 396.574C274.552 396.574 278.391 395.743 281.928 394.081C288.314 391.111 293.232 385.718 295.637 379.105L302.589 360.009C306.852 371.52 316.316 382.624 330.343 392.543C317.607 412.965 313.963 432.061 320.384 447.213C325.85 460.085 337.932 468.13 351.924 468.183H352.066C368.481 468.183 384.631 457.433 398.517 437.86C418.948 450.591 438.052 454.233 453.212 447.815C466.089 442.351 474.138 430.275 474.191 416.289C474.244 399.828 463.489 383.631 443.836 369.716C456.573 349.294 460.217 330.198 453.795 315.046C449.815 305.639 442.28 298.832 433.064 295.826L503.13 295.897C503.095 296.003 503.042 296.091 503.006 296.18C498.566 308.397 503.643 322.047 515 328.395C525.631 334.336 529.735 337.306 531.203 338.792C531.397 340.878 531.026 345.917 528.762 357.887C526.321 370.671 533.52 383.331 545.761 387.769C548.733 388.847 551.811 389.378 554.818 389.378C564.193 389.378 573.179 384.374 577.99 375.799C583.934 365.172 586.906 361.07 588.392 359.603C590.479 359.408 595.52 359.779 607.496 362.043C620.285 364.465 632.95 357.286 637.39 345.051C641.83 332.833 636.753 319.183 625.397 312.835H625.415ZM300.573 169.157C301.015 169.104 301.457 169.051 301.882 168.98V187.28L287.041 181.888C292.542 178.864 297.212 174.55 300.59 169.157H300.573ZM375.68 324.434C355.25 311.704 336.145 308.061 320.986 314.48C320.243 314.798 319.518 315.134 318.81 315.488L327.319 292.113C331.334 294.465 335.915 295.755 340.656 295.755L410.829 295.826C398.376 299.557 386.347 309.37 375.68 324.434Z" fill="#FFEA28"/>
<path d="M324.845 228.984L166.275 171.326L116.162 309.023L274.733 366.681L324.845 228.984Z" fill="white" stroke="black" stroke-width="2" stroke-miterlimit="10"/>
<path d="M316.442 215.931L157.872 158.273L107.76 295.97L266.33 353.628L316.442 215.931Z" fill="white" stroke="black" stroke-width="2" stroke-miterlimit="10"/>
<path d="M222.599 217.144C228.083 219.142 232.753 221.706 236.591 224.853C240.43 228.001 243.419 231.59 245.507 235.639C247.594 239.688 248.761 244.037 248.991 248.723C249.221 253.409 248.408 258.271 246.568 263.31C244.728 268.349 242.216 272.593 238.997 276.023C235.778 279.453 232.045 282.052 227.764 283.82C223.484 285.589 218.796 286.402 213.702 286.296C208.607 286.19 203.247 285.111 197.64 283.078L176.077 275.245C172.115 273.795 170.063 269.428 171.513 265.45L190.387 213.573C191.82 209.612 196.207 207.561 200.187 209.011L222.599 217.162V217.144ZM205.264 266.581C207.281 267.306 209.209 267.589 211.066 267.412C212.906 267.235 214.675 266.652 216.355 265.697C218.018 264.742 219.521 263.381 220.83 261.648C222.139 259.915 223.236 257.811 224.138 255.354C225.04 252.896 225.5 250.562 225.571 248.334C225.642 246.106 225.306 244.055 224.616 242.163C223.908 240.271 222.829 238.627 221.379 237.248C219.928 235.869 218.124 234.772 215.984 233.994C212.021 232.545 207.634 234.596 206.184 238.556L199.692 256.414C198.241 260.375 200.293 264.76 204.256 266.21L205.299 266.581H205.264Z" fill="black"/>
<path d="M70.2256 267.872C61.841 241.986 57.8079 239.034 30.5844 238.804C56.4812 230.423 59.4353 226.392 59.6652 199.18C68.0499 225.065 72.083 228.018 99.3064 228.248C73.4096 236.629 70.4556 240.66 70.2256 267.872Z" fill="black"/>
<path d="M394.519 394.382C362.644 467.989 318.952 438.956 374.531 381.103C300.891 349.241 329.937 305.568 387.815 361.123C419.691 287.516 463.383 316.549 407.804 374.402C481.443 406.264 452.398 449.936 394.519 394.382Z" fill="black"/>
<path d="M609.672 76.8607C565.077 87.7877 559.612 94.1883 555.897 139.93C544.965 95.3553 538.561 89.8918 492.8 86.1787C537.394 75.2517 542.86 68.851 546.575 23.1095C557.506 67.6841 563.91 73.1476 609.672 76.8607Z" fill="black"/>
<path d="M130.935 424.617C130.209 491.081 87.5078 482.912 111.388 420.868C44.8949 420.143 53.0672 377.461 115.138 401.33C115.863 334.866 158.565 343.035 134.685 405.079C201.178 405.804 193.005 448.486 130.935 424.617Z" fill="black"/>
<path d="M616.517 332.568C581.935 325.99 576.08 328.713 558.904 359.443C565.484 324.876 562.76 319.024 532.016 301.855C566.599 308.433 572.454 305.71 589.63 274.98C583.049 309.547 585.774 315.399 616.517 332.568Z" fill="black"/>
<path d="M513.549 119.367H344.813V265.892H513.549V119.367Z" fill="white" stroke="black" stroke-width="2" stroke-miterlimit="10"/>
<path d="M501.184 109.978H332.448V256.503H501.184V109.978Z" fill="white" stroke="black" stroke-width="2" stroke-miterlimit="10"/>
<path d="M413.447 143.201C419.284 143.201 424.555 144.032 429.243 145.676C433.931 147.321 437.964 149.69 441.307 152.784C444.65 155.878 447.233 159.574 449.037 163.906C450.841 168.238 451.744 173.082 451.744 178.44C451.744 183.797 450.806 188.642 448.966 192.974C447.109 197.306 444.473 201.019 441.059 204.131C437.645 207.243 433.506 209.63 428.677 211.256C423.848 212.883 418.453 213.714 412.474 213.714H389.531C385.303 213.696 381.889 210.266 381.889 206.04L381.942 150.839C381.942 146.613 385.374 143.201 389.602 143.201H413.447ZM413.995 195.608C416.135 195.608 418.046 195.202 419.726 194.406C421.407 193.61 422.857 192.461 424.113 190.994C425.351 189.526 426.289 187.74 426.926 185.671C427.563 183.603 427.881 181.251 427.881 178.634C427.881 176.017 427.527 173.648 426.837 171.544C426.147 169.44 425.139 167.601 423.83 166.063C422.521 164.525 420.947 163.34 419.107 162.544C417.268 161.731 415.198 161.324 412.916 161.324C408.688 161.324 405.274 164.737 405.257 168.963V187.97C405.239 192.196 408.653 195.608 412.881 195.626H413.995V195.608Z" fill="black"/>
<path d="M271.315 120.304C317.873 177.202 214.374 160.175 276.71 121.188C214.374 160.175 229.374 69.0455 275.932 125.944C229.374 69.0455 332.873 86.0726 270.537 125.06C332.873 86.0726 317.873 177.202 271.315 120.304Z" fill="black"/>
<path d="M131.483 99.033C211.491 132.751 161.342 132.486 137.833 99.0684C161.342 132.486 132.703 173.63 141.46 93.8524C132.703 173.63 117.455 125.873 143.388 99.8994C117.455 125.873 69.465 111.375 149.473 101.738C69.465 111.375 110.185 82.1297 144.325 105.434C110.203 82.112 109.177 32.0032 144.449 111.781C109.177 32.0032 149.579 61.6724 139.337 108.033C149.579 61.6901 196.95 45.2288 133.34 110.119C196.95 45.2288 181.207 92.8092 135.339 104.09C181.207 92.8092 211.508 132.751 131.501 99.033H131.483Z" fill="black"/>
</g>
<defs>
<clipPath id="clip0_692_20732">
<rect width="639" height="501" fill="white"/>
</clipPath>
</defs>
</svg>
