<svg width="720" height="451" viewBox="0 0 720 451" fill="none" xmlns="http://www.w3.org/2000/svg">
<g clip-path="url(#clip0_692_20882)">
<path d="M449.248 244.711H362.456V345.148H449.248V244.711Z" fill="#FAF9FC"/>
<path d="M323.005 244.711H234.24V345.148H323.005V244.711Z" fill="#FAF9FC"/>
<path d="M198.734 244.711H107.997V345.148H198.734V244.711Z" fill="#FAF9FC"/>
<path d="M712.149 17.6847C718.343 26.5074 720.75 37.2206 718.876 47.8354C717.949 53.1526 716.015 58.1351 713.195 62.5464C710.394 66.9577 706.705 70.8177 702.286 73.9292C695.402 78.7541 687.374 81.2749 679.129 81.2749C677.314 81.2749 675.46 81.137 673.625 80.881L673.98 79.9948L670.311 78.5769L669.7 80.1524C666.268 79.3449 663.013 78.1239 659.975 76.5091L661.139 73.6141L657.47 72.1568L656.543 74.4413C652.46 71.7236 648.87 68.2181 645.95 64.0825C639.757 55.2598 637.35 44.5466 639.224 33.9318C641.078 23.2973 646.976 14.0414 655.813 7.83795C664.65 1.6542 675.381 -0.748399 686.013 1.12248C696.665 2.97367 705.936 8.86201 712.149 17.6847ZM714.99 47.1658C715.364 45.0389 715.542 42.912 715.542 40.8048C715.542 33.3804 713.274 26.1529 708.914 19.9494C703.312 11.9736 694.949 6.67604 685.342 5.00209C683.212 4.62792 681.082 4.45068 678.971 4.45068C671.534 4.45068 664.295 6.71542 658.082 11.0677C650.093 16.6606 644.787 25.0107 643.11 34.6014C641.433 44.1921 643.583 53.8616 649.185 61.8177C654.787 69.7936 663.151 75.0911 672.757 76.7651C682.364 78.439 692.049 76.2924 700.018 70.6995C708.007 65.1066 713.313 56.7565 714.99 47.1658Z" fill="black"/>
<path d="M715.542 40.8048C715.542 42.912 715.364 45.0389 714.99 47.1658C713.313 56.7565 708.007 65.1066 700.018 70.6995C692.049 76.2924 682.364 78.439 672.757 76.7651C663.151 75.0911 654.787 69.7936 649.185 61.8177C643.583 53.8616 641.433 44.1921 643.11 34.6014C644.787 25.0107 650.093 16.6606 658.082 11.0677C664.295 6.71543 671.534 4.45068 678.971 4.45068C681.082 4.45068 683.212 4.62792 685.342 5.0021C694.949 6.67604 703.312 11.9736 708.914 19.9494C713.274 26.1529 715.542 33.3804 715.542 40.8048Z" fill="#4138E2"/>
<path d="M673.98 79.9948L673.625 80.881C673.112 80.822 672.6 80.7432 672.087 80.6447C671.278 80.5069 670.489 80.3493 669.7 80.1524L670.311 78.5769L673.98 79.9948Z" fill="black"/>
<path d="M673.625 80.881L605.474 254.774H601.252L669.7 80.1523C670.489 80.3493 671.278 80.5068 672.087 80.6447C672.6 80.7431 673.112 80.8219 673.625 80.881Z" fill="black"/>
<path d="M672.146 276.22V311.669H652.381V307.73H668.201V280.159H652.381V276.22H672.146Z" fill="black"/>
<path d="M669.7 80.1523L601.253 254.774H587.839L659.975 76.509C663.013 78.1239 666.268 79.3449 669.7 80.1523Z" fill="#010000"/>
<path d="M668.201 280.159H652.381V307.73H668.201V280.159Z" fill="#010000"/>
<path d="M661.139 73.6141L659.975 76.509C658.792 75.8788 657.648 75.1895 656.543 74.4412L657.47 72.1567L661.139 73.6141Z" fill="black"/>
<path d="M659.975 76.5091L587.839 254.774H583.598L656.543 74.4413C657.648 75.1896 658.792 75.8789 659.975 76.5091Z" fill="black"/>
<path d="M652.381 311.669V336.148H556.752V332.209H648.436V311.669H650.448H652.381Z" fill="black"/>
<path d="M652.381 307.73H650.448V311.669H652.381V307.73Z" fill="black"/>
<path d="M652.381 280.159V307.73H650.448V311.669H648.436V258.713H556.752V254.774H583.598L583.105 255.995L586.754 257.472L587.839 254.774H601.253L600.759 256.015L604.428 257.453L605.474 254.774H652.381V276.22H650.448V280.159H652.381Z" fill="black"/>
<path d="M652.381 276.22H650.448V280.159H652.381V276.22Z" fill="black"/>
<path d="M648.436 311.669V332.209H556.752V258.713H648.436V311.669Z" fill="#BBBBBD"/>
<path d="M605.474 254.774L604.428 257.453L600.759 256.015L601.253 254.774H605.474Z" fill="black"/>
<path d="M587.839 254.774L586.754 257.472L583.105 255.995L583.598 254.774H587.839Z" fill="black"/>
<path d="M556.752 336.148V450.508H0.493134V135.412H100.758C100.344 137.027 100.166 137.933 100.146 137.992L104.012 138.74V139.351H4.43823V446.569H552.807V336.148H556.752Z" fill="black"/>
<path d="M556.752 332.209H554.779V336.148H556.752V332.209Z" fill="black"/>
<path d="M556.752 258.713V332.209H554.779V336.148H552.807V258.713H554.779H556.752Z" fill="black"/>
<path d="M556.752 254.774H554.779V258.713H556.752V254.774Z" fill="black"/>
<path d="M556.752 135.412V254.774H554.779V258.713H552.807V139.351H451.24V138.681L455.146 138.051C455.146 138.051 454.988 137.066 454.633 135.412H556.752Z" fill="black"/>
<path d="M552.807 336.148V446.569H320.046V441.646C328.212 441.646 334.84 435.462 334.84 427.86C334.84 420.259 328.212 414.075 320.046 414.075V408.167H498.562V181.692H54.7382V408.167H74.4637V414.075C66.8497 414.075 60.6559 420.259 60.6559 427.86C60.6559 435.462 66.8497 441.646 74.4637 441.646V446.569H4.43823V139.351H552.807V336.148ZM539.985 161.998C539.985 154.397 533.791 148.213 526.177 148.213C518.563 148.213 512.37 154.397 512.37 161.998C512.37 169.6 518.563 175.784 526.177 175.784C533.791 175.784 539.985 169.6 539.985 161.998ZM538.013 338.255C538.013 331.205 532.707 325.454 526.177 325.454C519.648 325.454 514.342 331.205 514.342 338.255C514.342 345.305 519.648 351.056 526.177 351.056C532.707 351.056 538.013 345.305 538.013 338.255ZM538.013 427.86C538.013 421.342 532.707 416.044 526.177 416.044C519.648 416.044 514.342 421.342 514.342 427.86C514.342 434.379 519.648 439.676 526.177 439.676C532.707 439.676 538.013 434.379 538.013 427.86ZM538.013 206.309C538.013 199.258 532.253 193.508 525.191 193.508C518.129 193.508 512.37 199.258 512.37 206.309C512.37 213.359 518.129 219.109 525.191 219.109C532.253 219.109 538.013 213.359 538.013 206.309ZM538.013 293.945C538.013 286.343 531.819 280.159 524.205 280.159C516.591 280.159 510.397 286.343 510.397 293.945C510.397 301.546 516.591 307.73 524.205 307.73C531.819 307.73 538.013 301.546 538.013 293.945ZM538.013 380.596C538.013 372.994 531.819 366.81 524.205 366.81C516.591 366.81 510.397 372.994 510.397 380.596C510.397 388.198 516.591 394.381 524.205 394.381C531.819 394.381 538.013 388.198 538.013 380.596ZM536.04 248.65C536.04 242.131 530.734 236.834 524.205 236.834C517.676 236.834 512.37 242.131 512.37 248.65C512.37 255.168 517.676 260.466 524.205 260.466C530.734 260.466 536.04 255.168 536.04 248.65ZM498.562 161.014C498.562 153.964 492.368 148.213 484.754 148.213C477.14 148.213 470.946 153.964 470.946 161.014C470.946 168.064 477.14 173.815 484.754 173.815C492.368 173.815 498.562 168.064 498.562 161.014ZM496.589 427.86C496.589 421.342 491.283 416.044 484.754 416.044C478.225 416.044 472.919 421.342 472.919 427.86C472.919 434.379 478.225 439.676 484.754 439.676C491.283 439.676 496.589 434.379 496.589 427.86ZM455.166 427.86C455.166 421.342 449.859 416.044 443.33 416.044C436.801 416.044 431.495 421.342 431.495 427.86C431.495 434.379 436.801 439.676 443.33 439.676C449.859 439.676 455.166 434.379 455.166 427.86ZM455.166 162.983C455.166 155.933 449.406 150.182 442.344 150.182C435.282 150.182 429.523 155.933 429.523 162.983C429.523 170.033 435.282 175.784 442.344 175.784C449.406 175.784 455.166 170.033 455.166 162.983ZM413.742 161.014C413.742 153.964 408.436 148.213 401.907 148.213C395.378 148.213 390.072 153.964 390.072 161.014C390.072 168.064 395.378 173.815 401.907 173.815C408.436 173.815 413.742 168.064 413.742 161.014ZM400.921 439.676C407.982 439.676 413.742 434.379 413.742 427.86C413.742 421.342 407.982 416.044 400.921 416.044C393.859 416.044 388.099 421.342 388.099 427.86C388.099 434.379 393.859 439.676 400.921 439.676ZM376.264 161.014C376.264 153.964 370.07 148.213 362.456 148.213C354.842 148.213 348.648 153.964 348.648 161.014C348.648 168.064 354.842 173.815 362.456 173.815C370.07 173.815 376.264 168.064 376.264 161.014ZM372.319 427.86C372.319 421.342 367.012 416.044 360.483 416.044C353.954 416.044 348.648 421.342 348.648 427.86C348.648 434.379 353.954 439.676 360.483 439.676C367.012 439.676 372.319 434.379 372.319 427.86ZM334.84 161.998C334.84 154.397 328.212 148.213 320.046 148.213C311.88 148.213 305.252 154.397 305.252 161.998C305.252 169.6 311.88 175.784 320.046 175.784C328.212 175.784 334.84 169.6 334.84 161.998ZM291.444 161.014C291.444 153.964 285.25 148.213 277.636 148.213C270.022 148.213 263.828 153.964 263.828 161.014C263.828 168.064 270.022 173.815 277.636 173.815C285.25 173.815 291.444 168.064 291.444 161.014ZM250.021 162.983C250.021 155.933 244.261 150.182 237.199 150.182C230.137 150.182 224.377 155.933 224.377 162.983C224.377 170.033 230.137 175.784 237.199 175.784C244.261 175.784 250.021 170.033 250.021 162.983ZM210.57 162.983C210.57 155.933 204.81 150.182 197.748 150.182C190.686 150.182 184.926 155.933 184.926 162.983C184.926 170.033 190.686 175.784 197.748 175.784C204.81 175.784 210.57 170.033 210.57 162.983ZM169.146 161.014C169.146 153.964 163.386 148.213 156.324 148.213C149.263 148.213 143.503 153.964 143.503 161.014C143.503 168.064 149.263 173.815 156.324 173.815C163.386 173.815 169.146 168.064 169.146 161.014ZM129.695 161.014C129.695 153.964 123.067 148.213 114.901 148.213C106.735 148.213 100.107 153.964 100.107 161.014C100.107 168.064 106.735 173.815 114.901 173.815C123.067 173.815 129.695 168.064 129.695 161.014ZM88.2716 161.998C88.2716 154.397 82.0778 148.213 74.4637 148.213C66.8497 148.213 60.6559 154.397 60.6559 161.998C60.6559 169.6 66.8497 175.784 74.4637 175.784C82.0778 175.784 88.2716 169.6 88.2716 161.998ZM46.848 161.014C46.848 153.964 41.0882 148.213 34.0265 148.213C26.9647 148.213 21.2049 153.964 21.2049 161.014C21.2049 168.064 26.9647 173.815 34.0265 173.815C41.0882 173.815 46.848 168.064 46.848 161.014ZM46.848 206.309C46.848 199.258 41.0882 193.508 34.0265 193.508C26.9647 193.508 21.2049 199.258 21.2049 206.309C21.2049 213.359 26.9647 219.109 34.0265 219.109C41.0882 219.109 46.848 213.359 46.848 206.309ZM46.848 428.845C46.848 421.795 41.0882 416.044 34.0265 416.044C26.9647 416.044 21.2049 421.795 21.2049 428.845C21.2049 435.895 26.9647 441.646 34.0265 441.646C41.0882 441.646 46.848 435.895 46.848 428.845ZM44.8755 252.588C44.8755 244.987 38.6817 238.803 31.0676 238.803C23.4536 238.803 17.2598 244.987 17.2598 252.588C17.2598 260.19 23.4536 266.374 31.0676 266.374C38.6817 266.374 44.8755 260.19 44.8755 252.588ZM44.8755 293.945C44.8755 286.343 38.6817 280.159 31.0676 280.159C23.4536 280.159 17.2598 286.343 17.2598 293.945C17.2598 301.546 23.4536 307.73 31.0676 307.73C38.6817 307.73 44.8755 301.546 44.8755 293.945ZM44.8755 341.209C44.8755 333.607 38.6817 327.424 31.0676 327.424C23.4536 327.424 17.2598 333.607 17.2598 341.209C17.2598 348.811 23.4536 354.994 31.0676 354.994C38.6817 354.994 44.8755 348.811 44.8755 341.209ZM44.8755 384.535C44.8755 376.933 38.6817 370.749 31.0676 370.749C23.4536 370.749 17.2598 376.933 17.2598 384.535C17.2598 392.136 23.4536 398.32 31.0676 398.32C38.6817 398.32 44.8755 392.136 44.8755 384.535Z" fill="#4138E2"/>
<path d="M526.177 148.213C533.791 148.213 539.985 154.397 539.985 161.998C539.985 169.6 533.791 175.784 526.177 175.784C518.563 175.784 512.37 169.6 512.37 161.998C512.37 154.397 518.563 148.213 526.177 148.213ZM536.04 161.998C536.04 156.563 531.622 152.152 526.177 152.152C520.733 152.152 516.315 156.563 516.315 161.998C516.315 167.434 520.733 171.845 526.177 171.845C531.622 171.845 536.04 167.434 536.04 161.998Z" fill="black"/>
<path d="M526.177 325.454C532.706 325.454 538.013 331.205 538.013 338.255C538.013 345.305 532.706 351.056 526.177 351.056C519.648 351.056 514.342 345.305 514.342 338.255C514.342 331.205 519.648 325.454 526.177 325.454ZM534.068 338.255C534.068 333.371 530.537 329.393 526.177 329.393C521.818 329.393 518.287 333.371 518.287 338.255C518.287 343.139 521.818 347.117 526.177 347.117C530.537 347.117 534.068 343.139 534.068 338.255Z" fill="black"/>
<path d="M526.177 416.044C532.706 416.044 538.013 421.342 538.013 427.86C538.013 434.379 532.706 439.676 526.177 439.676C519.648 439.676 514.342 434.379 514.342 427.86C514.342 421.342 519.648 416.044 526.177 416.044ZM534.068 427.86C534.068 423.508 530.537 419.983 526.177 419.983C521.818 419.983 518.287 423.508 518.287 427.86C518.287 432.212 521.818 435.738 526.177 435.738C530.537 435.738 534.068 432.212 534.068 427.86Z" fill="black"/>
<path d="M525.191 193.508C532.253 193.508 538.013 199.258 538.013 206.309C538.013 213.359 532.253 219.109 525.191 219.109C518.129 219.109 512.37 213.359 512.37 206.309C512.37 199.258 518.129 193.508 525.191 193.508ZM534.068 206.309C534.068 201.425 530.083 197.447 525.191 197.447C520.299 197.447 516.315 201.425 516.315 206.309C516.315 211.193 520.299 215.171 525.191 215.171C530.083 215.171 534.068 211.193 534.068 206.309Z" fill="black"/>
<path d="M524.205 280.159C531.819 280.159 538.013 286.343 538.013 293.945C538.013 301.546 531.819 307.73 524.205 307.73C516.591 307.73 510.397 301.546 510.397 293.945C510.397 286.343 516.591 280.159 524.205 280.159ZM534.068 293.945C534.068 288.509 529.649 284.098 524.205 284.098C518.761 284.098 514.342 288.509 514.342 293.945C514.342 299.38 518.761 303.791 524.205 303.791C529.649 303.791 534.068 299.38 534.068 293.945Z" fill="black"/>
<path d="M524.205 366.81C531.819 366.81 538.013 372.994 538.013 380.596C538.013 388.198 531.819 394.381 524.205 394.381C516.591 394.381 510.397 388.198 510.397 380.596C510.397 372.994 516.591 366.81 524.205 366.81ZM534.068 380.596C534.068 375.16 529.649 370.749 524.205 370.749C518.761 370.749 514.342 375.16 514.342 380.596C514.342 386.031 518.761 390.443 524.205 390.443C529.649 390.443 534.068 386.031 534.068 380.596Z" fill="black"/>
<path d="M526.177 171.845C531.624 171.845 536.04 167.437 536.04 161.998C536.04 156.56 531.624 152.152 526.177 152.152C520.73 152.152 516.315 156.56 516.315 161.998C516.315 167.437 520.73 171.845 526.177 171.845Z" fill="#FFEA28"/>
<path d="M524.205 236.833C530.734 236.833 536.04 242.131 536.04 248.65C536.04 255.168 530.734 260.466 524.205 260.466C517.676 260.466 512.37 255.168 512.37 248.65C512.37 242.131 517.676 236.833 524.205 236.833ZM532.095 248.65C532.095 244.297 528.564 240.772 524.205 240.772C519.845 240.772 516.315 244.297 516.315 248.65C516.315 253.002 519.845 256.527 524.205 256.527C528.564 256.527 532.095 253.002 532.095 248.65Z" fill="black"/>
<path d="M526.177 347.117C530.535 347.117 534.068 343.149 534.068 338.255C534.068 333.361 530.535 329.393 526.177 329.393C521.82 329.393 518.287 333.361 518.287 338.255C518.287 343.149 521.82 347.117 526.177 347.117Z" fill="#FFEA28"/>
<path d="M526.177 435.738C530.535 435.738 534.068 432.211 534.068 427.86C534.068 423.51 530.535 419.983 526.177 419.983C521.82 419.983 518.287 423.51 518.287 427.86C518.287 432.211 521.82 435.738 526.177 435.738Z" fill="#FFEA28"/>
<path d="M525.191 215.171C530.093 215.171 534.068 211.203 534.068 206.309C534.068 201.414 530.093 197.447 525.191 197.447C520.289 197.447 516.315 201.414 516.315 206.309C516.315 211.203 520.289 215.171 525.191 215.171Z" fill="#FFEA28"/>
<path d="M524.205 303.791C529.652 303.791 534.068 299.383 534.068 293.945C534.068 288.506 529.652 284.098 524.205 284.098C518.758 284.098 514.342 288.506 514.342 293.945C514.342 299.383 518.758 303.791 524.205 303.791Z" fill="#FFEA28"/>
<path d="M524.205 390.442C529.652 390.442 534.068 386.034 534.068 380.596C534.068 375.158 529.652 370.749 524.205 370.749C518.758 370.749 514.342 375.158 514.342 380.596C514.342 386.034 518.758 390.442 524.205 390.442Z" fill="#FFEA28"/>
<path d="M524.205 256.527C528.562 256.527 532.095 253 532.095 248.65C532.095 244.299 528.562 240.772 524.205 240.772C519.847 240.772 516.315 244.299 516.315 248.65C516.315 253 519.847 256.527 524.205 256.527Z" fill="#FFEA28"/>
<path d="M498.562 181.692V408.167H54.7382V181.692H498.562ZM494.617 404.228V185.631H58.6833V404.228H494.617Z" fill="black"/>
<path d="M484.754 148.213C492.368 148.213 498.562 153.964 498.562 161.014C498.562 168.064 492.368 173.815 484.754 173.815C477.14 173.815 470.946 168.064 470.946 161.014C470.946 153.964 477.14 148.213 484.754 148.213ZM484.754 169.876C490.198 169.876 494.617 165.898 494.617 161.014C494.617 156.13 490.198 152.152 484.754 152.152C479.31 152.152 474.891 156.13 474.891 161.014C474.891 165.898 479.31 169.876 484.754 169.876Z" fill="black"/>
<path d="M494.617 185.63V404.228H58.6833V185.63H494.617ZM478.836 374.688V217.14H84.3265V374.688H478.836Z" fill="#FAF9FC"/>
<path d="M484.754 416.044C491.283 416.044 496.589 421.342 496.589 427.86C496.589 434.379 491.283 439.676 484.754 439.676C478.225 439.676 472.919 434.379 472.919 427.86C472.919 421.342 478.225 416.044 484.754 416.044ZM492.644 427.86C492.644 423.508 489.113 419.983 484.754 419.983C480.394 419.983 476.864 423.508 476.864 427.86C476.864 432.212 480.394 435.738 484.754 435.738C489.113 435.738 492.644 432.212 492.644 427.86Z" fill="black"/>
<path d="M484.754 169.876C490.201 169.876 494.617 165.908 494.617 161.014C494.617 156.119 490.201 152.152 484.754 152.152C479.307 152.152 474.891 156.119 474.891 161.014C474.891 165.908 479.307 169.876 484.754 169.876Z" fill="#FFEA28"/>
<path d="M484.754 435.738C489.111 435.738 492.644 432.211 492.644 427.86C492.644 423.51 489.111 419.983 484.754 419.983C480.396 419.983 476.864 423.51 476.864 427.86C476.864 432.211 480.396 435.738 484.754 435.738Z" fill="#FFEA28"/>
<path d="M478.836 217.14V374.688H84.3265V217.14H478.836ZM474.891 370.749V221.079H88.2716V370.749H474.891Z" fill="black"/>
<path d="M474.891 221.079V370.749H88.2715V221.079H474.891ZM453.193 349.086V240.772H358.511V349.086H453.193ZM326.95 349.086V240.772H230.295V349.086H326.95ZM202.679 349.086V240.772H104.052V349.086H202.679Z" fill="#4138E2"/>
<path d="M455.146 138.051L451.24 138.681C451.24 138.681 451.043 137.46 450.609 135.412H454.633C454.988 137.066 455.146 137.992 455.146 138.051Z" fill="black"/>
<path d="M454.633 135.412H450.609C448.558 126.078 441.22 98.1916 421.415 70.9555C399.204 40.4109 356.242 4.43098 277.695 6.42002C201.101 8.38937 158.001 44.1921 135.317 73.9095C115.295 100.122 107.188 126.334 104.821 135.412H100.758C102.849 127.003 110.976 99.3141 132.062 71.6645C155.279 41.1987 199.365 4.49006 277.577 2.48133C357.899 0.39382 401.926 37.3978 424.709 68.7695C445.461 97.3447 452.799 126.629 454.633 135.412Z" fill="black"/>
<path d="M453.193 240.772V349.086H358.511V240.772H453.193ZM449.248 345.148V244.711H362.456V345.148H449.248Z" fill="black"/>
<path d="M443.33 416.044C449.859 416.044 455.166 421.342 455.166 427.86C455.166 434.379 449.859 439.676 443.33 439.676C436.801 439.676 431.495 434.379 431.495 427.86C431.495 421.342 436.801 416.044 443.33 416.044ZM451.221 427.86C451.221 423.508 447.69 419.983 443.33 419.983C438.971 419.983 435.44 423.508 435.44 427.86C435.44 432.212 438.971 435.738 443.33 435.738C447.69 435.738 451.221 432.212 451.221 427.86Z" fill="black"/>
<path d="M442.344 150.182C449.406 150.182 455.166 155.933 455.166 162.983C455.166 170.033 449.406 175.784 442.344 175.784C435.282 175.784 429.522 170.033 429.522 162.983C429.522 155.933 435.282 150.182 442.344 150.182ZM451.221 162.983C451.221 158.099 447.236 154.121 442.344 154.121C437.452 154.121 433.468 158.099 433.468 162.983C433.468 167.867 437.452 171.845 442.344 171.845C447.236 171.845 451.221 167.867 451.221 162.983Z" fill="black"/>
<path d="M451.24 138.681V139.351H378.315V138.878L382.102 137.854C381.885 137.066 381.629 136.259 381.333 135.412H450.609C451.043 137.46 451.24 138.622 451.24 138.681Z" fill="black"/>
<path d="M450.609 135.412H381.333C374.074 114.104 343.362 76.1742 295.586 71.4084C236.765 65.5398 190.055 109.771 181.198 135.412H104.821C107.188 126.334 115.295 100.122 135.317 73.9095C158.001 44.1921 201.101 8.38936 277.695 6.42001C356.242 4.43097 399.204 40.4109 421.415 70.9555C441.22 98.1915 448.558 126.077 450.609 135.412ZM415.715 116.703C415.715 109.102 409.955 102.918 402.893 102.918C395.831 102.918 390.072 109.102 390.072 116.703C390.072 124.305 395.831 130.489 402.893 130.489C409.955 130.489 415.715 124.305 415.715 116.703ZM380.209 81.2552C380.209 73.6535 374.449 67.4697 367.387 67.4697C360.325 67.4697 354.566 73.6535 354.566 81.2552C354.566 88.8568 360.325 95.0406 367.387 95.0406C374.449 95.0406 380.209 88.8568 380.209 81.2552ZM342.73 57.623C342.73 50.0213 336.537 43.8376 328.923 43.8376C321.308 43.8376 315.115 50.0213 315.115 57.623C315.115 65.2247 321.308 71.4084 328.923 71.4084C336.537 71.4084 342.73 65.2247 342.73 57.623ZM291.444 47.7763C291.444 40.1746 285.25 33.9909 277.636 33.9909C270.022 33.9909 263.828 40.1746 263.828 47.7763C263.828 55.378 270.022 61.5617 277.636 61.5617C285.25 61.5617 291.444 55.378 291.444 47.7763ZM244.103 60.577C244.103 52.4239 237.475 45.8069 229.309 45.8069C221.142 45.8069 214.515 52.4239 214.515 60.577C214.515 68.7301 221.142 75.3471 229.309 75.3471C237.475 75.3471 244.103 68.7301 244.103 60.577ZM204.652 79.2858C204.652 71.6841 198.458 65.5004 190.844 65.5004C183.23 65.5004 177.036 71.6841 177.036 79.2858C177.036 86.8875 183.23 93.0712 190.844 93.0712C198.458 93.0712 204.652 86.8875 204.652 79.2858ZM173.091 118.673C173.091 109.988 166.01 102.918 157.311 102.918C148.612 102.918 141.53 109.988 141.53 118.673C141.53 127.358 148.612 134.428 157.311 134.428C166.01 134.428 173.091 127.358 173.091 118.673Z" fill="#4138E2"/>
<path d="M443.33 435.738C447.688 435.738 451.22 432.211 451.22 427.86C451.22 423.51 447.688 419.983 443.33 419.983C438.973 419.983 435.44 423.51 435.44 427.86C435.44 432.211 438.973 435.738 443.33 435.738Z" fill="#FFEA28"/>
<path d="M442.344 171.845C447.246 171.845 451.22 167.877 451.22 162.983C451.22 158.089 447.246 154.121 442.344 154.121C437.442 154.121 433.468 158.089 433.468 162.983C433.468 167.877 437.442 171.845 442.344 171.845Z" fill="#FFEA28"/>
<path d="M402.893 102.918C409.955 102.918 415.715 109.102 415.715 116.703C415.715 124.305 409.955 130.489 402.893 130.489C395.831 130.489 390.072 124.305 390.072 116.703C390.072 109.102 395.831 102.918 402.893 102.918ZM411.77 116.703C411.77 111.268 407.785 106.857 402.893 106.857C398.001 106.857 394.017 111.268 394.017 116.703C394.017 122.139 398.001 126.55 402.893 126.55C407.785 126.55 411.77 122.139 411.77 116.703Z" fill="black"/>
<path d="M401.907 148.213C408.436 148.213 413.742 153.964 413.742 161.014C413.742 168.064 408.436 173.815 401.907 173.815C395.378 173.815 390.072 168.064 390.072 161.014C390.072 153.964 395.378 148.213 401.907 148.213ZM409.797 161.014C409.797 156.13 406.266 152.152 401.907 152.152C397.547 152.152 394.017 156.13 394.017 161.014C394.017 165.898 397.547 169.876 401.907 169.876C406.266 169.876 409.797 165.898 409.797 161.014Z" fill="black"/>
<path d="M413.742 427.86C413.742 434.379 407.982 439.676 400.921 439.676C393.859 439.676 388.099 434.379 388.099 427.86C388.099 421.342 393.859 416.044 400.921 416.044C407.982 416.044 413.742 421.342 413.742 427.86ZM400.921 435.738C405.812 435.738 409.797 432.212 409.797 427.86C409.797 423.508 405.812 419.983 400.921 419.983C396.029 419.983 392.044 423.508 392.044 427.86C392.044 432.212 396.029 435.738 400.921 435.738Z" fill="black"/>
<path d="M402.893 126.55C407.795 126.55 411.77 122.142 411.77 116.703C411.77 111.265 407.795 106.857 402.893 106.857C397.991 106.857 394.017 111.265 394.017 116.703C394.017 122.142 397.991 126.55 402.893 126.55Z" fill="#FFEA28"/>
<path d="M401.907 169.876C406.264 169.876 409.797 165.908 409.797 161.014C409.797 156.119 406.264 152.152 401.907 152.152C397.549 152.152 394.017 156.119 394.017 161.014C394.017 165.908 397.549 169.876 401.907 169.876Z" fill="#FFEA28"/>
<path d="M400.921 435.738C405.823 435.738 409.797 432.211 409.797 427.86C409.797 423.51 405.823 419.983 400.921 419.983C396.018 419.983 392.044 423.51 392.044 427.86C392.044 432.211 396.018 435.738 400.921 435.738Z" fill="#FFEA28"/>
<path d="M382.102 137.854L378.315 138.878C378.019 137.775 377.644 136.633 377.171 135.412H381.333C381.629 136.259 381.885 137.066 382.102 137.854Z" fill="black"/>
<path d="M381.333 135.412H377.171C369.518 114.872 340.324 79.857 295.192 75.3472C239.389 69.7542 194.967 110.638 185.4 135.412H181.198C190.055 109.771 236.765 65.5398 295.586 71.4085C343.362 76.1743 374.074 114.104 381.333 135.412Z" fill="black"/>
<path d="M378.315 138.878V139.351H184.828V137.027C185.005 136.495 185.203 135.964 185.4 135.412H214.574C214.534 135.786 214.515 136.102 214.515 136.397H218.46C218.46 136.121 218.479 135.786 218.539 135.412H340.561C340.639 135.708 340.738 136.003 340.817 136.298L341.31 137.953L345.078 136.81L344.663 135.412H377.171C377.644 136.633 378.019 137.775 378.315 138.878Z" fill="black"/>
<path d="M367.387 67.4697C374.449 67.4697 380.209 73.6535 380.209 81.2552C380.209 88.8568 374.449 95.0406 367.387 95.0406C360.325 95.0406 354.566 88.8568 354.566 81.2552C354.566 73.6535 360.325 67.4697 367.387 67.4697ZM376.264 81.2552C376.264 75.8198 372.279 71.4084 367.387 71.4084C362.495 71.4084 358.511 75.8198 358.511 81.2552C358.511 86.6905 362.495 91.1019 367.387 91.1019C372.279 91.1019 376.264 86.6905 376.264 81.2552Z" fill="black"/>
<path d="M377.171 135.412H344.663L344.604 135.196C339.988 119.441 332.276 93.0713 273.691 93.0713C231.577 93.0713 215.718 126.117 214.574 135.412H185.4C194.967 110.638 239.389 69.7543 295.192 75.3472C340.324 79.857 369.518 114.872 377.171 135.412Z" fill="#BBBBBD"/>
<path d="M367.387 91.1019C372.29 91.1019 376.264 86.6934 376.264 81.2552C376.264 75.817 372.29 71.4084 367.387 71.4084C362.485 71.4084 358.511 75.817 358.511 81.2552C358.511 86.6934 362.485 91.1019 367.387 91.1019Z" fill="#FFEA28"/>
<path d="M362.456 148.213C370.07 148.213 376.264 153.964 376.264 161.014C376.264 168.064 370.07 173.815 362.456 173.815C354.842 173.815 348.648 168.064 348.648 161.014C348.648 153.964 354.842 148.213 362.456 148.213ZM362.456 169.876C367.9 169.876 372.319 165.898 372.319 161.014C372.319 156.13 367.9 152.152 362.456 152.152C357.012 152.152 352.593 156.13 352.593 161.014C352.593 165.898 357.012 169.876 362.456 169.876Z" fill="black"/>
<path d="M362.456 169.876C367.903 169.876 372.319 165.908 372.319 161.014C372.319 156.119 367.903 152.152 362.456 152.152C357.009 152.152 352.593 156.119 352.593 161.014C352.593 165.908 357.009 169.876 362.456 169.876Z" fill="#FFEA28"/>
<path d="M360.483 416.044C367.012 416.044 372.319 421.342 372.319 427.86C372.319 434.379 367.012 439.676 360.483 439.676C353.954 439.676 348.648 434.379 348.648 427.86C348.648 421.342 353.954 416.044 360.483 416.044ZM368.373 427.86C368.373 423.508 364.843 419.983 360.483 419.983C356.124 419.983 352.593 423.508 352.593 427.86C352.593 432.212 356.124 435.738 360.483 435.738C364.843 435.738 368.373 432.212 368.373 427.86Z" fill="black"/>
<path d="M360.483 435.738C364.841 435.738 368.373 432.211 368.373 427.86C368.373 423.51 364.841 419.983 360.483 419.983C356.126 419.983 352.593 423.51 352.593 427.86C352.593 432.211 356.126 435.738 360.483 435.738Z" fill="#FFEA28"/>
<path d="M344.663 135.412L345.078 136.81L341.31 137.953L340.817 136.298C340.738 136.003 340.639 135.708 340.56 135.412H344.663Z" fill="black"/>
<path d="M344.604 135.196L344.663 135.412H340.561C336.221 120.642 328.212 97.01 273.691 97.01C235.207 97.01 219.781 127.003 218.539 135.412H214.574C215.718 126.117 231.577 93.0713 273.691 93.0713C332.276 93.0713 339.988 119.441 344.604 135.196Z" fill="black"/>
<path d="M340.561 135.412H218.539C219.781 127.003 235.207 97.01 273.691 97.01C328.212 97.01 336.221 120.642 340.561 135.412Z" fill="#4138E2"/>
<path d="M328.922 43.8376C336.537 43.8376 342.73 50.0214 342.73 57.6231C342.73 65.2247 336.537 71.4085 328.922 71.4085C321.308 71.4085 315.115 65.2247 315.115 57.6231C315.115 50.0214 321.308 43.8376 328.922 43.8376ZM338.785 57.6231C338.785 52.1877 334.367 47.7763 328.922 47.7763C323.478 47.7763 319.06 52.1877 319.06 57.6231C319.06 63.0585 323.478 67.4698 328.922 67.4698C334.367 67.4698 338.785 63.0585 338.785 57.6231Z" fill="black"/>
<path d="M328.922 67.4697C334.37 67.4697 338.785 63.0612 338.785 57.623C338.785 52.1848 334.37 47.7762 328.922 47.7762C323.475 47.7762 319.06 52.1848 319.06 57.623C319.06 63.0612 323.475 67.4697 328.922 67.4697Z" fill="#FFEA28"/>
<path d="M320.046 148.213C328.212 148.213 334.84 154.397 334.84 161.998C334.84 169.6 328.212 175.784 320.046 175.784C311.88 175.784 305.252 169.6 305.252 161.998C305.252 154.397 311.88 148.213 320.046 148.213ZM330.895 161.998C330.895 156.563 326.023 152.152 320.046 152.152C314.069 152.152 309.197 156.563 309.197 161.998C309.197 167.434 314.069 171.845 320.046 171.845C326.023 171.845 330.895 167.434 330.895 161.998Z" fill="black"/>
<path d="M320.046 414.075C328.212 414.075 334.84 420.258 334.84 427.86C334.84 435.462 328.212 441.646 320.046 441.646C311.88 441.646 305.252 435.462 305.252 427.86C305.252 420.258 311.88 414.075 320.046 414.075ZM330.895 427.86C330.895 422.425 326.023 418.013 320.046 418.013C314.069 418.013 309.197 422.425 309.197 427.86C309.197 433.296 314.069 437.707 320.046 437.707C326.023 437.707 330.895 433.296 330.895 427.86Z" fill="black"/>
<path d="M320.046 171.845C326.038 171.845 330.895 167.437 330.895 161.998C330.895 156.56 326.038 152.152 320.046 152.152C314.054 152.152 309.197 156.56 309.197 161.998C309.197 167.437 314.054 171.845 320.046 171.845Z" fill="#FFEA28"/>
<path d="M320.046 437.707C326.038 437.707 330.895 433.298 330.895 427.86C330.895 422.422 326.038 418.013 320.046 418.013C314.054 418.013 309.197 422.422 309.197 427.86C309.197 433.298 314.054 437.707 320.046 437.707Z" fill="#FFEA28"/>
<path d="M326.95 240.772V349.086H230.295V240.772H326.95ZM323.005 345.148V244.711H234.24V345.148H323.005Z" fill="black"/>
<path d="M320.046 441.646V446.569H240.158V441.646C247.772 441.646 253.966 435.462 253.966 427.86C253.966 420.258 247.772 414.075 240.158 414.075V408.167H320.046V414.075C311.88 414.075 305.252 420.258 305.252 427.86C305.252 435.462 311.88 441.646 320.046 441.646ZM293.417 428.845C293.417 421.795 286.789 416.044 278.622 416.044C270.456 416.044 263.828 421.795 263.828 428.845C263.828 435.895 270.456 441.646 278.622 441.646C286.789 441.646 293.417 435.895 293.417 428.845Z" fill="#4138E2"/>
<path d="M278.623 416.044C286.789 416.044 293.417 421.795 293.417 428.845C293.417 435.895 286.789 441.646 278.623 441.646C270.456 441.646 263.828 435.895 263.828 428.845C263.828 421.795 270.456 416.044 278.623 416.044ZM289.472 428.845C289.472 423.961 284.599 419.983 278.623 419.983C272.646 419.983 267.773 423.961 267.773 428.845C267.773 433.729 272.646 437.707 278.623 437.707C284.599 437.707 289.472 433.729 289.472 428.845Z" fill="black"/>
<path d="M277.636 33.9908C285.25 33.9908 291.444 40.1746 291.444 47.7763C291.444 55.3779 285.25 61.5617 277.636 61.5617C270.022 61.5617 263.828 55.3779 263.828 47.7763C263.828 40.1746 270.022 33.9908 277.636 33.9908ZM287.499 47.7763C287.499 42.3409 283.08 37.9295 277.636 37.9295C272.192 37.9295 267.773 42.3409 267.773 47.7763C267.773 53.2117 272.192 57.623 277.636 57.623C283.08 57.623 287.499 53.2117 287.499 47.7763Z" fill="black"/>
<path d="M277.636 148.213C285.25 148.213 291.444 153.964 291.444 161.014C291.444 168.064 285.25 173.815 277.636 173.815C270.022 173.815 263.828 168.064 263.828 161.014C263.828 153.964 270.022 148.213 277.636 148.213ZM277.636 169.876C283.08 169.876 287.499 165.898 287.499 161.014C287.499 156.13 283.08 152.152 277.636 152.152C272.192 152.152 267.773 156.13 267.773 161.014C267.773 165.898 272.192 169.876 277.636 169.876Z" fill="black"/>
<path d="M278.623 437.707C284.614 437.707 289.472 433.739 289.472 428.845C289.472 423.95 284.614 419.983 278.623 419.983C272.631 419.983 267.773 423.95 267.773 428.845C267.773 433.739 272.631 437.707 278.623 437.707Z" fill="#FFEA28"/>
<path d="M277.636 57.623C283.083 57.623 287.499 53.2145 287.499 47.7763C287.499 42.3381 283.083 37.9296 277.636 37.9296C272.189 37.9296 267.773 42.3381 267.773 47.7763C267.773 53.2145 272.189 57.623 277.636 57.623Z" fill="#FFEA28"/>
<path d="M277.636 169.876C283.083 169.876 287.499 165.908 287.499 161.014C287.499 156.119 283.083 152.152 277.636 152.152C272.189 152.152 267.773 156.119 267.773 161.014C267.773 165.908 272.189 169.876 277.636 169.876Z" fill="#FFEA28"/>
<path d="M240.158 414.075C247.772 414.075 253.966 420.258 253.966 427.86C253.966 435.462 247.772 441.646 240.158 441.646C232.544 441.646 226.35 435.462 226.35 427.86C226.35 420.258 232.544 414.075 240.158 414.075ZM250.021 427.86C250.021 422.425 245.602 418.013 240.158 418.013C234.714 418.013 230.295 422.425 230.295 427.86C230.295 433.296 234.714 437.707 240.158 437.707C245.602 437.707 250.021 433.296 250.021 427.86Z" fill="black"/>
<path d="M240.158 437.707C245.605 437.707 250.021 433.298 250.021 427.86C250.021 422.422 245.605 418.013 240.158 418.013C234.711 418.013 230.295 422.422 230.295 427.86C230.295 433.298 234.711 437.707 240.158 437.707Z" fill="#FFEA28"/>
<path d="M237.199 150.182C244.261 150.182 250.021 155.933 250.021 162.983C250.021 170.033 244.261 175.784 237.199 175.784C230.137 175.784 224.377 170.033 224.377 162.983C224.377 155.933 230.137 150.182 237.199 150.182ZM246.075 162.983C246.075 158.099 242.091 154.121 237.199 154.121C232.307 154.121 228.322 158.099 228.322 162.983C228.322 167.867 232.307 171.845 237.199 171.845C242.091 171.845 246.075 167.867 246.075 162.983Z" fill="black"/>
<path d="M237.199 171.845C242.101 171.845 246.075 167.877 246.075 162.983C246.075 158.089 242.101 154.121 237.199 154.121C232.297 154.121 228.323 158.089 228.323 162.983C228.323 167.877 232.297 171.845 237.199 171.845Z" fill="#FFEA28"/>
<path d="M229.309 45.807C237.475 45.807 244.103 52.424 244.103 60.5771C244.103 68.7302 237.475 75.3472 229.309 75.3472C221.142 75.3472 214.515 68.7302 214.515 60.5771C214.515 52.424 221.142 45.807 229.309 45.807ZM240.158 60.5771C240.158 54.61 235.286 49.7457 229.309 49.7457C223.332 49.7457 218.46 54.61 218.46 60.5771C218.46 66.5442 223.332 71.4085 229.309 71.4085C235.286 71.4085 240.158 66.5442 240.158 60.5771Z" fill="black"/>
<path d="M240.158 441.646V446.569H155.338V441.646C162.952 441.646 169.146 435.462 169.146 427.86C169.146 420.258 162.952 414.075 155.338 414.075V408.167H240.158V414.075C232.544 414.075 226.35 420.258 226.35 427.86C226.35 435.462 232.544 441.646 240.158 441.646ZM210.57 428.845C210.57 421.795 204.81 416.044 197.748 416.044C190.686 416.044 184.926 421.795 184.926 428.845C184.926 435.895 190.686 441.646 197.748 441.646C204.81 441.646 210.57 435.895 210.57 428.845Z" fill="#4138E2"/>
<path d="M229.309 71.4084C235.301 71.4084 240.158 66.559 240.158 60.577C240.158 54.595 235.301 49.7456 229.309 49.7456C223.317 49.7456 218.46 54.595 218.46 60.577C218.46 66.559 223.317 71.4084 229.309 71.4084Z" fill="#FFEA28"/>
<path d="M214.574 135.412H218.539C218.479 135.786 218.46 136.121 218.46 136.397H214.515C214.515 136.102 214.534 135.786 214.574 135.412Z" fill="black"/>
<path d="M197.748 150.182C204.81 150.182 210.57 155.933 210.57 162.983C210.57 170.033 204.81 175.784 197.748 175.784C190.686 175.784 184.926 170.033 184.926 162.983C184.926 155.933 190.686 150.182 197.748 150.182ZM206.624 162.983C206.624 158.099 202.64 154.121 197.748 154.121C192.856 154.121 188.872 158.099 188.872 162.983C188.872 167.867 192.856 171.845 197.748 171.845C202.64 171.845 206.624 167.867 206.624 162.983Z" fill="black"/>
<path d="M197.748 416.044C204.81 416.044 210.57 421.795 210.57 428.845C210.57 435.895 204.81 441.646 197.748 441.646C190.686 441.646 184.926 435.895 184.926 428.845C184.926 421.795 190.686 416.044 197.748 416.044ZM206.624 428.845C206.624 423.961 202.64 419.983 197.748 419.983C192.856 419.983 188.872 423.961 188.872 428.845C188.872 433.729 192.856 437.707 197.748 437.707C202.64 437.707 206.624 433.729 206.624 428.845Z" fill="black"/>
<path d="M197.748 171.845C202.65 171.845 206.624 167.877 206.624 162.983C206.624 158.089 202.65 154.121 197.748 154.121C192.846 154.121 188.872 158.089 188.872 162.983C188.872 167.877 192.846 171.845 197.748 171.845Z" fill="#FFEA28"/>
<path d="M197.748 437.707C202.65 437.707 206.624 433.739 206.624 428.845C206.624 423.95 202.65 419.983 197.748 419.983C192.846 419.983 188.872 423.95 188.872 428.845C188.872 433.739 192.846 437.707 197.748 437.707Z" fill="#FFEA28"/>
<path d="M202.679 240.772V349.086H104.052V240.772H202.679ZM198.734 345.148V244.711H107.997V345.148H198.734Z" fill="black"/>
<path d="M190.844 65.5004C198.458 65.5004 204.652 71.6841 204.652 79.2858C204.652 86.8875 198.458 93.0712 190.844 93.0712C183.23 93.0712 177.036 86.8875 177.036 79.2858C177.036 71.6841 183.23 65.5004 190.844 65.5004ZM200.707 79.2858C200.707 73.8504 196.288 69.4391 190.844 69.4391C185.4 69.4391 180.981 73.8504 180.981 79.2858C180.981 84.7212 185.4 89.1325 190.844 89.1325C196.288 89.1325 200.707 84.7212 200.707 79.2858Z" fill="black"/>
<path d="M190.844 89.1326C196.291 89.1326 200.707 84.724 200.707 79.2858C200.707 73.8476 196.291 69.4391 190.844 69.4391C185.397 69.4391 180.981 73.8476 180.981 79.2858C180.981 84.724 185.397 89.1326 190.844 89.1326Z" fill="#FFEA28"/>
<path d="M181.198 135.412H185.4C185.203 135.964 185.005 136.495 184.828 137.027L181.08 135.767L181.198 135.412Z" fill="black"/>
<path d="M184.828 137.027V139.351H104.012V138.74C104.012 138.74 104.269 137.5 104.821 135.412H181.198L181.08 135.767L184.828 137.027Z" fill="black"/>
<path d="M157.311 102.918C166.01 102.918 173.091 109.988 173.091 118.673C173.091 127.358 166.01 134.428 157.311 134.428C148.612 134.428 141.53 127.358 141.53 118.673C141.53 109.988 148.612 102.918 157.311 102.918ZM169.146 118.673C169.146 112.154 163.84 106.857 157.311 106.857C150.782 106.857 145.475 112.154 145.475 118.673C145.475 125.191 150.782 130.489 157.311 130.489C163.84 130.489 169.146 125.191 169.146 118.673Z" fill="black"/>
<path d="M157.311 130.489C163.847 130.489 169.146 125.199 169.146 118.673C169.146 112.147 163.847 106.857 157.311 106.857C150.774 106.857 145.475 112.147 145.475 118.673C145.475 125.199 150.774 130.489 157.311 130.489Z" fill="#FFEA28"/>
<path d="M156.324 148.213C163.386 148.213 169.146 153.964 169.146 161.014C169.146 168.064 163.386 173.815 156.324 173.815C149.263 173.815 143.503 168.064 143.503 161.014C143.503 153.964 149.263 148.213 156.324 148.213ZM165.201 161.014C165.201 156.13 161.216 152.152 156.324 152.152C151.433 152.152 147.448 156.13 147.448 161.014C147.448 165.898 151.433 169.876 156.324 169.876C161.216 169.876 165.201 165.898 165.201 161.014Z" fill="black"/>
<path d="M155.338 414.075C162.952 414.075 169.146 420.258 169.146 427.86C169.146 435.462 162.952 441.646 155.338 441.646C147.724 441.646 141.53 435.462 141.53 427.86C141.53 420.258 147.724 414.075 155.338 414.075ZM165.201 427.86C165.201 422.425 160.782 418.013 155.338 418.013C149.894 418.013 145.475 422.425 145.475 427.86C145.475 433.296 149.894 437.707 155.338 437.707C160.782 437.707 165.201 433.296 165.201 427.86Z" fill="black"/>
<path d="M156.324 169.876C161.227 169.876 165.201 165.908 165.201 161.014C165.201 156.119 161.227 152.152 156.324 152.152C151.422 152.152 147.448 156.119 147.448 161.014C147.448 165.908 151.422 169.876 156.324 169.876Z" fill="#FFEA28"/>
<path d="M155.338 437.707C160.785 437.707 165.201 433.298 165.201 427.86C165.201 422.422 160.785 418.013 155.338 418.013C149.891 418.013 145.475 422.422 145.475 427.86C145.475 433.298 149.891 437.707 155.338 437.707Z" fill="#FFEA28"/>
<path d="M155.338 441.646V446.569H74.4637V441.646C82.0777 441.646 88.2715 435.462 88.2715 427.86C88.2715 420.258 82.0777 414.075 74.4637 414.075V408.167H155.338V414.075C147.724 414.075 141.53 420.258 141.53 427.86C141.53 435.462 147.724 441.646 155.338 441.646ZM127.723 428.845C127.723 421.795 121.529 416.044 113.915 416.044C106.301 416.044 100.107 421.795 100.107 428.845C100.107 435.895 106.301 441.646 113.915 441.646C121.529 441.646 127.723 435.895 127.723 428.845Z" fill="#4138E2"/>
<path d="M114.901 148.213C123.067 148.213 129.695 153.964 129.695 161.014C129.695 168.064 123.067 173.815 114.901 173.815C106.735 173.815 100.107 168.064 100.107 161.014C100.107 153.964 106.735 148.213 114.901 148.213ZM125.75 161.014C125.75 156.13 120.878 152.152 114.901 152.152C108.924 152.152 104.052 156.13 104.052 161.014C104.052 165.898 108.924 169.876 114.901 169.876C120.878 169.876 125.75 165.898 125.75 161.014Z" fill="black"/>
<path d="M113.915 416.044C121.529 416.044 127.723 421.795 127.723 428.845C127.723 435.895 121.529 441.646 113.915 441.646C106.301 441.646 100.107 435.895 100.107 428.845C100.107 421.795 106.301 416.044 113.915 416.044ZM113.915 437.707C119.359 437.707 123.777 433.729 123.777 428.845C123.777 423.961 119.359 419.983 113.915 419.983C108.47 419.983 104.052 423.961 104.052 428.845C104.052 433.729 108.47 437.707 113.915 437.707Z" fill="black"/>
<path d="M114.901 169.876C120.893 169.876 125.75 165.908 125.75 161.014C125.75 156.119 120.893 152.152 114.901 152.152C108.909 152.152 104.052 156.119 104.052 161.014C104.052 165.908 108.909 169.876 114.901 169.876Z" fill="#FFEA28"/>
<path d="M113.915 437.707C119.362 437.707 123.777 433.739 123.777 428.845C123.777 423.95 119.362 419.983 113.915 419.983C108.468 419.983 104.052 423.95 104.052 428.845C104.052 433.739 108.468 437.707 113.915 437.707Z" fill="#FFEA28"/>
<path d="M100.758 135.412H104.821C104.269 137.5 104.032 138.681 104.012 138.74L100.146 137.992C100.146 137.992 100.344 137.027 100.758 135.412Z" fill="black"/>
<path d="M74.4637 148.213C82.0777 148.213 88.2715 154.397 88.2715 161.998C88.2715 169.6 82.0777 175.784 74.4637 175.784C66.8497 175.784 60.6559 169.6 60.6559 161.998C60.6559 154.397 66.8497 148.213 74.4637 148.213ZM84.3265 161.998C84.3265 156.563 79.9079 152.152 74.4637 152.152C69.0195 152.152 64.601 156.563 64.601 161.998C64.601 167.434 69.0195 171.845 74.4637 171.845C79.9079 171.845 84.3265 167.434 84.3265 161.998Z" fill="black"/>
<path d="M74.4637 414.075C82.0777 414.075 88.2715 420.258 88.2715 427.86C88.2715 435.462 82.0777 441.646 74.4637 441.646C66.8497 441.646 60.6559 435.462 60.6559 427.86C60.6559 420.258 66.8497 414.075 74.4637 414.075ZM84.3265 427.86C84.3265 422.425 79.9079 418.013 74.4637 418.013C69.0195 418.013 64.601 422.425 64.601 427.86C64.601 433.296 69.0195 437.707 74.4637 437.707C79.9079 437.707 84.3265 433.296 84.3265 427.86Z" fill="black"/>
<path d="M74.4637 171.845C79.9108 171.845 84.3265 167.437 84.3265 161.998C84.3265 156.56 79.9108 152.152 74.4637 152.152C69.0167 152.152 64.601 156.56 64.601 161.998C64.601 167.437 69.0167 171.845 74.4637 171.845Z" fill="#FFEA28"/>
<path d="M74.4637 437.707C79.9108 437.707 84.3265 433.298 84.3265 427.86C84.3265 422.422 79.9108 418.013 74.4637 418.013C69.0167 418.013 64.601 422.422 64.601 427.86C64.601 433.298 69.0167 437.707 74.4637 437.707Z" fill="#FFEA28"/>
<path d="M34.0265 148.213C41.0882 148.213 46.848 153.964 46.848 161.014C46.848 168.064 41.0882 173.815 34.0265 173.815C26.9647 173.815 21.2049 168.064 21.2049 161.014C21.2049 153.964 26.9647 148.213 34.0265 148.213ZM42.9029 161.014C42.9029 156.13 38.9184 152.152 34.0265 152.152C29.1345 152.152 25.15 156.13 25.15 161.014C25.15 165.898 29.1345 169.876 34.0265 169.876C38.9184 169.876 42.9029 165.898 42.9029 161.014Z" fill="black"/>
<path d="M34.0265 193.508C41.0882 193.508 46.848 199.258 46.848 206.309C46.848 213.359 41.0882 219.109 34.0265 219.109C26.9647 219.109 21.2049 213.359 21.2049 206.309C21.2049 199.258 26.9647 193.508 34.0265 193.508ZM42.9029 206.309C42.9029 201.425 38.9184 197.447 34.0265 197.447C29.1345 197.447 25.15 201.425 25.15 206.309C25.15 211.193 29.1345 215.171 34.0265 215.171C38.9184 215.171 42.9029 211.193 42.9029 206.309Z" fill="black"/>
<path d="M34.0265 416.044C41.0882 416.044 46.848 421.795 46.848 428.845C46.848 435.895 41.0882 441.646 34.0265 441.646C26.9647 441.646 21.2049 435.895 21.2049 428.845C21.2049 421.795 26.9647 416.044 34.0265 416.044ZM42.9029 428.845C42.9029 423.961 38.9184 419.983 34.0265 419.983C29.1345 419.983 25.15 423.961 25.15 428.845C25.15 433.729 29.1345 437.707 34.0265 437.707C38.9184 437.707 42.9029 433.729 42.9029 428.845Z" fill="black"/>
<path d="M31.0676 238.803C38.6817 238.803 44.8755 244.987 44.8755 252.588C44.8755 260.19 38.6817 266.374 31.0676 266.374C23.4536 266.374 17.2598 260.19 17.2598 252.588C17.2598 244.987 23.4536 238.803 31.0676 238.803ZM40.9304 252.588C40.9304 247.153 36.5119 242.742 31.0676 242.742C25.6234 242.742 21.2049 247.153 21.2049 252.588C21.2049 258.024 25.6234 262.435 31.0676 262.435C36.5119 262.435 40.9304 258.024 40.9304 252.588Z" fill="black"/>
<path d="M31.0676 280.159C38.6817 280.159 44.8755 286.343 44.8755 293.945C44.8755 301.546 38.6817 307.73 31.0676 307.73C23.4536 307.73 17.2598 301.546 17.2598 293.945C17.2598 286.343 23.4536 280.159 31.0676 280.159ZM40.9304 293.945C40.9304 288.509 36.5119 284.098 31.0676 284.098C25.6234 284.098 21.2049 288.509 21.2049 293.945C21.2049 299.38 25.6234 303.791 31.0676 303.791C36.5119 303.791 40.9304 299.38 40.9304 293.945Z" fill="black"/>
<path d="M31.0676 327.423C38.6817 327.423 44.8755 333.607 44.8755 341.209C44.8755 348.811 38.6817 354.994 31.0676 354.994C23.4536 354.994 17.2598 348.811 17.2598 341.209C17.2598 333.607 23.4536 327.423 31.0676 327.423ZM40.9304 341.209C40.9304 335.773 36.5119 331.362 31.0676 331.362C25.6234 331.362 21.2049 335.773 21.2049 341.209C21.2049 346.644 25.6234 351.056 31.0676 351.056C36.5119 351.056 40.9304 346.644 40.9304 341.209Z" fill="black"/>
<path d="M31.0676 370.749C38.6817 370.749 44.8755 376.933 44.8755 384.534C44.8755 392.136 38.6817 398.32 31.0676 398.32C23.4536 398.32 17.2598 392.136 17.2598 384.534C17.2598 376.933 23.4536 370.749 31.0676 370.749ZM40.9304 384.534C40.9304 379.099 36.5119 374.688 31.0676 374.688C25.6234 374.688 21.2049 379.099 21.2049 384.534C21.2049 389.97 25.6234 394.381 31.0676 394.381C36.5119 394.381 40.9304 389.97 40.9304 384.534Z" fill="black"/>
<path d="M34.0265 169.876C38.9288 169.876 42.9029 165.908 42.9029 161.014C42.9029 156.119 38.9288 152.152 34.0265 152.152C29.1241 152.152 25.15 156.119 25.15 161.014C25.15 165.908 29.1241 169.876 34.0265 169.876Z" fill="#FFEA28"/>
<path d="M34.0265 215.171C38.9288 215.171 42.9029 211.203 42.9029 206.309C42.9029 201.414 38.9288 197.447 34.0265 197.447C29.1241 197.447 25.15 201.414 25.15 206.309C25.15 211.203 29.1241 215.171 34.0265 215.171Z" fill="#FFEA28"/>
<path d="M34.0265 437.707C38.9288 437.707 42.9029 433.739 42.9029 428.845C42.9029 423.95 38.9288 419.983 34.0265 419.983C29.1241 419.983 25.15 423.95 25.15 428.845C25.15 433.739 29.1241 437.707 34.0265 437.707Z" fill="#FFEA28"/>
<path d="M31.0676 262.435C36.5147 262.435 40.9304 258.026 40.9304 252.588C40.9304 247.15 36.5147 242.742 31.0676 242.742C25.6206 242.742 21.2049 247.15 21.2049 252.588C21.2049 258.026 25.6206 262.435 31.0676 262.435Z" fill="#FFEA28"/>
<path d="M31.0676 303.791C36.5147 303.791 40.9304 299.383 40.9304 293.945C40.9304 288.506 36.5147 284.098 31.0676 284.098C25.6206 284.098 21.2049 288.506 21.2049 293.945C21.2049 299.383 25.6206 303.791 31.0676 303.791Z" fill="#FFEA28"/>
<path d="M31.0676 351.056C36.5147 351.056 40.9304 346.647 40.9304 341.209C40.9304 335.771 36.5147 331.362 31.0676 331.362C25.6206 331.362 21.2049 335.771 21.2049 341.209C21.2049 346.647 25.6206 351.056 31.0676 351.056Z" fill="#FFEA28"/>
<path d="M31.0676 394.381C36.5147 394.381 40.9304 389.973 40.9304 384.534C40.9304 379.096 36.5147 374.688 31.0676 374.688C25.6206 374.688 21.2049 379.096 21.2049 384.534C21.2049 389.973 25.6206 394.381 31.0676 394.381Z" fill="#FFEA28"/>
<path d="M397.074 278.19C395.417 271.947 404.215 270.175 408.574 271.041C413.92 272.105 418.654 276.122 418.792 281.853C418.851 284.275 418.18 286.776 416.563 288.647C414.511 291.05 411.158 292.054 408.752 294.082C404.077 298.041 402.577 304.362 401.453 310.093C400.723 313.815 406.424 315.391 407.154 311.669C408.258 306.036 409.462 300.207 414.748 297.076C417.47 295.461 420.054 293.964 421.928 291.325C423.526 289.061 424.354 286.363 424.631 283.625C425.834 271.277 413.15 263.124 401.887 265.291C395.161 266.59 389.48 272.617 391.354 279.765C392.32 283.448 398.041 281.873 397.054 278.19H397.074Z" fill="#010000"/>
<path d="M402.873 323.111C406.68 323.111 406.68 317.203 402.873 317.203C399.066 317.203 399.066 323.111 402.873 323.111Z" fill="#010000"/>
<path d="M303.851 330.811C303.851 331.224 303.694 331.598 303.358 331.914C302.135 333.016 298.368 333.41 292.154 333.036C287.913 332.8 283.929 332.268 283.337 332.189H283.278C283.1 332.189 283.041 332.17 282.982 331.776C282.942 331.402 282.903 330.732 282.844 329.452C282.785 328.349 282.725 327.266 282.686 326.203H282.804C282.804 326.203 283.061 326.262 283.396 326.36C283.455 327.364 283.495 328.388 283.554 329.432C283.593 330.378 283.633 331.165 283.672 331.539C288.564 332.189 300.794 333.332 302.944 331.402C303.141 331.224 303.22 331.047 303.22 330.83C303.181 329.708 303.141 328.487 303.082 327.187C303.082 326.813 303.062 326.439 303.043 326.065L303.536 326.34C303.595 326.222 303.654 326.124 303.694 326.025H303.733C303.792 327.758 303.851 329.373 303.911 330.83L303.851 330.811Z" fill="black"/>
<path d="M303.694 325.986H303.674L303.062 325.691C303.062 325.691 303.023 325.769 303.023 325.789C302.569 313.244 301.82 293.984 301.267 279.155C301.386 279.155 301.484 279.155 301.603 279.155V278.466H301.918C302.49 293.452 303.24 313.225 303.713 325.947L303.694 325.986Z" fill="black"/>
<path d="M303.654 325.986C303.615 326.104 303.556 326.202 303.496 326.301L303.003 326.045V325.789C303.003 325.789 303.023 325.73 303.043 325.69L303.654 325.966V325.986Z" fill="black"/>
<path d="M303.181 330.831C303.181 331.047 303.102 331.224 302.905 331.402C300.754 333.351 288.525 332.189 283.633 331.539C283.613 331.165 283.574 330.358 283.514 329.432C283.455 328.389 283.416 327.384 283.357 326.36C283.712 326.459 284.205 326.616 284.678 326.754L285.625 327.049C286.296 327.246 286.966 327.443 287.617 327.62L287.795 326.951L288.761 327.187L288.604 327.837C289.314 328.034 289.984 328.192 290.616 328.329L290.754 327.66L291.72 327.857L291.602 328.507C292.332 328.664 293.022 328.763 293.653 328.861L293.732 328.172L294.699 328.29L294.64 328.979C295.369 329.038 296.08 329.078 296.73 329.078H296.75V328.408H296.73L297.717 328.369L297.756 329.038H297.776C298.545 328.999 299.236 328.901 299.867 328.743L299.689 328.073L300.597 327.778L300.853 328.389H300.873C301.603 328.093 302.214 327.699 302.688 327.207H302.885C302.924 328.487 302.983 329.708 303.023 330.831H303.181Z" fill="#FAF9FC"/>
<path d="M303.043 327.187H302.845L302.352 326.715C301.938 327.148 301.405 327.502 300.774 327.758L299.867 328.054C299.295 328.211 298.624 328.29 297.894 328.349L296.908 328.388C296.277 328.388 295.606 328.349 294.896 328.29L293.929 328.172C293.279 328.093 292.608 327.975 291.917 327.857L290.951 327.66C290.32 327.522 289.649 327.364 288.959 327.187L287.992 326.951C287.361 326.774 286.69 326.596 286.02 326.399L285.803 327.049L284.856 326.754L285.053 326.104C284.757 326.006 284.481 325.927 284.264 325.848C283.968 325.75 283.712 325.671 283.514 325.612C282.291 302.629 280.556 288.273 278.386 282.897L277.695 282.995L273.809 325.612C273.612 325.73 273.415 325.848 273.178 325.966V325.986L272.291 326.439C271.699 326.754 271.087 327.049 270.476 327.286H270.436L269.509 327.66C268.878 327.896 268.227 328.113 267.576 328.29L266.61 328.546C265.959 328.704 265.288 328.841 264.617 328.94L263.631 329.078C262.96 329.157 262.29 329.196 261.619 329.216H260.613C259.942 329.216 259.252 329.196 258.581 329.117L257.615 328.999C256.944 328.901 256.274 328.782 255.623 328.645L254.676 328.408C254.025 328.231 253.512 328.054 253.177 327.916C254.755 316.435 255.504 295.264 255.879 279.234C256.096 279.194 256.293 279.155 256.51 279.076L256.293 278.426L257.082 278.052L257.457 278.623C257.99 278.288 258.503 277.816 258.996 277.245L258.483 276.792L259.055 276.083L259.607 276.477C259.982 275.945 260.337 275.374 260.672 274.763L260.061 274.428L260.495 273.601L261.106 273.897C261.382 273.286 261.659 272.676 261.895 272.045L261.264 271.789L261.58 270.903L262.231 271.12C262.448 270.49 262.645 269.84 262.803 269.19L262.132 268.993L262.349 268.087L263 268.225H263.138L263.02 268.186C263.177 267.516 263.296 266.866 263.375 266.236L262.684 266.137L262.803 265.212L263.493 265.271C263.493 265.172 263.493 265.074 263.493 264.976L264.302 265.015H264.322C264.992 265.133 265.683 265.251 266.373 265.33L266.472 264.641L267.458 264.779L267.379 265.468C268.05 265.547 268.74 265.625 269.43 265.684L269.49 264.995L270.476 265.074L270.436 265.744C271.127 265.803 271.817 265.842 272.508 265.881V265.192L273.533 265.232V265.921C273.869 265.921 274.066 265.921 274.066 265.921V272.42C274.066 275.63 276.67 278.229 279.885 278.229H281.601V265.645L281.7 265.921C281.7 265.921 282.074 265.842 283.653 265.822H284.678C285.408 265.783 286.098 265.763 286.749 265.724L287.755 265.645C288.446 265.606 289.156 265.547 289.827 265.468L290.813 265.33H290.833C291.168 265.291 291.503 265.251 291.839 265.192C291.839 265.428 291.858 265.684 291.898 265.94L292.036 266.945C292.134 267.595 292.292 268.264 292.49 268.934L292.371 268.973H292.509L292.805 269.919C293.022 270.568 293.279 271.218 293.574 271.829L294.206 271.553L294.62 272.42L294.008 272.735C294.324 273.365 294.679 273.956 295.054 274.507L295.626 274.133L296.178 274.901L295.626 275.315C296.06 275.905 296.514 276.417 296.987 276.87V276.91L297.48 276.398L298.19 277.008L297.756 277.54C298.348 278.013 298.959 278.367 299.551 278.623L299.808 277.993L300.695 278.269L300.557 278.938C300.814 278.997 301.07 279.037 301.307 279.037C301.879 293.866 302.609 313.126 303.062 325.671C303.023 325.73 303.003 325.789 302.964 325.848L303.082 325.927C303.082 326.301 303.102 326.695 303.122 327.049L303.043 327.187Z" fill="#FAF9FC"/>
<path d="M302.983 325.809V326.065L302.885 326.006C302.885 326.006 302.944 325.868 302.983 325.809Z" fill="black"/>
<path d="M302.845 327.187C302.372 327.699 301.76 328.093 301.031 328.408H301.011L300.754 327.778C301.386 327.502 301.938 327.148 302.333 326.734L302.826 327.187H302.845Z" fill="black"/>
<path d="M301.899 278.505H301.583C301.465 278.505 301.346 278.505 301.208 278.505C300.952 271.908 300.735 266.256 300.597 262.534C300.774 262.435 300.952 262.337 301.129 262.258H301.287C301.425 265.98 301.662 271.77 301.918 278.525L301.899 278.505Z" fill="black"/>
<path d="M301.563 278.525V279.214C301.445 279.214 301.346 279.214 301.228 279.214C301.228 278.978 301.228 278.761 301.208 278.525C301.327 278.525 301.445 278.525 301.583 278.525H301.563Z" fill="black"/>
<path d="M301.267 262.219H301.129L300.794 261.628C300.794 261.628 300.656 261.726 300.577 261.766C300.518 260.013 300.459 258.792 300.439 258.181V258.083C300.439 258.083 300.538 258.083 300.577 258.103L301.11 257.354V257.748C301.11 257.748 301.188 259.461 301.287 262.199L301.267 262.219Z" fill="black"/>
<path d="M301.208 278.505C301.208 278.722 301.208 278.958 301.228 279.194C300.971 279.194 300.715 279.135 300.478 279.096L300.616 278.426C300.814 278.466 301.011 278.505 301.208 278.505Z" fill="black"/>
<path d="M300.794 261.628L301.129 262.218C300.952 262.317 300.774 262.415 300.597 262.514C300.597 262.258 300.577 262.002 300.557 261.746C300.636 261.706 300.695 261.667 300.774 261.628H300.794Z" fill="black"/>
<path d="M301.09 257.374L300.557 258.122C300.557 258.122 300.498 258.122 300.459 258.103C300.005 257.984 299.571 257.866 299.117 257.748C300.084 257.571 300.656 257.453 300.695 257.453L301.09 257.374Z" fill="black"/>
<path d="M301.09 257.374L300.695 257.453C300.695 257.453 300.104 257.571 299.117 257.748C279.51 252.844 261.836 256.665 256.707 258.004C256.037 257.886 255.642 257.807 255.623 257.807L255.228 257.728C255.445 257.669 277.104 250.875 301.09 257.374Z" fill="black"/>
<path d="M293.752 264.916C294.442 264.759 295.113 264.601 295.764 264.404L295.567 263.755L296.514 263.459L296.73 264.109C297.401 263.892 298.072 263.636 298.683 263.38L298.427 262.75L299.315 262.356L299.61 262.967C299.926 262.809 300.222 262.671 300.518 262.514C300.656 266.236 300.873 271.908 301.129 278.485C300.932 278.485 300.735 278.446 300.538 278.406L299.65 278.131C299.098 277.894 298.545 277.56 298.013 277.146L297.303 276.516C296.869 276.083 296.435 275.59 296.02 275.039L295.468 274.251C295.113 273.7 294.778 273.129 294.462 272.538L294.048 271.671C293.772 271.061 293.515 270.45 293.318 269.82L292.667 270.037L292.371 269.091L293.002 268.895V268.855C292.805 268.225 292.667 267.575 292.549 266.965L291.878 267.063L291.74 266.059L292.43 266C292.411 265.724 292.391 265.448 292.391 265.192C292.509 265.172 292.628 265.153 292.746 265.133L292.628 264.464L293.614 264.267L293.752 264.936V264.916Z" fill="#FAF9FC"/>
<path d="M300.557 261.766C300.557 262.002 300.577 262.258 300.597 262.534C300.301 262.691 299.985 262.849 299.689 262.986L299.393 262.376C299.788 262.179 300.182 261.982 300.557 261.766Z" fill="black"/>
<path d="M300.459 258.083V258.181C298.486 258.556 289.708 260.151 281.443 260.938V260.899H280.753V260.998C279.707 261.096 278.701 261.175 277.695 261.234C276.867 261.293 275.802 261.254 274.599 261.175V260.879H273.908V261.116C267.635 260.623 258.029 258.89 255.899 258.496C255.899 259.068 255.899 260.19 255.859 261.746C255.761 261.687 255.662 261.647 255.583 261.588L255.248 262.179H255.208C255.228 259.678 255.248 258.181 255.248 258.083V258.378C255.248 258.378 255.8 258.201 256.747 257.965C260.534 258.654 273.119 260.82 277.676 260.545C285.704 260.052 295.409 258.378 299.157 257.709C299.61 257.827 300.044 257.925 300.498 258.063L300.459 258.083Z" fill="black"/>
<path d="M300.419 258.181C300.439 258.772 300.498 260.013 300.557 261.766C300.182 261.963 299.788 262.159 299.393 262.356L298.506 262.75C297.894 263.006 297.263 263.243 296.612 263.459L295.665 263.755C295.034 263.932 294.363 264.109 293.693 264.247L292.706 264.444C292.056 264.562 291.365 264.68 290.694 264.779L290.793 265.448L289.807 265.566L289.728 264.917C289.077 264.995 288.387 265.054 287.696 265.094L287.736 265.763L286.73 265.822L286.69 265.153C286.059 265.192 285.408 265.212 284.639 265.232V265.921H283.652V265.251H283.633C283.416 265.251 283.238 265.251 283.041 265.251C282.37 265.251 281.897 265.251 281.581 265.33V260.938C289.846 260.151 298.644 258.536 300.577 258.181H300.419Z" fill="#FAF9FC"/>
<path d="M299.847 328.073L300.025 328.743C299.393 328.901 298.703 329.019 297.934 329.058H297.914L297.875 328.369C298.604 328.33 299.255 328.231 299.847 328.073Z" fill="black"/>
<path d="M299.748 278.131L299.492 278.761C298.881 278.505 298.289 278.131 297.697 277.678L298.131 277.126C298.664 277.56 299.216 277.895 299.768 278.111L299.748 278.131Z" fill="black"/>
<path d="M298.486 262.75L298.742 263.38C298.131 263.636 297.46 263.892 296.79 264.109L296.573 263.459C297.224 263.243 297.875 263.006 298.466 262.75H298.486Z" fill="black"/>
<path d="M297.362 276.516L296.869 277.028V276.989C296.395 276.536 295.941 276.024 295.508 275.453L296.06 275.019C296.474 275.571 296.908 276.063 297.342 276.496L297.362 276.516Z" fill="black"/>
<path d="M296.869 328.428V329.098H296.849C296.218 329.098 295.508 329.058 294.758 328.999L294.817 328.31C295.527 328.369 296.198 328.408 296.829 328.408H296.849L296.869 328.428Z" fill="black"/>
<path d="M295.606 263.755L295.803 264.404C295.152 264.601 294.482 264.759 293.791 264.916L293.653 264.247C294.324 264.089 294.995 263.932 295.626 263.735L295.606 263.755Z" fill="black"/>
<path d="M295.488 274.232L294.916 274.625C294.541 274.054 294.206 273.463 293.87 272.853L294.482 272.518C294.797 273.129 295.133 273.7 295.488 274.232Z" fill="black"/>
<path d="M294.048 271.652L293.417 271.947C293.14 271.317 292.884 270.687 292.647 270.037L293.298 269.8C293.515 270.431 293.752 271.041 294.028 271.652H294.048Z" fill="black"/>
<path d="M293.851 328.192L293.772 328.881C293.14 328.802 292.47 328.684 291.72 328.546L291.839 327.876C292.529 328.014 293.2 328.113 293.851 328.192Z" fill="black"/>
<path d="M299.117 257.728C295.369 258.398 285.664 260.072 277.636 260.564C273.08 260.86 260.495 258.674 256.707 257.984C261.836 256.645 279.51 252.825 299.117 257.728Z" fill="#FAF9FC"/>
<path d="M293.022 268.855V268.895L292.391 269.092H292.253L292.371 269.052C292.174 268.383 292.016 267.713 291.918 267.083L292.588 266.945C292.707 267.575 292.845 268.225 293.042 268.855H293.022Z" fill="black"/>
<path d="M292.647 264.464L292.766 265.133C292.647 265.153 292.529 265.173 292.411 265.192C292.411 265.133 292.411 265.074 292.411 265.015H291.72V265.31C291.385 265.369 291.05 265.409 290.714 265.448H290.694L290.596 264.779C291.286 264.68 291.957 264.582 292.608 264.444H292.628L292.647 264.464Z" fill="black"/>
<path d="M292.43 266L291.74 266.059C291.72 265.803 291.7 265.547 291.681 265.31C291.917 265.271 292.134 265.232 292.371 265.192C292.371 265.448 292.371 265.724 292.411 266H292.43Z" fill="black"/>
<path d="M292.391 265.015C292.391 265.015 292.391 265.133 292.391 265.192C292.174 265.232 291.937 265.271 291.7 265.31V265.015H292.391Z" fill="black"/>
<path d="M290.833 327.68L290.694 328.349C290.063 328.211 289.373 328.054 288.682 327.877L288.84 327.207C289.531 327.384 290.201 327.542 290.833 327.68Z" fill="black"/>
<path d="M289.688 265.566C289.018 265.665 288.327 265.724 287.617 265.783L287.578 265.094C288.268 265.054 288.959 264.976 289.61 264.917L289.688 265.566Z" fill="black"/>
<path d="M287.854 326.971L287.676 327.64C287.045 327.463 286.375 327.286 285.684 327.069L285.901 326.419C286.572 326.616 287.223 326.793 287.874 326.971H287.893H287.854Z" fill="black"/>
<path d="M286.611 265.822C285.96 265.881 285.29 265.901 284.54 265.921V265.232C285.309 265.232 285.96 265.192 286.592 265.153L286.631 265.822H286.611Z" fill="black"/>
<path d="M284.895 326.124L284.698 326.774C284.225 326.616 283.751 326.478 283.376 326.36C283.376 326.124 283.357 325.868 283.337 325.631C283.534 325.69 283.791 325.769 284.086 325.868C284.323 325.946 284.58 326.025 284.875 326.104L284.895 326.124Z" fill="black"/>
<path d="M283.514 265.921C281.936 265.941 281.621 265.98 281.562 266.019L281.463 265.744V265.35C281.779 265.291 282.252 265.271 282.923 265.271C283.1 265.271 283.297 265.271 283.514 265.271V265.941V265.921Z" fill="black"/>
<path d="M283.317 325.631C283.317 325.868 283.337 326.104 283.357 326.36C283.041 326.262 282.804 326.203 282.765 326.203H282.745L282.785 325.513C282.903 325.513 283.061 325.572 283.278 325.631H283.317Z" fill="black"/>
<path d="M283.317 325.631C283.1 325.572 282.923 325.533 282.824 325.513L282.785 326.183H282.686C281.562 304.737 280.003 290.754 278.051 284.531L274.263 326.163H274.105L273.75 325.553C273.75 325.553 273.671 325.612 273.632 325.631L277.518 283.015L278.208 282.916C280.398 288.293 282.114 302.649 283.337 325.631H283.317Z" fill="black"/>
<path d="M281.424 265.744V278.328H279.707C276.492 278.328 273.888 275.728 273.888 272.518V266.019V265.33V261.135C274.125 261.135 274.342 261.175 274.579 261.175V272.498C274.579 275.334 276.887 277.619 279.707 277.619H280.733V260.978C280.97 260.958 281.187 260.938 281.424 260.919V265.31C281.424 265.31 281.345 265.31 281.305 265.33L281.424 265.704V265.744Z" fill="black"/>
<path d="M281.423 265.35V265.744L281.305 265.369C281.305 265.369 281.384 265.35 281.423 265.35Z" fill="black"/>
<path d="M281.424 260.919V260.958C281.187 260.978 280.97 260.997 280.733 261.017V260.919H281.424Z" fill="black"/>
<path d="M280.753 261.017V277.658H279.727C276.887 277.658 274.599 275.354 274.599 272.538V261.214C275.822 261.293 276.887 261.313 277.695 261.273C278.701 261.214 279.727 261.135 280.753 261.037V261.017ZM279.392 265.192C279.392 264.345 278.701 263.656 277.853 263.656C277.005 263.656 276.315 264.345 276.315 265.192C276.315 266.039 277.005 266.728 277.853 266.728C278.701 266.728 279.392 266.039 279.392 265.192Z" fill="#FAF9FC"/>
<path d="M277.833 263.636C278.682 263.636 279.372 264.326 279.372 265.173C279.372 266.019 278.682 266.709 277.833 266.709C276.985 266.709 276.295 266.019 276.295 265.173C276.295 264.326 276.985 263.636 277.833 263.636ZM278.682 265.173C278.682 264.7 278.307 264.326 277.833 264.326C277.36 264.326 276.985 264.7 276.985 265.173C276.985 265.645 277.36 266.019 277.833 266.019C278.307 266.019 278.682 265.645 278.682 265.173Z" fill="black"/>
<path d="M277.834 266.039C278.302 266.039 278.682 265.66 278.682 265.192C278.682 264.724 278.302 264.345 277.834 264.345C277.365 264.345 276.985 264.724 276.985 265.192C276.985 265.66 277.365 266.039 277.834 266.039Z" fill="#FAF9FC"/>
<path d="M274.579 260.919V261.214C274.362 261.214 274.125 261.175 273.888 261.175V260.938H274.579V260.919Z" fill="black"/>
<path d="M274.243 326.163L273.711 332.111L273.474 332.17C272.074 332.485 262.684 334.592 256.648 334.592C254.439 334.592 252.664 334.316 251.914 333.568C251.52 333.194 251.382 332.682 251.5 332.13C251.717 331.086 251.934 329.865 252.131 328.467H252.21C252.21 328.467 252.447 328.585 252.782 328.704C252.585 330.043 252.388 331.244 252.171 332.268C252.092 332.603 252.171 332.859 252.388 333.076C254.538 335.183 267.813 332.76 273.08 331.559L273.533 326.478C273.711 326.38 273.888 326.262 274.086 326.163H274.263H274.243Z" fill="black"/>
<path d="M273.731 325.572L274.086 326.163C273.908 326.281 273.711 326.38 273.533 326.478L273.612 325.651C273.612 325.651 273.691 325.612 273.731 325.592V325.572Z" fill="black"/>
<path d="M273.908 265.35V266.039C273.908 266.039 273.711 266.039 273.375 266.039V265.35H273.415C273.691 265.35 273.869 265.35 273.928 265.35H273.908Z" fill="black"/>
<path d="M273.908 261.155V265.35C273.908 265.35 273.691 265.35 273.395 265.35L272.409 265.31C271.738 265.291 271.048 265.251 270.357 265.192L269.371 265.113C268.681 265.054 268.01 264.976 267.339 264.897L266.353 264.759C265.643 264.66 264.972 264.562 264.341 264.444L264.203 265.094H263.394C263.394 264.818 263.414 264.562 263.414 264.326H263.355V264.247C262.665 264.109 261.994 263.951 261.363 263.794L260.416 263.518C259.725 263.321 259.075 263.105 258.483 262.888L257.575 262.534C257.043 262.297 256.53 262.061 256.057 261.785C256.057 260.21 256.076 259.087 256.096 258.536C258.226 258.93 267.833 260.663 274.105 261.155H273.908Z" fill="#FAF9FC"/>
<path d="M273.612 325.651L273.533 326.478C273.533 326.478 273.375 326.577 273.316 326.616L272.981 326.025V326.006C273.237 325.887 273.435 325.769 273.632 325.651H273.612Z" fill="black"/>
<path d="M261.382 329.964C262.073 329.944 262.763 329.885 263.454 329.806L263.375 329.137L264.361 328.999L264.46 329.669C265.15 329.55 265.84 329.432 266.491 329.255L266.334 328.585L267.3 328.329L267.497 328.979C268.168 328.782 268.819 328.566 269.47 328.329L269.233 327.68L270.16 327.325L270.436 327.955C271.068 327.68 271.699 327.384 272.31 327.069L271.995 326.459L272.863 326.006L273.198 326.596C273.198 326.596 273.356 326.498 273.415 326.459L272.961 331.54C267.695 332.721 254.419 335.163 252.269 333.056C252.052 332.839 251.973 332.583 252.052 332.248C252.269 331.224 252.466 330.043 252.664 328.684C252.999 328.802 253.472 328.96 254.084 329.137L254.261 328.487L255.208 328.723L255.051 329.393C255.721 329.55 256.412 329.669 257.102 329.767L257.201 329.078L258.167 329.196L258.108 329.866C258.798 329.944 259.489 329.984 260.199 329.984V329.294H261.185V329.964H261.205H261.382Z" fill="#FAF9FC"/>
<path d="M272.093 326.478L272.409 327.089C271.797 327.404 271.166 327.719 270.535 327.975L270.259 327.364H270.298C270.91 327.089 271.521 326.813 272.113 326.498L272.093 326.478Z" fill="black"/>
<path d="M272.37 265.31V266H272.33C271.64 265.96 270.949 265.94 270.259 265.881L270.298 265.192C270.989 265.251 271.679 265.291 272.35 265.31H272.37Z" fill="black"/>
<path d="M269.312 327.719L269.549 328.349C268.898 328.605 268.247 328.822 267.576 329.019L267.379 328.369C268.01 328.172 268.661 327.975 269.312 327.719Z" fill="black"/>
<path d="M269.312 265.113L269.253 265.803C268.563 265.744 267.872 265.665 267.201 265.586L267.28 264.897C267.951 264.976 268.622 265.054 269.312 265.113Z" fill="black"/>
<path d="M266.412 328.605L266.57 329.275C265.9 329.452 265.209 329.57 264.539 329.688L264.44 329.019C265.111 328.92 265.762 328.782 266.432 328.625L266.412 328.605Z" fill="black"/>
<path d="M266.255 264.759L266.156 265.448C265.466 265.35 264.775 265.251 264.105 265.133H264.085L264.223 264.464C264.854 264.582 265.545 264.68 266.235 264.779L266.255 264.759Z" fill="black"/>
<path d="M263.414 329.137L263.493 329.806C262.803 329.885 262.112 329.944 261.422 329.964V329.275C262.093 329.255 262.783 329.196 263.434 329.137H263.414Z" fill="black"/>
<path d="M263.217 264.326H263.276C263.276 264.562 263.276 264.818 263.256 265.074C263.256 265.173 263.256 265.271 263.256 265.389L262.566 265.33C262.566 265.153 262.586 264.995 262.605 264.838C262.763 264.877 262.921 264.897 263.099 264.936L263.217 264.326Z" fill="black"/>
<path d="M263.237 264.267V264.345H262.605C262.605 264.503 262.605 264.68 262.605 264.838C262.073 264.72 261.56 264.601 261.067 264.483L261.244 263.814C261.876 263.991 262.546 264.129 263.237 264.267Z" fill="black"/>
<path d="M263.217 264.326L263.099 264.936C262.941 264.897 262.763 264.877 262.605 264.838C262.605 264.66 262.605 264.503 262.605 264.345H263.217V264.326Z" fill="black"/>
<path d="M263.138 266.354C263.059 267.004 262.941 267.654 262.783 268.323L262.901 268.363H262.763L262.112 268.225C262.27 267.555 262.388 266.906 262.467 266.295L263.158 266.374L263.138 266.354Z" fill="black"/>
<path d="M262.586 264.838C262.586 264.995 262.586 265.172 262.546 265.33L262.428 266.256C262.349 266.886 262.231 267.516 262.073 268.186L261.856 269.111C261.698 269.741 261.501 270.372 261.284 270.982L260.968 271.868C260.731 272.498 260.475 273.109 260.199 273.66L259.765 274.507C259.449 275.118 259.094 275.669 258.739 276.142L258.167 276.87C257.713 277.402 257.24 277.816 256.767 278.111L255.978 278.505C255.859 278.544 255.721 278.584 255.603 278.603C255.761 271.947 255.84 266.236 255.879 262.534C256.274 262.75 256.688 262.947 257.141 263.124L257.418 262.494L258.325 262.849L258.088 263.479C258.7 263.715 259.37 263.932 260.061 264.148L260.258 263.479L261.205 263.735L261.027 264.404C261.521 264.523 262.033 264.66 262.566 264.759L262.586 264.838Z" fill="#FAF9FC"/>
<path d="M262.546 269.289C262.369 269.958 262.191 270.588 261.974 271.218L261.323 271.022C261.54 270.391 261.718 269.761 261.895 269.151L262.566 269.308L262.546 269.289Z" fill="black"/>
<path d="M261.639 272.124C261.402 272.774 261.126 273.385 260.85 273.976L260.238 273.7C260.514 273.129 260.771 272.518 261.008 271.908L261.639 272.144V272.124Z" fill="black"/>
<path d="M260.396 274.842C260.061 275.472 259.706 276.043 259.331 276.555L258.779 276.161C259.134 275.669 259.469 275.118 259.804 274.527L260.416 274.842H260.396Z" fill="black"/>
<path d="M260.396 329.294V329.984H260.376C259.686 329.984 258.976 329.944 258.286 329.885L258.345 329.196C259.015 329.255 259.686 329.294 260.376 329.294H260.396Z" fill="black"/>
<path d="M260.278 263.538L260.081 264.207C259.39 264.011 258.719 263.774 258.108 263.558L258.345 262.908C258.936 263.124 259.587 263.341 260.278 263.538Z" fill="black"/>
<path d="M258.7 277.343C258.187 277.934 257.674 278.387 257.161 278.722L256.786 278.15C257.26 277.855 257.713 277.422 258.187 276.91L258.7 277.343Z" fill="black"/>
<path d="M257.398 262.534L257.122 263.164C256.668 262.967 256.254 262.77 255.859 262.553C255.859 262.278 255.859 262.021 255.859 261.785C256.333 262.041 256.846 262.297 257.378 262.514L257.398 262.534Z" fill="black"/>
<path d="M257.358 329.097L257.26 329.787C256.569 329.688 255.879 329.57 255.208 329.413L255.366 328.743C256.017 328.881 256.688 329.019 257.358 329.097Z" fill="black"/>
<path d="M255.958 278.525L256.175 279.175C255.978 279.253 255.761 279.293 255.544 279.332C255.544 279.096 255.544 278.859 255.544 278.643C255.682 278.623 255.8 278.584 255.918 278.544L255.958 278.525Z" fill="black"/>
<path d="M255.583 261.647C255.583 261.647 255.761 261.746 255.859 261.805C255.859 262.041 255.859 262.317 255.859 262.573C255.642 262.455 255.445 262.356 255.248 262.238L255.583 261.647Z" fill="black"/>
<path d="M255.228 262.238C255.425 262.356 255.623 262.455 255.84 262.573C255.8 266.275 255.721 271.986 255.563 278.643C255.386 278.682 255.228 278.702 255.051 278.702H254.873C255.031 271.809 255.11 265.921 255.149 262.238H255.208H255.228Z" fill="black"/>
<path d="M255.623 257.788C255.623 257.788 256.037 257.866 256.707 257.984C255.761 258.221 255.248 258.398 255.208 258.398V257.709L255.603 257.788H255.623Z" fill="black"/>
<path d="M255.583 278.643C255.583 278.879 255.583 279.096 255.583 279.332C255.425 279.352 255.248 279.371 255.09 279.371V278.682C255.268 278.682 255.425 278.682 255.603 278.623L255.583 278.643Z" fill="black"/>
<path d="M255.07 279.371C255.228 279.371 255.406 279.371 255.563 279.332C255.189 295.363 254.439 316.533 252.861 328.014C252.703 327.955 252.585 327.896 252.486 327.876H252.467L252.19 328.467H252.131C253.768 317.025 254.557 295.047 254.912 278.702H255.09V279.391L255.07 279.371Z" fill="black"/>
<path d="M254.38 328.507L254.202 329.157C253.611 328.999 253.117 328.841 252.782 328.704C252.822 328.487 252.841 328.251 252.881 328.014C253.236 328.152 253.729 328.31 254.38 328.487V328.507Z" fill="black"/>
<path d="M173.486 286.56V271.652C173.486 271.652 183.072 278.879 187.826 281.321C190.627 282.759 184.769 291.936 181.652 292.271C179.167 292.527 173.486 286.56 173.486 286.56Z" fill="#FAF9FC"/>
<path d="M132.555 286.757C132.555 286.757 127.032 292.665 124.606 292.428C121.47 292.113 115.532 282.719 118.432 281.479C123.896 279.175 132.575 271.632 132.575 271.632V286.757H132.555Z" fill="#FAF9FC"/>
<path d="M124.152 292.921C124.152 292.921 124.034 292.921 123.975 292.921C122.278 292.743 120.345 290.42 119.596 289.415C118.096 287.446 117.031 285.26 116.795 283.724C116.558 282.207 117.169 281.617 117.702 281.4C123.225 279.135 130.8 272.459 131.747 271.612C131.865 271.494 132.259 271.159 132.259 271.159V287.072L132.18 287.17C131.608 287.781 126.717 292.94 124.152 292.94V292.921ZM124.034 292.29C125.868 292.487 130.07 288.49 131.648 286.816V272.498C129.695 274.153 122.693 279.943 117.939 281.951C117.446 282.168 117.268 282.719 117.406 283.625C117.899 286.816 121.923 292.093 124.034 292.31V292.29Z" fill="black"/>
<path d="M181.494 292.034C178.871 292.034 173.841 286.835 173.269 286.225L173.19 286.126C173.19 286.126 169.777 272.341 173.111 270.805C173.249 270.746 173.742 270.864 173.742 270.864C173.841 270.943 183.309 278.091 187.984 280.494C188.536 280.77 189.108 281.459 188.793 283.093C188.063 286.973 183.861 291.798 181.691 292.015C181.632 292.015 181.573 292.015 181.514 292.015L181.494 292.034ZM173.801 285.89C175.419 287.584 179.739 291.601 181.632 291.404C183.703 291.187 187.57 286.225 188.201 282.975C188.339 282.266 188.359 281.38 187.708 281.045C183.605 278.938 175.853 273.227 173.821 271.73V285.89H173.801Z" fill="black"/>
<path d="M166.286 271.1C165.931 271.1 165.655 271.376 165.655 271.73C165.655 276.555 159.954 282.168 153.721 282.168C147.487 282.168 143.049 276.555 143.049 271.73C143.049 271.376 142.773 271.1 142.418 271.1H133.009C132.674 271.1 132.397 271.376 132.397 271.711C132.397 271.711 132.654 299.636 127.782 312.476C125.928 317.38 179.384 324.017 175.813 314.032C172.677 305.249 173.979 271.73 173.979 271.73C173.979 271.396 173.703 271.12 173.367 271.12H166.306L166.286 271.1Z" fill="white"/>
<path d="M161.216 319.546C148.533 319.546 131.865 316.75 128.216 313.993C127.348 313.323 127.328 312.752 127.466 312.378C129.971 305.78 131.096 295.087 131.589 287.269C132.121 278.8 132.062 271.789 132.062 271.73C132.062 271.218 132.476 270.805 132.989 270.805H142.398C142.911 270.805 143.345 271.218 143.345 271.75C143.345 276.536 147.783 281.873 153.701 281.873C159.974 281.873 165.339 276.299 165.339 271.75C165.339 271.218 165.753 270.805 166.286 270.805H173.348C173.86 270.805 174.275 271.218 174.275 271.73C174.275 272.085 173.012 305.308 176.089 313.934C176.543 315.214 176.168 316.356 174.965 317.222C172.677 318.896 167.41 319.566 161.197 319.566L161.216 319.546ZM133.009 271.415C132.831 271.415 132.693 271.553 132.693 271.73C132.693 271.789 132.753 278.82 132.22 287.308C131.727 295.166 130.602 305.918 128.058 312.594C127.959 312.85 128.137 313.165 128.59 313.5C131.076 315.391 140.524 317.459 151.058 318.424C162.676 319.487 171.71 318.837 174.61 316.71C175.577 316.001 175.872 315.154 175.498 314.13C174.196 310.467 173.486 302.196 173.387 289.592C173.328 280.218 173.643 271.789 173.643 271.711C173.643 271.553 173.505 271.415 173.328 271.415H166.266C166.089 271.415 165.951 271.573 165.951 271.73C165.951 276.575 160.289 282.483 153.701 282.483C150.722 282.483 147.921 281.242 145.811 278.978C143.878 276.929 142.734 274.231 142.734 271.75C142.734 271.573 142.576 271.415 142.418 271.415H133.009Z" fill="black"/>
<path d="M139.735 271.553C139.558 271.553 139.439 271.396 139.439 271.218C139.439 271.14 139.439 271.1 139.439 271.08C139.439 270.903 139.578 270.765 139.755 270.765C139.933 270.765 140.071 270.903 140.071 271.08C140.071 271.08 140.071 271.14 140.071 271.258C140.071 271.415 139.933 271.553 139.755 271.553H139.735Z" fill="black"/>
<path d="M153.484 287.111C153.484 287.111 153.326 287.072 153.267 287.012C153.208 286.953 153.168 286.875 153.168 286.796C153.168 286.619 153.306 286.481 153.484 286.481H153.8C153.957 286.481 154.115 286.619 154.115 286.796C154.115 286.875 154.076 286.953 154.017 287.012C153.957 287.072 153.879 287.111 153.8 287.111H153.504H153.484ZM151.63 287.012H151.59C151.472 287.012 151.373 286.993 151.275 286.973C151.117 286.973 150.999 286.816 150.999 286.658V286.619C150.999 286.441 151.156 286.323 151.334 286.343C151.334 286.343 151.511 286.363 151.63 286.382C151.709 286.382 151.788 286.441 151.847 286.5C151.906 286.56 151.926 286.638 151.906 286.737C151.906 286.894 151.748 287.012 151.59 287.012H151.63ZM155.634 286.973C155.476 286.973 155.338 286.855 155.318 286.697V286.658C155.318 286.5 155.437 286.363 155.595 286.343C155.693 286.343 155.812 286.323 155.891 286.304C156.068 286.284 156.206 286.402 156.246 286.579C156.265 286.756 156.147 286.894 155.969 286.934L155.654 286.973H155.614H155.634ZM149.499 286.638C149.499 286.638 149.44 286.638 149.421 286.638C149.322 286.619 149.223 286.579 149.105 286.56C148.967 286.52 148.888 286.402 148.868 286.264C148.868 286.225 148.868 286.205 148.868 286.185C148.908 286.028 149.085 285.929 149.243 285.969C149.342 285.988 149.44 286.028 149.539 286.047C149.697 286.087 149.815 286.264 149.756 286.422C149.716 286.56 149.598 286.658 149.46 286.658L149.499 286.638ZM157.764 286.599C157.626 286.599 157.488 286.5 157.469 286.363C157.469 286.343 157.469 286.303 157.469 286.284C157.469 286.146 157.567 286.028 157.705 285.988C157.804 285.969 157.903 285.929 158.001 285.91C158.159 285.87 158.336 285.969 158.376 286.126C158.396 286.205 158.376 286.284 158.336 286.363C158.297 286.441 158.238 286.481 158.159 286.5C158.06 286.52 157.962 286.56 157.843 286.579C157.824 286.579 157.784 286.579 157.764 286.579V286.599ZM147.448 285.949C147.448 285.949 147.369 285.949 147.33 285.929C147.251 285.89 147.152 285.851 147.034 285.791C146.935 285.732 146.856 285.634 146.856 285.516C146.856 285.476 146.856 285.417 146.896 285.378C146.975 285.22 147.152 285.161 147.31 285.22C147.389 285.26 147.487 285.299 147.586 285.339C147.744 285.398 147.803 285.595 147.744 285.752C147.685 285.87 147.586 285.929 147.468 285.929L147.448 285.949ZM159.816 285.929C159.698 285.929 159.579 285.851 159.54 285.732C159.54 285.693 159.52 285.654 159.52 285.614C159.52 285.496 159.599 285.378 159.717 285.339C159.816 285.299 159.895 285.26 159.993 285.22C160.151 285.142 160.329 285.22 160.408 285.378C160.487 285.535 160.408 285.713 160.25 285.791C160.151 285.831 160.053 285.89 159.954 285.91C159.915 285.91 159.875 285.929 159.836 285.929H159.816ZM161.729 284.945C161.631 284.945 161.532 284.886 161.473 284.807C161.433 284.748 161.433 284.708 161.433 284.649C161.433 284.551 161.493 284.452 161.571 284.393C161.67 284.334 161.749 284.275 161.828 284.236C161.966 284.137 162.163 284.177 162.262 284.314C162.301 284.393 162.321 284.472 162.301 284.551C162.301 284.63 162.242 284.708 162.163 284.748C162.084 284.807 162.005 284.846 161.887 284.925C161.828 284.964 161.788 284.964 161.729 284.964V284.945ZM145.554 284.905C145.554 284.905 145.436 284.905 145.377 284.846C145.278 284.787 145.199 284.728 145.12 284.669C145.042 284.61 145.002 284.511 145.002 284.413C145.002 284.354 145.022 284.295 145.061 284.236C145.16 284.098 145.357 284.078 145.495 284.177C145.574 284.236 145.653 284.295 145.732 284.354C145.87 284.452 145.909 284.649 145.811 284.787C145.752 284.866 145.653 284.925 145.554 284.925V284.905ZM163.465 283.645C163.465 283.645 163.288 283.605 163.228 283.546C163.169 283.487 163.149 283.428 163.149 283.349C163.149 283.251 163.189 283.172 163.248 283.113C163.327 283.054 163.386 282.975 163.465 282.916C163.583 282.798 163.781 282.818 163.899 282.916C163.958 282.975 163.978 283.054 163.978 283.133C163.978 283.212 163.939 283.29 163.879 283.349C163.8 283.409 163.722 283.487 163.643 283.566C163.643 283.566 163.505 283.645 163.445 283.645H163.465ZM143.897 283.527C143.897 283.527 143.74 283.487 143.68 283.428C143.602 283.349 143.542 283.271 143.463 283.192C143.404 283.133 143.385 283.054 143.385 282.975C143.385 282.897 143.424 282.798 143.483 282.739C143.602 282.621 143.799 282.641 143.917 282.739C143.976 282.818 144.055 282.877 144.134 282.956C144.193 283.015 144.213 283.093 144.213 283.172C144.213 283.251 144.174 283.33 144.114 283.389C144.055 283.448 143.976 283.468 143.897 283.468V283.527ZM164.964 282.109C164.964 282.109 164.826 282.089 164.767 282.03C164.688 281.971 164.649 281.892 164.649 281.794C164.649 281.715 164.668 281.656 164.728 281.597C164.787 281.518 164.846 281.439 164.925 281.36C165.023 281.223 165.24 281.203 165.359 281.301C165.497 281.4 165.517 281.597 165.418 281.735C165.359 281.813 165.28 281.892 165.221 281.971C165.162 282.05 165.083 282.089 164.984 282.089L164.964 282.109ZM142.536 281.872C142.438 281.872 142.339 281.813 142.28 281.735C142.221 281.656 142.181 281.577 142.102 281.459C142.063 281.4 142.043 281.36 142.043 281.301C142.043 281.203 142.102 281.104 142.181 281.045C142.319 280.947 142.517 281.006 142.615 281.144C142.674 281.242 142.734 281.321 142.773 281.4C142.813 281.459 142.832 281.557 142.832 281.636C142.832 281.715 142.773 281.794 142.694 281.833C142.635 281.872 142.576 281.892 142.517 281.892L142.536 281.872ZM166.227 280.356C166.227 280.356 166.108 280.356 166.069 280.317C165.97 280.258 165.911 280.159 165.911 280.061C165.911 280.002 165.911 279.943 165.951 279.903C166.01 279.824 166.049 279.726 166.108 279.647C166.187 279.509 166.384 279.45 166.542 279.529C166.621 279.568 166.661 279.627 166.68 279.726C166.7 279.805 166.68 279.883 166.641 279.962C166.582 280.061 166.542 280.139 166.483 280.238C166.424 280.336 166.325 280.395 166.207 280.395L166.227 280.356ZM141.471 280.002C141.353 280.002 141.234 279.923 141.195 279.824C141.136 279.726 141.096 279.627 141.057 279.529C141.057 279.49 141.037 279.45 141.037 279.411C141.037 279.293 141.116 279.174 141.215 279.135C141.373 279.076 141.55 279.135 141.629 279.293C141.668 279.391 141.708 279.49 141.747 279.568C141.787 279.647 141.787 279.726 141.747 279.805C141.708 279.883 141.668 279.943 141.59 279.982C141.55 280.002 141.511 280.021 141.451 280.021L141.471 280.002ZM167.233 278.446C167.233 278.446 167.154 278.446 167.114 278.426C166.996 278.367 166.937 278.269 166.937 278.15C166.937 278.111 166.937 278.072 166.957 278.032C166.957 278.013 166.957 278.013 166.957 278.032C166.957 278.072 166.957 278.032 166.957 278.032C166.996 277.953 167.035 277.855 167.075 277.776C167.134 277.619 167.331 277.54 167.489 277.619C167.647 277.678 167.726 277.875 167.647 278.032C167.607 278.111 167.568 278.209 167.529 278.328C167.469 278.446 167.371 278.505 167.252 278.505L167.233 278.446ZM140.682 277.973C140.544 277.973 140.426 277.894 140.386 277.757C140.347 277.658 140.327 277.54 140.288 277.461C140.288 277.422 140.288 277.402 140.288 277.363C140.288 277.225 140.386 277.107 140.505 277.067C140.662 277.028 140.84 277.126 140.879 277.284C140.919 277.382 140.939 277.481 140.978 277.579C141.037 277.737 140.939 277.914 140.781 277.973C140.741 277.973 140.722 277.973 140.682 277.973ZM168.002 276.417C168.002 276.417 167.943 276.417 167.903 276.417C167.785 276.378 167.686 276.26 167.686 276.122C167.686 276.083 167.686 276.063 167.686 276.024C167.726 275.925 167.746 275.846 167.785 275.728C167.844 275.571 168.002 275.472 168.18 275.531C168.258 275.551 168.318 275.61 168.357 275.689C168.396 275.768 168.396 275.846 168.377 275.925C168.337 276.024 168.318 276.122 168.278 276.22C168.239 276.358 168.12 276.437 167.982 276.437L168.002 276.417ZM140.13 275.886C139.972 275.886 139.854 275.787 139.834 275.63C139.814 275.531 139.795 275.433 139.775 275.334C139.775 275.334 139.775 275.275 139.775 275.255C139.775 275.098 139.873 274.98 140.031 274.96C140.189 274.921 140.367 275.039 140.386 275.216C140.386 275.315 140.426 275.413 140.445 275.511C140.485 275.669 140.367 275.846 140.209 275.866C140.209 275.866 140.169 275.866 140.15 275.866L140.13 275.886ZM168.554 274.33C168.554 274.33 168.515 274.33 168.495 274.33C168.357 274.29 168.258 274.172 168.258 274.015C168.258 274.015 168.258 273.975 168.258 273.956C168.278 273.857 168.298 273.759 168.318 273.66C168.357 273.503 168.515 273.385 168.673 273.424C168.752 273.424 168.83 273.483 168.87 273.562C168.909 273.641 168.929 273.719 168.909 273.798C168.89 273.897 168.87 273.995 168.85 274.113C168.811 274.251 168.692 274.35 168.554 274.35V274.33ZM139.814 273.739C139.656 273.739 139.518 273.621 139.499 273.463V273.148H139.479C139.479 272.971 139.597 272.833 139.755 272.813C139.933 272.813 140.071 272.932 140.09 273.089C140.09 273.188 140.09 273.286 140.11 273.404C140.11 273.562 140.012 273.719 139.834 273.739H139.814Z" fill="black"/>
<path d="M168.909 272.144H168.87C168.692 272.144 168.574 271.986 168.594 271.809C168.594 271.711 168.594 271.671 168.594 271.671C168.594 271.494 168.752 271.376 168.929 271.376C169.107 271.376 169.225 271.533 169.225 271.691C169.225 271.691 169.225 271.75 169.225 271.848C169.225 272.006 169.067 272.124 168.909 272.124V272.144Z" fill="black"/>
<path d="M127.15 291.227C127.15 291.227 127.072 291.227 127.032 291.207C126.933 291.168 126.855 291.128 126.736 291.089C126.638 291.03 126.559 290.932 126.559 290.813C126.559 290.774 126.559 290.715 126.578 290.676C126.638 290.518 126.835 290.459 126.993 290.518C127.091 290.557 127.17 290.597 127.269 290.636C127.427 290.695 127.506 290.892 127.427 291.05C127.367 291.168 127.269 291.247 127.15 291.247V291.227ZM125.217 290.242C125.217 290.242 125.099 290.242 125.06 290.203C124.961 290.144 124.882 290.085 124.783 290.026C124.783 290.026 124.645 289.868 124.645 289.77C124.645 289.711 124.645 289.651 124.705 289.612C124.803 289.474 125 289.435 125.138 289.533C125.217 289.592 125.316 289.632 125.395 289.691C125.533 289.789 125.592 289.967 125.494 290.124C125.434 290.223 125.336 290.262 125.237 290.262L125.217 290.242ZM123.501 288.923C123.501 288.923 123.343 288.903 123.284 288.844C123.205 288.785 123.146 288.706 123.048 288.627C122.988 288.568 122.949 288.49 122.949 288.411C122.949 288.332 122.988 288.253 123.048 288.194C123.166 288.076 123.363 288.076 123.482 288.194C123.56 288.273 123.62 288.332 123.699 288.411C123.817 288.529 123.837 288.726 123.699 288.844C123.639 288.903 123.56 288.942 123.482 288.942L123.501 288.923ZM122.101 287.269C122.002 287.269 121.903 287.209 121.844 287.131C121.785 287.032 121.726 286.953 121.667 286.855C121.667 286.855 121.627 286.757 121.627 286.697C121.627 286.579 121.687 286.481 121.785 286.422C121.923 286.323 122.12 286.382 122.219 286.52C122.278 286.619 122.318 286.697 122.377 286.776C122.476 286.914 122.436 287.111 122.298 287.209C122.239 287.249 122.199 287.269 122.12 287.269H122.101ZM121.114 285.339C120.996 285.339 120.878 285.26 120.819 285.142C120.779 285.043 120.74 284.945 120.72 284.846C120.72 284.846 120.72 284.787 120.72 284.748C120.72 284.61 120.799 284.492 120.937 284.452C121.095 284.393 121.272 284.492 121.331 284.649C121.371 284.748 121.391 284.846 121.43 284.925C121.489 285.083 121.41 285.26 121.253 285.319C121.213 285.319 121.174 285.319 121.134 285.319L121.114 285.339ZM120.582 283.251C120.424 283.251 120.306 283.133 120.266 282.975C120.266 282.857 120.227 282.759 120.227 282.66V282.621C120.227 282.463 120.345 282.325 120.503 282.325C120.681 282.306 120.819 282.424 120.838 282.601C120.838 282.68 120.858 282.778 120.878 282.897C120.897 283.054 120.779 283.212 120.621 283.251C120.621 283.251 120.602 283.251 120.582 283.251ZM120.503 281.085H120.483C120.483 281.085 120.325 281.045 120.266 280.986C120.207 280.927 120.187 280.848 120.187 280.77C120.187 280.592 120.207 280.494 120.227 280.455C120.247 280.277 120.424 280.159 120.582 280.179C120.74 280.199 120.838 280.336 120.838 280.494V280.533C120.838 280.533 120.838 280.671 120.819 280.809C120.819 280.967 120.661 281.085 120.503 281.085Z" fill="black"/>
<path d="M179.403 291.148C179.245 291.148 179.107 291.01 179.088 290.853C179.088 290.774 179.107 290.695 179.167 290.636C179.226 290.577 179.305 290.538 179.384 290.538C179.482 290.538 179.581 290.538 179.66 290.518C179.818 290.498 179.975 290.616 180.015 290.774V290.813C180.015 290.971 179.896 291.089 179.739 291.109C179.64 291.109 179.522 291.128 179.403 291.148ZM181.396 290.419C181.297 290.419 181.198 290.36 181.139 290.282C181.1 290.223 181.08 290.124 181.08 290.045C181.08 289.967 181.139 289.888 181.198 289.848C181.277 289.789 181.356 289.73 181.435 289.671C181.573 289.573 181.77 289.592 181.869 289.73C181.908 289.789 181.928 289.848 181.928 289.927C181.928 290.026 181.889 290.104 181.81 290.163C181.731 290.242 181.632 290.301 181.553 290.36C181.494 290.4 181.435 290.419 181.376 290.419H181.396ZM182.934 288.903C182.934 288.903 182.796 288.883 182.737 288.844C182.678 288.785 182.638 288.726 182.619 288.647C182.619 288.568 182.619 288.49 182.678 288.411C182.737 288.332 182.796 288.253 182.855 288.174C182.954 288.037 183.151 288.017 183.289 288.096C183.368 288.155 183.427 288.253 183.427 288.352C183.427 288.411 183.408 288.47 183.368 288.529C183.309 288.608 183.25 288.706 183.171 288.785C183.112 288.864 183.013 288.903 182.934 288.903ZM184.078 287.072C184.078 287.072 183.98 287.072 183.94 287.032C183.861 286.993 183.822 286.934 183.782 286.855C183.763 286.776 183.782 286.697 183.802 286.619L183.94 286.343C184.019 286.185 184.216 286.126 184.354 286.205C184.453 286.264 184.512 286.363 184.512 286.481C184.512 286.54 184.512 286.579 184.473 286.619C184.433 286.717 184.374 286.816 184.335 286.894C184.275 286.993 184.177 287.052 184.059 287.052L184.078 287.072ZM184.986 285.102C184.986 285.102 184.907 285.102 184.867 285.083C184.709 285.023 184.631 284.846 184.69 284.689C184.729 284.59 184.769 284.492 184.808 284.413C184.867 284.255 185.045 284.177 185.203 284.236C185.321 284.275 185.4 284.393 185.4 284.531C185.4 284.571 185.4 284.61 185.4 284.649C185.36 284.748 185.321 284.846 185.281 284.945C185.242 285.063 185.124 285.142 184.986 285.142V285.102ZM185.715 283.054C185.715 283.054 185.656 283.054 185.617 283.054C185.538 283.034 185.479 282.975 185.439 282.897C185.4 282.818 185.4 282.739 185.42 282.66C185.459 282.562 185.479 282.463 185.518 282.365C185.577 282.207 185.735 282.109 185.913 282.168C186.051 282.207 186.13 282.325 186.13 282.463C186.13 282.503 186.13 282.522 186.13 282.562C186.11 282.641 186.071 282.719 186.051 282.818V282.877C185.992 282.995 185.873 283.094 185.735 283.094L185.715 283.054ZM186.307 280.967C186.307 280.967 186.248 280.967 186.228 280.967C186.071 280.927 185.952 280.75 186.011 280.592L186.071 280.297C186.11 280.139 186.268 280.021 186.445 280.061C186.583 280.1 186.682 280.218 186.682 280.376C186.682 280.396 186.682 280.415 186.682 280.435C186.682 280.435 186.643 280.592 186.603 280.75C186.564 280.888 186.445 280.986 186.307 280.986V280.967Z" fill="black"/>
<path d="M153.366 278.131C152.853 278.131 152.32 278.091 151.807 278.032C145.988 277.225 142.911 272.105 142.773 271.888L143.306 271.573C143.306 271.573 146.383 276.654 151.906 277.422C156.127 278.013 160.684 276.024 165.438 271.514L165.872 271.967C161.532 276.063 157.33 278.151 153.366 278.151V278.131Z" fill="black"/>
</g>
<defs>
<clipPath id="clip0_692_20882">
<rect width="720" height="451" fill="white"/>
</clipPath>
</defs>
</svg>
