<?xml version="1.0" encoding="UTF-8" standalone="no"?>
<!DOCTYPE svg PUBLIC "-//W3C//DTD SVG 1.1//EN" "http://www.w3.org/Graphics/SVG/1.1/DTD/svg11.dtd">
<svg width="100%" height="100%" viewBox="0 0 960 560" version="1.1" xmlns="http://www.w3.org/2000/svg" xmlns:xlink="http://www.w3.org/1999/xlink" xml:space="preserve" xmlns:serif="http://www.serif.com/" style="fill-rule:evenodd;clip-rule:evenodd;">
    <g id="fond-rose" serif:id="fond rose" transform="matrix(0.969539,0,0,0.932305,29.2429,37.909)">
        <rect x="-30.162" y="-40.662" width="990.162" height="600.662" style="fill:rgb(65,56,226);"/>
    </g>
    <g transform="matrix(2.73563,0,0,2.37154,-148.038,-283.149)">
        <rect x="143.672" y="154.672" width="174" height="168.667" style="fill:rgb(1,0,0);"/>
    </g>
    <g id="todo-list" serif:id="todo list" transform="matrix(1,0,0,1,480,280)">
        <g transform="matrix(1,0,0,1,-243,-205)">
            <clipPath id="_clip1">
                <rect x="0" y="0" width="486" height="410"/>
            </clipPath>
            <g clip-path="url(#_clip1)">
                <g>
                    <rect x="1" y="1" width="476" height="400" style="fill:rgb(250,249,252);"/>
                    <rect x="1" y="1" width="476" height="400" style="fill:none;stroke:rgb(1,0,0);stroke-width:2px;"/>
                </g>
                <circle cx="30.5" cy="20.5" r="8.5" style="fill:rgb(65,56,226);stroke:black;stroke-width:2px;"/>
                <circle cx="58.5" cy="20.5" r="8.5" style="fill:rgb(255,234,40);stroke:black;stroke-width:2px;"/>
                <circle cx="86.5" cy="20.5" r="8.5" style="fill:rgb(244,136,180);stroke:black;stroke-width:2px;"/>
                <path d="M454.5,8L457.306,16.637L466.388,16.637L459.041,21.975L461.847,30.613L454.5,25.275L447.153,30.613L449.959,21.975L442.612,16.637L451.694,16.637L454.5,8Z" style="fill:rgb(65,56,226);fill-rule:nonzero;stroke:black;stroke-width:2px;"/>
                <path d="M76.954,76.864L76.954,91L71.77,91L71.77,76.864L67.066,76.864L67.066,72.688L81.658,72.688L81.658,76.864L76.954,76.864ZM94.122,84.472C94.122,86.568 93.522,88.224 92.322,89.44C91.122,90.64 89.482,91.24 87.402,91.24C85.322,91.24 83.682,90.64 82.482,89.44C81.298,88.224 80.706,86.568 80.706,84.472C80.706,82.376 81.298,80.72 82.482,79.504C83.682,78.288 85.322,77.68 87.402,77.68C89.482,77.68 91.122,78.288 92.322,79.504C93.522,80.72 94.122,82.376 94.122,84.472ZM89.298,84.472C89.298,83.416 89.138,82.632 88.818,82.12C88.514,81.592 88.042,81.328 87.402,81.328C86.778,81.328 86.306,81.592 85.986,82.12C85.682,82.632 85.53,83.416 85.53,84.472C85.53,85.528 85.682,86.312 85.986,86.824C86.306,87.336 86.778,87.592 87.402,87.592C88.042,87.592 88.514,87.336 88.818,86.824C89.138,86.312 89.298,85.528 89.298,84.472ZM113.618,89.968C113.266,90.384 112.81,90.704 112.25,90.928C111.69,91.152 111.058,91.264 110.354,91.264C108.866,91.264 107.666,90.656 106.754,89.44C105.842,88.208 105.386,86.576 105.386,84.544C105.386,82.528 105.866,80.88 106.826,79.6C107.802,78.304 109.09,77.656 110.69,77.656C111.17,77.656 111.658,77.72 112.154,77.848C112.666,77.96 113.138,78.128 113.57,78.352L113.69,78.28L113.69,72.016L118.49,72.016L118.49,91L113.69,91L113.69,90.016L113.618,89.968ZM113.69,81.688C113.53,81.576 113.33,81.496 113.09,81.448C112.866,81.384 112.634,81.352 112.394,81.352C111.69,81.352 111.146,81.632 110.762,82.192C110.378,82.736 110.186,83.504 110.186,84.496C110.186,85.456 110.37,86.216 110.738,86.776C111.106,87.336 111.626,87.616 112.298,87.616C112.602,87.616 112.874,87.56 113.114,87.448C113.354,87.32 113.546,87.144 113.69,86.92L113.69,81.688ZM134.786,84.472C134.786,86.568 134.186,88.224 132.986,89.44C131.786,90.64 130.146,91.24 128.066,91.24C125.986,91.24 124.346,90.64 123.146,89.44C121.962,88.224 121.37,86.568 121.37,84.472C121.37,82.376 121.962,80.72 123.146,79.504C124.346,78.288 125.986,77.68 128.066,77.68C130.146,77.68 131.786,78.288 132.986,79.504C134.186,80.72 134.786,82.376 134.786,84.472ZM129.962,84.472C129.962,83.416 129.802,82.632 129.482,82.12C129.178,81.592 128.706,81.328 128.066,81.328C127.442,81.328 126.97,81.592 126.65,82.12C126.346,82.632 126.194,83.416 126.194,84.472C126.194,85.528 126.346,86.312 126.65,86.824C126.97,87.336 127.442,87.592 128.066,87.592C128.706,87.592 129.178,87.336 129.482,86.824C129.802,86.312 129.962,85.528 129.962,84.472ZM151.81,72.016L151.81,91L147.01,91L147.01,72.016L151.81,72.016ZM161.665,73.144C161.665,73.944 161.385,74.616 160.825,75.16C160.281,75.688 159.609,75.952 158.809,75.952C157.977,75.952 157.281,75.688 156.721,75.16C156.177,74.616 155.905,73.944 155.905,73.144C155.905,72.344 156.177,71.68 156.721,71.152C157.281,70.624 157.977,70.36 158.809,70.36C159.625,70.36 160.305,70.624 160.849,71.152C161.393,71.68 161.665,72.344 161.665,73.144ZM161.185,77.92L161.185,91L156.385,91L156.385,77.92L161.185,77.92ZM174.729,86.92C174.729,88.216 174.217,89.272 173.193,90.088C172.185,90.888 170.897,91.288 169.329,91.288C168.465,91.288 167.617,91.216 166.785,91.072C165.969,90.944 165.233,90.752 164.577,90.496L164.577,86.656C165.185,86.992 165.873,87.272 166.641,87.496C167.409,87.704 168.113,87.808 168.753,87.808C169.249,87.808 169.609,87.752 169.833,87.64C170.057,87.528 170.169,87.352 170.169,87.112C170.169,86.92 170.065,86.76 169.857,86.632C169.665,86.488 169.217,86.32 168.513,86.128C167.681,85.888 167.057,85.672 166.641,85.48C166.225,85.288 165.873,85.056 165.585,84.784C165.201,84.432 164.913,84.016 164.721,83.536C164.529,83.04 164.433,82.48 164.433,81.856C164.433,80.496 164.905,79.464 165.849,78.76C166.809,78.04 168.201,77.68 170.025,77.68C170.729,77.68 171.409,77.728 172.065,77.824C172.737,77.92 173.417,78.072 174.105,78.28L174.105,82C173.689,81.76 173.105,81.56 172.353,81.4C171.601,81.224 170.889,81.136 170.217,81.136C169.769,81.136 169.449,81.184 169.257,81.28C169.081,81.376 168.993,81.544 168.993,81.784C168.993,81.96 169.089,82.112 169.281,82.24C169.473,82.368 169.921,82.528 170.625,82.72C171.441,82.96 172.057,83.176 172.473,83.368C172.889,83.56 173.241,83.784 173.529,84.04C173.929,84.392 174.225,84.808 174.417,85.288C174.625,85.768 174.729,86.312 174.729,86.92ZM187.214,90.688C186.686,90.88 186.134,91.016 185.558,91.096C184.982,91.192 184.39,91.24 183.782,91.24C182.15,91.24 180.862,90.816 179.918,89.968C178.99,89.104 178.526,87.92 178.526,86.416L178.526,81.52L176.414,81.52L176.414,77.92L178.526,77.92L178.526,74.464L183.326,74.464L183.326,77.92L186.974,77.92L186.974,81.52L183.326,81.52L183.326,84.88C183.326,85.744 183.454,86.336 183.71,86.656C183.982,86.96 184.438,87.112 185.078,87.112C185.35,87.112 185.662,87.088 186.014,87.04C186.382,86.976 186.782,86.888 187.214,86.776L187.214,90.688Z" style="fill:rgb(1,0,0);fill-rule:nonzero;"/>
                <circle cx="38.5" cy="151.5" r="9.5" style="fill:none;stroke:rgb(1,0,0);stroke-width:2px;"/>
                <circle cx="38.5" cy="231.5" r="9.5" style="fill:none;stroke:rgb(1,0,0);stroke-width:2px;"/>
                <circle cx="38.5" cy="311.5" r="9.5" style="fill:none;stroke:rgb(1,0,0);stroke-width:2px;"/>
                <path d="M86.281,160.244C85.993,160.544 85.633,160.778 85.201,160.946C84.781,161.114 84.337,161.198 83.869,161.198C82.741,161.198 81.823,160.73 81.115,159.794C80.407,158.858 80.053,157.658 80.053,156.194C80.053,154.646 80.449,153.392 81.241,152.432C82.045,151.472 83.113,150.992 84.445,150.992C84.865,150.992 85.225,151.028 85.525,151.1C85.837,151.172 86.089,151.286 86.281,151.442L86.335,151.388L86.335,146.762L88.369,146.762L88.369,161L86.335,161L86.335,160.298L86.281,160.244ZM86.335,153.278C86.155,153.134 85.921,153.02 85.633,152.936C85.345,152.852 85.045,152.81 84.733,152.81C83.905,152.81 83.257,153.104 82.789,153.692C82.321,154.268 82.087,155.078 82.087,156.122C82.087,157.13 82.297,157.934 82.717,158.534C83.137,159.122 83.707,159.416 84.427,159.416C84.835,159.416 85.213,159.32 85.561,159.128C85.909,158.936 86.167,158.69 86.335,158.39L86.335,153.278ZM96.911,160.082C96.599,160.418 96.191,160.688 95.687,160.892C95.195,161.096 94.667,161.198 94.103,161.198C93.179,161.198 92.441,160.922 91.889,160.37C91.337,159.818 91.061,159.092 91.061,158.192C91.061,157.184 91.427,156.41 92.159,155.87C92.903,155.318 93.965,155.042 95.345,155.042L96.713,155.042C96.725,155.006 96.731,154.964 96.731,154.916L96.731,154.664C96.731,153.968 96.575,153.482 96.263,153.206C95.963,152.93 95.435,152.792 94.679,152.792C94.187,152.792 93.707,152.846 93.239,152.954C92.783,153.062 92.303,153.236 91.799,153.476L91.799,151.622C92.003,151.526 92.237,151.442 92.501,151.37C92.777,151.286 93.077,151.214 93.401,151.154C93.677,151.094 93.959,151.052 94.247,151.028C94.535,151.004 94.817,150.992 95.093,150.992C96.389,150.992 97.319,151.304 97.883,151.928C98.447,152.552 98.729,153.554 98.729,154.934L98.729,161L97.271,161L96.965,160.1L96.911,160.082ZM95.561,156.536C94.721,156.536 94.097,156.656 93.689,156.896C93.293,157.136 93.095,157.52 93.095,158.048C93.095,158.528 93.227,158.894 93.491,159.146C93.755,159.398 94.139,159.524 94.643,159.524C95.111,159.524 95.555,159.422 95.975,159.218C96.407,159.014 96.707,158.774 96.875,158.498L96.875,156.536L95.561,156.536ZM103.813,153.764L103.813,161L101.797,161L101.797,151.19L103.813,151.19L103.813,151.91L103.867,151.964C104.323,151.64 104.797,151.4 105.289,151.244C105.781,151.076 106.291,150.992 106.819,150.992C107.767,150.992 108.487,151.256 108.979,151.784C109.471,152.312 109.717,153.092 109.717,154.124L109.717,161L107.701,161L107.701,154.79C107.701,154.058 107.593,153.542 107.377,153.242C107.161,152.942 106.795,152.792 106.279,152.792C105.811,152.792 105.331,152.888 104.839,153.08C104.359,153.272 104.017,153.5 103.813,153.764ZM119.205,158.282C119.205,159.158 118.875,159.866 118.215,160.406C117.555,160.934 116.673,161.198 115.569,161.198C115.017,161.198 114.465,161.132 113.913,161C113.373,160.868 112.935,160.694 112.599,160.478L112.599,158.552C112.755,158.696 112.941,158.828 113.157,158.948C113.385,159.056 113.643,159.158 113.931,159.254C114.171,159.326 114.417,159.386 114.669,159.434C114.921,159.47 115.179,159.488 115.443,159.488C116.007,159.488 116.445,159.404 116.757,159.236C117.069,159.056 117.225,158.804 117.225,158.48C117.225,158.216 117.111,157.976 116.883,157.76C116.655,157.544 116.157,157.274 115.389,156.95C114.813,156.698 114.387,156.494 114.111,156.338C113.847,156.182 113.619,156.02 113.427,155.852C113.115,155.588 112.881,155.294 112.725,154.97C112.581,154.634 112.509,154.262 112.509,153.854C112.509,152.978 112.827,152.282 113.463,151.766C114.111,151.25 114.993,150.992 116.109,150.992C116.637,150.992 117.147,151.058 117.639,151.19C118.131,151.31 118.533,151.466 118.845,151.658L118.845,153.458C118.413,153.218 117.951,153.032 117.459,152.9C116.979,152.768 116.511,152.702 116.055,152.702C115.551,152.702 115.161,152.792 114.885,152.972C114.621,153.152 114.489,153.398 114.489,153.71C114.489,153.974 114.603,154.214 114.831,154.43C115.059,154.634 115.557,154.898 116.325,155.222C116.901,155.462 117.321,155.66 117.585,155.816C117.861,155.972 118.095,156.134 118.287,156.302C118.599,156.566 118.827,156.86 118.971,157.184C119.127,157.508 119.205,157.874 119.205,158.282ZM129.034,160.64C128.53,160.832 128.038,160.97 127.558,161.054C127.078,161.15 126.598,161.198 126.118,161.198C124.57,161.198 123.358,160.76 122.482,159.884C121.618,158.996 121.186,157.754 121.186,156.158C121.186,154.586 121.594,153.332 122.41,152.396C123.226,151.46 124.33,150.992 125.722,150.992C126.91,150.992 127.828,151.352 128.476,152.072C129.124,152.78 129.448,153.77 129.448,155.042C129.448,155.33 129.43,155.63 129.394,155.942C129.358,156.254 129.304,156.566 129.232,156.878L123.148,156.878C123.268,157.73 123.574,158.366 124.066,158.786C124.558,159.206 125.248,159.416 126.136,159.416C126.58,159.416 127.042,159.368 127.522,159.272C128.014,159.164 128.518,159.008 129.034,158.804L129.034,160.64ZM127.612,154.664C127.624,154.04 127.444,153.542 127.072,153.17C126.712,152.786 126.208,152.594 125.56,152.594C124.852,152.594 124.288,152.828 123.868,153.296C123.448,153.764 123.208,154.43 123.148,155.294L127.558,155.294C127.57,155.198 127.582,155.096 127.594,154.988C127.606,154.868 127.612,154.76 127.612,154.664ZM133.977,154.52L133.977,161L131.961,161L131.961,151.19L133.977,151.19L133.977,152.36L134.049,152.414C134.385,151.958 134.787,151.61 135.255,151.37C135.735,151.118 136.263,150.992 136.839,150.992C136.947,150.992 137.049,150.998 137.145,151.01C137.253,151.01 137.355,151.016 137.451,151.028L137.451,153.224C137.391,153.212 137.331,153.206 137.271,153.206L137.055,153.206C136.311,153.206 135.669,153.326 135.129,153.566C134.601,153.794 134.217,154.112 133.977,154.52ZM148.057,146.762L148.057,161L146.041,161L146.041,146.762L148.057,146.762ZM156.607,160.082C156.295,160.418 155.887,160.688 155.383,160.892C154.891,161.096 154.363,161.198 153.799,161.198C152.875,161.198 152.137,160.922 151.585,160.37C151.033,159.818 150.757,159.092 150.757,158.192C150.757,157.184 151.123,156.41 151.855,155.87C152.599,155.318 153.661,155.042 155.041,155.042L156.409,155.042C156.421,155.006 156.427,154.964 156.427,154.916L156.427,154.664C156.427,153.968 156.271,153.482 155.959,153.206C155.659,152.93 155.131,152.792 154.375,152.792C153.883,152.792 153.403,152.846 152.935,152.954C152.479,153.062 151.999,153.236 151.495,153.476L151.495,151.622C151.699,151.526 151.933,151.442 152.197,151.37C152.473,151.286 152.773,151.214 153.097,151.154C153.373,151.094 153.655,151.052 153.943,151.028C154.231,151.004 154.513,150.992 154.789,150.992C156.085,150.992 157.015,151.304 157.579,151.928C158.143,152.552 158.425,153.554 158.425,154.934L158.425,161L156.967,161L156.661,160.1L156.607,160.082ZM155.257,156.536C154.417,156.536 153.793,156.656 153.385,156.896C152.989,157.136 152.791,157.52 152.791,158.048C152.791,158.528 152.923,158.894 153.187,159.146C153.451,159.398 153.835,159.524 154.339,159.524C154.807,159.524 155.251,159.422 155.671,159.218C156.103,159.014 156.403,158.774 156.571,158.498L156.571,156.536L155.257,156.536ZM174.172,158.282C174.172,159.158 173.842,159.866 173.182,160.406C172.522,160.934 171.64,161.198 170.536,161.198C169.984,161.198 169.432,161.132 168.88,161C168.34,160.868 167.902,160.694 167.566,160.478L167.566,158.552C167.722,158.696 167.908,158.828 168.124,158.948C168.352,159.056 168.61,159.158 168.898,159.254C169.138,159.326 169.384,159.386 169.636,159.434C169.888,159.47 170.146,159.488 170.41,159.488C170.974,159.488 171.412,159.404 171.724,159.236C172.036,159.056 172.192,158.804 172.192,158.48C172.192,158.216 172.078,157.976 171.85,157.76C171.622,157.544 171.124,157.274 170.356,156.95C169.78,156.698 169.354,156.494 169.078,156.338C168.814,156.182 168.586,156.02 168.394,155.852C168.082,155.588 167.848,155.294 167.692,154.97C167.548,154.634 167.476,154.262 167.476,153.854C167.476,152.978 167.794,152.282 168.43,151.766C169.078,151.25 169.96,150.992 171.076,150.992C171.604,150.992 172.114,151.058 172.606,151.19C173.098,151.31 173.5,151.466 173.812,151.658L173.812,153.458C173.38,153.218 172.918,153.032 172.426,152.9C171.946,152.768 171.478,152.702 171.022,152.702C170.518,152.702 170.128,152.792 169.852,152.972C169.588,153.152 169.456,153.398 169.456,153.71C169.456,153.974 169.57,154.214 169.798,154.43C170.026,154.634 170.524,154.898 171.292,155.222C171.868,155.462 172.288,155.66 172.552,155.816C172.828,155.972 173.062,156.134 173.254,156.302C173.566,156.566 173.794,156.86 173.938,157.184C174.094,157.508 174.172,157.874 174.172,158.282ZM182.183,160.082C181.871,160.418 181.463,160.688 180.959,160.892C180.467,161.096 179.939,161.198 179.375,161.198C178.451,161.198 177.713,160.922 177.161,160.37C176.609,159.818 176.333,159.092 176.333,158.192C176.333,157.184 176.699,156.41 177.431,155.87C178.175,155.318 179.237,155.042 180.617,155.042L181.985,155.042C181.997,155.006 182.003,154.964 182.003,154.916L182.003,154.664C182.003,153.968 181.847,153.482 181.535,153.206C181.235,152.93 180.707,152.792 179.951,152.792C179.459,152.792 178.979,152.846 178.511,152.954C178.055,153.062 177.575,153.236 177.071,153.476L177.071,151.622C177.275,151.526 177.509,151.442 177.773,151.37C178.049,151.286 178.349,151.214 178.673,151.154C178.949,151.094 179.231,151.052 179.519,151.028C179.807,151.004 180.089,150.992 180.365,150.992C181.661,150.992 182.591,151.304 183.155,151.928C183.719,152.552 184.001,153.554 184.001,154.934L184.001,161L182.543,161L182.237,160.1L182.183,160.082ZM180.833,156.536C179.993,156.536 179.369,156.656 178.961,156.896C178.565,157.136 178.367,157.52 178.367,158.048C178.367,158.528 178.499,158.894 178.763,159.146C179.027,159.398 179.411,159.524 179.915,159.524C180.383,159.524 180.827,159.422 181.247,159.218C181.679,159.014 181.979,158.774 182.147,158.498L182.147,156.536L180.833,156.536ZM189.084,146.762L189.084,161L187.068,161L187.068,146.762L189.084,146.762ZM198.57,158.282C198.57,159.158 198.24,159.866 197.58,160.406C196.92,160.934 196.038,161.198 194.934,161.198C194.382,161.198 193.83,161.132 193.278,161C192.738,160.868 192.3,160.694 191.964,160.478L191.964,158.552C192.12,158.696 192.306,158.828 192.522,158.948C192.75,159.056 193.008,159.158 193.296,159.254C193.536,159.326 193.782,159.386 194.034,159.434C194.286,159.47 194.544,159.488 194.808,159.488C195.372,159.488 195.81,159.404 196.122,159.236C196.434,159.056 196.59,158.804 196.59,158.48C196.59,158.216 196.476,157.976 196.248,157.76C196.02,157.544 195.522,157.274 194.754,156.95C194.178,156.698 193.752,156.494 193.476,156.338C193.212,156.182 192.984,156.02 192.792,155.852C192.48,155.588 192.246,155.294 192.09,154.97C191.946,154.634 191.874,154.262 191.874,153.854C191.874,152.978 192.192,152.282 192.828,151.766C193.476,151.25 194.358,150.992 195.474,150.992C196.002,150.992 196.512,151.058 197.004,151.19C197.496,151.31 197.898,151.466 198.21,151.658L198.21,153.458C197.778,153.218 197.316,153.032 196.824,152.9C196.344,152.768 195.876,152.702 195.42,152.702C194.916,152.702 194.526,152.792 194.25,152.972C193.986,153.152 193.854,153.398 193.854,153.71C193.854,153.974 193.968,154.214 194.196,154.43C194.424,154.634 194.922,154.898 195.69,155.222C196.266,155.462 196.686,155.66 196.95,155.816C197.226,155.972 197.46,156.134 197.652,156.302C197.964,156.566 198.192,156.86 198.336,157.184C198.492,157.508 198.57,157.874 198.57,158.282ZM206.581,160.082C206.269,160.418 205.861,160.688 205.357,160.892C204.865,161.096 204.337,161.198 203.773,161.198C202.849,161.198 202.111,160.922 201.559,160.37C201.007,159.818 200.731,159.092 200.731,158.192C200.731,157.184 201.097,156.41 201.829,155.87C202.573,155.318 203.635,155.042 205.015,155.042L206.383,155.042C206.395,155.006 206.401,154.964 206.401,154.916L206.401,154.664C206.401,153.968 206.245,153.482 205.933,153.206C205.633,152.93 205.105,152.792 204.349,152.792C203.857,152.792 203.377,152.846 202.909,152.954C202.453,153.062 201.973,153.236 201.469,153.476L201.469,151.622C201.673,151.526 201.907,151.442 202.171,151.37C202.447,151.286 202.747,151.214 203.071,151.154C203.347,151.094 203.629,151.052 203.917,151.028C204.205,151.004 204.487,150.992 204.763,150.992C206.059,150.992 206.989,151.304 207.553,151.928C208.117,152.552 208.399,153.554 208.399,154.934L208.399,161L206.941,161L206.635,160.1L206.581,160.082ZM205.231,156.536C204.391,156.536 203.767,156.656 203.359,156.896C202.963,157.136 202.765,157.52 202.765,158.048C202.765,158.528 202.897,158.894 203.161,159.146C203.425,159.398 203.809,159.524 204.313,159.524C204.781,159.524 205.225,159.422 205.645,159.218C206.077,159.014 206.377,158.774 206.545,158.498L206.545,156.536L205.231,156.536Z" style="fill:rgb(1,0,0);fill-rule:nonzero;"/>
                <path d="M82.902,240.82L82.902,245.032L80.868,245.032L80.868,231.19L82.902,231.19L82.902,231.892L82.956,231.946C83.256,231.646 83.616,231.412 84.036,231.244C84.456,231.076 84.9,230.992 85.368,230.992C86.508,230.992 87.426,231.46 88.122,232.396C88.83,233.332 89.184,234.526 89.184,235.978C89.184,237.526 88.782,238.786 87.978,239.758C87.174,240.718 86.112,241.198 84.792,241.198C84.396,241.198 84.042,241.162 83.73,241.09C83.43,241.018 83.172,240.91 82.956,240.766L82.902,240.82ZM84.81,232.774C84.39,232.774 84,232.876 83.64,233.08C83.292,233.272 83.046,233.512 82.902,233.8L82.902,238.93C83.082,239.074 83.31,239.188 83.586,239.272C83.874,239.344 84.18,239.38 84.504,239.38C85.344,239.38 85.992,239.098 86.448,238.534C86.916,237.958 87.15,237.142 87.15,236.086C87.15,235.066 86.94,234.262 86.52,233.674C86.1,233.074 85.53,232.774 84.81,232.774ZM93.712,234.52L93.712,241L91.696,241L91.696,231.19L93.712,231.19L93.712,232.36L93.784,232.414C94.12,231.958 94.522,231.61 94.99,231.37C95.47,231.118 95.998,230.992 96.574,230.992C96.682,230.992 96.784,230.998 96.88,231.01C96.988,231.01 97.09,231.016 97.186,231.028L97.186,233.224C97.126,233.212 97.066,233.206 97.006,233.206L96.79,233.206C96.046,233.206 95.404,233.326 94.864,233.566C94.336,233.794 93.952,234.112 93.712,234.52ZM107.497,236.104C107.497,237.628 107.095,238.858 106.291,239.794C105.487,240.73 104.407,241.198 103.051,241.198C101.707,241.198 100.633,240.73 99.829,239.794C99.025,238.858 98.623,237.628 98.623,236.104C98.623,234.58 99.025,233.35 99.829,232.414C100.633,231.466 101.707,230.992 103.051,230.992C104.395,230.992 105.469,231.466 106.273,232.414C107.089,233.35 107.497,234.58 107.497,236.104ZM105.463,236.104C105.463,235.096 105.247,234.292 104.815,233.692C104.383,233.092 103.795,232.792 103.051,232.792C102.295,232.792 101.707,233.092 101.287,233.692C100.867,234.28 100.657,235.084 100.657,236.104C100.657,237.124 100.867,237.928 101.287,238.516C101.707,239.104 102.295,239.398 103.051,239.398C103.795,239.398 104.383,239.104 104.815,238.516C105.247,237.916 105.463,237.112 105.463,236.104ZM112.029,233.746L112.029,241L110.013,241L110.013,231.19L112.029,231.19L112.029,231.91L112.083,231.964C112.539,231.628 113.001,231.382 113.469,231.226C113.949,231.07 114.447,230.992 114.963,230.992C115.539,230.992 116.025,231.088 116.421,231.28C116.829,231.472 117.129,231.754 117.321,232.126C117.801,231.754 118.323,231.472 118.887,231.28C119.451,231.088 120.033,230.992 120.633,230.992C121.605,230.992 122.325,231.25 122.793,231.766C123.273,232.282 123.513,233.068 123.513,234.124L123.513,241L121.497,241L121.497,234.79C121.497,234.082 121.383,233.572 121.155,233.26C120.939,232.948 120.573,232.792 120.057,232.792C119.613,232.792 119.169,232.888 118.725,233.08C118.281,233.272 117.963,233.5 117.771,233.764L117.771,241L115.755,241L115.755,234.898C115.755,234.118 115.647,233.572 115.431,233.26C115.227,232.948 114.861,232.792 114.333,232.792C113.877,232.792 113.427,232.882 112.983,233.062C112.539,233.242 112.221,233.47 112.029,233.746ZM133.875,240.64C133.371,240.832 132.879,240.97 132.399,241.054C131.919,241.15 131.439,241.198 130.959,241.198C129.411,241.198 128.199,240.76 127.323,239.884C126.459,238.996 126.027,237.754 126.027,236.158C126.027,234.586 126.435,233.332 127.251,232.396C128.067,231.46 129.171,230.992 130.563,230.992C131.751,230.992 132.669,231.352 133.317,232.072C133.965,232.78 134.289,233.77 134.289,235.042C134.289,235.33 134.271,235.63 134.235,235.942C134.199,236.254 134.145,236.566 134.073,236.878L127.989,236.878C128.109,237.73 128.415,238.366 128.907,238.786C129.399,239.206 130.089,239.416 130.977,239.416C131.421,239.416 131.883,239.368 132.363,239.272C132.855,239.164 133.359,239.008 133.875,238.804L133.875,240.64ZM132.453,234.664C132.465,234.04 132.285,233.542 131.913,233.17C131.553,232.786 131.049,232.594 130.401,232.594C129.693,232.594 129.129,232.828 128.709,233.296C128.289,233.764 128.049,234.43 127.989,235.294L132.399,235.294C132.411,235.198 132.423,235.096 132.435,234.988C132.447,234.868 132.453,234.76 132.453,234.664ZM138.818,233.764L138.818,241L136.802,241L136.802,231.19L138.818,231.19L138.818,231.91L138.872,231.964C139.328,231.64 139.802,231.4 140.294,231.244C140.786,231.076 141.296,230.992 141.824,230.992C142.772,230.992 143.492,231.256 143.984,231.784C144.476,232.312 144.722,233.092 144.722,234.124L144.722,241L142.706,241L142.706,234.79C142.706,234.058 142.598,233.542 142.382,233.242C142.166,232.942 141.8,232.792 141.284,232.792C140.816,232.792 140.336,232.888 139.844,233.08C139.364,233.272 139.022,233.5 138.818,233.764ZM155.092,240.64C154.588,240.832 154.096,240.97 153.616,241.054C153.136,241.15 152.656,241.198 152.176,241.198C150.628,241.198 149.416,240.76 148.54,239.884C147.676,238.996 147.244,237.754 147.244,236.158C147.244,234.586 147.652,233.332 148.468,232.396C149.284,231.46 150.388,230.992 151.78,230.992C152.968,230.992 153.886,231.352 154.534,232.072C155.182,232.78 155.506,233.77 155.506,235.042C155.506,235.33 155.488,235.63 155.452,235.942C155.416,236.254 155.362,236.566 155.29,236.878L149.206,236.878C149.326,237.73 149.632,238.366 150.124,238.786C150.616,239.206 151.306,239.416 152.194,239.416C152.638,239.416 153.1,239.368 153.58,239.272C154.072,239.164 154.576,239.008 155.092,238.804L155.092,240.64ZM153.67,234.664C153.682,234.04 153.502,233.542 153.13,233.17C152.77,232.786 152.266,232.594 151.618,232.594C150.91,232.594 150.346,232.828 149.926,233.296C149.506,233.764 149.266,234.43 149.206,235.294L153.616,235.294C153.628,235.198 153.64,235.096 153.652,234.988C153.664,234.868 153.67,234.76 153.67,234.664ZM160.034,234.52L160.034,241L158.018,241L158.018,231.19L160.034,231.19L160.034,232.36L160.106,232.414C160.442,231.958 160.844,231.61 161.312,231.37C161.792,231.118 162.32,230.992 162.896,230.992C163.004,230.992 163.106,230.998 163.202,231.01C163.31,231.01 163.412,231.016 163.508,231.028L163.508,233.224C163.448,233.212 163.388,233.206 163.328,233.206L163.112,233.206C162.368,233.206 161.726,233.326 161.186,233.566C160.658,233.794 160.274,234.112 160.034,234.52ZM174.115,226.762L174.115,241L172.099,241L172.099,226.762L174.115,226.762ZM184.482,240.64C183.978,240.832 183.486,240.97 183.006,241.054C182.526,241.15 182.046,241.198 181.566,241.198C180.018,241.198 178.806,240.76 177.93,239.884C177.066,238.996 176.634,237.754 176.634,236.158C176.634,234.586 177.042,233.332 177.858,232.396C178.674,231.46 179.778,230.992 181.17,230.992C182.358,230.992 183.276,231.352 183.924,232.072C184.572,232.78 184.896,233.77 184.896,235.042C184.896,235.33 184.878,235.63 184.842,235.942C184.806,236.254 184.752,236.566 184.68,236.878L178.596,236.878C178.716,237.73 179.022,238.366 179.514,238.786C180.006,239.206 180.696,239.416 181.584,239.416C182.028,239.416 182.49,239.368 182.97,239.272C183.462,239.164 183.966,239.008 184.482,238.804L184.482,240.64ZM183.06,234.664C183.072,234.04 182.892,233.542 182.52,233.17C182.16,232.786 181.656,232.594 181.008,232.594C180.3,232.594 179.736,232.828 179.316,233.296C178.896,233.764 178.656,234.43 178.596,235.294L183.006,235.294C183.018,235.198 183.03,235.096 183.042,234.988C183.054,234.868 183.06,234.76 183.06,234.664ZM200.215,240.532C199.903,240.736 199.501,240.898 199.009,241.018C198.529,241.138 198.043,241.198 197.551,241.198C196.183,241.198 195.103,240.736 194.311,239.812C193.519,238.888 193.123,237.652 193.123,236.104C193.123,234.556 193.519,233.32 194.311,232.396C195.115,231.46 196.201,230.992 197.569,230.992C198.061,230.992 198.547,231.052 199.027,231.172C199.507,231.28 199.885,231.424 200.161,231.604L200.161,233.548C199.945,233.332 199.603,233.158 199.135,233.026C198.679,232.882 198.211,232.81 197.731,232.81C196.855,232.81 196.207,233.074 195.787,233.602C195.367,234.13 195.157,234.934 195.157,236.014C195.157,237.142 195.367,237.988 195.787,238.552C196.207,239.104 196.843,239.38 197.695,239.38C198.139,239.38 198.601,239.308 199.081,239.164C199.573,239.02 199.951,238.846 200.215,238.642L200.215,240.532ZM204.753,233.764L204.753,241L202.737,241L202.737,226.762L204.753,226.762L204.753,231.91L204.807,231.964C205.275,231.628 205.749,231.382 206.229,231.226C206.721,231.07 207.225,230.992 207.741,230.992C208.701,230.992 209.427,231.256 209.919,231.784C210.411,232.312 210.657,233.092 210.657,234.124L210.657,241L208.641,241L208.641,234.79C208.641,234.07 208.527,233.56 208.299,233.26C208.083,232.948 207.717,232.792 207.201,232.792C206.745,232.792 206.271,232.888 205.779,233.08C205.287,233.272 204.945,233.5 204.753,233.764ZM216.311,227.482C216.311,227.878 216.173,228.214 215.897,228.49C215.633,228.754 215.303,228.886 214.907,228.886C214.511,228.886 214.175,228.754 213.899,228.49C213.635,228.214 213.503,227.878 213.503,227.482C213.503,227.086 213.635,226.756 213.899,226.492C214.175,226.216 214.511,226.078 214.907,226.078C215.303,226.078 215.633,226.216 215.897,226.492C216.173,226.756 216.311,227.086 216.311,227.482ZM215.915,231.19L215.915,241L213.899,241L213.899,231.19L215.915,231.19ZM226.283,240.64C225.779,240.832 225.287,240.97 224.807,241.054C224.327,241.15 223.847,241.198 223.367,241.198C221.819,241.198 220.607,240.76 219.731,239.884C218.867,238.996 218.435,237.754 218.435,236.158C218.435,234.586 218.843,233.332 219.659,232.396C220.475,231.46 221.579,230.992 222.971,230.992C224.159,230.992 225.077,231.352 225.725,232.072C226.373,232.78 226.697,233.77 226.697,235.042C226.697,235.33 226.679,235.63 226.643,235.942C226.607,236.254 226.553,236.566 226.481,236.878L220.397,236.878C220.517,237.73 220.823,238.366 221.315,238.786C221.807,239.206 222.497,239.416 223.385,239.416C223.829,239.416 224.291,239.368 224.771,239.272C225.263,239.164 225.767,239.008 226.283,238.804L226.283,240.64ZM224.861,234.664C224.873,234.04 224.693,233.542 224.321,233.17C223.961,232.786 223.457,232.594 222.809,232.594C222.101,232.594 221.537,232.828 221.117,233.296C220.697,233.764 220.457,234.43 220.397,235.294L224.807,235.294C224.819,235.198 224.831,235.096 224.843,234.988C224.855,234.868 224.861,234.76 224.861,234.664ZM231.226,233.764L231.226,241L229.21,241L229.21,231.19L231.226,231.19L231.226,231.91L231.28,231.964C231.736,231.64 232.21,231.4 232.702,231.244C233.194,231.076 233.704,230.992 234.232,230.992C235.18,230.992 235.9,231.256 236.392,231.784C236.884,232.312 237.13,233.092 237.13,234.124L237.13,241L235.114,241L235.114,234.79C235.114,234.058 235.006,233.542 234.79,233.242C234.574,232.942 234.208,232.792 233.692,232.792C233.224,232.792 232.744,232.888 232.252,233.08C231.772,233.272 231.43,233.5 231.226,233.764Z" style="fill:rgb(1,0,0);fill-rule:nonzero;"/>
                <path d="M86.314,320.082C86.002,320.418 85.594,320.688 85.09,320.892C84.598,321.096 84.07,321.198 83.506,321.198C82.582,321.198 81.844,320.922 81.292,320.37C80.74,319.818 80.464,319.092 80.464,318.192C80.464,317.184 80.83,316.41 81.562,315.87C82.306,315.318 83.368,315.042 84.748,315.042L86.116,315.042C86.128,315.006 86.134,314.964 86.134,314.916L86.134,314.664C86.134,313.968 85.978,313.482 85.666,313.206C85.366,312.93 84.838,312.792 84.082,312.792C83.59,312.792 83.11,312.846 82.642,312.954C82.186,313.062 81.706,313.236 81.202,313.476L81.202,311.622C81.406,311.526 81.64,311.442 81.904,311.37C82.18,311.286 82.48,311.214 82.804,311.154C83.08,311.094 83.362,311.052 83.65,311.028C83.938,311.004 84.22,310.992 84.496,310.992C85.792,310.992 86.722,311.304 87.286,311.928C87.85,312.552 88.132,313.554 88.132,314.934L88.132,321L86.674,321L86.368,320.1L86.314,320.082ZM84.964,316.536C84.124,316.536 83.5,316.656 83.092,316.896C82.696,317.136 82.498,317.52 82.498,318.048C82.498,318.528 82.63,318.894 82.894,319.146C83.158,319.398 83.542,319.524 84.046,319.524C84.514,319.524 84.958,319.422 85.378,319.218C85.81,319.014 86.11,318.774 86.278,318.498L86.278,316.536L84.964,316.536ZM97.571,320.532C97.259,320.736 96.857,320.898 96.365,321.018C95.885,321.138 95.399,321.198 94.907,321.198C93.539,321.198 92.459,320.736 91.667,319.812C90.875,318.888 90.479,317.652 90.479,316.104C90.479,314.556 90.875,313.32 91.667,312.396C92.471,311.46 93.557,310.992 94.925,310.992C95.417,310.992 95.903,311.052 96.383,311.172C96.863,311.28 97.241,311.424 97.517,311.604L97.517,313.548C97.301,313.332 96.959,313.158 96.491,313.026C96.035,312.882 95.567,312.81 95.087,312.81C94.211,312.81 93.563,313.074 93.143,313.602C92.723,314.13 92.513,314.934 92.513,316.014C92.513,317.142 92.723,317.988 93.143,318.552C93.563,319.104 94.199,319.38 95.051,319.38C95.495,319.38 95.957,319.308 96.437,319.164C96.929,319.02 97.307,318.846 97.571,318.642L97.571,320.532ZM102.11,313.764L102.11,321L100.094,321L100.094,306.762L102.11,306.762L102.11,311.91L102.164,311.964C102.632,311.628 103.106,311.382 103.586,311.226C104.078,311.07 104.582,310.992 105.098,310.992C106.058,310.992 106.784,311.256 107.276,311.784C107.768,312.312 108.014,313.092 108.014,314.124L108.014,321L105.998,321L105.998,314.79C105.998,314.07 105.884,313.56 105.656,313.26C105.44,312.948 105.074,312.792 104.558,312.792C104.102,312.792 103.628,312.888 103.136,313.08C102.644,313.272 102.302,313.5 102.11,313.764ZM118.384,320.64C117.88,320.832 117.388,320.97 116.908,321.054C116.428,321.15 115.948,321.198 115.468,321.198C113.92,321.198 112.708,320.76 111.832,319.884C110.968,318.996 110.536,317.754 110.536,316.158C110.536,314.586 110.944,313.332 111.76,312.396C112.576,311.46 113.68,310.992 115.072,310.992C116.26,310.992 117.178,311.352 117.826,312.072C118.474,312.78 118.798,313.77 118.798,315.042C118.798,315.33 118.78,315.63 118.744,315.942C118.708,316.254 118.654,316.566 118.582,316.878L112.498,316.878C112.618,317.73 112.924,318.366 113.416,318.786C113.908,319.206 114.598,319.416 115.486,319.416C115.93,319.416 116.392,319.368 116.872,319.272C117.364,319.164 117.868,319.008 118.384,318.804L118.384,320.64ZM116.962,314.664C116.974,314.04 116.794,313.542 116.422,313.17C116.062,312.786 115.558,312.594 114.91,312.594C114.202,312.594 113.638,312.828 113.218,313.296C112.798,313.764 112.558,314.43 112.498,315.294L116.908,315.294C116.92,315.198 116.932,315.096 116.944,314.988C116.956,314.868 116.962,314.76 116.962,314.664ZM126.764,320.856C126.5,320.964 126.206,321.048 125.882,321.108C125.558,321.168 125.228,321.198 124.892,321.198C123.86,321.198 123.086,320.91 122.57,320.334C122.066,319.758 121.814,318.894 121.814,317.742L121.814,312.918L120.23,312.918L120.23,311.19L121.814,311.19L121.814,308.598L123.83,308.598L123.83,311.19L126.566,311.19L126.566,312.918L123.83,312.918L123.83,316.626C123.83,317.694 123.932,318.42 124.136,318.804C124.352,319.188 124.748,319.38 125.324,319.38C125.552,319.38 125.792,319.356 126.044,319.308C126.308,319.26 126.548,319.2 126.764,319.128L126.764,320.856ZM136.243,320.64C135.739,320.832 135.247,320.97 134.767,321.054C134.287,321.15 133.807,321.198 133.327,321.198C131.779,321.198 130.567,320.76 129.691,319.884C128.827,318.996 128.395,317.754 128.395,316.158C128.395,314.586 128.803,313.332 129.619,312.396C130.435,311.46 131.539,310.992 132.931,310.992C134.119,310.992 135.037,311.352 135.685,312.072C136.333,312.78 136.657,313.77 136.657,315.042C136.657,315.33 136.639,315.63 136.603,315.942C136.567,316.254 136.513,316.566 136.441,316.878L130.357,316.878C130.477,317.73 130.783,318.366 131.275,318.786C131.767,319.206 132.457,319.416 133.345,319.416C133.789,319.416 134.251,319.368 134.731,319.272C135.223,319.164 135.727,319.008 136.243,318.804L136.243,320.64ZM134.821,314.664C134.833,314.04 134.653,313.542 134.281,313.17C133.921,312.786 133.417,312.594 132.769,312.594C132.061,312.594 131.497,312.828 131.077,313.296C130.657,313.764 130.417,314.43 130.357,315.294L134.767,315.294C134.779,315.198 134.791,315.096 134.803,314.988C134.815,314.868 134.821,314.76 134.821,314.664ZM141.186,314.52L141.186,321L139.17,321L139.17,311.19L141.186,311.19L141.186,312.36L141.258,312.414C141.594,311.958 141.996,311.61 142.464,311.37C142.944,311.118 143.472,310.992 144.048,310.992C144.156,310.992 144.258,310.998 144.354,311.01C144.462,311.01 144.564,311.016 144.66,311.028L144.66,313.224C144.6,313.212 144.54,313.206 144.48,313.206L144.264,313.206C143.52,313.206 142.878,313.326 142.338,313.566C141.81,313.794 141.426,314.112 141.186,314.52ZM158.758,320.244C158.47,320.544 158.11,320.778 157.678,320.946C157.258,321.114 156.814,321.198 156.346,321.198C155.218,321.198 154.3,320.73 153.592,319.794C152.884,318.858 152.53,317.658 152.53,316.194C152.53,314.646 152.926,313.392 153.718,312.432C154.522,311.472 155.59,310.992 156.922,310.992C157.342,310.992 157.702,311.028 158.002,311.1C158.314,311.172 158.566,311.286 158.758,311.442L158.812,311.388L158.812,306.762L160.846,306.762L160.846,321L158.812,321L158.812,320.298L158.758,320.244ZM158.812,313.278C158.632,313.134 158.398,313.02 158.11,312.936C157.822,312.852 157.522,312.81 157.21,312.81C156.382,312.81 155.734,313.104 155.266,313.692C154.798,314.268 154.564,315.078 154.564,316.122C154.564,317.13 154.774,317.934 155.194,318.534C155.614,319.122 156.184,319.416 156.904,319.416C157.312,319.416 157.69,319.32 158.038,319.128C158.386,318.936 158.644,318.69 158.812,318.39L158.812,313.278ZM169.928,320.226C169.472,320.55 168.998,320.796 168.506,320.964C168.014,321.12 167.504,321.198 166.976,321.198C166.028,321.198 165.308,320.934 164.816,320.406C164.324,319.878 164.078,319.098 164.078,318.066L164.078,311.19L166.094,311.19L166.094,317.4C166.094,318.132 166.202,318.648 166.418,318.948C166.634,319.248 167,319.398 167.516,319.398C167.972,319.398 168.446,319.302 168.938,319.11C169.442,318.918 169.79,318.69 169.982,318.426L169.982,311.19L171.998,311.19L171.998,321L169.982,321L169.982,320.28L169.928,320.226ZM188.046,320.532C187.734,320.736 187.332,320.898 186.84,321.018C186.36,321.138 185.874,321.198 185.382,321.198C184.014,321.198 182.934,320.736 182.142,319.812C181.35,318.888 180.954,317.652 180.954,316.104C180.954,314.556 181.35,313.32 182.142,312.396C182.946,311.46 184.032,310.992 185.4,310.992C185.892,310.992 186.378,311.052 186.858,311.172C187.338,311.28 187.716,311.424 187.992,311.604L187.992,313.548C187.776,313.332 187.434,313.158 186.966,313.026C186.51,312.882 186.042,312.81 185.562,312.81C184.686,312.81 184.038,313.074 183.618,313.602C183.198,314.13 182.988,314.934 182.988,316.014C182.988,317.142 183.198,317.988 183.618,318.552C184.038,319.104 184.674,319.38 185.526,319.38C185.97,319.38 186.432,319.308 186.912,319.164C187.404,319.02 187.782,318.846 188.046,318.642L188.046,320.532ZM195.878,320.082C195.566,320.418 195.158,320.688 194.654,320.892C194.162,321.096 193.634,321.198 193.07,321.198C192.146,321.198 191.408,320.922 190.856,320.37C190.304,319.818 190.028,319.092 190.028,318.192C190.028,317.184 190.394,316.41 191.126,315.87C191.87,315.318 192.932,315.042 194.312,315.042L195.68,315.042C195.692,315.006 195.698,314.964 195.698,314.916L195.698,314.664C195.698,313.968 195.542,313.482 195.23,313.206C194.93,312.93 194.402,312.792 193.646,312.792C193.154,312.792 192.674,312.846 192.206,312.954C191.75,313.062 191.27,313.236 190.766,313.476L190.766,311.622C190.97,311.526 191.204,311.442 191.468,311.37C191.744,311.286 192.044,311.214 192.368,311.154C192.644,311.094 192.926,311.052 193.214,311.028C193.502,311.004 193.784,310.992 194.06,310.992C195.356,310.992 196.286,311.304 196.85,311.928C197.414,312.552 197.696,313.554 197.696,314.934L197.696,321L196.238,321L195.932,320.1L195.878,320.082ZM194.528,316.536C193.688,316.536 193.064,316.656 192.656,316.896C192.26,317.136 192.062,317.52 192.062,318.048C192.062,318.528 192.194,318.894 192.458,319.146C192.722,319.398 193.106,319.524 193.61,319.524C194.078,319.524 194.522,319.422 194.942,319.218C195.374,319.014 195.674,318.774 195.842,318.498L195.842,316.536L194.528,316.536ZM203.356,312.9L203.356,321L201.34,321L201.34,312.9L199.864,312.9L199.864,311.19L201.34,311.19C201.388,309.57 201.712,308.4 202.312,307.68C202.912,306.948 203.824,306.582 205.048,306.582C205.36,306.582 205.666,306.606 205.966,306.654C206.278,306.702 206.596,306.78 206.92,306.888L206.92,308.76C206.728,308.628 206.488,308.526 206.2,308.454C205.924,308.382 205.618,308.346 205.282,308.346C204.55,308.346 204.046,308.532 203.77,308.904C203.494,309.264 203.356,310.026 203.356,311.19L205.966,311.19L205.966,312.9L203.356,312.9ZM215.148,306.204L211.494,309.372L210.45,308.292L213.402,304.746L215.148,306.204ZM215.31,320.64C214.806,320.832 214.314,320.97 213.834,321.054C213.354,321.15 212.874,321.198 212.394,321.198C210.846,321.198 209.634,320.76 208.758,319.884C207.894,318.996 207.462,317.754 207.462,316.158C207.462,314.586 207.87,313.332 208.686,312.396C209.502,311.46 210.606,310.992 211.998,310.992C213.186,310.992 214.104,311.352 214.752,312.072C215.4,312.78 215.724,313.77 215.724,315.042C215.724,315.33 215.706,315.63 215.67,315.942C215.634,316.254 215.58,316.566 215.508,316.878L209.424,316.878C209.544,317.73 209.85,318.366 210.342,318.786C210.834,319.206 211.524,319.416 212.412,319.416C212.856,319.416 213.318,319.368 213.798,319.272C214.29,319.164 214.794,319.008 215.31,318.804L215.31,320.64ZM213.888,314.664C213.9,314.04 213.72,313.542 213.348,313.17C212.988,312.786 212.484,312.594 211.836,312.594C211.128,312.594 210.564,312.828 210.144,313.296C209.724,313.764 209.484,314.43 209.424,315.294L213.834,315.294C213.846,315.198 213.858,315.096 213.87,314.988C213.882,314.868 213.888,314.76 213.888,314.664Z" style="fill:rgb(1,0,0);fill-rule:nonzero;"/>
                <g>
                    <path d="M29.709,149.003C30.02,149.373 30.327,149.743 30.629,150.121C30.772,150.296 30.91,150.475 31.049,150.649C31.221,150.87 31.209,150.853 31.011,150.6C31.091,150.699 31.171,150.803 31.246,150.907C31.796,151.623 32.334,152.35 32.855,153.086C33.938,154.617 34.963,156.189 35.929,157.794C36.894,159.399 39.25,159.345 40.279,157.794C41.064,156.609 41.871,155.44 42.702,154.288C43.042,153.818 43.387,153.353 43.735,152.887C43.92,152.641 44.105,152.4 44.294,152.155C44.39,152.03 44.743,151.627 44.269,152.184C44.394,152.034 44.512,151.872 44.638,151.718C46.041,149.955 47.531,148.258 49.119,146.657C50.576,145.185 52.117,143.792 53.717,142.465C54.12,142.128 54.532,141.8 54.943,141.471C55.153,141.305 55.359,141.143 55.569,140.977C55.737,140.843 56.606,140.186 55.913,140.706C56.808,140.033 57.702,139.363 58.609,138.706C60.965,136.997 63.359,135.338 65.748,133.67C66.823,132.921 67.432,131.453 66.651,130.256C65.962,129.199 64.354,128.555 63.203,129.362C59.029,132.273 54.822,135.155 50.866,138.353C47.439,141.122 44.311,144.208 41.535,147.618C39.536,150.071 37.684,152.637 35.933,155.274L40.283,155.274C38.213,151.826 35.857,148.562 33.275,145.476C32.431,144.466 30.574,144.545 29.709,145.476C28.714,146.549 28.806,147.93 29.709,149.007L29.709,149.003Z" style="fill:rgb(1,0,0);fill-rule:nonzero;"/>
                </g>
                <g>
                    <path d="M31.709,311.003C32.02,311.373 32.327,311.743 32.629,312.121C32.772,312.296 32.91,312.475 33.049,312.649C33.221,312.87 33.209,312.853 33.011,312.6C33.091,312.699 33.171,312.803 33.246,312.907C33.796,313.623 34.334,314.35 34.855,315.086C35.938,316.617 36.963,318.189 37.929,319.794C38.894,321.399 41.25,321.345 42.279,319.794C43.064,318.609 43.871,317.44 44.702,316.288C45.042,315.818 45.387,315.353 45.735,314.887C45.92,314.641 46.105,314.4 46.294,314.155C46.39,314.03 46.743,313.627 46.269,314.184C46.394,314.034 46.512,313.872 46.638,313.718C48.041,311.955 49.531,310.258 51.119,308.657C52.576,307.185 54.117,305.792 55.717,304.465C56.12,304.128 56.532,303.8 56.943,303.471C57.153,303.305 57.359,303.143 57.569,302.977C57.737,302.843 58.606,302.186 57.913,302.706C58.808,302.033 59.702,301.363 60.609,300.706C62.965,298.997 65.359,297.338 67.748,295.67C68.823,294.921 69.432,293.453 68.651,292.256C67.962,291.199 66.354,290.555 65.203,291.362C61.029,294.273 56.822,297.155 52.866,300.353C49.439,303.122 46.311,306.208 43.535,309.618C41.536,312.071 39.684,314.637 37.933,317.274L42.283,317.274C40.213,313.826 37.857,310.562 35.275,307.476C34.431,306.466 32.574,306.545 31.709,307.476C30.714,308.549 30.806,309.93 31.709,311.007L31.709,311.003Z" style="fill:rgb(1,0,0);fill-rule:nonzero;"/>
                </g>
                <g>
                    <path d="M30.032,226.29L44.879,244.964C45.407,245.623 46.568,246 47.365,246C48.227,246 49.259,245.618 49.851,244.964C50.443,244.311 50.924,243.411 50.883,242.47C50.836,241.476 50.467,240.746 49.851,239.975L35.01,221.295C34.483,220.636 33.322,220.26 32.524,220.26C31.662,220.26 30.63,220.642 30.038,221.295C29.446,221.948 28.959,222.854 29,223.79C29.047,224.784 29.416,225.514 30.032,226.284L30.032,226.29Z" style="fill:rgb(1,0,0);fill-rule:nonzero;"/>
                    <path d="M46.438,216.718L31.416,239.811C30.407,241.358 31.052,243.782 32.676,244.641C34.43,245.571 36.411,245.029 37.49,243.376L52.519,220.283C53.528,218.736 52.883,216.312 51.258,215.453C49.505,214.523 47.523,215.065 46.444,216.718L46.438,216.718Z" style="fill:rgb(1,0,0);fill-rule:nonzero;"/>
                </g>
                <path d="M1,38L477,38" style="fill:none;fill-rule:nonzero;stroke:rgb(1,0,0);stroke-width:2px;"/>
            </g>
        </g>
    </g>
</svg>
