<svg width="1920" height="1920" viewBox="0 0 1920 1920" fill="none" xmlns="http://www.w3.org/2000/svg">
<path d="M2286 221.571H-134V1918.96H2286V221.571Z" fill="#4138E2"/>
<path d="M2399.62 1037.49C2632.11 1186.23 2549.66 1525.52 2270.47 1564.57L2137.35 1583.15C1977.43 1606.39 1862.17 1740.26 1874.05 1891.74L1884 2017.27C1904.86 2280.35 1570.1 2430.9 1363.47 2252.46L1264.1 2166.94C1144.9 2063.75 961.115 2063.75 841.85 2166.94L742.544 2252.46C535.858 2431.84 201.091 2281.29 221.953 2017.27L231.9 1891.74C243.817 1740.26 129.591 1606.39 -31.3984 1583.15L-164.517 1564.57C-443.64 1524.62 -526.089 1186.23 -293.664 1037.49L-182.376 965.905C-48.2885 880.386 -7.53265 713.036 -89.0122 581.01L-156.54 471.317C-296.602 242.622 -65.1464 -28.7708 204.094 48.3773L333.241 85.5765C488.191 130.179 654.153 55.7809 713.705 -85.4911L763.406 -202.649C867.686 -447.117 1239.27 -447.117 1342.58 -202.649L1392.28 -85.4911C1451.9 55.7809 1617.79 130.179 1772.81 85.5765L1901.96 48.3773C2171.2 -28.7708 2402.65 242.622 2262.59 471.317L2195 581.01C2114.58 713.036 2155.31 880.356 2288.43 965.905L2399.65 1037.49H2399.62ZM2089.1 1476.33C2326.76 1443.12 2396.87 1154.38 2199.07 1027.76L2104.38 966.872C1991.09 894.045 1956.41 751.655 2024.87 639.302L2082.35 545.927C2201.62 351.349 2004.59 120.328 1775.49 185.963L1665.53 217.632C1533.64 255.586 1392.41 192.278 1341.74 72.0385L1299.43 -27.6526C1211.5 -235.678 895.266 -235.678 806.52 -27.6526L764.214 72.0385C713.479 192.278 572.286 255.586 440.363 217.632L330.464 185.963C101.301 120.328 -95.6649 351.349 23.5349 545.927L81.0194 639.302C150.356 751.655 115.672 894.045 1.57446 966.872L-93.1136 1027.76C-291.016 1154.38 -220.807 1442.33 16.7852 1476.33L130.075 1492.16C267.005 1511.95 364.244 1625.85 354.136 1754.79L345.642 1861.61C327.912 2086.29 612.816 2214.45 788.693 2061.75L873.273 1988.99C974.743 1901.2 1131.15 1901.2 1232.58 1988.99L1317.1 2061.75C1492.98 2213.66 1777.88 2085.47 1760.15 1861.61L1751.72 1754.79C1741.55 1625.85 1839.66 1511.92 1975.78 1492.16L2089.04 1476.33H2089.1Z" fill="#F488B4"/>
<path d="M2199.07 1027.73C2396.91 1154.35 2326.76 1443.12 2089.11 1476.3L1975.85 1492.13C1839.73 1511.93 1741.61 1625.82 1751.79 1754.76L1760.22 1861.58C1777.95 2085.47 1493.04 2213.66 1317.17 2061.72L1232.65 1988.96C1131.18 1901.17 974.777 1901.17 873.34 1988.96L788.76 2061.72C612.883 2214.39 327.979 2086.26 345.709 1861.58L354.202 1754.76C364.311 1625.82 267.071 1511.9 130.142 1492.13L16.8518 1476.3C-220.74 1442.3 -290.917 1154.35 -93.047 1027.73L1.64107 966.842C115.738 894.015 150.423 751.625 81.086 639.272L23.6014 545.897C-95.5983 351.319 101.367 120.298 330.53 185.933L440.429 217.602C572.321 255.556 713.545 192.248 764.28 72.0083L806.586 -27.6828C895.332 -235.708 1211.56 -235.708 1299.5 -27.6828L1341.81 72.0083C1392.48 192.248 1533.7 255.556 1665.59 217.602L1775.56 185.933C2004.66 120.298 2201.69 351.319 2082.42 545.897L2024.94 639.272C1956.47 751.625 1991.12 894.015 2104.45 966.842L2199.13 1027.73H2199.07ZM1907.8 1388.12C2103.8 1360.71 2161.67 1122.44 1998.45 1018.06L1920.33 967.779C1826.84 907.765 1798.29 790.275 1854.74 697.564L1902.18 620.567C2000.52 459.985 1838.05 269.427 1648.99 323.609L1558.34 349.717C1449.48 381.024 1333.02 328.806 1291.17 229.629L1256.26 147.343C1183.76 -24.2983 922.88 -24.2983 849.603 147.343L814.757 229.629C772.871 328.776 656.384 380.994 547.583 349.717L456.867 323.609C267.879 269.427 105.339 460.015 203.677 620.567L251.118 697.564C308.312 790.275 279.731 907.765 185.527 967.779L107.406 1018.06C-55.8112 1122.47 2.06088 1360.08 198.122 1388.12L291.551 1401.14C404.55 1417.46 484.77 1511.5 476.373 1617.84L469.43 1705.96C454.768 1891.35 689.841 1997.02 834.941 1871.07L904.666 1811.06C988.373 1738.63 1117.39 1738.63 1201.13 1811.06L1270.85 1871.07C1415.92 1996.39 1650.96 1890.69 1636.37 1705.96L1629.39 1617.84C1621.03 1511.5 1701.96 1417.49 1814.21 1401.14L1907.71 1388.12H1907.8Z" fill="#4138E2"/>
<path d="M1998.45 1018.06C2161.67 1122.47 2103.8 1360.71 1907.8 1388.12L1814.31 1401.14C1702.05 1417.46 1621.09 1511.5 1629.48 1617.84L1636.46 1705.96C1651.09 1890.68 1416.05 1996.39 1270.95 1871.07L1201.22 1811.06C1117.52 1738.62 988.5 1738.62 904.759 1811.06L835.035 1871.07C689.967 1997.05 454.862 1891.35 469.524 1705.96L476.467 1617.84C484.831 1511.5 404.644 1417.49 291.645 1401.14L198.216 1388.12C2.1872 1360.05 -55.7172 1122.44 107.5 1018.06L185.621 967.778C279.792 907.764 308.406 790.274 251.212 697.563L203.771 620.566C105.433 459.985 267.973 269.426 456.961 323.608L547.677 349.717C656.478 381.023 772.965 328.806 814.851 229.628L849.697 147.343C922.974 -24.2988 1183.82 -24.2988 1256.35 147.343L1291.26 229.628C1333.08 328.775 1449.57 380.993 1558.44 349.717L1649.09 323.608C1838.14 269.426 2000.62 460.015 1902.28 620.566L1854.84 697.563C1798.39 790.274 1826.93 907.764 1920.43 967.778L1998.55 1018.06H1998.45ZM1726.43 1299.91C1880.87 1278.33 1926.47 1090.62 1797.9 1008.33L1736.38 968.745C1662.72 921.453 1640.17 828.893 1684.68 755.855L1722.07 695.206C1799.55 568.711 1671.53 418.555 1522.62 461.224L1451.15 481.833C1365.41 506.491 1273.66 465.394 1240.66 387.218L1213.21 322.399C1156.08 187.171 950.489 187.171 892.843 322.399L865.328 387.218C832.387 465.394 740.573 506.491 654.831 481.833L583.427 461.224C434.484 418.555 306.436 568.711 383.91 695.206L421.308 755.855C466.359 828.893 443.849 921.453 369.669 968.745L308.147 1008.33C179.517 1090.62 225.182 1277.79 379.551 1299.91L453.215 1310.25C542.251 1323.06 605.388 1397.12 598.832 1480.92L593.342 1550.33C581.78 1696.41 767.022 1779.66 881.313 1680.45L936.247 1633.16C1002.16 1576.08 1103.86 1576.08 1169.77 1633.16L1224.77 1680.45C1339.06 1779.18 1524.24 1695.87 1512.67 1550.33L1507.18 1480.92C1500.6 1397.12 1564.31 1323.06 1652.83 1310.25L1726.43 1299.91Z" fill="#F488B4"/>
<path d="M1797.9 1008.33C1926.47 1090.62 1880.87 1278.34 1726.43 1299.91L1652.83 1310.25C1564.31 1323.06 1500.6 1397.12 1507.19 1480.92L1512.68 1550.33C1524.24 1695.87 1339.06 1779.18 1224.77 1680.45L1169.77 1633.16C1103.86 1576.08 1002.16 1576.08 936.247 1633.16L881.314 1680.45C767.023 1779.66 581.781 1696.41 593.342 1550.33L598.832 1480.92C605.42 1397.12 542.252 1323.06 453.215 1310.25L379.551 1299.91C225.182 1277.79 179.518 1090.62 308.148 1008.33L369.669 968.746C443.85 921.454 466.392 828.894 421.308 755.856L383.911 695.207C306.436 568.712 434.452 418.555 583.428 461.224L654.831 481.833C740.573 506.492 832.387 465.394 865.328 387.219L892.843 322.4C950.521 187.172 1156.08 187.172 1213.21 322.4L1240.66 387.219C1273.66 465.394 1365.41 506.492 1451.15 481.833L1522.62 461.224C1671.5 418.555 1799.55 568.712 1722.07 695.207L1684.68 755.856C1640.17 828.894 1662.72 921.454 1736.38 968.746L1797.9 1008.33ZM1545.13 1211.73C1657.97 1195.96 1691.3 1058.8 1597.32 998.662L1552.37 969.743C1498.53 935.143 1482.06 867.513 1514.58 814.208L1541.9 769.817C1598.51 677.408 1504.99 567.684 1396.12 598.87L1343.94 613.889C1281.25 631.959 1214.21 601.892 1190.12 544.748L1170 497.456C1128.21 398.641 978.069 398.641 935.892 497.456L915.837 544.748C891.745 601.892 824.669 631.959 762.017 613.889L709.797 598.87C600.996 567.684 507.406 677.438 564.018 769.817L591.34 814.208C624.28 867.513 607.81 935.143 553.62 969.743L508.601 998.662C414.655 1058.77 447.984 1195.57 560.821 1211.73L614.624 1219.26C679.698 1228.66 725.847 1282.72 721.068 1343.97L717.031 1394.74C708.602 1501.41 843.981 1562.27 927.463 1489.77L967.605 1455.24C1015.79 1413.5 1090.1 1413.5 1138.28 1455.24L1178.43 1489.77C1261.97 1561.91 1397.29 1501.02 1388.86 1394.74L1384.89 1343.97C1380.04 1282.72 1426.61 1228.66 1491.26 1219.26L1545.1 1211.73H1545.13Z" fill="#4138E2"/>
<path d="M1597.32 998.662C1691.33 1058.77 1658 1195.93 1545.13 1211.73L1491.29 1219.26C1426.64 1228.66 1380.07 1282.72 1384.92 1343.97L1388.89 1394.74C1397.32 1501.02 1262 1561.91 1178.46 1489.77L1138.31 1455.23C1090.13 1413.5 1015.82 1413.5 967.636 1455.23L927.494 1489.77C844.012 1562.27 708.633 1501.41 717.061 1394.74L721.098 1343.97C725.878 1282.72 679.729 1228.66 614.655 1219.26L560.852 1211.73C448.014 1195.57 414.686 1058.8 508.631 998.662L553.65 969.743C607.841 935.142 624.311 867.513 591.37 814.207L564.049 769.816C507.437 677.408 601.027 567.684 709.827 598.87L762.048 613.888C824.667 631.959 891.776 601.891 915.868 544.748L935.923 497.456C978.099 398.641 1128.27 398.641 1170.03 497.456L1190.15 544.748C1214.24 601.891 1281.25 631.959 1343.97 613.888L1396.15 598.87C1505.02 567.684 1598.55 677.438 1541.93 769.816L1514.61 814.207C1482.09 867.513 1498.56 935.142 1552.4 969.743L1597.35 998.662H1597.32ZM1363.8 1123.49C1435.04 1113.55 1456.13 1026.95 1396.8 988.992L1368.38 970.71C1334.41 948.862 1324.01 906.163 1344.58 872.469L1361.79 844.456C1397.54 786.074 1338.44 716.752 1269.75 736.485L1236.75 745.944C1197.15 757.336 1154.82 738.389 1139.64 702.308L1126.98 672.422C1100.56 609.99 1005.74 609.99 979.133 672.422L966.409 702.308C951.198 738.359 908.86 757.336 869.299 745.944L836.358 736.485C767.603 716.752 708.568 786.074 744.254 844.456L761.531 872.469C782.329 906.163 771.93 948.862 737.666 970.71L709.311 988.992C649.985 1026.95 671.009 1113.34 742.251 1123.49L776.29 1128.24C817.369 1134.19 846.499 1168.37 843.495 1207.02L840.944 1239.08C835.615 1306.44 921.067 1344.88 973.837 1299.1L999.188 1277.25C1029.58 1250.93 1076.5 1250.93 1106.96 1277.25L1132.31 1299.1C1185.04 1344.66 1270.5 1306.23 1265.2 1239.08L1262.65 1207.02C1259.58 1168.37 1289 1134.19 1329.85 1128.24L1363.83 1123.49H1363.8Z" fill="#F488B4"/>
<path d="M1396.77 988.992C1456.09 1026.95 1435.01 1113.55 1363.76 1123.49L1329.79 1128.24C1288.94 1134.19 1259.52 1168.37 1262.59 1207.02L1265.14 1239.08C1270.47 1306.23 1185.01 1344.67 1132.24 1299.1L1106.89 1277.25C1076.44 1250.93 1029.51 1250.93 999.125 1277.25L973.774 1299.1C921.036 1344.88 835.585 1306.44 840.881 1239.08L843.432 1207.02C846.436 1168.37 817.306 1134.19 776.227 1128.24L742.188 1123.49C670.946 1113.34 649.922 1026.95 709.248 988.992L737.602 970.71C771.867 948.862 782.266 906.163 761.468 872.469L744.191 844.456C708.473 786.074 767.54 716.753 836.295 736.485L869.236 745.944C908.829 757.336 951.167 738.389 966.346 702.308L979.07 672.422C1005.71 609.99 1100.53 609.99 1126.91 672.422L1139.57 702.308C1154.79 738.359 1197.12 757.336 1236.68 745.944L1269.69 736.485C1338.38 716.753 1397.48 786.074 1361.73 844.456L1344.52 872.469C1323.94 906.163 1334.34 948.862 1368.32 970.71L1396.74 988.992H1396.77Z" fill="#4138E2"/>
</svg>
