<?xml version="1.0" encoding="UTF-8"?><svg id="Calque_1" xmlns="http://www.w3.org/2000/svg" viewBox="0 0 232.78 234.14"><defs><style>.cls-1{fill:#faf9fc;}</style></defs><path d="M193.94,223.08c.04,1.22-.44,2.3-1.45,3.21-3.58,3.24-14.59,4.35-32.73,3.3-12.38-.72-24.04-2.23-25.75-2.46h-.17c-.49-.05-.72-.07-.88-1.23v-.03c-.14-1.05-.24-3.02-.42-6.75-.16-3.22-.32-6.38-.48-9.5h.32c.1-.01,.76,.18,1.7,.45,.15,2.94,.3,5.92,.45,8.96,.13,2.75,.25,5.07,.32,6.19,14.28,1.9,50.03,5.27,56.3-.41,.56-.51,.81-1.03,.79-1.66-.12-3.28-.25-6.85-.39-10.66-.04-1.08-.08-2.18-.12-3.3l1.42,.79,.03-.04c.17-.3,.32-.6,.46-.9l.02-.05h.07c.18,5.12,.36,9.84,.51,14.09Z"/><path d="M193.43,208.99h-.07l-1.81-.84-.02,.04c-.04,.09-.09,.18-.13,.27-1.35-36.67-3.49-93.01-5.14-136.39,.33,.03,.66,.04,.99,.04v-2l.94-.04c1.67,43.86,3.87,101.73,5.24,138.92Z"/><path d="M193.36,208.99l-.02,.05c-.14,.3-.29,.6-.46,.9l-.03,.04-1.42-.79c0-.24-.02-.49-.03-.73,.04-.09,.09-.18,.13-.27l.02-.04,1.81,.84Z"/><path class="cls-1" d="M191.94,223.15c.02,.63-.23,1.15-.79,1.66-6.27,5.68-42.02,2.31-56.3,.41-.07-1.12-.19-3.44-.32-6.19-.15-3.04-.3-6.02-.45-8.96,1.05,.31,2.46,.75,3.84,1.17l.04,.02,2.79,.85h.05c1.98,.59,3.94,1.14,5.81,1.65h.05l.51-1.93,2.8,.72-.48,1.9,.04,.05c2.05,.51,4.03,.97,5.89,1.37h.05l.41-1.96,2.83,.57-.36,1.92,.04,.05c2.16,.4,4.12,.71,5.99,.96h.05l.25-1.99,2.85,.32-.19,2h.05c2.16,.2,4.21,.3,6.08,.3h.06v-1.95l-.06-.05,2.9-.09,.12,1.95,.05,.05h0c2.23-.15,4.28-.45,6.1-.93h.05l-.49-1.93h-.05l2.67-.86,.74,1.8,.06,.03h0c2.13-.88,3.91-2.06,5.31-3.51l.03-.04,.57-.02c.14,3.81,.27,7.38,.39,10.66Z"/><path class="cls-1" d="M191.55,212.49l-.57,.02-1.44-1.38-.03,.03c-1.2,1.25-2.76,2.28-4.63,3.05l-.05,.02-2.67,.86c-1.69,.44-3.62,.72-5.74,.86h-.05l-2.9,.09c-1.84,0-3.82-.1-5.89-.3h-.05l-2.85-.32h-.05c-1.89-.24-3.87-.56-5.88-.94h-.04l-2.83-.57h-.05c-1.86-.4-3.82-.85-5.81-1.36h-.05l-2.8-.72-.05-.02c-1.87-.5-3.8-1.04-5.75-1.62h0l-.61,1.92-2.79-.85,.59-1.91-.05-.02c-.87-.26-1.65-.5-2.33-.71-.88-.27-1.62-.5-2.21-.67-3.58-67.22-8.62-109.24-15-124.97l-2.04,.3-11.33,124.69c-.56,.34-1.16,.68-1.82,1.05l-.07-.15v.22l-2.54,1.33-.05,.03c-1.75,.89-3.54,1.73-5.32,2.47l-.09,.06-2.7,1.05c-1.87,.71-3.76,1.33-5.62,1.86l-.05,.02-2.81,.74c-1.92,.47-3.87,.86-5.8,1.17h-.05l-2.89,.38c-1.95,.22-3.93,.37-5.9,.43h-.05l-2.85,.04h-.05c-1.97-.02-3.96-.12-5.91-.3h-.05l-2.84-.32h-.05c-1.98-.27-3.94-.62-5.83-1.05h-.04l-2.77-.68-.05-.02c-1.92-.52-3.38-1.02-4.39-1.4,4.58-33.6,6.82-95.5,7.89-142.41,.61-.09,1.22-.23,1.82-.44l-.65-1.89,2.32-1.12,1.07,1.69,.04-.03c1.53-.97,3.04-2.31,4.51-3.99l.03-.03-1.51-1.32,1.67-2.1,1.62,1.18,.03-.04c1.08-1.49,2.13-3.17,3.12-4.99l.02-.04-1.76-.96,1.24-2.42,1.8,.87,.03-.05c.83-1.72,1.6-3.52,2.32-5.35v-.05l-1.86-.72,.93-2.57,1.89,.65,.02-.05c.62-1.81,1.19-3.68,1.68-5.57l.02-.05-1.95-.51,.66-2.66,1.91,.43h.41l-.35-.09c.44-1.94,.78-3.86,1.03-5.7v-.05l-1.99-.26,.32-2.73,1.99,.15h.01c.02-.29,.04-.59,.05-.89l2.39,.14h.06c1.94,.35,3.95,.67,5.97,.95h.05l.27-1.99,2.87,.38-.24,2h.05c1.95,.23,3.97,.45,6,.63h.05l.18-1.99,2.88,.23-.14,1.95,.04,.05c2,.15,4.03,.26,6.04,.35h.05l.08-2,2.89,.09-.05,2h.05c.99,.02,1.57,.02,1.57,.02v19.01c0,9.37,7.63,17,17,17h5V32.77l.27,.8,.05-.02c.15-.07,1.09-.2,5.68-.24h.05v-.02l2.92-.04h.05c2.15-.05,4.12-.12,6.03-.22h.05v-.07l2.91-.16h.05v.04c2.04-.14,4.07-.32,6.03-.55h.05v-.07l2.89-.34,.06,.04c.98-.13,1.95-.27,2.91-.43,.03,.72,.08,1.45,.15,2.19l.4,2.93v.05c.31,1.85,.76,3.8,1.34,5.78l-.34,.09h.41l.84,2.76,.02,.05c.65,1.87,1.4,3.74,2.23,5.53l.02,.05,1.82-.84,1.22,2.51-1.77,.93,.02,.04c.94,1.81,1.97,3.54,3.04,5.15l.02,.04,1.67-1.11,1.61,2.27-1.59,1.21,.03,.04c1.26,1.67,2.6,3.19,3.96,4.5v.11l1.44-1.5,2.06,1.81-1.24,1.57,.04,.03c1.72,1.35,3.49,2.41,5.25,3.15l.05,.02,.77-1.85,2.57,.81-.42,1.96c.73,.15,1.47,.26,2.2,.3,1.65,43.38,3.79,99.72,5.14,136.39-.09,.17-.18,.34-.27,.5l-.02,.05,.32,.18c.04,1.12,.08,2.22,.12,3.3Z"/><path d="M191.4,208.46c0,.24,.02,.49,.03,.73l-.32-.18,.02-.05c.09-.16,.18-.33,.27-.5Z"/><path d="M190.98,212.51l-.03,.04c-1.4,1.45-3.18,2.63-5.31,3.51h0l-.06-.03-.74-1.8,.05-.02c1.87-.77,3.43-1.8,4.63-3.05l.03-.03,1.44,1.38Z"/><path d="M188.19,70.07l-.94,.04c-.35,0-.71-.02-1.07-.05-.73-19.27-1.36-35.83-1.78-46.74,.52-.27,1.03-.55,1.53-.83l.04-.03h.4c.42,10.9,1.07,27.83,1.82,47.61Z"/><path d="M187.25,70.11v2c-.33,0-.66-.01-.99-.04-.03-.68-.05-1.35-.08-2.01,.36,.03,.72,.05,1.07,.05Z"/><path d="M186.37,22.45h-.4l-.99-1.73-.04,.03c-.21,.12-.42,.23-.63,.35-.19-5.11-.33-8.72-.4-10.46l.08-.31c.1,.03,.2,.05,.3,.08l1.54-2.17,.04,1.17c0,.27,.19,5.03,.5,13.04Z"/><path d="M186.18,70.06c.03,.66,.05,1.33,.08,2.01-.73-.04-1.47-.15-2.2-.3l.42-1.96c.56,.12,1.13,.21,1.7,.25Z"/><path d="M184.98,20.72l.99,1.74-.04,.03c-.5,.28-1.01,.56-1.53,.83-.03-.77-.06-1.51-.09-2.22,.21-.12,.42-.23,.63-.35l.04-.03Z"/><path d="M185.83,8.24l-1.54,2.17c-.1-.03-.2-.05-.3-.08-1.3-.35-2.6-.69-3.9-1.01,2.85-.52,4.51-.84,4.59-.86l1.15-.22Z"/><path d="M185.83,8.24l-1.15,.22c-.08,.02-1.74,.34-4.59,.86-57.26-14.36-108.86-3.17-123.85,.76-1.96-.36-3.12-.58-3.19-.59l-1.18-.22c.62-.2,63.91-20.06,133.96-1.03Z"/><path class="cls-1" d="M164.43,30.35h.05c2.01-.44,3.99-.94,5.88-1.5h.04l-.55-1.91h-.05l2.79-.84,.62,1.9,.05-.02c1.97-.64,3.89-1.35,5.7-2.1l.05-.02-.77-1.85,2.61-1.15,.85,1.81,.04-.03c.9-.42,1.79-.86,2.66-1.32,.42,10.91,1.05,27.47,1.78,46.74-.57-.04-1.14-.13-1.7-.25l-2.57-.81-.05-.02c-1.61-.67-3.21-1.63-4.78-2.87l-.04-.03-2.06-1.81-.04-.03c-1.29-1.25-2.56-2.7-3.77-4.29l-.03-.04-1.61-2.27-.03-.04c-1.03-1.55-2.02-3.22-2.92-4.96l-.03-.05-1.22-2.51-.02-.04c-.81-1.75-1.54-3.55-2.16-5.36l-.02-.04-1.89,.65-.84-2.76,1.87-.55v-.11h-.02c-.55-1.87-.98-3.74-1.3-5.54v-.05l-1.96,.33-.4-2.92,1.99-.2c-.08-.8-.13-1.59-.13-2.35,.36-.06,.71-.13,1.06-.2h.05l-.37-1.95h-.05l2.86-.58,.43,1.94Z"/><path d="M184.31,21.1c.03,.71,.06,1.45,.09,2.22-.87,.46-1.76,.9-2.66,1.32l-.04,.03-.85-1.81,.04-.03c1.18-.55,2.32-1.13,3.42-1.73Z"/><path d="M183.99,10.33l-.08,.31c-5.66,1.07-31.32,5.77-55.47,8.09v-.12h-2v.31c-3.03,.27-6.02,.51-8.94,.69-2.4,.15-5.51,.08-9.06-.15v-.85h-2v.71c-18.34-1.43-46.39-6.5-52.59-7.65-.01,1.65-.04,4.93-.09,9.53-.28-.15-.55-.3-.82-.46l-.05-.02-1,1.72h-.13c.08-7.34,.11-11.7,.11-11.97v.84c.09-.03,1.61-.51,4.37-1.23,11.07,1.99,47.81,8.37,61.14,7.53,23.42-1.46,51.79-6.32,62.71-8.29,1.3,.32,2.6,.66,3.9,1.01Z"/><path class="cls-1" d="M183.91,10.64c.07,1.74,.21,5.35,.4,10.46-1.1,.6-2.24,1.18-3.42,1.73l-.04,.03-2.61,1.15-.05,.02c-1.77,.74-3.64,1.43-5.55,2.05l-.05,.02-2.79,.84c-1.84,.53-3.78,1.02-5.75,1.45l-.05,.02-2.86,.58c-1.91,.36-3.89,.68-5.88,.96h-.05l.26,1.93-2.9,.34-.22-1.91h-.05c-1.9,.21-3.9,.4-5.94,.54h-.05l.14,1.95-2.91,.16-.11-1.93h-.05c-1.85,.1-3.75,.17-5.97,.22h-.05l.05,2-2.92,.04-.03-1.98h-.05c-.61,0-1.18,.03-1.71,.03-1.98,.03-3.36,.05-4.26,.25v-12.86c24.15-2.32,49.81-7.02,55.47-8.09Z"/><path d="M182.21,215.09l.49,1.93h-.05c-1.82,.48-3.87,.78-6.1,.93h0l-.05-.05-.12-1.95h.05c2.12-.14,4.05-.42,5.74-.86h.05Z"/><path d="M181.91,69l-.77,1.85-.05-.02c-1.76-.74-3.53-1.8-5.25-3.15l-.04-.03,1.24-1.57,.04,.03c1.57,1.24,3.17,2.2,4.78,2.87l.05,.02Z"/><path d="M178.24,24.01l.77,1.85-.05,.02c-1.81,.75-3.73,1.46-5.7,2.1l-.05,.02-.62-1.9,.05-.02c1.91-.62,3.78-1.31,5.55-2.05l.05-.02Z"/><path d="M174.98,64.27l-1.44,1.5v-.11c-1.36-1.31-2.7-2.83-3.96-4.5l-.03-.04,1.59-1.21,.03,.04c1.21,1.59,2.48,3.04,3.77,4.29l.04,.03Z"/><path d="M173.53,216.09v1.95h-.06c-1.87,0-3.92-.1-6.08-.3h-.05l.19-2h.05c2.07,.2,4.05,.3,5.89,.3l.06,.05Z"/><path d="M169.85,26.94l.55,1.91h-.04c-1.89,.56-3.87,1.06-5.88,1.5h-.05l-.43-1.94,.05-.02c1.97-.43,3.91-.92,5.75-1.45h.05Z"/><path d="M169.5,57.6l.03,.04-1.67,1.11-.02-.04c-1.07-1.61-2.1-3.34-3.04-5.15l-.02-.04,1.77-.93,.03,.05c.9,1.74,1.89,3.41,2.92,4.96Z"/><path d="M165.31,50.04l.02,.04-1.82,.84-.02-.05c-.83-1.79-1.58-3.66-2.23-5.53l-.02-.05,1.89-.65,.02,.04c.62,1.81,1.35,3.61,2.16,5.36Z"/><path d="M164.68,215.42l-.25,1.99h-.05c-1.87-.25-3.83-.56-5.99-.96l-.04-.05,.36-1.92h.04c2.01,.38,3.99,.7,5.88,.94h.05Z"/><path class="cls-1" d="M180.09,9.32c-10.92,1.97-39.29,6.83-62.71,8.29-13.33,.84-50.07-5.54-61.14-7.53,14.99-3.93,66.59-15.12,123.85-.76Z"/><path d="M162.27,41.87v.11l-1.87,.55h-.41l.34-.09c-.58-1.98-1.03-3.93-1.34-5.78v-.05l1.96-.33v.05c.32,1.8,.75,3.67,1.3,5.54h.02Z"/><path d="M161.19,28.99l.37,1.95h-.05c-.35,.07-.7,.14-1.06,.2-.02-.18-.02-.36-.02-.54h-2c0,.29,0,.59,0,.89-.96,.16-1.93,.3-2.91,.43l-.06-.04-.26-1.93h.05c1.99-.28,3.97-.6,5.88-.96h.05Z"/><path d="M160.58,33.49l-1.99,.19c-.07-.74-.12-1.47-.15-2.19,.68-.11,1.35-.23,2.01-.35,0,.76,.05,1.55,.13,2.35Z"/><path d="M160.43,30.6c0,.18,0,.36,.02,.54-.66,.12-1.33,.24-2.01,.35,0-.3,0-.6,0-.89h2Z"/><path d="M155.88,213.91l-.41,1.96h-.05c-1.86-.4-3.84-.86-5.89-1.37l-.04-.05,.48-1.9h.05c1.99,.51,3.95,.96,5.81,1.36h.05Z"/><path d="M152.57,32.22v.07h-.04c-1.96,.23-3.99,.41-6.03,.55v-.04h-.05l-.14-1.95h.05c2.04-.14,4.04-.33,5.94-.54h.05l.22,1.91Z"/><path d="M147.17,211.83l-.51,1.93h-.05c-1.87-.51-3.83-1.06-5.81-1.65h-.05l.61-1.92h0c1.95,.58,3.88,1.12,5.75,1.62l.05,.02Z"/><path d="M143.54,32.96v.07h-.05c-1.91,.1-3.88,.17-6.03,.22h-.05l-.05-2h.05c2.22-.05,4.12-.12,5.97-.22h.05l.11,1.93Z"/><path d="M138.55,209.35l-.59,1.91-.04-.02c-1.38-.42-2.79-.86-3.84-1.17-.04-.71-.08-1.42-.12-2.12,.59,.17,1.33,.4,2.21,.67,.68,.21,1.46,.45,2.33,.71l.05,.02Z"/><path d="M134.49,33.29v.02h-.05c-4.59,.04-5.53,.17-5.68,.24l-.05,.02-.27-.8v-1.18c.9-.2,2.28-.22,4.26-.25,.53,0,1.1-.02,1.71-.03h.05l.03,1.98Z"/><path d="M133.96,207.95c.04,.7,.08,1.41,.12,2.12-.94-.27-1.6-.46-1.7-.46h-.06v-.05l.13-1.95h.05c.33,.04,.81,.15,1.46,.34Z"/><path d="M133.96,207.95c-.65-.19-1.13-.3-1.46-.34h-.05l-.13,1.95v.05h-.26c-3.31-62.76-7.85-103.68-13.53-121.87l-11.07,121.76-.47-.04-1.03-1.72-.04,.03c-.11,.07-.22,.13-.33,.2l11.33-124.69,2.04-.3c6.38,15.73,11.42,57.75,15,124.97Z"/><path d="M128.44,32.77v36.84h-5c-9.37,0-17-7.63-17-17v-19.01h.04v-2h-.04v-12.28c.68,.05,1.35,.1,2,.14V52.61c0,8.27,6.73,15,15,15h3V18.92c.67-.06,1.33-.12,2-.19v12.86c-.11,.02-.22,.05-.32,.08h-.05l.37,1.1Z"/><path d="M128.44,31.59v1.18l-.37-1.1h.05c.1-.03,.21-.06,.32-.08Z"/><path d="M128.44,18.61v.12c-.67,.07-1.33,.13-2,.19v-.31h2Z"/><path class="cls-1" d="M126.44,18.92v48.69h-3c-8.27,0-15-6.73-15-15V19.46c3.55,.23,6.66,.3,9.06,.15,2.92-.18,5.91-.42,8.94-.69Zm-4,12.19c0-2.48-2.02-4.5-4.5-4.5s-4.5,2.02-4.5,4.5,2.02,4.5,4.5,4.5,4.5-2.02,4.5-4.5Z"/><path d="M117.94,26.61c2.48,0,4.5,2.02,4.5,4.5s-2.02,4.5-4.5,4.5-4.5-2.02-4.5-4.5,2.02-4.5,4.5-4.5Zm2.5,4.5c0-1.38-1.12-2.5-2.5-2.5s-2.5,1.12-2.5,2.5,1.12,2.5,2.5,2.5,2.5-1.12,2.5-2.5Z"/><path class="cls-1" d="M117.94,33.61c1.38,0,2.5-1.12,2.5-2.5s-1.12-2.5-2.5-2.5-2.5,1.12-2.5,2.5,1.12,2.5,2.5,2.5Z"/><path d="M108.44,18.61v.85c-.65-.04-1.32-.09-2-.14v-.71h2Z"/><path d="M107.46,209.5l-1.58,17.42-.71,.16c-4.08,.93-31.5,7.06-49.16,7.06-6.46,0-11.61-.81-13.83-3-1.14-1.12-1.56-2.58-1.21-4.22,.65-3.06,1.26-6.65,1.84-10.69l.17,.02,.05,.02c.12,.05,.7,.3,1.69,.66-.57,3.92-1.16,7.41-1.8,10.4-.21,.98,0,1.73,.65,2.38,6.27,6.18,45.07-.94,60.44-4.41l1.35-14.89c.52-.29,1.06-.61,1.59-.93l.04-.02,.47,.04Z"/><path d="M105.96,207.74l1.03,1.72-.04,.02c-.53,.32-1.07,.64-1.59,.93l.23-2.44c.11-.07,.22-.13,.33-.2l.04-.03Z"/><path d="M106.48,31.6h-.04v2h.04v-2Z"/><path d="M106.44,31.6v2s-.58,0-1.57-.02h-.05l.05-2h.05c.83,.02,1.34,.02,1.48,.02h.04Z"/><path class="cls-1" d="M106.44,19.32v12.28h-.04c-.14,0-.65,0-1.48-.02h-.05l-2.89-.09h-.05c-1.95-.08-3.96-.2-5.97-.35h-.05l-2.88-.23h-.05c-2-.18-4-.39-5.94-.64h-.05l-2.87-.38h-.05c-2.05-.28-4.03-.6-5.9-.93l-.4,1.91v.06l-2.39-.14c.05-.75,.07-1.48,.07-2.18h-.19l.04-.21h-.05c-2-.4-3.96-.85-5.8-1.32l-.05-.02-2.77-.76h-.05c-2-.58-3.9-1.21-5.63-1.87h-.05l-2.65-1.06-.05-.02c-1.57-.67-3.06-1.39-4.44-2.15,.05-4.6,.08-7.88,.09-9.53,6.2,1.15,34.25,6.22,52.59,7.65Z"/><path d="M105.59,207.97l-.23,2.44c-.22,.13-.44,.26-.66,.38l-.04,.03-.96-1.73v-.22l.07,.15c.66-.37,1.26-.71,1.82-1.05Z"/><path class="cls-1" d="M69.9,220.63h.05c2.02-.06,4.06-.21,6.06-.45h.05l-.23-1.98h-.05l2.89-.38,.31,1.97h.05c2-.32,4.01-.72,5.96-1.21h.05l-.47-1.93h-.05l2.81-.74,.55,1.91h.05c1.94-.56,3.88-1.2,5.77-1.91l.05-.02-.71-1.86h-.04l2.7-1.05,.78,1.83,.04-.02c1.85-.77,3.7-1.64,5.5-2.56l.05-.03-.91-1.78,2.54-1.33,.96,1.73,.04-.03c.22-.12,.44-.25,.66-.38l-1.35,14.89c-15.37,3.47-54.17,10.59-60.44,4.41-.65-.65-.86-1.4-.65-2.38,.64-2.99,1.23-6.48,1.8-10.4,.99,.36,2.39,.83,4.14,1.31h.05l.53-1.92,2.77,.68-.44,1.96h.05c1.95,.44,3.96,.8,5.99,1.08h.05l.27-1.99,2.84,.32-.18,1.94h.04v.05c2.01,.19,4.05,.29,6.08,.31h.05l.02-2,2.85-.04,.07,2Z"/><path d="M101.16,210.42l.91,1.78-.05,.03c-1.8,.92-3.65,1.79-5.5,2.56l-.04,.02-.78-1.83,.09-.06c1.78-.74,3.57-1.58,5.32-2.47l.05-.03Z"/><path d="M101.98,31.49l-.08,2h-.05c-2.01-.09-4.04-.2-6.04-.35l-.04-.05,.14-1.95h.05c2.01,.15,4.02,.27,5.97,.35h.05Z"/><path d="M93.04,214.03l.71,1.86-.05,.02c-1.89,.71-3.83,1.35-5.77,1.91h-.05l-.55-1.91,.05-.02c1.86-.53,3.75-1.15,5.62-1.86h.04Z"/><path d="M93.03,30.91l-.18,1.99h-.05c-2.03-.18-4.05-.4-6-.63h-.05l.24-2h.05c1.94,.25,3.94,.46,5.94,.64h.05Z"/><path d="M84.57,216.65l.47,1.93h-.05c-1.95,.49-3.96,.89-5.96,1.21h-.05l-.31-1.97h.05c1.93-.31,3.88-.7,5.8-1.17h.05Z"/><path d="M84.12,29.89l-.27,1.99h-.05c-2.02-.28-4.03-.6-5.97-.95h-.06v-.06l.4-1.91c1.87,.33,3.85,.65,5.9,.93h.05Z"/><path d="M75.83,218.2l.23,1.98h-.05c-2,.24-4.04,.39-6.06,.45h-.05l-.07-2h.05c1.97-.06,3.95-.21,5.9-.43h.05Z"/><path d="M75.26,28.61h.19c0,.7-.02,1.43-.07,2.18,0,.3-.03,.6-.05,.9h0l-1.99-.16c.04-.49,.07-.98,.09-1.46,.47,.1,.95,.2,1.43,.3h.05l.36-1.76Z"/><path d="M75.3,28.4l-.04,.21h-1.81c0,.47,0,.96-.03,1.46-1.54-.33-3.03-.69-4.47-1.06h-.05l.5-1.95,.05,.02c1.84,.47,3.8,.92,5.8,1.32h.05Z"/><path d="M75.26,28.61l-.36,1.76h-.05c-.48-.1-.96-.2-1.43-.3,.02-.5,.03-.99,.03-1.46h1.81Z"/><path d="M75,34.52v.05c-.25,1.84-.59,3.76-1.03,5.7l.35,.09h-.41l-1.91-.43v-.05c.44-1.93,.78-3.8,1.01-5.57v-.05l1.99,.26Z"/><path class="cls-1" d="M73.42,30.07c-.02,.48-.05,.97-.09,1.46l-.32,2.73v.05c-.23,1.77-.57,3.64-1.01,5.57v.05l-.66,2.66v.05c-.48,1.8-1.03,3.63-1.66,5.43v.05l-.93,2.57-.02,.05c-.7,1.82-1.46,3.57-2.24,5.21l-.03,.04-1.24,2.42-.02,.05c-.95,1.74-1.95,3.35-2.98,4.76l-.03,.04-1.67,2.1-.03,.04c-1.34,1.53-2.71,2.75-4.07,3.61l-.04,.03-2.32,1.12c-.37,.13-.74,.23-1.12,.3,.44-19.47,.67-36.2,.79-47.01,1.16,.61,2.39,1.19,3.69,1.74l.04,.02,.79-1.84,2.65,1.06-.7,1.87,.05,.02c1.8,.67,3.74,1.31,5.77,1.91h.05l.56-1.93,2.77,.76-.5,1.95h.05c1.44,.37,2.93,.73,4.47,1.06Z"/><path d="M73.29,43.1l-.02,.05c-.49,1.89-1.06,3.76-1.68,5.57l-.02,.05-1.89-.65v-.05c.63-1.8,1.18-3.63,1.66-5.43v-.05l1.95,.51Z"/><path d="M70.61,51.41v.05c-.72,1.83-1.49,3.63-2.32,5.35l-.03,.05-1.8-.87,.03-.04c.78-1.64,1.54-3.39,2.24-5.21l.02-.05,1.86,.72Z"/><path d="M66.98,59.37l-.02,.04c-.99,1.82-2.04,3.5-3.12,4.99l-.03,.04-1.62-1.18,.03-.04c1.03-1.41,2.03-3.02,2.98-4.76l.02-.05,1.76,.96Z"/><path d="M66.98,218.67l-.02,2h-.05c-2.03-.02-4.07-.12-6.08-.31v-.05h-.04l.18-1.94h.05c1.95,.18,3.94,.28,5.91,.3h.05Z"/><path d="M66.63,26.3l-.56,1.93h-.05c-2.03-.6-3.97-1.24-5.77-1.91l-.05-.02,.7-1.87h.05c1.73,.66,3.63,1.29,5.63,1.87h.05Z"/><path d="M62.03,66.68l-.03,.03c-1.47,1.68-2.98,3.02-4.51,3.99l-.04,.03-1.07-1.69,.04-.03c1.36-.86,2.73-2.08,4.07-3.61l.03-.04,1.51,1.32Z"/><path d="M58.25,23.37l-.79,1.84-.04-.02c-1.3-.55-2.53-1.13-3.69-1.74,.01-.78,.02-1.53,.03-2.25,1.38,.76,2.87,1.48,4.44,2.15l.05,.02Z"/><path d="M58.13,218.05l-.27,1.99h-.05c-2.03-.28-4.04-.64-5.99-1.08h-.05l.44-1.96h.04c1.89,.43,3.85,.78,5.83,1.05h.05Z"/><path d="M54.06,70.16l.65,1.89c-.6,.21-1.21,.35-1.82,.44,.02-.68,.03-1.36,.05-2.03,.38-.07,.75-.17,1.12-.3Z"/><path d="M52.94,20.74c.27,.16,.54,.31,.82,.46,0,.72-.02,1.47-.03,2.25-.62-.32-1.22-.65-1.8-.98l-.04-.03,1-1.72,.05,.02Z"/><path d="M51.93,22.47c.58,.33,1.18,.66,1.8,.98-.12,10.81-.35,27.54-.79,47.01-.5,.1-1,.15-1.5,.15h-.49c.45-20.15,.69-37.38,.81-48.17h.13l.04,.03Z"/><path d="M53.05,9.49c.07,.01,1.23,.23,3.19,.59-2.76,.72-4.28,1.2-4.37,1.23v-2.04l1.18,.22Z"/><path d="M52.94,70.46c-.02,.67-.03,1.35-.05,2.03-.48,.08-.97,.11-1.45,.11v-1.99c.5,0,1-.05,1.5-.15Z"/><path d="M51.44,72.6c.48,0,.97-.03,1.45-.11-1.07,46.91-3.31,108.81-7.89,142.41-.46-.17-.83-.32-1.1-.43-.07-.03-.08-.03-.08-.03l-.82,1.76-.02,.05-.17-.02c4.77-33.48,7.06-97.78,8.14-145.63h.49v2Z"/><path d="M49.44,216.32l-.53,1.92h-.05c-1.75-.48-3.15-.95-4.14-1.31,.09-.66,.19-1.34,.28-2.03,1.01,.38,2.47,.88,4.39,1.4l.05,.02Z"/><path d="M45,214.9c-.09,.69-.19,1.37-.28,2.03-.99-.36-1.57-.61-1.69-.66l-.05-.02,.02-.05,.82-1.76s0,0,.08,.03c.27,.11,.64,.26,1.1,.43Z"/></svg>