<svg width="84" height="60" viewBox="0 0 84 60" fill="none" xmlns="http://www.w3.org/2000/svg">
<g clip-path="url(#clip0_807_25516)">
<path d="M0.753906 40.9963L6.07408 53.6151L24.7851 42.2067L33.8656 59.2437L75.8468 8.22363L8.44028 10.6748L19.6759 30.9194L0.753906 40.9963Z" fill="#FCFBFE" stroke="black" stroke-width="2" stroke-linecap="round" stroke-linejoin="round"/>
<path d="M75.53 3.65369L73.8344 0.703241L73.5933 0.279588C73.4426 0.022369 73.0733 -0.0911098 72.8171 0.0753257C72.5609 0.241761 72.4554 0.574632 72.6137 0.854546L74.3092 3.80499L74.5503 4.22865C74.701 4.48587 75.0703 4.59935 75.3265 4.43291C75.5827 4.26647 75.6882 3.9336 75.53 3.65369Z" fill="black"/>
<path d="M60.3824 19.4807C60.3372 20.2675 60.0584 20.9332 59.4706 21.4023C59.1767 21.5989 58.7698 21.6973 58.5136 21.9318C58.2498 22.1588 58.0916 22.469 57.9786 22.8245C57.7676 23.513 57.4134 24.1106 56.9462 24.6402C56.4564 25.1168 55.8761 25.5177 55.0623 25.722L54.9492 25.6237C55.0246 24.7915 55.3335 24.156 55.7254 23.5886C56.17 23.0515 56.705 22.6051 57.3531 22.2874C57.6847 22.121 57.9635 21.9167 58.1443 21.6216C58.3327 21.3342 58.3704 20.9181 58.5136 20.5928C58.6643 20.2675 58.928 20.0481 59.2069 19.8438C59.5008 19.6471 59.8173 19.4731 60.2619 19.3975L60.3749 19.4958L60.3824 19.4807Z" fill="black"/>
<path d="M54.0373 27.1748C51.4676 32.1376 47.9861 36.6087 43.7812 40.2854C46.3434 35.315 49.8399 30.8591 54.0373 27.1748Z" fill="black"/>
<path d="M80.9268 2.47391L78.8318 5.15201L78.538 5.53027C78.3571 5.7648 78.2968 6.10523 78.538 6.33219C78.7414 6.52132 79.1408 6.58184 79.3367 6.33219L81.4316 3.65409L81.7255 3.27583C81.9064 3.04131 81.9667 2.70087 81.7255 2.47391C81.5221 2.28478 81.1227 2.22426 80.9268 2.47391Z" fill="black"/>
<path d="M83.5872 9.16903L80.264 8.51842L79.7817 8.42764C79.4803 8.36712 79.1713 8.51085 79.0884 8.82103C79.013 9.10094 79.1788 9.45651 79.4803 9.51703L82.8035 10.1676L83.2858 10.2584C83.5872 10.319 83.8962 10.1752 83.979 9.86503C84.0544 9.58512 83.8886 9.22955 83.5872 9.16903Z" fill="black"/>
<path d="M80.4817 15.7208L79.3438 12.5131L79.178 12.0516C79.08 11.7717 78.7862 11.5599 78.4847 11.6582C78.2134 11.749 77.9874 12.0592 78.0929 12.3542L79.2308 15.5619L79.3965 16.0234C79.4945 16.3033 79.7884 16.5151 80.0898 16.4168C80.3611 16.326 80.5872 16.0158 80.4817 15.7208Z" fill="black"/>
</g>
<defs>
<clipPath id="clip0_807_25516">
<rect width="84" height="60" fill="white"/>
</clipPath>
</defs>
</svg>
