<svg width="100" height="100" viewBox="0 0 100 100" fill="none" xmlns="http://www.w3.org/2000/svg">
<path d="M84.0003 20.0938H20.6523V83.9998H84.0003V20.0938Z" fill="#010000" stroke="black" stroke-miterlimit="10"/>
<path d="M16 16H77.3683V77.909H16V16Z" fill="white" stroke="black" stroke-miterlimit="10"/>
<path d="M65.4901 43.1598C65.4901 48.0526 63.8074 52.4461 60.739 55.7413C57.6706 58.9366 53.9094 60.5342 49.9501 60.5342C46.7827 60.5342 44.5061 59.6356 42.8235 58.6371L40.9428 66.9249C40.8438 67.4241 40.5469 67.9234 40.052 68.3228C39.656 68.6224 39.0622 68.8221 38.5673 68.8221C38.3693 68.8221 38.1713 68.8221 37.9734 68.7222C37.6764 68.6224 37.3795 68.5225 37.0825 68.3228C36.7856 68.1231 36.5876 67.9234 36.3897 67.6238C36.1917 67.3243 36.0927 67.0247 36.0927 66.7251C36.0927 66.4256 36.0927 66.126 36.0927 65.7266L42.6255 37.6679C42.7245 37.3683 42.8235 37.0687 43.0214 36.7692C43.2194 36.4696 43.4173 36.2699 43.7143 36.0702C44.0112 35.8705 44.3082 35.7707 44.6051 35.7707C44.9021 35.6708 45.199 35.7707 45.5949 35.7707C45.8919 35.8705 46.1888 35.9704 46.4858 36.1701C46.7827 36.3698 46.9806 36.5695 47.1786 36.8691C47.3766 37.1686 47.4756 37.4682 47.4756 37.7677C47.5746 38.0673 47.4756 38.3668 47.4756 38.7663L44.1102 53.245C44.8031 54.1436 46.5848 55.5416 49.9501 55.5416C55.1961 55.5416 60.541 50.9484 60.541 43.1598C60.541 40.963 60.0461 38.7663 59.0563 36.8691C58.0665 34.872 56.6808 33.1745 54.8992 31.8764C53.1175 30.5783 51.1379 29.6796 48.9603 29.2802C46.7827 28.8808 44.6051 29.0805 42.5265 29.6796C40.4479 30.2788 38.5672 31.477 36.9835 32.9748C35.3999 34.4726 34.2121 36.3698 33.5192 38.3669C32.8263 40.4638 32.5294 42.6605 32.8264 44.7574C33.1233 46.9542 33.8162 49.0512 35.1029 50.8485C35.3009 51.1481 35.4988 51.4476 35.4988 51.7472C35.5978 52.0467 35.5978 52.4461 35.4988 52.7457C35.3999 53.0453 35.3009 53.4447 35.1029 53.6444C34.905 53.944 34.707 54.1437 34.4101 54.3434C34.1131 54.5431 33.8162 54.6429 33.5192 54.7428C33.2223 54.8426 32.8263 54.8426 32.5294 54.7428C32.2325 54.6429 31.9355 54.5431 31.6386 54.3434C31.3416 54.1437 31.1437 53.8441 30.9457 53.5445C29.263 51.0482 28.2732 48.2523 27.8773 45.3566C27.4814 42.4609 27.8773 39.4652 28.8671 36.6694C29.8569 33.8735 31.4406 31.3771 33.6182 29.2802C35.7958 27.1833 38.2703 25.6855 41.1408 24.8867C44.0112 24.0879 46.8817 23.8882 49.8511 24.3874C52.7215 24.8867 55.4931 26.0849 57.8686 27.8823C60.2441 29.6796 62.1247 31.9762 63.5105 34.5724C64.8962 37.2684 65.4901 40.1642 65.4901 43.1598Z" fill="black" stroke="black"/>
</svg>
