<?xml version="1.0" encoding="UTF-8"?><svg id="Calque_1" xmlns="http://www.w3.org/2000/svg" xmlns:xlink="http://www.w3.org/1999/xlink" viewBox="0 0 232.78 234.14"><defs><style>.cls-1{fill:none;}.cls-2{clip-path:url(#clippath);}.cls-3{fill:#fff;}.cls-4{fill:#faf9fc;}</style><clipPath id="clippath"><rect class="cls-1" x="0" y="38.29" width="232.78" height="157.57"/></clipPath></defs><g class="cls-2"><g><path class="cls-4" d="M183.12,89.24V41.07s30.96,23.34,46.28,31.24c9.02,4.66-9.84,34.34-19.94,35.37-8,.82-26.34-18.44-26.34-18.44Z"/><path class="cls-4" d="M51.08,89.92s-17.82,19.1-25.67,18.31c-10.1-1.02-29.29-31.41-19.94-35.37,17.62-7.47,45.61-31.8,45.61-31.8v48.86Z"/><path d="M23.91,109.85c-.19,0-.38,0-.57-.03-5.5-.55-11.73-8.1-14.16-11.32C4.37,92.13,.92,85.07,.16,80.08c-.74-4.89,1.19-6.82,2.95-7.54,17.84-7.34,42.25-28.88,45.34-31.64,.41-.36,1.66-1.44,1.66-1.44v51.45l-.27,.29c-1.82,1.95-17.64,18.65-25.93,18.65Zm-.37-2.02c5.91,.62,19.48-12.31,24.57-17.71V43.83c-6.32,5.36-28.91,24.06-44.22,30.55-1.6,.68-2.19,2.5-1.75,5.4,1.56,10.32,14.56,27.36,21.4,28.05Z"/><path d="M208.97,106.96c-8.44,0-24.7-16.81-26.57-18.77l-.28-.29s-11.04-44.58-.27-49.54c.46-.21,2.06,.17,2.06,.17,.31,.23,30.88,23.38,45.95,31.15,1.76,.91,3.64,3.11,2.64,8.41-2.38,12.53-15.9,28.12-22.93,28.84-.19,.02-.39,.03-.59,.03h0Zm-24.85-19.87c5.24,5.45,19.18,18.48,25.24,17.85,6.71-.68,19.18-16.71,21.17-27.22,.43-2.26,.5-5.18-1.59-6.26-13.22-6.82-38.26-25.25-44.82-30.13v45.76Z"/><path class="cls-3" d="M159.88,39.29c-1.12,0-2.04,.92-2.04,2.04v.02c0,15.58-18.39,33.72-38.54,33.72s-34.41-18.14-34.41-33.72v-.02c0-1.12-.92-2.04-2.04-2.04h-30.36c-1.11,0-2,.9-2,2,0,0,.84,90.24-14.9,131.74-6.01,15.85,166.5,37.32,155,5-10.09-28.36-5.91-136.74-5.91-136.74,0-1.11-.9-2-2-2h-22.8Z"/><path d="M143.51,195.86c-40.92,0-94.73-9.01-106.46-17.95-2.81-2.14-2.85-4.03-2.39-5.24,8.09-21.32,11.69-55.88,13.29-81.13,1.74-27.4,1.55-50.02,1.55-50.25,0-1.66,1.35-3.01,3-3.01h30.36c1.68,0,3.04,1.36,3.04,3.04,0,15.47,14.29,32.74,33.41,32.74,20.22,0,37.54-17.99,37.54-32.72,0-1.7,1.36-3.06,3.04-3.06h22.8c1.65,0,3,1.35,3,3-.04,1.12-4.06,108.55,5.85,136.4,1.47,4.14,.23,7.81-3.6,10.6-7.4,5.4-24.36,7.56-44.43,7.57h0ZM52.49,40.29c-.55,0-1,.45-1,1,0,.22,.19,22.9-1.55,50.37-1.61,25.38-5.24,60.17-13.42,81.72-.32,.83,.27,1.82,1.73,2.94,8,6.1,38.49,12.78,72.49,15.89,37.52,3.43,66.64,1.31,76.01-5.53,3.13-2.28,4.07-5,2.89-8.32-4.22-11.87-6.51-38.56-6.8-79.33-.21-30.31,.82-57.51,.83-57.78,0-.51-.45-.96-1-.96h-22.8c-.56,0-1.04,.48-1.04,1.04,0,15.65-18.25,34.74-39.54,34.74-9.58,0-18.63-4.02-25.49-11.33-6.21-6.62-9.92-15.36-9.92-23.39,0-.58-.48-1.06-1.04-1.06h-30.35Z"/><path d="M143.51,195.86c-40.92,0-94.73-9.01-106.46-17.95-2.81-2.14-2.85-4.03-2.39-5.24,8.09-21.32,11.69-55.88,13.29-81.13,1.74-27.4,1.55-50.02,1.55-50.25,0-1.66,1.35-3.01,3-3.01h30.36c1.68,0,3.04,1.36,3.04,3.04,0,15.47,14.29,32.74,33.41,32.74,20.22,0,37.54-17.99,37.54-32.72,0-1.7,1.36-3.06,3.04-3.06h22.8c1.65,0,3,1.35,3,3-.04,1.12-4.06,108.55,5.85,136.4,1.47,4.14,.23,7.81-3.6,10.6-7.4,5.4-24.36,7.56-44.43,7.57h0ZM52.49,40.29c-.55,0-1,.45-1,1,0,.22,.19,22.9-1.55,50.37-1.61,25.38-5.24,60.17-13.42,81.72-.32,.83,.27,1.82,1.73,2.94,8,6.1,38.49,12.78,72.49,15.89,37.52,3.43,66.64,1.31,76.01-5.53,3.13-2.28,4.07-5,2.89-8.32-4.22-11.87-6.51-38.56-6.8-79.33-.21-30.31,.82-57.51,.83-57.78,0-.51-.45-.96-1-.96h-22.8c-.56,0-1.04,.48-1.04,1.04,0,15.65-18.25,34.74-39.54,34.74-9.58,0-18.63-4.02-25.49-11.33-6.21-6.62-9.92-15.36-9.92-23.39,0-.58-.48-1.06-1.04-1.06h-30.35Z"/><path d="M74.24,40.78h-.06c-.55-.03-.97-.51-.94-1.06,.02-.26,.02-.41,.02-.43,0-.55,.45-1,1-1s1,.45,1,1c0,0,0,.19-.02,.55-.03,.53-.47,.94-1,.94Z"/><path d="M118.58,91.04h-.03c-.27,0-.52-.1-.71-.29-.19-.19-.29-.44-.29-.71,0-.55,.45-1,1-1h1c.54,0,.99,.45,1,.99,0,.27-.1,.52-.29,.71-.18,.19-.43,.3-.7,.3h-.98Zm-6.01-.29h-.1c-.38-.04-.71-.07-1.01-.11-.5-.06-.88-.49-.88-.99v-.12c.06-.55,.54-.94,1.11-.88h.02c.28,.04,.6,.07,.95,.11,.27,.03,.51,.16,.68,.36,.17,.21,.25,.47,.22,.74-.05,.51-.48,.9-1,.9h.01Zm12.94-.1c-.51,0-.93-.38-.99-.88,0-.04,0-.07,0-.11,0-.51,.38-.94,.89-1,.35-.04,.67-.08,.98-.12,.55-.07,1.05,.32,1.12,.86,.07,.55-.32,1.05-.87,1.13-.33,.04-.67,.08-1.01,.12h-.11Zm-19.81-1.09c-.08,0-.16-.01-.24-.03-.29-.08-.61-.16-.99-.26-.43-.12-.73-.51-.74-.95,0-.1,0-.19,.04-.28,.14-.52,.7-.84,1.23-.7,.31,.08,.62,.17,.94,.25,.53,.13,.86,.67,.73,1.21-.11,.44-.51,.76-.97,.76Zm26.68-.13c-.46,0-.86-.31-.97-.76-.02-.08-.03-.17-.03-.25,0-.46,.31-.85,.76-.96,.31-.08,.63-.16,.94-.25,.53-.14,1.09,.19,1.23,.71,.07,.25,.04,.52-.1,.76-.13,.23-.35,.39-.6,.46-.32,.09-.64,.17-.99,.26-.08,.02-.16,.03-.24,.03Zm-33.29-2.11c-.13,0-.27-.03-.4-.08-.28-.13-.58-.26-.93-.42-.35-.17-.57-.52-.58-.9,0-.15,.03-.3,.1-.44,.23-.48,.84-.7,1.33-.48,.27,.13,.56,.27,.89,.41,.5,.22,.73,.81,.51,1.31-.16,.37-.52,.6-.92,.6Zm39.91-.08c-.4,0-.76-.24-.92-.61-.05-.12-.08-.26-.08-.39,0-.4,.25-.76,.62-.92,.3-.12,.6-.25,.89-.38,.49-.23,1.11,0,1.32,.5,.23,.51,0,1.1-.5,1.32-.34,.15-.65,.29-.94,.41-.12,.05-.25,.07-.39,.07Zm6.2-3.2c-.35,0-.66-.17-.85-.47-.1-.16-.15-.34-.15-.54,0-.34,.18-.65,.47-.83,.32-.2,.58-.37,.82-.53,.45-.3,1.09-.16,1.38,.28,.15,.23,.2,.49,.15,.76-.05,.26-.21,.48-.43,.63-.27,.18-.54,.35-.86,.55-.16,.1-.34,.15-.53,.15Zm-52.2-.1c-.2,0-.4-.06-.57-.17-.31-.22-.58-.41-.84-.6-.26-.19-.41-.49-.41-.82,0-.21,.07-.4,.19-.57,.32-.43,.97-.54,1.4-.22,.24,.17,.5,.36,.79,.56,.46,.31,.57,.93,.26,1.39-.18,.27-.49,.43-.82,.43Zm57.79-4.08c-.29,0-.56-.12-.75-.33-.16-.18-.25-.41-.25-.65,0-.29,.12-.57,.33-.76,.23-.2,.46-.42,.73-.66,.38-.36,1.05-.33,1.41,.05,.18,.2,.28,.46,.27,.72,0,.27-.13,.51-.32,.7-.24,.22-.49,.45-.75,.68h-.01c-.18,.17-.42,.25-.66,.25Zm-63.13-.41c-.27,0-.52-.1-.71-.3-.24-.23-.47-.48-.71-.74-.17-.18-.26-.42-.27-.67,0-.28,.12-.55,.32-.74,.39-.36,1.05-.34,1.41,.05,.22,.23,.44,.46,.68,.7,.18,.19,.28,.45,.28,.71s-.11,.52-.3,.71c-.19,.18-.44,.28-.7,.28Zm67.97-4.61c-.23,0-.46-.08-.64-.23-.23-.19-.36-.47-.36-.77,0-.23,.08-.46,.23-.64,.2-.25,.41-.5,.61-.76,.33-.42,.99-.5,1.41-.17,.43,.35,.5,.98,.16,1.41-.21,.26-.42,.53-.64,.79-.19,.24-.47,.37-.77,.37Zm-72.38-.79c-.33,0-.64-.17-.82-.44-.17-.25-.35-.51-.57-.86-.1-.16-.16-.35-.16-.54,0-.34,.17-.65,.46-.84,.45-.29,1.09-.15,1.38,.3,.19,.29,.37,.56,.54,.81,.15,.22,.21,.49,.16,.75-.05,.27-.2,.49-.43,.64-.16,.12-.36,.18-.56,.18Zm76.42-4.91c-.18,0-.36-.05-.52-.15-.3-.18-.48-.5-.48-.85,0-.18,.05-.36,.15-.52,.17-.28,.34-.56,.5-.84,.27-.46,.91-.63,1.37-.36,.23,.14,.4,.35,.46,.61,.07,.26,.04,.53-.1,.76-.17,.29-.34,.58-.52,.87-.19,.3-.51,.48-.86,.48Zm-79.86-1.17c-.39,0-.74-.23-.91-.57-.16-.35-.3-.65-.42-.93-.06-.13-.09-.27-.09-.41,0-.4,.24-.75,.59-.91,.5-.22,1.11,0,1.33,.5,.13,.31,.28,.64,.4,.9,.12,.24,.13,.51,.04,.76-.09,.25-.27,.45-.52,.56-.13,.07-.27,.1-.42,.1Zm83.12-5.01c-.14,0-.28-.03-.41-.09-.36-.16-.59-.52-.59-.91,0-.14,.03-.28,.08-.4v-.02s.03-.03,.03-.05c.13-.28,.25-.56,.38-.84,.21-.5,.82-.74,1.31-.53,.51,.22,.74,.81,.52,1.32-.12,.27-.26,.6-.41,.93-.16,.36-.52,.59-.91,.59Zm-85.66-1.5c-.44,0-.82-.28-.95-.7-.11-.35-.21-.67-.3-.97-.03-.1-.05-.2-.05-.3,0-.44,.3-.82,.72-.95,.52-.15,1.09,.16,1.24,.68,.1,.31,.19,.62,.29,.93,.17,.53-.12,1.09-.65,1.26-.1,.03-.2,.05-.3,.05Zm88.18-5.03c-.11,0-.21,0-.31-.05-.41-.13-.69-.51-.69-.94,0-.1,.01-.21,.05-.32,.1-.3,.19-.59,.3-.94,.16-.51,.73-.82,1.25-.66,.25,.08,.46,.26,.59,.49,.12,.24,.15,.51,.07,.76-.1,.32-.2,.65-.31,.97-.13,.42-.52,.69-.95,.69Zm-89.91-1.75c-.48,0-.89-.34-.98-.8-.07-.31-.12-.62-.18-.93v-.07c-.03-.06-.03-.12-.03-.18,0-.48,.34-.9,.82-.98,.54-.1,1.06,.27,1.16,.8,.06,.31,.12,.63,.19,.97,.11,.54-.25,1.07-.79,1.17-.06,.02-.13,.02-.19,.02Zm91.73-5.01c-.07,0-.14,0-.21-.02-.46-.1-.79-.51-.79-.99,0-.06,0-.13,.02-.2,.08-.33,.14-.65,.21-.96,.1-.53,.64-.89,1.17-.79,.26,.06,.49,.21,.64,.43,.15,.22,.2,.49,.15,.75-.07,.32-.14,.66-.21,1-.1,.45-.51,.78-.98,.78Zm-92.74-1.91c-.52,0-.95-.39-1-.91-.03-.34-.06-.68-.09-1.01v-.08c0-.51,.4-.95,.92-1,.55-.04,1.03,.38,1.08,.92,.02,.32,.05,.65,.08,.99,.05,.54-.35,1.03-.9,1.08h-.09Z"/><path d="M168.38,42.69h-.1c-.55-.05-.95-.54-.9-1.09,.03-.29,.04-.44,.04-.45,.03-.55,.49-.97,1.06-.94,.55,.03,.97,.5,.94,1.05,0,0,0,.18-.04,.53-.05,.52-.48,.91-.99,.91h0Z"/><path d="M33.58,104.34c-.14,0-.27-.03-.39-.08-.29-.12-.6-.25-.94-.4-.35-.16-.59-.51-.59-.9,0-.15,.02-.29,.08-.42,.22-.49,.82-.72,1.32-.51,.3,.13,.6,.26,.9,.38,.51,.21,.75,.8,.54,1.31-.16,.37-.52,.62-.92,.62Zm-6.23-3.17c-.19,0-.37-.05-.53-.15-.31-.19-.59-.37-.86-.55h-.01c-.28-.19-.45-.51-.45-.85,0-.19,.06-.38,.17-.54,.29-.44,.94-.58,1.38-.28,.28,.18,.56,.35,.82,.52,.47,.29,.62,.91,.33,1.38-.19,.29-.51,.47-.85,.47Zm-5.55-4.24c-.26,0-.5-.09-.69-.27-.23-.22-.47-.45-.74-.72-.19-.19-.29-.44-.29-.7s.11-.52,.29-.71c.38-.38,1.04-.38,1.42,0,.23,.23,.47,.46,.69,.67,.4,.38,.42,1.02,.05,1.42-.19,.2-.46,.31-.73,.31Zm-4.52-5.32c-.34,0-.65-.16-.83-.44-.22-.32-.4-.6-.57-.87-.09-.16-.14-.34-.15-.51,0-.36,.18-.68,.48-.86,.45-.29,1.09-.14,1.37,.32,.18,.29,.35,.55,.53,.81,.31,.45,.18,1.08-.28,1.39-.16,.11-.35,.16-.55,.16Zm-3.2-6.21c-.41,0-.78-.26-.93-.65-.12-.31-.23-.62-.35-.97-.04-.11-.05-.21-.05-.32,0-.43,.27-.81,.67-.95,.52-.17,1.09,.12,1.27,.62v.04c.12,.31,.22,.6,.33,.88,.2,.52-.07,1.09-.58,1.29-.12,.04-.23,.06-.36,.06Zm-1.73-6.77c-.49,0-.92-.37-.99-.86-.06-.39-.1-.72-.14-1.02v-.12c0-.51,.39-.93,.88-.98,.56-.07,1.05,.33,1.11,.87,.03,.28,.07,.59,.13,.97,.08,.54-.3,1.05-.85,1.13-.05,0-.09,0-.14,0Zm-.26-6.98h-.08c-.27-.02-.51-.14-.68-.35-.17-.2-.26-.46-.23-.73,.04-.55,.09-.91,.11-1.02h.05l-.05-.02v-.03c.09-.54,.61-.91,1.15-.83,.48,.08,.85,.51,.84,1v.15s0,.02,0,.04c0,.09-.05,.39-.09,.88-.04,.51-.48,.92-1,.92h-.01Z"/><path d="M202.21,104.1c-.54,0-.98-.42-1-.95-.02-.27,.07-.52,.25-.72,.18-.2,.43-.32,.69-.33,.32-.02,.62-.05,.91-.09,.54-.07,1.04,.32,1.12,.85v.15c0,.49-.37,.91-.86,.98-.35,.05-.71,.09-1.08,.11h-.03Zm6.46-2.37c-.32,0-.63-.16-.82-.43-.15-.22-.21-.48-.16-.75,.04-.26,.19-.49,.4-.64,.28-.2,.53-.38,.76-.57,.42-.33,1.07-.25,1.4,.17,.14,.17,.22,.39,.22,.61,0,.31-.14,.6-.38,.79-.28,.23-.57,.44-.84,.63-.17,.12-.37,.19-.58,.19Zm4.94-4.93c-.22,0-.43-.07-.61-.2-.21-.16-.35-.4-.38-.66-.04-.27,.03-.53,.19-.74,.21-.28,.4-.53,.58-.79,.3-.43,.96-.54,1.39-.23,.26,.19,.42,.5,.42,.82,0,.21-.07,.41-.19,.58-.19,.27-.4,.55-.61,.83-.19,.25-.48,.39-.79,.39Zm3.72-5.93c-.16,0-.32-.04-.47-.12-.23-.12-.41-.33-.49-.59-.07-.25-.05-.52,.08-.76l.45-.87c.24-.48,.86-.69,1.35-.44,.33,.17,.54,.51,.54,.89,0,.16-.03,.31-.11,.45-.15,.31-.31,.61-.47,.91-.17,.33-.51,.53-.88,.53Zm2.93-6.37c-.12,0-.25-.02-.37-.07-.51-.21-.76-.79-.55-1.3,.12-.31,.24-.61,.36-.92,.2-.5,.79-.77,1.3-.57,.38,.15,.63,.52,.63,.93,0,.13-.02,.25-.06,.37-.13,.31-.25,.62-.38,.94-.15,.38-.51,.62-.93,.62Zm2.38-6.6c-.11,0-.21,0-.31-.04-.25-.09-.46-.26-.58-.5-.13-.24-.15-.51-.07-.76,.11-.32,.2-.64,.3-.95,.16-.52,.73-.82,1.25-.66,.42,.13,.71,.51,.71,.95,0,.1-.02,.2-.05,.3-.08,.26-.16,.53-.25,.81l-.05,.16c-.13,.41-.52,.69-.95,.69Zm1.9-6.76c-.08,0-.16,0-.24-.03-.53-.13-.86-.67-.73-1.21,.14-.61,.22-.95,.22-.96,.11-.52,.65-.88,1.19-.77,.46,.1,.79,.52,.79,.99,0,.07-.01,.14-.03,.2-.03,.17-.11,.51-.23,1.01-.11,.46-.51,.77-.97,.77Z"/><path d="M118.19,62.06c-1.68,0-3.35-.12-5-.35-18.77-2.63-28.73-19.14-29.15-19.84l1.72-1.02c.1,.16,9.91,16.4,27.73,18.88,13.61,1.89,28.3-4.53,43.68-19.1l1.38,1.45c-14,13.27-27.55,19.98-40.34,19.98h-.02Z"/></g></g></svg>