<svg width="597" height="482" viewBox="0 0 597 482" fill="none" xmlns="http://www.w3.org/2000/svg">
<path d="M494.545 297.647C545.41 297.647 586.653 338.89 586.653 389.755C586.653 440.619 545.41 481.862 494.545 481.862C468.125 481.862 444.311 470.743 427.521 452.932C474.912 449.152 512.203 409.493 512.203 361.12C512.203 336.666 502.668 314.436 487.11 297.943C489.563 297.742 492.045 297.647 494.545 297.647Z" fill="#676666"/>
<path d="M487.11 297.943C502.668 314.436 512.204 336.666 512.204 361.12C512.204 409.493 474.912 449.152 427.522 452.932C411.964 436.438 402.438 414.209 402.438 389.755C402.438 341.391 439.72 301.722 487.11 297.943Z" fill="#676666"/>
<path d="M487.11 297.943C439.72 301.722 402.438 341.391 402.438 389.755C402.438 414.208 411.964 436.438 427.522 452.932C425.069 453.132 422.597 453.228 420.096 453.228C369.222 453.228 327.988 411.994 327.988 361.12C327.988 310.246 369.222 269.012 420.096 269.012C446.506 269.012 470.321 280.132 487.11 297.943Z" fill="#BBBBBD"/>
<path d="M524.402 334.776C537.402 335.292 546.937 360.958 545.687 392.103C545.391 399.548 544.494 406.63 543.138 413.101L542.928 413.054C542.661 411.775 538.27 410.858 532.429 410.648C532.61 406.725 535.159 390.728 535.159 390.728C535.159 390.728 515.143 389.497 515.974 389.02C529.527 381.231 530.625 378.597 532.964 373.423C534.061 370.97 534.147 367.725 534.262 364.852C534.557 357.56 530.176 348.759 523.466 346.24C520.622 345.17 515.706 347.843 515.706 347.843C511.783 349.599 507.135 369.519 506.791 378.129C506.476 385.898 507.985 410.858 508.185 414.189C504.463 415.793 501.809 418.017 501.227 420.976L501.15 420.995C501.017 420.422 500.893 419.84 500.769 419.248C499.012 410.715 498.192 400.798 498.612 390.251C499.852 359.106 511.411 334.28 524.411 334.795L524.402 334.776Z" fill="#FAF9FC"/>
<path d="M532.42 408.73C538.271 408.93 542.652 409.847 542.919 411.135L543.129 411.183C538.824 431.762 529.776 446.031 519.878 445.649C511.593 445.315 504.701 434.768 501.132 419.076L501.208 419.057C501.79 416.089 504.453 413.874 508.166 412.271C514.809 409.388 524.831 408.472 532.41 408.739L532.42 408.73Z" fill="#F8B8D2"/>
<path d="M523.457 346.221C530.167 348.75 534.558 357.541 534.252 364.833C534.138 367.706 534.052 370.951 532.954 373.404C530.616 378.578 529.509 381.222 515.964 389.001C515.134 389.478 535.15 390.709 535.15 390.709C535.15 390.709 532.601 406.716 532.42 410.629C524.841 410.362 514.819 411.278 508.176 414.161C507.975 410.83 506.467 385.87 506.782 378.101C507.126 369.491 511.774 349.581 515.697 347.815C515.697 347.815 520.613 345.133 523.457 346.211V346.221Z" fill="#010000"/>
<path d="M468.441 338.117C481.173 338.623 490.546 362.781 489.372 392.074C489.01 401.256 487.645 409.846 485.554 417.31L485.478 417.291C481.393 415.297 477.231 414.266 473.203 413.884C475.275 408.577 476.85 401.561 477.594 393.668L457.76 390.823L478.062 381.565C477.747 364.165 473.146 350.754 466.971 350.506C460.079 350.239 453.818 366.494 453.007 386.805C452.548 398.307 453.923 408.644 456.462 415.497C450.124 417.215 445.924 419.554 445.924 419.554H445.886C443.805 411.106 442.822 401.027 443.252 390.251C444.426 360.967 455.698 337.611 468.441 338.126V338.117Z" fill="#FAF9FC"/>
<path d="M485.478 417.292L485.554 417.311C480.982 433.661 472.927 444.552 464.183 444.208C456.471 443.903 449.99 434.921 446.335 421.367C446.172 420.775 446.02 420.174 445.886 419.573H445.924C445.924 419.573 450.124 417.225 456.462 415.507C461.148 414.237 466.999 413.302 473.203 413.894C477.222 414.275 481.383 415.297 485.478 417.301V417.292Z" fill="#F8B8D2"/>
<path d="M478.071 381.565L457.769 390.823L477.603 393.668C476.849 401.571 475.274 408.577 473.213 413.884C467.009 413.292 461.158 414.227 456.471 415.497C453.932 408.634 452.558 398.297 453.016 386.805C453.827 366.494 460.089 350.239 466.98 350.506C473.156 350.754 477.747 364.165 478.071 381.565Z" fill="#010000"/>
<path d="M485.478 417.291C481.393 415.296 477.231 414.266 473.203 413.884" stroke="black" stroke-width="2" stroke-miterlimit="10"/>
<path d="M473.213 413.884C475.284 408.577 476.859 401.561 477.603 393.668L457.769 390.823L478.071 381.565C477.756 364.165 473.156 350.754 466.98 350.506C460.089 350.239 453.827 366.494 453.016 386.805C452.558 398.307 453.932 408.644 456.471 415.497C461.158 414.227 467.009 413.292 473.213 413.884V413.884Z" stroke="black" stroke-width="2" stroke-miterlimit="10"/>
<path d="M542.929 413.044C542.661 411.765 538.271 410.849 532.429 410.639C524.851 410.371 514.828 411.288 508.185 414.17C504.463 415.774 501.809 417.998 501.227 420.957" stroke="black" stroke-width="2" stroke-miterlimit="10"/>
<path d="M508.214 414.543L508.185 414.17C507.985 410.839 506.477 385.879 506.792 378.11C507.135 369.5 511.784 349.59 515.706 347.824C515.706 347.824 520.622 345.142 523.466 346.22C530.176 348.75 534.567 357.541 534.262 364.833C534.147 367.706 534.061 370.951 532.964 373.404C530.625 378.578 529.518 381.221 515.974 389C515.143 389.478 535.159 390.709 535.159 390.709C535.159 390.709 532.61 406.716 532.429 410.629V410.696" stroke="black" stroke-width="2" stroke-miterlimit="10"/>
<path d="M445.895 419.563C443.815 411.107 442.831 401.027 443.261 390.251C444.435 360.967 455.708 337.611 468.45 338.127C481.183 338.632 490.556 362.791 489.382 392.084C489.019 401.266 487.654 409.856 485.564 417.32C480.992 433.671 472.936 444.561 464.193 444.218C456.481 443.912 450 434.931 446.344 421.377C446.182 420.785 446.029 420.184 445.895 419.582V419.563Z" stroke="black" stroke-width="2" stroke-miterlimit="10"/>
<path d="M501.141 420.985C501.008 420.413 500.883 419.831 500.759 419.239C499.003 410.706 498.182 400.789 498.602 390.241C499.843 359.097 511.402 334.27 524.402 334.786C537.402 335.301 546.937 360.967 545.687 392.112C545.391 399.557 544.494 406.64 543.139 413.111C538.834 433.69 529.785 447.959 519.887 447.577C511.602 447.243 504.711 436.696 501.141 421.005V420.985Z" stroke="black" stroke-width="2" stroke-miterlimit="10"/>
<path d="M166.558 28.6346C217.422 28.6346 258.666 69.8779 258.666 120.742C258.666 171.607 217.422 212.85 166.558 212.85C140.137 212.85 116.323 201.731 99.5336 183.92C146.924 180.14 184.216 140.481 184.216 92.1079C184.216 67.654 174.68 45.424 159.122 28.9305C161.575 28.73 164.057 28.6346 166.558 28.6346Z" fill="#FFEA28"/>
<path d="M184.216 92.108C184.216 140.481 146.924 180.14 99.5338 183.92C83.9757 167.426 74.45 145.196 74.45 120.743C74.45 72.3787 111.732 32.7103 159.122 28.9305C174.681 45.4241 184.216 67.654 184.216 92.108Z" fill="#FFEA28"/>
<path d="M74.4499 120.742C74.4499 145.196 83.9757 167.426 99.5338 183.92C97.0808 184.12 94.6087 184.216 92.1079 184.216C41.2338 184.216 0 142.982 0 92.1079C0 41.2338 41.2338 0 92.1079 0C118.519 0 142.333 11.1198 159.122 28.9305C111.732 32.7102 74.4499 72.3787 74.4499 120.742Z" fill="#FFF27E"/>
<path d="M199.277 56.2192C212.277 56.7346 221.813 82.4007 220.562 113.546C220.267 120.991 219.369 128.073 218.014 134.544L217.804 134.497C217.537 133.218 213.146 132.301 207.305 132.091C207.486 128.168 210.034 112.171 210.034 112.171C210.034 112.171 190.019 110.94 190.849 110.463C204.403 102.674 205.501 100.04 207.839 94.8663C208.937 92.4133 209.023 89.168 209.137 86.295C209.433 79.0028 205.052 70.2024 198.342 67.6826C195.498 66.6135 190.582 69.2861 190.582 69.2861C186.659 71.0423 182.011 90.9625 181.667 99.5719C181.352 107.341 182.86 132.301 183.061 135.632C179.338 137.236 176.685 139.46 176.102 142.419L176.026 142.438C175.892 141.865 175.768 141.283 175.644 140.691C173.888 132.158 173.067 122.241 173.487 111.694C174.728 80.549 186.287 55.7228 199.287 56.2383L199.277 56.2192Z" fill="#FAF9FC"/>
<path d="M207.295 132.082C213.146 132.282 217.527 133.199 217.794 134.487L218.004 134.535C213.7 155.114 204.651 169.383 194.753 169.001C186.468 168.667 179.577 158.12 176.007 142.428L176.083 142.409C176.666 139.441 179.329 137.227 183.042 135.623C189.685 132.74 199.707 131.824 207.286 132.091L207.295 132.082Z" fill="#F8B8D2"/>
<path d="M198.333 67.6638C205.043 70.1932 209.433 78.984 209.128 86.2763C209.013 89.1493 208.928 92.3945 207.83 94.8475C205.491 100.021 204.384 102.665 190.84 110.444C190.01 110.921 210.025 112.152 210.025 112.152C210.025 112.152 207.477 128.159 207.295 132.072C199.717 131.805 189.695 132.722 183.051 135.604C182.851 132.273 181.343 107.313 181.658 99.5436C182.001 90.9341 186.65 71.0236 190.573 69.2578C190.573 69.2578 195.488 66.5757 198.333 67.6542V67.6638Z" fill="#010000"/>
<path d="M143.316 59.5598C156.049 60.0657 165.422 84.2237 164.248 113.517C163.885 122.699 162.52 131.289 160.43 138.754L160.354 138.734C156.268 136.74 152.107 135.709 148.079 135.327C150.15 130.02 151.725 123.005 152.47 115.111L132.635 112.267L152.937 103.008C152.622 85.6077 148.022 72.1972 141.846 71.949C134.955 71.6818 128.693 87.9367 127.882 108.248C127.424 119.75 128.798 130.087 131.337 136.94C125 138.658 120.8 140.997 120.8 140.997H120.762C118.681 132.549 117.698 122.47 118.127 111.694C119.301 82.4102 130.574 59.0539 143.316 59.5694V59.5598Z" fill="#FAF9FC"/>
<path d="M160.354 138.735L160.43 138.754C155.858 155.104 147.802 165.995 139.059 165.651C131.347 165.346 124.866 156.364 121.21 142.81C121.048 142.219 120.895 141.617 120.762 141.016H120.8C120.8 141.016 125 138.668 131.337 136.95C136.024 135.68 141.875 134.745 148.079 135.337C152.097 135.719 156.259 136.74 160.354 138.744V138.735Z" fill="#F8B8D2"/>
<path d="M152.947 103.008L132.645 112.267L152.479 115.111C151.725 123.014 150.15 130.02 148.088 135.327C141.884 134.735 136.033 135.671 131.347 136.94C128.808 130.077 127.433 119.74 127.891 108.248C128.703 87.9367 134.964 71.6818 141.856 71.949C148.031 72.1972 152.622 85.6077 152.947 103.008Z" fill="#010000"/>
<path d="M160.354 138.734C156.269 136.739 152.107 135.709 148.079 135.327" stroke="black" stroke-width="2" stroke-miterlimit="10"/>
<path d="M148.088 135.327C150.16 130.02 151.735 123.005 152.479 115.111L132.645 112.267L152.947 103.008C152.632 85.6077 148.031 72.1972 141.856 71.949C134.964 71.6818 128.703 87.9367 127.891 108.248C127.433 119.75 128.808 130.087 131.347 136.94C136.033 135.671 141.884 134.735 148.088 135.327V135.327Z" stroke="black" stroke-width="2" stroke-miterlimit="10"/>
<path d="M217.804 134.487C217.537 133.208 213.146 132.292 207.305 132.082C199.726 131.814 189.704 132.731 183.061 135.613C179.338 137.217 176.685 139.441 176.103 142.4" stroke="black" stroke-width="2" stroke-miterlimit="10"/>
<path d="M183.089 135.986L183.061 135.613C182.86 132.282 181.352 107.322 181.667 99.5529C182.011 90.9434 186.659 71.0328 190.582 69.267C190.582 69.267 195.498 66.5849 198.342 67.6635C205.052 70.1929 209.443 78.9837 209.137 86.276C209.023 89.149 208.937 92.3942 207.839 94.8473C205.501 100.021 204.393 102.665 190.849 110.444C190.019 110.921 210.034 112.152 210.034 112.152C210.034 112.152 207.486 128.159 207.305 132.072V132.139" stroke="black" stroke-width="2" stroke-miterlimit="10"/>
<path d="M120.771 141.006C118.69 132.55 117.707 122.47 118.137 111.694C119.311 82.4104 130.583 59.0542 143.325 59.5696C156.058 60.0755 165.431 84.2335 164.257 113.527C163.895 122.709 162.53 131.299 160.439 138.763C155.867 155.114 147.812 166.004 139.068 165.661C131.356 165.355 124.875 156.374 121.22 142.82C121.057 142.228 120.905 141.627 120.771 141.025V141.006Z" stroke="black" stroke-width="2" stroke-miterlimit="10"/>
<path d="M176.017 142.429C175.883 141.856 175.759 141.274 175.635 140.682C173.879 132.149 173.058 122.232 173.478 111.685C174.719 80.5396 186.277 55.7135 199.278 56.2289C212.278 56.7443 221.813 82.4104 220.563 113.555C220.267 121 219.37 128.083 218.014 134.554C213.709 155.133 204.661 169.402 194.763 169.02C186.478 168.686 179.587 158.139 176.017 142.448V142.429Z" stroke="black" stroke-width="2" stroke-miterlimit="10"/>
<path d="M166.558 297.647C217.422 297.647 258.665 338.89 258.665 389.754C258.665 440.619 217.422 481.862 166.558 481.862C140.138 481.862 116.323 470.743 99.5338 452.932C146.924 449.152 184.216 409.493 184.216 361.12C184.216 336.666 174.68 314.436 159.122 297.943C161.575 297.742 164.057 297.647 166.558 297.647Z" fill="#F488B4"/>
<path d="M159.122 297.943C174.68 314.436 184.216 336.666 184.216 361.12C184.216 409.493 146.924 449.152 99.5337 452.932C83.9756 436.438 74.4498 414.208 74.4498 389.754C74.4498 341.391 111.732 301.722 159.122 297.943Z" fill="#F488B4"/>
<path d="M92.1078 269.012C118.518 269.012 142.333 280.132 159.122 297.943C111.732 301.722 74.4499 341.391 74.4499 389.754C74.4499 414.208 83.9756 436.438 99.5338 452.932C97.0807 453.132 94.6086 453.228 92.1078 453.228C41.2338 453.228 0 411.994 0 361.12C0 310.246 41.2338 269.012 92.1078 269.012Z" fill="#F8B8D2"/>
<path d="M203.611 358.409C218.663 358.409 230.862 372.917 230.862 390.814C230.862 408.711 218.663 423.219 203.611 423.219C188.559 423.219 176.37 408.711 176.37 390.814C176.37 372.917 188.568 358.409 203.611 358.409Z" fill="#FAF9FC"/>
<path d="M230.862 390.814C230.862 408.711 218.663 423.219 203.611 423.219C188.559 423.219 176.37 408.711 176.37 390.814C176.37 372.917 188.568 358.409 203.611 358.409C218.654 358.409 230.862 372.917 230.862 390.814Z" stroke="black" stroke-miterlimit="10"/>
<path d="M208.03 411.431C214.129 411.431 219.074 406.487 219.074 400.388C219.074 394.289 214.129 389.344 208.03 389.344C201.931 389.344 196.987 394.289 196.987 400.388C196.987 406.487 201.931 411.431 208.03 411.431Z" fill="black"/>
<path d="M203.611 398.918C205.24 398.918 206.56 397.597 206.56 395.968C206.56 394.339 205.24 393.019 203.611 393.019C201.982 393.019 200.662 394.339 200.662 395.968C200.662 397.597 201.982 398.918 203.611 398.918Z" fill="white"/>
<path d="M120.551 349.465C124.656 345.132 130.058 342.278 135.919 341.18C138.772 340.646 141.76 340.57 144.633 340.98C146.17 341.2 147.85 341.476 149.196 342.297C150.541 343.118 151.534 344.588 152.441 345.905C153.472 347.413 155.953 345.982 154.913 344.464C153.872 342.946 152.851 341.476 151.41 340.369C149.969 339.262 148.126 338.699 146.294 338.365C142.963 337.754 139.593 337.744 136.243 338.241C129.533 339.243 123.195 342.517 118.528 347.442C117.258 348.778 119.282 350.811 120.551 349.465Z" fill="black"/>
<path d="M185.084 351.556C188.616 349.533 192.157 347.509 195.688 345.495C199.01 343.596 202.37 341.677 205.978 340.35C212.43 337.974 219.503 337.993 224.877 342.746C227.454 345.027 229.286 347.977 230.079 351.337C230.508 353.131 233.266 352.367 232.837 350.573C231.281 344.006 226.06 338.556 219.608 336.599C211.638 334.184 203.553 337.821 196.681 341.639C192.3 344.073 187.976 346.602 183.633 349.084C182.03 350 183.471 352.472 185.075 351.556H185.084Z" fill="black"/>
<path d="M137.408 401.552C138.099 401.552 138.658 400.992 138.658 400.302C138.658 399.611 138.099 399.051 137.408 399.051C136.717 399.051 136.158 399.611 136.158 400.302C136.158 400.992 136.717 401.552 137.408 401.552Z" fill="white"/>
<path d="M141.884 358.352C157.261 358.352 169.717 372.64 169.717 390.26C169.717 407.88 157.261 422.178 141.884 422.178C126.508 422.178 114.071 407.89 114.071 390.26C114.071 372.631 126.527 358.352 141.884 358.352ZM159.895 394.364C159.895 388.036 154.77 382.911 148.442 382.911C142.113 382.911 136.988 388.036 136.988 394.364C136.988 400.693 142.113 405.809 148.442 405.809C154.77 405.809 159.895 400.683 159.895 394.364Z" fill="#FAF9FC"/>
<path d="M147.573 389.783C147.85 391.568 146.609 393.238 144.824 393.496C143.039 393.773 141.369 392.532 141.111 390.747C140.834 388.962 142.075 387.292 143.86 387.034C145.645 386.757 147.315 387.998 147.573 389.783Z" fill="white"/>
<path d="M136.978 394.355C136.978 388.027 142.104 382.901 148.432 382.901C154.76 382.901 159.886 388.027 159.886 394.355C159.886 400.683 154.76 405.799 148.432 405.799C142.104 405.799 136.978 400.674 136.978 394.355ZM147.573 389.773C147.306 387.989 145.645 386.748 143.86 387.025C142.075 387.292 140.834 388.953 141.111 390.737C141.378 392.522 143.039 393.763 144.824 393.486C146.609 393.219 147.85 391.558 147.573 389.773Z" fill="black"/>
<path d="M169.708 390.251C169.708 407.89 157.252 422.169 141.875 422.169C126.498 422.169 114.061 407.88 114.061 390.251C114.061 372.621 126.517 358.342 141.875 358.342C157.232 358.342 169.708 372.631 169.708 390.251Z" stroke="black" stroke-miterlimit="10"/>
<path d="M504.892 212.85C478.472 212.85 454.658 201.73 437.868 183.92C485.258 180.14 522.55 140.481 522.55 92.1078C522.55 67.6539 513.015 45.424 497.457 28.9305C499.91 28.73 502.391 28.6346 504.892 28.6346C555.757 28.6346 597 69.8779 597 120.742C597 171.607 555.757 212.85 504.892 212.85Z" fill="#312AAA"/>
<path d="M522.55 92.1079C522.55 140.481 485.258 180.14 437.868 183.92C422.31 167.426 412.784 145.196 412.784 120.742C412.784 72.3787 450.066 32.7102 497.457 28.9305C513.015 45.424 522.55 67.654 522.55 92.1079Z" fill="#312AAA"/>
<path d="M430.442 0C456.853 0 480.667 11.1198 497.457 28.9304C450.066 32.7102 412.784 72.3786 412.784 120.742C412.784 145.196 422.31 167.426 437.868 183.92C435.415 184.12 432.943 184.216 430.442 184.216C379.568 184.216 338.334 142.982 338.334 92.1078C338.334 41.2338 379.568 0 430.442 0Z" fill="#6760E8"/>
<path d="M512.623 122.002C512.623 108.573 521.767 97.6917 533.059 97.6917C544.35 97.6917 553.504 108.582 553.504 122.002C553.504 135.422 544.35 146.313 533.059 146.313C521.767 146.313 512.623 135.422 512.623 122.002Z" fill="#FAF9FC"/>
<path d="M553.504 122.002C553.504 135.432 544.35 146.313 533.059 146.313C521.767 146.313 512.623 135.422 512.623 122.002C512.623 108.582 521.767 97.6917 533.059 97.6917C544.35 97.6917 553.504 108.582 553.504 122.002Z" stroke="black" stroke-miterlimit="10"/>
<path d="M536.38 137.475C540.956 137.475 544.665 133.765 544.665 129.19C544.665 124.614 540.956 120.905 536.38 120.905C531.805 120.905 528.095 124.614 528.095 129.19C528.095 133.765 531.805 137.475 536.38 137.475Z" fill="black"/>
<path d="M533.059 128.082C534.282 128.082 535.273 127.091 535.273 125.868C535.273 124.645 534.282 123.654 533.059 123.654C531.836 123.654 530.844 124.645 530.844 125.868C530.844 127.091 531.836 128.082 533.059 128.082Z" fill="white"/>
<path d="M471.008 91.23C474.053 88.0229 478.024 85.923 482.366 85.1117C484.438 84.7204 486.604 84.6631 488.685 84.9494C489.821 85.1022 491.109 85.3026 492.093 85.923C493.076 86.5434 493.734 87.5456 494.374 88.481C495.405 89.9891 497.896 88.5574 496.846 87.0398C495.195 84.6249 493.477 82.9641 490.518 82.3723C487.931 81.8474 485.297 81.7996 482.681 82.1719C477.489 82.9068 472.593 85.398 468.985 89.2064C467.715 90.5427 469.739 92.5662 471.008 91.23Z" fill="black"/>
<path d="M519.343 92.862C522.656 90.9625 525.958 89.0345 529.299 87.1828C532.429 85.4552 535.789 83.7657 539.388 83.3553C545.439 82.6585 551.137 86.5242 552.579 92.4802C553.008 94.2746 555.776 93.511 555.337 91.7166C553.734 85.0638 547.463 80.2246 540.619 80.4059C536.62 80.5109 532.849 82.0763 529.356 83.8994C525.471 85.9324 521.701 88.2136 517.893 90.3898C516.289 91.3062 517.73 93.7783 519.334 92.862H519.343Z" fill="black"/>
<path d="M491.023 121.219C491.233 122.565 490.298 123.806 488.962 124.016C487.616 124.217 486.375 123.281 486.174 121.945C485.964 120.599 486.9 119.358 488.236 119.158C489.582 118.948 490.823 119.883 491.023 121.219Z" fill="white"/>
<path d="M486.757 97.6437C498.287 97.6437 507.631 108.363 507.631 121.592C507.631 134.821 498.287 145.53 486.757 145.53C475.226 145.53 465.892 134.811 465.892 121.592C465.892 108.372 475.236 97.6437 486.757 97.6437ZM500.272 124.656C500.272 119.912 496.416 116.065 491.682 116.065C486.948 116.065 483.091 119.912 483.091 124.656C483.091 129.399 486.938 133.246 491.682 133.246C496.426 133.246 500.272 129.399 500.272 124.656Z" fill="#FAF9FC"/>
<path d="M483.082 124.656C483.082 119.912 486.928 116.065 491.672 116.065C496.416 116.065 500.263 119.912 500.263 124.656C500.263 129.399 496.406 133.246 491.672 133.246C486.938 133.246 483.082 129.399 483.082 124.656ZM488.246 119.158C486.9 119.358 485.974 120.599 486.184 121.945C486.384 123.291 487.625 124.217 488.971 124.016C490.317 123.806 491.243 122.565 491.033 121.219C490.832 119.874 489.591 118.948 488.246 119.158Z" fill="black"/>
<path d="M507.631 121.592C507.631 134.811 498.287 145.53 486.757 145.53C475.226 145.53 465.892 134.811 465.892 121.592C465.892 108.372 475.236 97.6437 486.757 97.6437C498.277 97.6437 507.631 108.363 507.631 121.592Z" stroke="black" stroke-miterlimit="10"/>
</svg>
