<svg width="796" height="378" viewBox="0 0 796 378" fill="none" xmlns="http://www.w3.org/2000/svg">
<g clip-path="url(#clip0_692_20806)">
<path d="M50.6643 111.01C50.8702 112.352 51.1448 113.672 51.4708 114.975L92.2253 147.949C95.7345 148.274 99.3466 148.228 102.985 147.778C117.45 145.985 130.251 137.86 137.253 126.026C134.601 124.691 131.667 123.217 130.286 122.526C130.037 122.402 129.719 122.247 129.376 122.076C123.164 119.011 119.055 116.752 119.192 115.697C119.218 115.542 119.329 115.332 119.758 115.231C121.766 114.75 123.748 114.688 125.85 114.634C127.068 114.595 128.321 114.564 129.608 114.44C130.68 114.339 132.688 114.378 135.022 114.44C137.647 114.502 140.599 114.564 142.572 114.409C143.104 111.126 143.053 105.617 142.727 102.031V101.884L142.872 101.845C147.9 100.681 151.246 97.9029 150.843 95.2411C150.406 92.3776 145.85 90.4919 140.238 90.8644H140.093L140.041 90.748C136.446 81.684 129.531 73.8928 120.573 68.8176C111.487 63.6726 100.677 61.554 90.1318 62.8655C64.8297 66.0007 47.1294 87.5973 50.6814 111.01H50.6643ZM113.993 99.8041C113.718 97.9883 115.125 96.312 117.133 96.0637C119.14 95.8154 120.994 97.0881 121.268 98.8962C121.543 100.704 120.144 102.388 118.137 102.637C116.129 102.885 114.276 101.612 114.001 99.7964L113.993 99.8041Z" fill="#4138E2"/>
<path d="M92.2253 147.948L51.4708 114.975C56.0868 133.002 72.7404 146.148 92.2253 147.948Z" fill="#312AAA"/>
<path d="M117.133 96.0714C115.125 96.3197 113.718 97.9959 113.993 99.8118C114.267 101.628 116.12 102.9 118.128 102.652C120.136 102.404 121.534 100.728 121.26 98.9116C120.985 97.0958 119.132 95.8231 117.124 96.0792L117.133 96.0714ZM117.939 101.038C117.21 100.805 117.167 99.3773 117.493 99.0824C117.836 98.7797 118.634 98.9194 119.02 99.3385C119.432 99.773 119.647 99.5945 119.218 100.588C119.037 101.007 118.471 101.201 117.939 101.038Z" fill="black"/>
<path d="M117.485 99.0824C117.158 99.3773 117.201 100.805 117.931 101.038C118.463 101.201 119.029 101.015 119.209 100.588C119.63 99.5946 119.424 99.7653 119.012 99.3385C118.617 98.9272 117.819 98.7798 117.485 99.0824Z" fill="white"/>
<path d="M143.626 54.477L143.49 54.4939L143.509 54.6169L143.645 54.6L143.626 54.477Z" fill="black"/>
<path d="M264.418 81.7984L264.29 81.8142L264.309 81.9372L264.437 81.9214L264.418 81.7984Z" fill="black"/>
<path d="M92.7144 148.352C72.6546 146.715 55.469 133.157 50.956 114.564" stroke="black" stroke-width="2" stroke-miterlimit="10"/>
<path d="M51.4708 114.975C56.0868 133.002 72.7404 146.148 92.2253 147.948" stroke="black" stroke-width="2" stroke-miterlimit="10"/>
<path d="M92.2253 147.948C95.7345 148.274 99.3466 148.228 102.984 147.778C117.45 145.985 130.251 137.86 137.253 126.026C134.601 124.691 131.667 123.217 130.286 122.526C130.037 122.402 129.719 122.247 129.376 122.076C123.164 119.011 119.055 116.752 119.192 115.697C119.218 115.542 119.329 115.332 119.758 115.231C121.766 114.75 123.748 114.688 125.85 114.634C127.068 114.595 128.321 114.564 129.608 114.44C130.68 114.339 132.688 114.378 135.022 114.44C137.647 114.502 140.599 114.564 142.572 114.409C143.104 111.126 143.053 105.617 142.727 102.031V101.884L142.872 101.845C147.9 100.681 151.246 97.9029 150.843 95.2411C150.406 92.3776 145.85 90.4919 140.238 90.8643H140.093L140.041 90.7479C136.446 81.684 129.531 73.8928 120.573 68.8176C111.487 63.6726 100.677 61.554 90.1318 62.8655C64.8297 66.0006 47.1294 87.5973 50.6814 111.01C50.8874 112.352 51.1619 113.672 51.488 114.975L50.9817 114.564C50.7072 113.408 50.4669 112.244 50.2953 111.064C46.7175 87.4576 64.5723 65.6825 90.0803 62.5163C100.719 61.197 111.624 63.3311 120.788 68.5227C129.78 73.6212 136.729 81.4202 140.367 90.4996C146.116 90.1582 150.783 92.1681 151.238 95.1945C151.667 98.0115 148.269 100.922 143.138 102.155C143.456 105.803 143.499 111.351 142.95 114.595L142.924 114.735L142.769 114.75C140.779 114.921 137.716 114.851 135.013 114.797C132.8 114.743 130.698 114.696 129.651 114.797C128.347 114.921 127.085 114.96 125.859 114.991C123.782 115.053 121.817 115.107 119.853 115.573C119.732 115.604 119.595 115.65 119.578 115.736C119.441 116.768 127.051 120.524 129.548 121.758C129.9 121.928 130.217 122.084 130.466 122.208C131.882 122.914 134.91 124.435 137.604 125.793L137.776 125.878L137.682 126.034C130.646 138.054 117.682 146.303 103.027 148.119C99.5354 148.554 96.0863 148.616 92.7144 148.344L92.2167 147.941L92.2253 147.948Z" stroke="black" stroke-width="2" stroke-miterlimit="10"/>
<path d="M86.0735 69.6636C85.001 71.5649 83.4395 72.985 81.3975 73.9007C80.3765 74.2809 79.1667 74.4206 78.2143 74.894C77.2448 75.3518 76.4555 76.0425 75.7433 76.8263C74.3448 78.4016 72.6889 79.6898 70.8614 80.7918C68.9824 81.7773 66.9575 82.5688 64.5466 82.8404C64.4007 82.8637 64.272 82.7008 64.3578 82.5844C66.1424 79.7752 68.5534 77.8894 71.6164 76.5547C73.4611 75.5381 75.9492 75.3829 77.5966 74.0636C78.4374 73.4351 79.0208 72.4728 79.793 71.7589C80.5652 71.0449 81.5433 70.5948 82.5386 70.1835C83.551 69.7878 84.6235 69.4696 85.8848 69.4075C86.0306 69.3998 86.1422 69.5472 86.0735 69.6636Z" fill="#FAF9FC"/>
<path d="M87.9902 69.0284C88.4315 68.9737 88.7517 68.6816 88.7054 68.3758C88.6591 68.0701 88.2638 67.8666 87.8225 67.9213C87.3812 67.9759 87.061 68.2681 87.1073 68.5738C87.1536 68.8796 87.5489 69.0831 87.9902 69.0284Z" fill="#FAF9FC" stroke="#FAF9FC" stroke-linecap="round" stroke-linejoin="round"/>
<path d="M525.433 110.164C526.66 117.358 531.422 123.861 537.711 128.292C544.129 132.816 552.151 135.113 560.19 135.726C564.214 136.029 568.255 135.928 572.262 135.486C577.075 134.95 581.794 133.895 586.487 132.785C586.805 132.707 587.131 132.94 587.268 133.173C589.405 136.844 591.567 140.522 594.046 144.03C598.311 150.028 603.716 155.833 611 158.914C612.871 159.705 614.87 160.248 616.955 160.241C618.945 160.225 620.893 159.713 622.669 158.937C625.929 157.525 628.683 155.321 631.266 153.047C628.194 152.977 625.166 153.8 622.146 154.226C618.945 154.684 615.762 154.583 612.862 153.171C609.936 151.766 607.663 149.516 605.604 147.219C600.593 141.624 596.637 135.268 593.926 128.517C593.866 128.354 593.866 128.206 593.918 128.082C593.875 127.826 593.978 127.539 594.304 127.392C596.14 126.53 597.882 125.552 599.563 124.466C606.41 120.004 611.841 113.78 614.938 106.672C618.001 99.6179 618.748 91.7956 617.152 84.3613C616.294 80.3648 614.861 76.1975 612.133 72.915C609.911 70.2377 606.839 68.2355 603.45 66.9241C595.934 64.0062 587.423 64.208 579.546 65.6902C570.289 67.4285 561.477 70.9439 553.112 74.8472C545.021 78.6342 537.127 83.3059 531.653 90.0262C526.943 95.8076 524.189 102.955 525.424 110.172L525.433 110.164Z" fill="#F488B4"/>
<path d="M586.213 134.221C590.031 140.778 594.012 147.413 599.666 152.837C602.523 155.577 605.775 157.936 609.464 159.69C611.369 160.598 613.428 161.304 615.59 161.505C617.632 161.692 619.7 161.397 621.631 160.768C626.255 159.278 629.996 156.081 633.411 153.008C633.866 152.605 633.685 151.914 633.025 151.828C632.853 151.805 632.682 151.782 632.51 151.774C629.55 151.487 626.607 152.108 623.716 152.612C620.713 153.14 617.607 153.52 614.681 152.473C611.747 151.402 609.439 149.275 607.448 147.126C604.994 144.48 602.789 141.655 600.859 138.683C598.714 135.385 596.912 131.924 595.445 128.346L595.29 127.966C595.033 127.314 594.124 127.539 593.926 128.074C593.875 128.206 593.883 128.354 593.935 128.509C596.646 135.26 600.601 141.616 605.612 147.211C607.671 149.508 609.945 151.766 612.871 153.163C615.779 154.576 618.954 154.676 622.154 154.219C625.166 153.792 628.203 152.962 631.275 153.039C631.806 153.039 632.338 153.086 632.862 153.163C632.725 152.767 632.604 152.372 632.476 151.984C632.081 152.341 631.686 152.69 631.275 153.039C628.692 155.313 625.938 157.517 622.677 158.929C620.893 159.705 618.945 160.217 616.963 160.233C614.878 160.233 612.879 159.697 611.009 158.906C603.724 155.825 598.319 150.02 594.055 144.022C591.575 140.514 589.405 136.844 587.277 133.165C587.14 132.925 586.813 132.7 586.496 132.777C581.803 133.887 577.084 134.942 572.271 135.478C568.264 135.92 564.223 136.021 560.199 135.718C552.151 135.105 544.137 132.808 537.719 128.284C531.43 123.853 526.668 117.35 525.441 110.156C524.206 102.939 526.96 95.792 531.67 90.0106C537.136 83.2903 545.038 78.6186 553.129 74.8317C561.494 70.9205 570.306 67.4129 579.563 65.6746C587.44 64.1924 595.951 63.9829 603.467 66.9085C606.856 68.22 609.928 70.2221 612.15 72.8994C614.878 76.1897 616.311 80.3492 617.169 84.3457C618.765 91.7722 618.019 99.6023 614.956 106.656C611.858 113.765 606.436 119.988 599.58 124.45C597.899 125.537 596.148 126.515 594.321 127.376C593.986 127.531 593.883 127.811 593.935 128.067C593.995 128.478 594.415 128.835 594.93 128.594C595.102 128.517 595.282 128.424 595.453 128.338C603.004 124.66 609.361 119.057 613.6 112.306C617.881 105.469 619.855 97.6156 619.409 89.7856C619.168 85.8589 618.327 81.9633 616.86 78.2539C615.333 74.4126 612.965 70.9748 609.361 68.4683C603.124 64.107 594.741 62.8965 587.045 63.3776C577.281 63.9906 567.912 67.0326 559.092 70.7187C550.22 74.4281 541.271 78.704 534.382 85.0984C528.693 90.3676 524.386 97.2044 523.751 104.654C523.108 112.213 526.497 119.631 531.997 125.226C537.633 130.961 545.295 134.539 553.541 136.153C562.06 137.829 570.889 137.363 579.375 135.703C581.674 135.26 583.956 134.741 586.239 134.205" stroke="black" stroke-width="2" stroke-miterlimit="10"/>
<path d="M586.213 134.221L586.703 134.104C586.445 133.98 586.179 133.848 585.921 133.724C586.016 133.887 586.119 134.058 586.213 134.221V134.221Z" stroke="black" stroke-width="2" stroke-miterlimit="10"/>
<path d="M549.336 82.7005C586.959 83.6162 599.323 78.9911 599.057 85.6649C598.594 97.3983 600.155 104.064 598.568 113.33C599.126 115.658 584.771 113.648 580.224 114.153C579.984 114.184 580.027 117.264 580.318 117.458C581.588 118.281 586.076 117.35 586.29 120.477C586.333 121.051 581.133 121.145 560.499 120.85C558.483 120.819 560.739 116.985 565.844 117.49C566.942 117.598 565.947 114.067 565.947 114.067C566.239 113.757 546.728 115.503 547.149 113.113C547.251 112.515 542.49 82.5375 549.345 82.7005H549.336ZM595.445 110.955C597.066 110.862 596.406 85.8356 595.445 85.8434C560.911 85.9365 549.508 84.5629 549.808 85.8434C550.357 88.1637 548.195 111.149 550.915 111.049C571.104 110.273 584.231 111.592 595.445 110.955Z" fill="#B7B7B9"/>
<path d="M595.445 85.8434C596.406 85.8434 597.067 110.862 595.445 110.955C584.24 111.592 571.104 110.273 550.915 111.049C548.187 111.149 550.358 88.1637 549.808 85.8434C549.508 84.5629 560.911 85.9365 595.445 85.8434Z" fill="#F6F5F8"/>
<path d="M549.337 82.7004C542.49 82.5375 547.252 112.507 547.14 113.113C546.72 115.503 566.239 113.757 565.939 114.067C565.939 114.067 566.934 117.598 565.836 117.489C560.739 116.985 558.474 120.819 560.49 120.85C581.125 121.145 586.325 121.059 586.282 120.477C586.076 117.35 581.58 118.289 580.31 117.458C580.018 117.264 579.967 114.184 580.216 114.153C584.763 113.648 599.109 115.666 598.559 113.33C600.138 104.064 598.577 97.3905 599.048 85.6648C599.314 78.991 586.951 83.6239 549.328 82.7004H549.337Z" stroke="black" stroke-width="2" stroke-miterlimit="10"/>
<path d="M595.445 110.955C584.24 111.592 571.104 110.273 550.915 111.049C548.187 111.149 550.358 88.1637 549.808 85.8434C549.508 84.5629 560.911 85.9365 595.445 85.8434C596.406 85.8434 597.067 110.862 595.445 110.955V110.955Z" stroke="black" stroke-width="2" stroke-miterlimit="10"/>
<path d="M739.51 145.364C739.184 146.73 738.798 148.073 738.343 149.384L693.625 180.526C689.978 180.619 686.272 180.324 682.565 179.61C667.825 176.77 655.333 167.527 649.121 154.871C651.961 153.675 655.101 152.364 656.585 151.743C656.86 151.627 657.186 151.495 657.563 151.34C664.213 148.616 668.631 146.575 668.58 145.473C668.571 145.31 668.468 145.093 668.039 144.953C666.015 144.324 663.972 144.123 661.81 143.921C660.566 143.804 659.271 143.68 657.958 143.463C656.868 143.285 654.792 143.191 652.39 143.083C649.687 142.966 646.633 142.834 644.616 142.54C644.342 139.125 644.865 133.452 645.5 129.79L645.526 129.642L645.363 129.588C640.292 128.051 637.075 124.955 637.709 122.239C638.396 119.321 643.252 117.699 648.992 118.46L649.146 118.475L649.206 118.343C653.668 109.264 661.441 101.721 671.085 97.1113C680.875 92.4396 692.175 91.004 702.925 93.076C728.708 98.0425 745.104 121.494 739.484 145.349L739.51 145.364ZM675.264 129.479C675.701 127.632 674.397 125.809 672.347 125.413C670.296 125.017 668.288 126.197 667.859 128.051C667.43 129.906 668.726 131.722 670.768 132.118C672.81 132.513 674.826 131.326 675.264 129.479Z" fill="#FFEA28"/>
<path d="M693.625 180.526L738.343 149.384C732.08 167.628 713.83 180.014 693.625 180.526Z" fill="#FFF27E"/>
<path d="M672.347 125.413C674.397 125.808 675.701 127.624 675.264 129.479C674.826 131.334 672.818 132.513 670.768 132.118C668.717 131.722 667.422 129.898 667.859 128.051C668.297 126.204 670.304 125.025 672.347 125.413ZM671.102 130.472C671.875 130.286 672.029 128.819 671.72 128.494C671.394 128.152 670.562 128.253 670.124 128.649C669.661 129.068 669.464 128.866 669.815 129.929C669.961 130.371 670.536 130.612 671.094 130.48L671.102 130.472Z" fill="black"/>
<path d="M671.72 128.494C672.029 128.82 671.866 130.286 671.102 130.473C670.536 130.604 669.97 130.372 669.824 129.922C669.472 128.866 669.67 129.06 670.133 128.641C670.57 128.245 671.403 128.144 671.729 128.486L671.72 128.494Z" fill="white"/>
<path d="M693.084 180.906C713.865 180.603 732.698 167.83 738.909 149.004" stroke="black" stroke-width="2" stroke-miterlimit="10"/>
<path d="M738.343 149.384L738.901 148.996C739.278 147.832 739.621 146.645 739.905 145.434C745.567 121.385 729.025 97.7321 703.028 92.7268C692.192 90.6393 680.789 92.0827 670.914 96.8009C661.236 101.426 653.419 108.984 648.915 118.079C643.02 117.334 638.053 119.073 637.323 122.161C636.646 125.033 639.897 128.261 645.08 129.883C644.445 133.615 643.938 139.327 644.23 142.703V142.842L644.402 142.866C646.435 143.176 649.593 143.316 652.372 143.44C654.663 143.548 656.825 143.642 657.889 143.812C659.219 144.03 660.523 144.154 661.776 144.278C663.912 144.48 665.929 144.674 667.911 145.294C668.031 145.333 668.177 145.395 668.177 145.481C668.228 146.552 660.086 149.896 657.409 150.99C657.031 151.146 656.697 151.285 656.422 151.402C654.904 152.03 651.669 153.396 648.777 154.607L648.597 154.684L648.675 154.847C654.912 167.698 667.55 177.088 682.488 179.967C686.04 180.65 689.592 180.953 693.084 180.898L693.625 180.518" stroke="black" stroke-width="2" stroke-miterlimit="10"/>
<path d="M728.039 118.801C725.173 117.785 722.762 116.209 720.797 114.137C719.888 113.074 719.21 111.801 718.215 110.816C716.276 108.79 713.298 107.774 711.11 106.02C708.751 104.398 706.666 102.536 704.933 100.355C704.058 99.2609 703.217 98.1357 702.565 96.8397C702.496 96.7078 702.651 96.5526 702.805 96.6147C706.966 98.2443 710.476 100.797 713.358 103.902C715.4 105.795 716.662 108.441 718.987 110.094C720.119 110.94 721.561 111.499 722.779 112.267C723.989 113.043 724.958 114.044 725.894 115.076C726.812 116.124 727.661 117.241 728.27 118.584C728.33 118.716 728.185 118.863 728.03 118.809L728.039 118.801Z" fill="#FAF9FC"/>
<path d="M730.382 122.199C730.93 122.099 731.257 121.493 731.113 120.846C730.968 120.199 730.407 119.756 729.859 119.856C729.311 119.956 728.984 120.562 729.128 121.209C729.273 121.856 729.834 122.299 730.382 122.199Z" fill="#FAF9FC" stroke="#FAF9FC" stroke-linecap="round" stroke-linejoin="round"/>
<path d="M519.221 196.171C519.951 196.171 520.542 195.761 520.542 195.255C520.542 194.749 519.951 194.339 519.221 194.339C518.491 194.339 517.9 194.749 517.9 195.255C517.9 195.761 518.491 196.171 519.221 196.171Z" fill="#FAF9FC" stroke="#FAF9FC" stroke-width="2" stroke-linecap="round" stroke-linejoin="round"/>
<path d="M441.144 230.424H396.709V270.606H441.144V230.424Z" fill="#F488B4"/>
<path d="M441.144 230.424H396.709V270.606H441.144V230.424Z" stroke="black" stroke-width="4" stroke-miterlimit="10"/>
<path d="M441.153 250.515H541.803V308.872H575.488" stroke="black" stroke-width="4" stroke-miterlimit="10"/>
<path d="M646.281 312.434H669.309V213.654" stroke="black" stroke-width="4" stroke-miterlimit="10"/>
<path d="M794.284 48.354H496.69V213.662H794.284V48.354Z" stroke="black" stroke-width="4" stroke-miterlimit="10"/>
<path d="M286.234 337.903H310.824L323.128 357.171L310.824 376.44L286.225 376.448L273.922 357.171L286.234 337.903Z" fill="#4138E2"/>
<path d="M310.824 337.903L323.128 357.171L310.824 376.44L286.225 376.448L273.922 357.171L286.234 337.903H310.824Z" stroke="black" stroke-width="4" stroke-miterlimit="10"/>
<path d="M144.074 187.394C65.4475 187.394 1.71597 145.791 1.71597 94.4728C1.71597 43.1545 65.456 1.552 144.074 1.552C222.7 1.552 286.431 43.1545 286.431 94.4728C286.431 145.791 222.691 187.394 144.074 187.394Z" stroke="black" stroke-width="4" stroke-miterlimit="10"/>
<path d="M635.136 291.512H585.784C580.098 291.512 575.488 295.682 575.488 300.825V316.912C575.488 322.055 580.098 326.224 585.784 326.224H635.136C640.822 326.224 645.431 322.055 645.431 316.912V300.825C645.431 295.682 640.822 291.512 635.136 291.512Z" fill="#FFEA28" stroke="black" stroke-width="4" stroke-miterlimit="10"/>
<path d="M163.722 36.9696C161.208 40.4074 160.032 44.66 159.432 48.7108C158.308 56.2537 159.56 64.0683 163.087 70.9749C166.647 77.9435 172.499 83.9034 179.663 88.0163C181.413 89.0251 183.241 89.902 185.128 90.6703C185.463 90.81 185.583 91.0738 185.566 91.3222C185.566 91.3222 185.566 91.3247 185.566 91.3299C185.618 91.4618 185.626 91.6093 185.575 91.7722C183.284 98.7021 179.732 105.283 175.073 111.157C173.168 113.571 171.015 115.945 168.183 117.513C165.352 119.08 162.177 119.344 158.934 119.057C155.88 118.786 152.791 118.11 149.719 118.359C152.456 120.501 155.373 122.573 158.72 123.806C160.564 124.489 162.546 124.908 164.554 124.815C166.639 124.714 168.604 124.062 170.431 123.17C177.544 119.693 182.589 113.586 186.475 107.347C188.741 103.707 190.671 99.9049 192.576 96.1102C192.704 95.8619 193.005 95.6135 193.339 95.6834C198.11 96.5448 202.915 97.3518 207.779 97.6312C211.829 97.8718 215.896 97.7631 219.894 97.2354C227.916 96.2033 235.818 93.4717 241.962 88.5983C247.985 83.8103 252.335 77.0434 253.107 69.7643C253.879 62.4697 250.653 55.4389 245.557 49.8904C239.637 43.4494 231.426 39.1735 223.052 35.8056C214.412 32.3212 205.343 29.256 195.948 28.0066C187.943 26.9434 179.406 27.184 172.036 30.5131C168.724 32.0031 165.772 34.1759 163.713 36.9774L163.722 36.9696Z" fill="#FFEA28"/>
<path d="M193.683 97.0958C190.285 103.87 186.707 110.746 181.396 116.481C178.711 119.375 175.596 121.928 172.01 123.876C170.157 124.877 168.132 125.708 165.987 126.018C163.936 126.313 161.86 126.127 159.878 125.599C155.15 124.35 151.178 121.339 147.557 118.436C147.094 118.056 147.222 117.365 147.875 117.234C148.055 117.202 148.226 117.171 148.398 117.148C151.349 116.706 154.335 117.171 157.278 117.528C160.315 117.901 163.456 118.126 166.321 116.908C169.196 115.681 171.366 113.431 173.228 111.173C175.51 108.395 177.544 105.438 179.286 102.357C181.225 98.9427 182.82 95.373 184.056 91.7024C184.099 91.5705 184.15 91.4463 184.185 91.3144C184.408 90.6548 185.326 90.8255 185.557 91.3299C185.557 91.3299 185.557 91.3325 185.557 91.3377C185.609 91.4696 185.618 91.617 185.566 91.78C183.275 98.7099 179.723 105.291 175.064 111.165C173.159 113.578 171.006 115.953 168.175 117.521C165.343 119.088 162.169 119.352 158.925 119.065C155.871 118.793 152.782 118.118 149.711 118.366C149.179 118.405 148.655 118.467 148.123 118.568C148.226 118.165 148.329 117.761 148.441 117.365C148.861 117.699 149.282 118.025 149.711 118.359C152.448 120.501 155.365 122.573 158.711 123.806C160.556 124.489 162.538 124.908 164.545 124.815C166.63 124.714 168.595 124.062 170.423 123.17C177.535 119.693 182.58 113.586 186.467 107.347C188.732 103.707 190.662 99.905 192.567 96.1102C192.696 95.8619 192.996 95.6136 193.331 95.6834C198.101 96.5448 202.906 97.3518 207.771 97.6312C211.821 97.8718 215.887 97.7631 219.886 97.2354C227.908 96.2033 235.81 93.4717 241.953 88.5983C247.976 83.8103 252.326 77.0434 253.098 69.7643C253.871 62.4697 250.645 55.4389 245.548 49.8904C239.628 43.4494 231.417 39.1735 223.043 35.8056C214.403 32.3212 205.334 29.256 195.939 28.0066C187.934 26.9434 179.397 27.184 172.027 30.5131C168.715 32.0031 165.764 34.1759 163.704 36.9774C161.191 40.4152 160.015 44.6677 159.415 48.7186C158.291 56.2615 159.543 64.076 163.07 70.9826C166.63 77.9513 172.482 83.9112 179.646 88.0241C181.396 89.0329 183.224 89.9098 185.111 90.6781C185.446 90.8177 185.566 91.0816 185.549 91.3299" stroke="black" stroke-width="2" stroke-miterlimit="10"/>
<path d="M193.683 97.0956C193.52 97.0646 193.357 97.0413 193.185 97.0103L193.941 96.5757C193.855 96.7542 193.769 96.9171 193.675 97.0956H193.683Z" stroke="black" stroke-width="2" stroke-miterlimit="10"/>
<path d="M185.566 91.3298C185.54 91.7489 185.137 92.1446 184.605 91.9274C184.416 91.8498 184.245 91.7799 184.065 91.6946C176.257 88.4042 169.513 83.1195 164.828 76.5699C160.101 69.9427 157.604 62.1669 157.553 54.2903C157.527 50.3404 158.145 46.3827 159.372 42.5957C160.641 38.6613 162.795 35.0838 166.244 32.3755C172.224 27.6883 180.564 26.0121 188.303 26.0897C198.127 26.1984 207.728 28.7515 216.814 31.9875C225.952 35.239 235.201 39.057 242.528 45.1022C248.577 50.0921 253.33 56.7193 254.454 64.1613C255.595 71.6965 252.661 79.3248 247.504 85.2225C242.219 91.2755 234.755 95.272 226.604 97.3285C218.161 99.4625 209.281 99.4548 200.658 98.2442C198.324 97.9105 195.991 97.4992 193.674 97.0879" stroke="black" stroke-width="2" stroke-miterlimit="10"/>
<path d="M190.122 41.2144C224.819 50.8681 237.629 49.4557 235.475 55.6018C231.692 66.3963 231.228 72.9614 227.11 81.2028C226.955 83.4998 214.197 78.2694 209.83 77.6719C209.598 77.6408 208.757 80.5121 208.981 80.7604C209.916 81.8236 214.36 82.0098 213.657 84.9587C213.528 85.5097 208.672 84.3689 189.581 79.2705C187.711 78.7738 190.911 75.7396 195.502 77.4003C196.488 77.7572 196.574 74.2419 196.574 74.2419C196.934 74.0246 178.299 71.0835 179.38 68.9572C179.654 68.4217 183.799 39.4528 190.113 41.2144H190.122ZM224.888 78.2617C226.423 78.5565 232.961 55.1517 232.069 54.9267C199.955 46.9337 189.744 42.9915 189.659 44.2486C189.504 46.5379 180.916 67.3896 183.481 67.9251C202.46 71.9293 214.283 76.2285 224.879 78.2539L224.888 78.2617Z" fill="#B7B7B9"/>
<path d="M232.069 54.9189C232.961 55.1439 226.423 78.5487 224.888 78.2538C214.292 76.2284 202.468 71.9293 183.49 67.925C180.924 67.3818 189.513 46.5301 189.667 44.2486C189.753 42.9914 199.963 46.9336 232.078 54.9267L232.069 54.9189Z" fill="#F6F5F8"/>
<path d="M190.122 41.2145C183.808 39.4607 179.663 68.4218 179.389 68.9572C178.308 71.0835 196.952 74.0247 196.583 74.2419C196.583 74.2419 196.497 77.7573 195.51 77.4004C190.92 75.7397 187.72 78.7739 189.59 79.2706C208.681 84.3768 213.537 85.5098 213.666 84.9588C214.369 82.0099 209.925 81.8237 208.99 80.7605C208.766 80.5122 209.607 77.6332 209.839 77.672C214.206 78.2695 226.964 83.4921 227.119 81.2029C231.237 72.9615 231.692 66.3964 235.484 55.6019C237.638 49.4636 224.828 50.8759 190.131 41.2145H190.122Z" stroke="black" stroke-width="2" stroke-miterlimit="10"/>
<path d="M224.888 78.2539C214.292 76.2284 202.468 71.9293 183.49 67.925C180.924 67.3818 189.513 46.5301 189.667 44.2486C189.753 42.9914 199.963 46.9336 232.078 54.9267C232.97 55.1517 226.432 78.5565 224.896 78.2616L224.888 78.2539Z" stroke="black" stroke-width="2" stroke-miterlimit="10"/>
<path d="M323.128 357.172H367.7V299.048H327.392V248.536H359.223" stroke="black" stroke-width="4" stroke-miterlimit="10"/>
<path d="M395.353 248.723L359.223 248.536" stroke="black" stroke-width="4" stroke-miterlimit="10"/>
<path d="M224.69 251.578L214.583 260.495L216.968 273.082L204.468 267.138L191.967 273.082L194.352 260.495L184.236 251.578L198.213 249.739L204.468 238.285L210.714 249.739L224.69 251.578Z" fill="#FFEA28"/>
<path d="M204.468 238.285L210.714 249.739L224.69 251.578L214.583 260.495L216.968 273.082L204.468 267.138L191.967 273.082L194.352 260.495L184.236 251.578L198.213 249.739L204.468 238.285Z" stroke="black" stroke-width="4" stroke-miterlimit="10"/>
<path d="M139.423 187.137L138.514 261.108L193.794 260.487" stroke="black" stroke-width="4" stroke-miterlimit="10"/>
<path d="M286.225 337.903L286.431 260.2H216.11" stroke="black" stroke-width="4" stroke-miterlimit="10"/>
</g>
<defs>
<clipPath id="clip0_692_20806">
<rect width="796" height="378" fill="white"/>
</clipPath>
</defs>
</svg>
