<svg width="261" height="261" viewBox="0 0 261 261" fill="none" xmlns="http://www.w3.org/2000/svg">
<path d="M192.266 125.558L191.913 125.912L192.266 126.265L196.436 130.434C200.846 134.844 200.846 141.994 196.436 146.404C192.026 150.814 184.876 150.814 180.466 146.404L165.824 131.762L165.47 131.409L165.117 131.762L78.8128 218.066C68.6463 228.233 52.1631 228.233 41.9966 218.066C31.8301 207.9 31.8301 191.416 41.9966 181.25L128.3 94.9462L128.654 94.5926L128.3 94.239L113.757 79.6962C109.347 75.2862 109.347 68.1362 113.757 63.7263C118.167 59.3163 125.317 59.3163 129.727 63.7263L133.897 67.8955L134.25 68.2491L134.604 67.8955L160.453 42.0461C176.376 26.123 202.193 26.123 218.116 42.0461C234.039 57.9692 234.039 83.7856 218.116 99.7086L192.266 125.558ZM157.535 124.181L157.888 123.827L157.535 123.473L136.688 102.627L136.335 102.274L135.981 102.627L49.8018 188.807C43.8499 194.758 43.85 204.408 49.8018 210.36C55.7536 216.312 65.4034 216.312 71.3552 210.36L157.535 124.181Z" fill="#001100" stroke="#010000"/>
</svg>
