<?xml version="1.0" encoding="UTF-8" standalone="no"?>
<svg
   width="41"
   height="41"
   viewBox="0 0 41 41"
   fill="none"
   version="1.1"
   id="svg12"
   sodipodi:docname="instagram-normal.svg"
   xmlns:inkscape="http://www.inkscape.org/namespaces/inkscape"
   xmlns:sodipodi="http://sodipodi.sourceforge.net/DTD/sodipodi-0.dtd"
   xmlns="http://www.w3.org/2000/svg"
   xmlns:svg="http://www.w3.org/2000/svg">
  <defs
     id="defs16" />
  <sodipodi:namedview
     id="namedview14"
     pagecolor="#ffffff"
     bordercolor="#000000"
     borderopacity="0.25"
     inkscape:showpageshadow="2"
     inkscape:pageopacity="0.0"
     inkscape:pagecheckerboard="0"
     inkscape:deskcolor="#d1d1d1"
     showgrid="false" />
  <path
     d="m 20.4992,4.1042 c 5.3404,0 5.9723,0.0206 8.0816,0.1167 1.9498,0.0889 3.0088,0.4144 3.7137,0.6883 0.9336,0.3628 1.5997,0.7962 2.2999,1.4956 0.7002,0.7002 1.1336,1.3663 1.4956,2.2999 0.2739,0.7049 0.5994,1.7639 0.6883,3.7137 0.0961,2.1085 0.1167,2.7412 0.1167,8.0816 0,5.3404 -0.0206,5.9723 -0.1167,8.0816 -0.0889,1.9498 -0.4144,3.0088 -0.6883,3.7137 -0.3628,0.9336 -0.7962,1.5997 -1.4956,2.2999 -0.7002,0.7002 -1.3663,1.1336 -2.2999,1.4956 -0.7049,0.2739 -1.7639,0.5994 -3.7137,0.6883 -2.1085,0.0961 -2.7412,0.1167 -8.0816,0.1167 -5.3404,0 -5.9731,-0.0206 -8.0816,-0.1167 C 10.4678,36.6902 9.4088,36.3647 8.7039,36.0908 7.7703,35.728 7.1042,35.2946 6.404,34.5952 5.7038,33.895 5.2704,33.2289 4.9084,32.2953 4.6345,31.5904 4.309,30.5314 4.2201,28.5816 4.124,26.4731 4.1034,25.8404 4.1034,20.5 4.1034,15.1596 4.124,14.5277 4.2201,12.4184 4.309,10.4686 4.6345,9.4096 4.9084,8.7047 5.2712,7.7711 5.7046,7.105 6.404,6.4048 7.1034,5.7046 7.7703,5.2712 8.7039,4.9092 9.4088,4.6353 10.4678,4.3098 12.4176,4.2209 14.5261,4.1248 15.1588,4.1042 20.4992,4.1042 Z m 0,-3.6034 c -5.4317,0 -6.1128,0.023 -8.2459,0.1207 C 10.1249,0.7183 8.6705,1.0565 7.3987,1.5511 6.0833,2.0623 4.9679,2.7459 3.8565,3.8581 2.7443,4.9703 2.0608,6.0849 1.5495,7.4003 1.0557,8.6721 0.7175,10.1257 0.6207,12.2541 0.523,14.3872 0.5,15.0683 0.5,20.5 c 0,5.4317 0.023,6.1128 0.1207,8.2459 0.0968,2.1284 0.435,3.5828 0.9296,4.8546 0.5112,1.3154 1.1948,2.4308 2.307,3.5422 1.1122,1.1122 2.2268,1.7958 3.5422,2.307 1.2718,0.4946 2.7262,0.8328 4.8546,0.9296 2.1331,0.0977 2.8142,0.1207 8.2459,0.1207 5.4317,0 6.1128,-0.023 8.2459,-0.1207 2.1284,-0.0968 3.5828,-0.435 4.8546,-0.9296 1.3154,-0.5112 2.4308,-1.1948 3.5422,-2.307 1.1122,-1.1122 1.7958,-2.2268 2.307,-3.5422 0.4946,-1.2718 0.8328,-2.7262 0.9296,-4.8546 C 40.477,26.6128 40.5,25.9317 40.5,20.5 40.5,15.0683 40.477,14.3872 40.3793,12.2541 40.2825,10.1257 39.9443,8.6713 39.4497,7.3995 38.9385,6.0841 38.2549,4.9687 37.1427,3.8573 36.0305,2.7451 34.9159,2.0615 33.6005,1.5503 32.3287,1.0557 30.8743,0.7175 28.7459,0.6207 26.6128,0.523 25.9317,0.5 20.5,0.5 Z"
     fill="#010000"
     stroke="black"
     id="path6"
     style="fill:#f9f9f9;fill-opacity:1;stroke:#f9f9f9;stroke-opacity:1" />
  <path
     d="m 20.499,10.2305 c -5.6722,0 -10.2695,4.5981 -10.2695,10.2695 0,5.6714 4.5981,10.2695 10.2695,10.2695 5.6714,0 10.2695,-4.5981 10.2695,-10.2695 0,-5.6714 -4.5981,-10.2695 -10.2695,-10.2695 z m 0,16.9364 c -3.682,0 -6.6661,-2.9849 -6.6661,-6.6661 0,-3.6812 2.9849,-6.6662 6.6661,-6.6662 3.6812,0 6.6662,2.985 6.6662,6.6662 0,3.6812 -2.985,6.6661 -6.6662,6.6661 z"
     fill="#010000"
     stroke="black"
     id="path8"
     style="fill:#f9f9f9;fill-opacity:1;stroke:#f9f9f9;stroke-opacity:1" />
  <path
     d="m 31.1753,12.2236 c 1.3254,0 2.3998,-1.0745 2.3998,-2.3999 0,-1.3254 -1.0744,-2.3999 -2.3998,-2.3999 -1.3255,0 -2.3999,1.0745 -2.3999,2.3999 0,1.3254 1.0744,2.3999 2.3999,2.3999 z"
     fill="#010000"
     id="path10"
     style="fill:#f9f9f9;fill-opacity:1;stroke:#f9f9f9;stroke-opacity:1" />
</svg>
