<svg width="100" height="100" viewBox="0 0 100 100" fill="none" xmlns="http://www.w3.org/2000/svg">
<path d="M83.9998 20H20.5596V84H83.9998V20Z" fill="#010000" stroke="black" stroke-miterlimit="10"/>
<path d="M16 16H77.4577V78H16V16Z" fill="white" stroke="black" stroke-miterlimit="10"/>
<path d="M46.4992 30.6042C51.8396 30.6042 52.4715 30.6248 54.5808 30.7209C56.5306 30.8098 57.5896 31.1353 58.2945 31.4092C59.2281 31.772 59.8942 32.2054 60.5944 32.9048C61.2946 33.605 61.728 34.2711 62.09 35.2047C62.3639 35.9096 62.6894 36.9686 62.7783 38.9184C62.8744 41.0269 62.895 41.6596 62.895 47C62.895 52.3404 62.8744 52.9723 62.7783 55.0816C62.6894 57.0314 62.3639 58.0904 62.09 58.7953C61.7272 59.7289 61.2938 60.395 60.5944 61.0952C59.8942 61.7954 59.2281 62.2288 58.2945 62.5908C57.5896 62.8647 56.5306 63.1902 54.5808 63.2791C52.4723 63.3752 51.8396 63.3958 46.4992 63.3958C41.1588 63.3958 40.5261 63.3752 38.4176 63.2791C36.4678 63.1902 35.4088 62.8647 34.7039 62.5908C33.7703 62.228 33.1042 61.7946 32.404 61.0952C31.7038 60.395 31.2704 59.7289 30.9084 58.7953C30.6345 58.0904 30.309 57.0314 30.2201 55.0816C30.124 52.9731 30.1034 52.3404 30.1034 47C30.1034 41.6596 30.124 41.0277 30.2201 38.9184C30.309 36.9686 30.6345 35.9096 30.9084 35.2047C31.2712 34.2711 31.7046 33.605 32.404 32.9048C33.1034 32.2046 33.7703 31.7712 34.7039 31.4092C35.4088 31.1353 36.4678 30.8098 38.4176 30.7209C40.5261 30.6248 41.1588 30.6042 46.4992 30.6042ZM46.4992 27.0008C41.0675 27.0008 40.3864 27.0238 38.2533 27.1215C36.1249 27.2183 34.6705 27.5565 33.3987 28.0511C32.0833 28.5623 30.9679 29.2459 29.8565 30.3581C28.7443 31.4703 28.0608 32.5849 27.5495 33.9003C27.0557 35.1721 26.7175 36.6257 26.6207 38.7541C26.523 40.8872 26.5 41.5683 26.5 47C26.5 52.4317 26.523 53.1128 26.6207 55.2459C26.7175 57.3743 27.0557 58.8287 27.5503 60.1005C28.0615 61.4159 28.7451 62.5313 29.8573 63.6427C30.9695 64.7549 32.0841 65.4385 33.3995 65.9497C34.6713 66.4443 36.1257 66.7825 38.2541 66.8793C40.3872 66.977 41.0683 67 46.5 67C51.9317 67 52.6128 66.977 54.7459 66.8793C56.8743 66.7825 58.3287 66.4443 59.6005 65.9497C60.9159 65.4385 62.0313 64.7549 63.1427 63.6427C64.2549 62.5305 64.9385 61.4159 65.4497 60.1005C65.9443 58.8287 66.2825 57.3743 66.3793 55.2459C66.477 53.1128 66.5 52.4317 66.5 47C66.5 41.5683 66.477 40.8872 66.3793 38.7541C66.2825 36.6257 65.9443 35.1713 65.4497 33.8995C64.9385 32.5841 64.2549 31.4687 63.1427 30.3573C62.0305 29.2451 60.9159 28.5615 59.6005 28.0503C58.3287 27.5557 56.8743 27.2175 54.7459 27.1207C52.6128 27.023 51.9317 27 46.5 27L46.4992 27.0008Z" fill="#010000" stroke="black"/>
<path d="M46.499 36.7305C40.8268 36.7305 36.2295 41.3286 36.2295 47C36.2295 52.6714 40.8276 57.2695 46.499 57.2695C52.1704 57.2695 56.7685 52.6714 56.7685 47C56.7685 41.3286 52.1704 36.7305 46.499 36.7305V36.7305ZM46.499 53.6669C42.817 53.6669 39.8329 50.682 39.8329 47.0008C39.8329 43.3196 42.8178 40.3346 46.499 40.3346C50.1802 40.3346 53.1652 43.3196 53.1652 47.0008C53.1652 50.682 50.1802 53.6669 46.499 53.6669Z" fill="#010000" stroke="black"/>
<path d="M57.1753 38.7236C58.5007 38.7236 59.5751 37.6491 59.5751 36.3237C59.5751 34.9983 58.5007 33.9238 57.1753 33.9238C55.8498 33.9238 54.7754 34.9983 54.7754 36.3237C54.7754 37.6491 55.8498 38.7236 57.1753 38.7236Z" fill="#010000"/>
</svg>
