<?xml version="1.0" encoding="UTF-8" standalone="no"?>
<svg
   width="38.764656"
   height="45.706375"
   viewBox="0 0 38.764656 45.706375"
   fill="none"
   version="1.1"
   id="svg8"
   sodipodi:docname="pinterest-normal.svg"
   xmlns:inkscape="http://www.inkscape.org/namespaces/inkscape"
   xmlns:sodipodi="http://sodipodi.sourceforge.net/DTD/sodipodi-0.dtd"
   xmlns="http://www.w3.org/2000/svg"
   xmlns:svg="http://www.w3.org/2000/svg">
  <defs
     id="defs12" />
  <sodipodi:namedview
     id="namedview10"
     pagecolor="#ffffff"
     bordercolor="#000000"
     borderopacity="0.25"
     inkscape:showpageshadow="2"
     inkscape:pageopacity="0.0"
     inkscape:pagecheckerboard="0"
     inkscape:deskcolor="#d1d1d1"
     showgrid="false" />
  <path
     d="m 38.264659,19.544032 c 0,4.8928 -1.6827,9.2863 -4.7511,12.5815 -3.0684,3.1953 -6.8296,4.7929 -10.7889,4.7929 -3.1674,0 -5.444,-0.8986 -7.1266,-1.8971 l -1.8807,8.2878 c -0.099,0.4992 -0.3959,0.9985 -0.8908,1.3979 -0.396,0.2996 -0.9898,0.4993 -1.4847,0.4993 -0.198,0 -0.396,0 -0.5939,-0.0999 -0.297,-0.0998 -0.5939,-0.1997 -0.8909,-0.3994 -0.2969,-0.1997 -0.4949,-0.3994 -0.6928,-0.699 -0.198,-0.2995 -0.297,-0.5991 -0.297,-0.8987 0,-0.2995 0,-0.5991 0,-0.9985 l 6.5328,-28.0587 c 0.099,-0.2996 0.198,-0.5992 0.3959,-0.8987 0.198,-0.2996 0.3959,-0.4993 0.6929,-0.699 0.2969,-0.1997 0.5939,-0.2995 0.8908,-0.2995 0.297,-0.0999 0.5939,0 0.9898,0 0.297,0.0998 0.5939,0.1997 0.8909,0.3994 0.2969,0.1997 0.4948,0.3994 0.6928,0.699 0.198,0.2995 0.297,0.5991 0.297,0.8986 0.099,0.2996 0,0.5991 0,0.9986 l -3.3654,14.4787 c 0.6929,0.8986 2.4746,2.2966 5.8399,2.2966 5.246,0 10.5909,-4.5932 10.5909,-12.3818 0,-2.1968 -0.4949,-4.3935 -1.4847,-6.2907 -0.9898,-1.9971 -2.3755,-3.6946004 -4.1571,-4.9927004 -1.7817,-1.2981 -3.7613,-2.1968 -5.9389,-2.5962 -2.1776,-0.3994 -4.3552,-0.1997 -6.4338,0.3994 -2.0786,0.5992 -3.9593,1.7974 -5.543,3.2952 -1.5836,1.4978004 -2.7714,3.3950004 -3.4643,5.3921004 -0.6929,2.0969 -0.9898,4.2936 -0.6928,6.3905 0.2969,2.1968 0.9898,4.2938 2.2765,6.0911 0.198,0.2996 0.3959,0.5991 0.3959,0.8987 0.099,0.2995 0.099,0.6989 0,0.9985 -0.0989,0.2996 -0.1979,0.699 -0.3959,0.8987 -0.1979,0.2996 -0.3959,0.4993 -0.6928,0.699 -0.297,0.1997 -0.5939,0.2995 -0.8909,0.3994 -0.2969,0.0998 -0.6929,0.0998 -0.9898,0 -0.2969,-0.0999 -0.5939,-0.1997 -0.8908,-0.3994 -0.297,-0.1997 -0.4949,-0.4993 -0.6929,-0.7989 -1.6827,-2.4963 -2.6725,-5.2922 -3.06839998,-8.1879 -0.3959,-2.8957 0,-5.8914 0.98979998,-8.6872 0.9898,-2.7959 2.5735,-5.2923004 4.7511,-7.3892004 2.1776,-2.0969 4.6521,-3.5947 7.5226,-4.3935 2.8704,-0.79880003 5.7409,-0.99850003 8.7103,-0.49930003 2.8704,0.49930003 5.642,1.69750003 8.0175,3.49490003 2.3755,1.7973 4.2561,4.0939 5.6419,6.6901004 1.3857,2.696 1.9796,5.5918 1.9796,8.5874 z"
     fill="black"
     stroke="black"
     id="path6"
     style="fill:#f9f9f9;fill-opacity:1;stroke:#f9f9f9;stroke-opacity:1" />
</svg>
