<svg width="34" height="32" viewBox="0 0 34 32" fill="none" xmlns="http://www.w3.org/2000/svg">
<mask id="path-1-inside-1_4630_31865" fill="white">
<path d="M23.1385 14.9765L7.74015 28.8513C6.39737 30.0612 4.32799 29.9535 3.11807 28.6107V28.6107C1.90815 27.2679 2.01586 25.1985 3.35864 23.9886L18.757 10.1138L23.1385 14.9765Z"/>
</mask>
<path d="M23.1385 14.9765L7.74015 28.8513C6.39737 30.0612 4.32799 29.9535 3.11807 28.6107V28.6107C1.90815 27.2679 2.01586 25.1985 3.35864 23.9886L18.757 10.1138L23.1385 14.9765Z" fill="#FCFBFE"/>
<path d="M23.1385 14.9765L36.5265 29.8346L51.3846 16.4467L37.9967 1.58857L23.1385 14.9765ZM18.757 10.1138L33.6151 -3.27408L20.2272 -18.1322L5.36911 -4.74426L18.757 10.1138ZM9.75062 0.118397L-5.64778 13.9932L21.1281 43.7094L36.5265 29.8346L9.75062 0.118397ZM16.7466 38.8467L32.145 24.972L5.36911 -4.74426L-10.0293 9.13051L16.7466 38.8467ZM3.89894 23.5018L8.28045 28.3644L37.9967 1.58857L33.6151 -3.27408L3.89894 23.5018ZM17.9762 15.2228C24.1602 22.0859 23.6097 32.6627 16.7466 38.8467L-10.0293 9.13051C-19.578 17.7344 -20.3439 32.4499 -11.74 41.9986L17.9762 15.2228ZM-5.64778 13.9932C1.21533 7.80914 11.7921 8.35964 17.9762 15.2228L-11.74 41.9986C-3.13616 51.5473 11.5794 52.3132 21.1281 43.7094L-5.64778 13.9932Z" fill="#F9F9F9" mask="url(#path-1-inside-1_4630_31865)"/>
<mask id="path-3-inside-2_4630_31865" fill="white">
<path d="M23.1385 14.9765L7.74015 28.8513C6.39737 30.0612 4.32799 29.9535 3.11807 28.6107V28.6107C1.90815 27.2679 2.01586 25.1985 3.35864 23.9886L18.757 10.1138L23.1385 14.9765Z"/>
</mask>
<path d="M23.1385 14.9765L7.74015 28.8513C6.39737 30.0612 4.32799 29.9535 3.11807 28.6107V28.6107C1.90815 27.2679 2.01586 25.1985 3.35864 23.9886L18.757 10.1138L23.1385 14.9765Z" fill="#FCFBFE"/>
<path d="M23.1385 14.9765L36.5265 29.8346L51.3846 16.4467L37.9967 1.58857L23.1385 14.9765ZM18.757 10.1138L33.6151 -3.27408L20.2272 -18.1322L5.36911 -4.74426L18.757 10.1138ZM9.75062 0.118397L-5.64778 13.9932L21.1281 43.7094L36.5265 29.8346L9.75062 0.118397ZM16.7466 38.8467L32.145 24.972L5.36911 -4.74426L-10.0293 9.13051L16.7466 38.8467ZM3.89894 23.5018L8.28045 28.3644L37.9967 1.58857L33.6151 -3.27408L3.89894 23.5018ZM17.9762 15.2228C24.1602 22.0859 23.6097 32.6627 16.7466 38.8467L-10.0293 9.13051C-19.578 17.7344 -20.3439 32.4499 -11.74 41.9986L17.9762 15.2228ZM-5.64778 13.9932C1.21533 7.80914 11.7921 8.35964 17.9762 15.2228L-11.74 41.9986C-3.13616 51.5473 11.5794 52.3132 21.1281 43.7094L-5.64778 13.9932Z" fill="#F9F9F9" mask="url(#path-3-inside-2_4630_31865)"/>
<mask id="path-5-inside-3_4630_31865" fill="white">
<path fill-rule="evenodd" clip-rule="evenodd" d="M24.4667 16.4476L24.9535 16.9879C25.4912 17.5847 25.4434 18.5045 24.8466 19.0422C24.2498 19.5799 23.3301 19.5321 22.7923 18.9353L15.003 10.2906C14.4652 9.69377 14.5131 8.77404 15.1099 8.2363C15.7067 7.69856 16.6264 7.74643 17.1642 8.34322L17.651 8.88352L21.0008 5.86515C23.0896 3.98305 26.3086 4.1506 28.1907 6.23937C30.0728 8.32815 29.9053 11.5472 27.8165 13.4293L24.4667 16.4476Z"/>
</mask>
<path fill-rule="evenodd" clip-rule="evenodd" d="M24.4667 16.4476L24.9535 16.9879C25.4912 17.5847 25.4434 18.5045 24.8466 19.0422C24.2498 19.5799 23.3301 19.5321 22.7923 18.9353L15.003 10.2906C14.4652 9.69377 14.5131 8.77404 15.1099 8.2363C15.7067 7.69856 16.6264 7.74643 17.1642 8.34322L17.651 8.88352L21.0008 5.86515C23.0896 3.98305 26.3086 4.1506 28.1907 6.23937C30.0728 8.32815 29.9053 11.5472 27.8165 13.4293L24.4667 16.4476Z" fill="#001100"/>
<path d="M24.4667 16.4476L23.7973 15.7047L23.0544 16.3741L23.7238 17.117L24.4667 16.4476ZM17.651 8.88352L16.9081 9.55291L17.5775 10.2958L18.3204 9.62642L17.651 8.88352ZM21.0008 5.86515L20.3314 5.12224L20.3314 5.12224L21.0008 5.86515ZM27.8165 13.4293L28.4859 14.1722L28.4859 14.1722L27.8165 13.4293ZM23.7238 17.117L24.2106 17.6573L25.6964 16.3185L25.2096 15.7782L23.7238 17.117ZM24.2106 17.6573C24.3786 17.8438 24.3637 18.1312 24.1772 18.2993L25.516 19.7851C26.5231 18.8777 26.6039 17.3256 25.6964 16.3185L24.2106 17.6573ZM24.1772 18.2993C23.9907 18.4673 23.7033 18.4524 23.5352 18.2659L22.0494 19.6047C22.9569 20.6118 24.5089 20.6925 25.516 19.7851L24.1772 18.2993ZM23.5352 18.2659L15.7459 9.62116L14.2601 10.96L22.0494 19.6047L23.5352 18.2659ZM15.7459 9.62116C15.5778 9.43466 15.5928 9.14725 15.7793 8.97921L14.4405 7.4934C13.4334 8.40084 13.3526 9.95287 14.2601 10.96L15.7459 9.62116ZM15.7793 8.97921C15.9658 8.81116 16.2532 8.82612 16.4213 9.01262L17.9071 7.67383C16.9996 6.66674 15.4476 6.58596 14.4405 7.4934L15.7793 8.97921ZM16.4213 9.01262L16.9081 9.55291L18.3939 8.21412L17.9071 7.67383L16.4213 9.01262ZM18.3204 9.62642L21.6702 6.60805L20.3314 5.12224L16.9816 8.14061L18.3204 9.62642ZM21.6702 6.60805C23.3487 5.09565 25.9354 5.23029 27.4478 6.90877L28.9336 5.56998C26.6818 3.0709 22.8305 2.87045 20.3314 5.12224L21.6702 6.60805ZM27.4478 6.90877C28.9602 8.58725 28.8256 11.174 27.1471 12.6864L28.4859 14.1722C30.985 11.9204 31.1854 8.06905 28.9336 5.56998L27.4478 6.90877ZM27.1471 12.6864L23.7973 15.7047L25.1361 17.1905L28.4859 14.1722L27.1471 12.6864Z" fill="#F9F9F9" mask="url(#path-5-inside-3_4630_31865)"/>
<mask id="path-7-inside-4_4630_31865" fill="white">
<path fill-rule="evenodd" clip-rule="evenodd" d="M24.4667 16.4476L24.9535 16.9879C25.4912 17.5847 25.4434 18.5045 24.8466 19.0422C24.2498 19.5799 23.3301 19.5321 22.7923 18.9353L15.003 10.2906C14.4652 9.69377 14.5131 8.77404 15.1099 8.2363C15.7067 7.69856 16.6264 7.74643 17.1642 8.34322L17.651 8.88352L21.0008 5.86515C23.0896 3.98305 26.3086 4.1506 28.1907 6.23937C30.0728 8.32815 29.9053 11.5472 27.8165 13.4293L24.4667 16.4476Z"/>
</mask>
<path fill-rule="evenodd" clip-rule="evenodd" d="M24.4667 16.4476L24.9535 16.9879C25.4912 17.5847 25.4434 18.5045 24.8466 19.0422C24.2498 19.5799 23.3301 19.5321 22.7923 18.9353L15.003 10.2906C14.4652 9.69377 14.5131 8.77404 15.1099 8.2363C15.7067 7.69856 16.6264 7.74643 17.1642 8.34322L17.651 8.88352L21.0008 5.86515C23.0896 3.98305 26.3086 4.1506 28.1907 6.23937C30.0728 8.32815 29.9053 11.5472 27.8165 13.4293L24.4667 16.4476Z" fill="#F9F9F9"/>
<path d="M24.4667 16.4476L23.7973 15.7047L23.0544 16.3741L23.7238 17.117L24.4667 16.4476ZM17.651 8.88352L16.9081 9.55291L17.5775 10.2958L18.3204 9.62642L17.651 8.88352ZM21.0008 5.86515L20.3314 5.12224L20.3314 5.12224L21.0008 5.86515ZM27.8165 13.4293L28.4859 14.1722L28.4859 14.1722L27.8165 13.4293ZM23.7238 17.117L24.2106 17.6573L25.6964 16.3185L25.2096 15.7782L23.7238 17.117ZM24.2106 17.6573C24.3786 17.8438 24.3637 18.1312 24.1772 18.2993L25.516 19.7851C26.5231 18.8777 26.6039 17.3256 25.6964 16.3185L24.2106 17.6573ZM24.1772 18.2993C23.9907 18.4673 23.7033 18.4524 23.5352 18.2659L22.0494 19.6047C22.9569 20.6118 24.5089 20.6925 25.516 19.7851L24.1772 18.2993ZM23.5352 18.2659L15.7459 9.62116L14.2601 10.96L22.0494 19.6047L23.5352 18.2659ZM15.7459 9.62116C15.5778 9.43466 15.5928 9.14725 15.7793 8.97921L14.4405 7.4934C13.4334 8.40084 13.3526 9.95287 14.2601 10.96L15.7459 9.62116ZM15.7793 8.97921C15.9658 8.81116 16.2532 8.82612 16.4213 9.01262L17.9071 7.67383C16.9996 6.66674 15.4476 6.58596 14.4405 7.4934L15.7793 8.97921ZM16.4213 9.01262L16.9081 9.55291L18.3939 8.21412L17.9071 7.67383L16.4213 9.01262ZM18.3204 9.62642L21.6702 6.60805L20.3314 5.12224L16.9816 8.14061L18.3204 9.62642ZM21.6702 6.60805C23.3487 5.09565 25.9354 5.23029 27.4478 6.90877L28.9336 5.56998C26.6818 3.0709 22.8305 2.87045 20.3314 5.12224L21.6702 6.60805ZM27.4478 6.90877C28.9602 8.58725 28.8256 11.174 27.1471 12.6864L28.4859 14.1722C30.985 11.9204 31.1854 8.06905 28.9336 5.56998L27.4478 6.90877ZM27.1471 12.6864L23.7973 15.7047L25.1361 17.1905L28.4859 14.1722L27.1471 12.6864Z" fill="#F9F9F9" mask="url(#path-7-inside-4_4630_31865)"/>
<path fill-rule="evenodd" clip-rule="evenodd" d="M16.7022 20.7164L7.63634 28.5431C6.38325 29.6249 4.55195 29.436 3.54601 28.1213C2.54006 26.8065 2.74041 24.8637 3.99349 23.7819L8.05414 20.2763L16.7022 20.7164Z" fill="#F9F9F9"/>
<path fill-rule="evenodd" clip-rule="evenodd" d="M16.7022 20.7164L7.63634 28.5431C6.38325 29.6249 4.55195 29.436 3.54601 28.1213C2.54006 26.8065 2.74041 24.8637 3.99349 23.7819L8.05414 20.2763L16.7022 20.7164Z" fill="#F9F9F9"/>
</svg>
