<?xml version="1.0" encoding="UTF-8"?><svg id="Calque_1" xmlns="http://www.w3.org/2000/svg" xmlns:xlink="http://www.w3.org/1999/xlink" viewBox="0 0 291 231.11"><defs><style>.cls-1{fill:none;}.cls-2{clip-path:url(#clippath);}.cls-3{fill:#f488b4;}.cls-4{fill:#ffea28;}</style><clipPath id="clippath"><rect class="cls-1" width="291" height="231.11"/></clipPath></defs><g class="cls-2"><g><rect class="cls-3" x="-50.78" y="-46.87" width="406.88" height="337.87"/><g><path class="cls-4" d="M297.23,124.76c26.19,17.91,16.9,58.77-14.56,63.47l-15,2.23c-18.02,2.8-31.01,18.92-29.66,37.17l1.12,15.11c2.35,31.68-35.38,49.82-58.66,28.32l-11.2-10.29c-13.43-12.43-34.14-12.43-47.57,0l-11.2,10.29c-23.28,21.61-61.01,3.48-58.66-28.32l1.12-15.11c1.34-18.25-11.53-34.37-29.66-37.17l-15-2.23c-31.46-4.82-40.75-45.56-14.56-63.47l12.54-8.62c15.11-10.3,19.7-30.45,10.52-46.34l-7.61-13.21C-6.56,29.06,19.51-3.63,49.85,5.66l14.55,4.48c17.46,5.37,36.16-3.58,42.87-20.6l5.6-14.1c11.76-29.44,53.62-29.44,65.26,0l5.59,14.1c6.72,17.02,25.42,25.97,42.88,20.6l14.55-4.48c30.34-9.29,56.42,23.4,40.64,50.93l-7.62,13.21c-9.06,15.89-4.47,36.04,10.53,46.34l12.54,8.62Zm-34.99,52.85c26.77-4,34.67-38.77,12.38-54.01l-10.67-7.34c-12.77-8.76-16.67-25.91-8.96-39.44l6.48-11.24c13.43-23.44-8.77-51.25-34.58-43.34l-12.39,3.81c-14.86,4.58-30.77-3.05-36.48-17.53l-4.77-12c-9.91-25.06-45.54-25.06-55.54,0l-4.77,12c-5.72,14.48-21.63,22.1-36.49,17.53l-12.38-3.81c-25.82-7.91-48.01,19.91-34.58,43.34l6.48,11.24c7.81,13.53,3.91,30.68-8.95,39.44l-10.67,7.34c-22.29,15.24-14.39,49.92,12.38,54.01l12.77,1.91c15.44,2.38,26.39,16.1,25.25,31.63l-.95,12.86c-2.01,27.06,30.1,42.49,49.91,24.11l9.53-8.77c11.43-10.57,29.05-10.57,40.49,0l9.52,8.77c19.82,18.29,51.92,2.86,49.92-24.11l-.95-12.86c-1.15-15.53,9.91-29.24,25.25-31.63l12.77-1.91Z"/><path class="cls-4" d="M274.63,123.6c22.29,15.24,14.39,50.01-12.38,54.01l-12.77,1.91c-15.34,2.38-26.39,16.1-25.25,31.63l.95,12.86c2,26.96-30.1,42.39-49.92,24.11l-9.52-8.77c-11.43-10.57-29.05-10.57-40.49,0l-9.53,8.77c-19.81,18.38-51.92,2.95-49.91-24.11l.95-12.86c1.14-15.53-9.81-29.24-25.25-31.63l-12.77-1.91c-26.77-4.09-34.67-38.77-12.38-54.01l10.67-7.34c12.86-8.76,16.76-25.91,8.95-39.44l-6.48-11.24c-13.43-23.44,8.76-51.25,34.58-43.34l12.38,3.81c14.86,4.58,30.77-3.05,36.49-17.53l4.77-12c10-25.06,45.63-25.06,55.54,0l4.77,12c5.72,14.48,21.63,22.1,36.48,17.53l12.39-3.81c25.81-7.91,48.01,19.91,34.58,43.34l-6.48,11.24c-7.71,13.53-3.81,30.68,8.96,39.44l10.67,7.34Zm-32.82,43.4c22.08-3.31,28.61-31.99,10.21-44.57l-8.8-6.05c-10.53-7.23-13.75-21.38-7.39-32.54l5.34-9.28c11.09-19.33-7.23-42.28-28.53-35.76l-10.21,3.14c-12.26,3.78-25.39-2.51-30.1-14.46l-3.93-9.9c-8.17-20.67-37.56-20.67-45.82,0l-3.93,9.9c-4.72,11.95-17.84,18.23-30.1,14.46l-10.21-3.14c-21.3-6.52-39.61,16.43-28.53,35.76l5.34,9.28c6.44,11.16,3.22,25.3-7.39,32.54l-8.8,6.05c-18.39,12.58-11.87,41.18,10.22,44.57l10.53,1.57c12.73,1.97,21.77,13.28,20.83,26.09l-.79,10.61c-1.65,22.32,24.84,35.05,41.18,19.88l7.86-7.23c9.43-8.72,23.97-8.72,33.4,0l7.86,7.23c16.35,15.09,42.83,2.36,41.18-19.88l-.79-10.61c-.94-12.81,8.18-24.13,20.83-26.09l10.53-1.57Z"/><path class="cls-3" d="M252.03,122.42c18.39,12.58,11.87,41.26-10.21,44.57l-10.53,1.57c-12.65,1.97-21.77,13.28-20.83,26.09l.79,10.61c1.65,22.24-24.84,34.97-41.18,19.88l-7.86-7.23c-9.43-8.72-23.97-8.72-33.4,0l-7.86,7.23c-16.35,15.17-42.84,2.43-41.18-19.88l.79-10.61c.94-12.81-8.1-24.13-20.83-26.09l-10.53-1.57c-22.09-3.39-28.61-31.99-10.22-44.57l8.8-6.05c10.61-7.23,13.83-21.38,7.39-32.54l-5.34-9.28c-11.08-19.33,7.23-42.28,28.53-35.76l10.21,3.14c12.26,3.78,25.38-2.51,30.1-14.46l3.93-9.9c8.25-20.67,37.65-20.67,45.82,0l3.93,9.9c4.71,11.95,17.84,18.23,30.1,14.46l10.21-3.14c21.3-6.52,39.61,16.43,28.53,35.76l-5.34,9.28c-6.36,11.16-3.14,25.3,7.39,32.54l8.8,6.05Zm-30.65,33.94c17.4-2.6,22.54-25.2,8.05-35.11l-6.93-4.77c-8.3-5.7-10.84-16.84-5.82-25.64l4.21-7.3c8.73-15.23-5.7-33.31-22.47-28.18l-8.05,2.48c-9.65,2.97-20-1.99-23.72-11.4l-3.09-7.8c-6.44-16.28-29.6-16.28-36.1,0l-3.1,7.8c-3.71,9.41-14.06,14.37-23.72,11.4l-8.05-2.48c-16.78-5.14-31.21,12.94-22.48,28.18l4.21,7.3c5.08,8.8,2.54,19.94-5.82,25.64l-6.93,4.77c-14.49,9.91-9.35,32.45,8.05,35.11l8.3,1.24c10.03,1.55,17.15,10.47,16.41,20.56l-.62,8.36c-1.3,17.58,19.57,27.62,32.45,15.66l6.19-5.7c7.43-6.87,18.89-6.87,26.32,0l6.19,5.7c12.88,11.89,33.74,1.86,32.45-15.66l-.62-8.36c-.74-10.09,6.44-19.01,16.41-20.56l8.29-1.24Z"/><path class="cls-4" d="M229.43,121.26c14.48,9.91,9.35,32.5-8.05,35.11l-8.29,1.24c-9.97,1.55-17.15,10.47-16.41,20.56l.62,8.36c1.3,17.53-19.57,27.55-32.45,15.66l-6.19-5.7c-7.43-6.87-18.89-6.87-26.32,0l-6.19,5.7c-12.88,11.95-33.75,1.92-32.45-15.66l.62-8.36c.74-10.09-6.37-19.01-16.41-20.56l-8.3-1.24c-17.39-2.66-22.54-25.2-8.05-35.11l6.93-4.77c8.36-5.7,10.9-16.84,5.82-25.64l-4.21-7.3c-8.73-15.23,5.7-33.31,22.48-28.18l8.05,2.48c9.66,2.97,20.01-1.99,23.72-11.4l3.1-7.8c6.5-16.28,29.66-16.28,36.1,0l3.09,7.8c3.72,9.41,14.06,14.37,23.72,11.4l8.05-2.48c16.78-5.14,31.2,12.94,22.47,28.18l-4.21,7.3c-5.02,8.8-2.48,19.94,5.82,25.64l6.93,4.77Zm-28.48,24.48c12.71-1.9,16.47-18.41,5.88-25.65l-5.06-3.49c-6.06-4.16-7.92-12.3-4.25-18.73l3.07-5.34c6.38-11.13-4.16-24.34-16.42-20.58l-5.88,1.81c-7.06,2.17-14.62-1.45-17.33-8.33l-2.27-5.7c-4.7-11.9-21.63-11.9-26.38,0l-2.26,5.7c-2.71,6.87-10.27,10.49-17.33,8.33l-5.89-1.81c-12.26-3.76-22.8,9.45-16.42,20.58l3.07,5.34c3.71,6.43,1.86,14.57-4.25,18.73l-5.07,3.49c-10.59,7.24-6.83,23.71,5.89,25.65l6.06,.9c7.33,1.13,12.53,7.65,11.99,15.03l-.45,6.11c-.95,12.85,14.3,20.18,23.7,11.45l4.52-4.17c5.44-5.02,13.8-5.02,19.23,0l4.52,4.17c9.41,8.68,24.66,1.35,23.71-11.45l-.45-6.11c-.55-7.38,4.71-13.89,11.99-15.03l6.07-.9Z"/><path class="cls-3" d="M206.83,120.09c10.59,7.24,6.84,23.75-5.88,25.65l-6.07,.9c-7.28,1.13-12.53,7.65-11.99,15.03l.45,6.11c.95,12.81-14.3,20.14-23.71,11.45l-4.52-4.17c-5.43-5.02-13.79-5.02-19.23,0l-4.52,4.17c-9.41,8.73-24.65,1.4-23.7-11.45l.45-6.11c.54-7.38-4.66-13.89-11.99-15.03l-6.06-.9c-12.71-1.94-16.47-18.41-5.89-25.65l5.07-3.49c6.11-4.16,7.96-12.3,4.25-18.73l-3.07-5.34c-6.38-11.13,4.16-24.34,16.42-20.58l5.89,1.81c7.06,2.17,14.62-1.45,17.33-8.33l2.26-5.7c4.75-11.9,21.68-11.9,26.38,0l2.27,5.7c2.71,6.87,10.27,10.49,17.33,8.33l5.88-1.81c12.26-3.76,22.8,9.45,16.42,20.58l-3.07,5.34c-3.67,6.43-1.81,14.57,4.25,18.73l5.06,3.49Zm-26.31,15.03c8.03-1.2,10.4-11.63,3.72-16.2l-3.2-2.2c-3.83-2.63-5-7.77-2.68-11.83l1.94-3.37c4.03-7.02-2.63-15.37-10.37-13l-3.72,1.15c-4.45,1.37-9.22-.92-10.94-5.26l-1.43-3.6c-2.98-7.51-13.66-7.51-16.66,0l-1.43,3.6c-1.71,4.34-6.48,6.63-10.94,5.26l-3.71-1.15c-7.75-2.37-14.4,5.98-10.37,13l1.94,3.37c2.34,4.06,1.17,9.2-2.68,11.83l-3.2,2.2c-6.69,4.57-4.32,14.97,3.72,16.2l3.83,.57c4.63,.71,7.91,4.82,7.57,9.49l-.29,3.85c-.6,8.12,9.03,12.75,14.97,7.23l2.86-2.63c3.42-3.17,8.71-3.17,12.14,0l2.86,2.63c5.94,5.49,15.57,.85,14.97-7.23l-.29-3.85c-.35-4.66,2.97-8.78,7.57-9.49l3.83-.57Z"/><path class="cls-4" d="M184.23,118.92c6.69,4.57,4.32,15-3.72,16.2l-3.83,.57c-4.6,.71-7.92,4.82-7.57,9.49l.29,3.85c.6,8.09-9.03,12.72-14.97,7.23l-2.86-2.63c-3.43-3.17-8.72-3.17-12.14,0l-2.86,2.63c-5.94,5.51-15.57,.89-14.97-7.23l.29-3.85c.34-4.66-2.94-8.78-7.57-9.49l-3.83-.57c-8.03-1.23-10.4-11.63-3.72-16.2l3.2-2.2c3.85-2.63,5.03-7.77,2.68-11.83l-1.94-3.37c-4.03-7.02,2.62-15.37,10.37-13l3.71,1.15c4.46,1.37,9.23-.92,10.94-5.26l1.43-3.6c3-7.51,13.68-7.51,16.66,0l1.43,3.6c1.72,4.34,6.49,6.63,10.94,5.26l3.72-1.15c7.74-2.37,14.4,5.98,10.37,13l-1.94,3.37c-2.32,4.06-1.15,9.2,2.68,11.83l3.2,2.2Z"/></g></g></g></svg>