<svg width="100" height="100" viewBox="0 0 100 100" fill="none" xmlns="http://www.w3.org/2000/svg">
<path d="M81.9998 20.0938H18.5596V83.9998H81.9998V20.0938Z" fill="#010000" stroke="black" stroke-miterlimit="10"/>
<path d="M14 16H75.4577V77.909H14V16Z" fill="white" stroke="black" stroke-miterlimit="10"/>
<path d="M58.5068 33.2744C56.0287 31.6767 54.2444 29.0806 53.7488 26.085C53.6497 25.4858 53.5506 24.7869 53.5506 24.0879H45.7197V55.6415C45.6205 59.1364 42.7459 62.0321 39.1774 62.0321C38.087 62.0321 36.9966 61.7326 36.1045 61.2333C34.0229 60.1349 32.536 57.9382 32.536 55.342C32.536 51.6474 35.5097 48.7516 39.0783 48.7516C39.7721 48.7516 40.3669 48.8515 41.0608 49.0512V40.9631C40.466 40.8633 39.7721 40.8633 39.0783 40.8633C31.1482 40.8633 24.7051 47.3537 24.7051 55.342C24.7051 60.2348 27.1832 64.6283 30.8509 67.2245C33.2299 68.922 36.0054 69.8207 39.0783 69.8207C47.0083 69.8207 53.4514 63.3302 53.4514 55.342V39.3655C56.5243 41.5622 60.2911 42.8603 64.3552 42.8603V34.9719C62.2736 34.9719 60.2911 34.3728 58.5068 33.2744Z" fill="black"/>
</svg>
