<?xml version="1.0" encoding="UTF-8" standalone="no"?>
<svg
   width="39.650101"
   height="45.732803"
   viewBox="0 0 39.650101 45.732803"
   fill="none"
   version="1.1"
   id="svg8"
   sodipodi:docname="tiktok-normal.svg"
   xmlns:inkscape="http://www.inkscape.org/namespaces/inkscape"
   xmlns:sodipodi="http://sodipodi.sourceforge.net/DTD/sodipodi-0.dtd"
   xmlns="http://www.w3.org/2000/svg"
   xmlns:svg="http://www.w3.org/2000/svg">
  <defs
     id="defs12" />
  <sodipodi:namedview
     id="namedview10"
     pagecolor="#ffffff"
     bordercolor="#000000"
     borderopacity="0.25"
     inkscape:showpageshadow="2"
     inkscape:pageopacity="0.0"
     inkscape:pagecheckerboard="0"
     inkscape:deskcolor="#d1d1d1"
     showgrid="false" />
  <path
     d="m 33.801701,9.1864998 c -2.4781,-1.5977 -4.2624,-4.1938 -4.758,-7.1894 -0.0991,-0.5992 -0.1982,-1.29809996 -0.1982,-1.99709996174316 h -7.8309 V 31.5536 c -0.0992,3.4949 -2.9738,6.3906 -6.5423,6.3906 -1.0904,0 -2.1808,-0.2995 -3.0729,-0.7988 -2.0816001,-1.0984 -3.5685001,-3.2951 -3.5685001,-5.8913 0,-3.6946 2.9737001,-6.5904 6.5423001,-6.5904 0.6938,0 1.2886,0.0999 1.9825,0.2996 v -8.0881 c -0.5948,-0.0998 -1.2887,-0.0998 -1.9825,-0.0998 C 6.4431009,16.7754 8.9416504e-7,23.2658 8.9416504e-7,31.2541 8.9416504e-7,36.1469 2.4781009,40.5404 6.1458009,43.1366 c 2.379,1.6975 5.1545001,2.5962 8.2274001,2.5962 7.93,0 14.3731,-6.4905 14.3731,-14.4787 V 15.2776 c 3.0729,2.1967 6.8397,3.4948 10.9038,3.4948 V 10.884 c -2.0816,0 -4.0641,-0.5991 -5.8484,-1.6975002 z"
     fill="black"
     id="path6"
     style="fill:#f9f9f9;fill-opacity:1" />
</svg>
